<?xml version="1.0" encoding="UTF-8" standalone="no"?>
<!DOCTYPE svg PUBLIC "-//W3C//DTD SVG 1.1//EN" "http://www.w3.org/Graphics/SVG/1.1/DTD/svg11.dtd">
<svg width="100%" height="100%" viewBox="0 0 1280 8103" version="1.1" xmlns="http://www.w3.org/2000/svg" xmlns:xlink="http://www.w3.org/1999/xlink" xml:space="preserve" xmlns:serif="http://www.serif.com/" style="fill-rule:evenodd;clip-rule:evenodd;stroke-linejoin:round;stroke-miterlimit:2;">
    <g id="Bottom">
    </g>
    <g id="Middle">
    </g>
    <g id="Line" transform="matrix(1,0,0,10.1282,0,0)">
        <rect x="0" y="0" width="1280" height="800" style="fill:none;"/>
        <g id="Overview-vector-art" serif:id="Overview vector art">
        </g>
        <g transform="matrix(1,0,0,0.0987341,-3065.23,-1.92564)">
            <path d="M4053.48,731.598C4048.84,731.329 4045.29,727.343 4045.56,722.702C4045.83,718.061 4049.82,714.512 4054.46,714.781C4193.29,722.547 4267.21,808.659 4285.81,912.872C4303.98,1014.64 4268.74,1134.04 4188.85,1214.4C4127.62,1275.97 4050.84,1322.06 3964.24,1359.75C3790.72,1435.27 3577.49,1477 3372.62,1544.52C3232.36,1590.69 3131.75,1695.97 3108.89,1817.43C3087.97,1928.62 3132.8,2052.69 3270.62,2156.7C3368.84,2230.88 3514.56,2273.72 3658.45,2323.1C3802.11,2372.41 3943.89,2428.2 4037.54,2525.03C4115.83,2605.96 4161.19,2715.31 4146.53,2873.28C4135.48,2991.86 4059.68,3109.73 3946.28,3226.77C3821.44,3355.62 3651.07,3483.95 3474.38,3612.53C3356.37,3698.38 3273.12,3786.75 3219.72,3884.77C3161.68,3991.28 3138.99,4109.12 3144.68,4247.11C3150.81,4396.6 3219.48,4491.01 3318.78,4556.23C3455.14,4645.8 3648.02,4681.26 3818.21,4727.27C3951.01,4763.17 4070.14,4805.72 4140.4,4882.74C4242.26,4994.4 4223.34,5128.67 4141.34,5274.51C4011.75,5504.97 3723.64,5765.36 3532.2,6009.08C3445.14,6119.9 3384.86,6230.79 3354.72,6342.4C3321.53,6465.35 3325,6589.11 3369.45,6714.42C3391.19,6775.72 3428.13,6825.66 3474.49,6868.97C3561.72,6950.46 3681.99,7008.61 3798.72,7073.47C3914.74,7137.93 4027.25,7208.97 4101.97,7314.52C4190.3,7439.29 4208.9,7569.1 4168.94,7694.05C4133.68,7804.27 4052.56,7910.83 3932.76,8006.57C3929.13,8009.48 3923.83,8008.89 3920.92,8005.26C3918.02,8001.63 3918.61,7996.33 3922.24,7993.43C4038.85,7899.93 4118.13,7796.23 4152.33,7688.75C4190.47,7568.87 4172.15,7444.46 4087.27,7324.94C4013.95,7221.71 3903.39,7152.68 3789.69,7089.73C3671.46,7024.27 3549.82,6965.33 3461.41,6882.99C3412.71,6837.63 3374,6785.21 3351.1,6720.95C3305.06,6591.74 3301.31,6464.07 3335.37,6337.19C3365.98,6223.14 3427.22,6109.68 3515.97,5996.36C3706.41,5753.24 3993.42,5493.6 4122.24,5263.79C4198.66,5127.46 4219.12,5002.03 4123.85,4897.85C4055.96,4823.62 3940.44,4783.82 3812.26,4749.34C3639.64,4702.9 3444.25,4666.55 3305.87,4575.91C3200.41,4506.83 3127.39,4406.74 3120.69,4248.11C3114.67,4105.31 3138.35,3983.41 3198.31,3873.12C3253.16,3772.21 3338.48,3680.98 3459.82,3592.53C3635.18,3464.74 3804.33,3337.3 3928.22,3209.28C4036.89,3096.99 4110.77,2984.64 4121.32,2870.94C4135.18,2722.09 4093.14,2618.85 4019.42,2542.54C3928.37,2448.29 3790.08,2394.71 3650.38,2346.58C3503.95,2296.13 3355.91,2251.66 3256.03,2175.99C3109.32,2064.77 3063.4,1931.6 3086,1813.1C3110.56,1684.28 3216.75,1571.99 3365.69,1523.39C3570.18,1456.73 3782.94,1415.89 3956.2,1341.17C4040.51,1304.8 4115.42,1260.4 4175.15,1200.74C4250.97,1125.05 4284.74,1012.31 4267.95,916.024C4251.05,819.175 4182.39,739.332 4053.48,731.598Z" style="fill:rgb(139,217,220);"/>
        </g>
    </g>
    <g id="Step-1c" serif:id="Step 1c">
    </g>
    <g id="Step-1a-thumbnail" serif:id="Step 1a thumbnail">
    </g>
    <g id="Step-2-thumbnail" serif:id="Step 2 thumbnail">
    </g>
    <g id="Global-girl-globe" serif:id="Global girl globe">
    </g>
    <g id="Step-2-thumbnail1" serif:id="Step 2 thumbnail">
    </g>
    <g id="Global-girl-globe1" serif:id="Global girl globe">
    </g>
    <g id="Step-2-thumbnail2" serif:id="Step 2 thumbnail">
    </g>
    <g id="Previous-illustrations" serif:id="Previous illustrations">
    </g>
</svg>
