<?xml version="1.0" encoding="UTF-8" standalone="no"?>
<!DOCTYPE svg PUBLIC "-//W3C//DTD SVG 1.1//EN" "http://www.w3.org/Graphics/SVG/1.1/DTD/svg11.dtd">
<svg width="100%" height="100%" viewBox="0 0 1125 1125" version="1.1" xmlns="http://www.w3.org/2000/svg" xmlns:xlink="http://www.w3.org/1999/xlink" xml:space="preserve" xmlns:serif="http://www.serif.com/" style="fill-rule:evenodd;clip-rule:evenodd;stroke-linecap:round;stroke-miterlimit:75;">
    <g transform="matrix(4.16667,0,0,4.16667,-14503,-4329.17)">
        <g id="Bottom">
        </g>
        <g id="Middle">
        </g>
        <g id="Gender-roles" serif:id="Gender roles" transform="matrix(0.584449,0,0,0.521733,1455.94,496.733)">
            <rect x="3464.42" y="1039.36" width="461.973" height="517.506" style="fill:none;"/>
            <clipPath id="_clip1">
                <rect x="3464.42" y="1039.36" width="461.973" height="517.506"/>
            </clipPath>
            <g clip-path="url(#_clip1)">
                <g transform="matrix(-0.994872,-1.36482e-16,1.2443e-16,-1.13819,3910.51,9827.76)">
                    <path d="M416.982,7591.02L416.981,7591.03C416.945,7591.13 416.908,7591.23 416.871,7591.34C413.076,7601.9 407.732,7611.61 400.842,7619.78C398.185,7622.93 395.221,7625.87 391.972,7628.57C384.438,7637.27 375.935,7645.55 366.805,7653.05C357.322,7660.85 347.169,7667.81 336.789,7673.61C332.061,7677.55 327.103,7681.34 321.908,7685C310.046,7693.36 297.162,7700.73 283.645,7706.55C269.061,7712.82 253.745,7717.28 238.126,7719.41C212.737,7722.87 188.193,7719.69 164.991,7711.8C144.697,7704.89 125.45,7694.29 107.844,7681.77C64.725,7651.12 34.254,7600.85 20.927,7545.57C7.979,7491.86 11.356,7434.04 31.537,7387.41C38.563,7371.18 48.428,7356.85 60.24,7344.11C74.583,7328.64 91.945,7315.61 109.381,7304.07C123.542,7294.7 138.532,7286.38 154.375,7280.65C167.034,7276.07 180.229,7273.08 194.005,7272.18C227.739,7269.98 271.841,7274.55 309.878,7288.16C341.533,7299.49 368.927,7317.22 386.97,7340.03C408.578,7367.35 420.992,7395.73 427.58,7425.69C433.47,7452.47 434.493,7480.64 432.976,7510.71C432.312,7523.86 431.524,7537.81 429.229,7551.3C427.204,7563.2 424.055,7574.77 419.434,7585.61C418.664,7587.41 417.847,7589.22 416.982,7591.02Z" style="fill:rgb(188,235,237);"/>
                </g>
                <g id="Gender-roles1" serif:id="Gender roles" transform="matrix(1.24446,0,0,0.901793,2971.34,926.225)">
                    <g transform="matrix(0.513423,-0.132455,0.0808858,0.749249,-124.284,-3914.6)">
                        <path d="M496.561,5611.01C496.561,5611.01 528.311,5633.26 536.299,5665.22C545.673,5702.72 530.413,5723.08 525.095,5736.34C523.388,5740.6 516.088,5751.05 512.952,5754.54C506.427,5761.78 490.009,5767.91 484.29,5756.53C481.209,5750.4 481.119,5742.98 481.956,5736.35C482.988,5728.16 485.297,5719.95 486.951,5711.86C490.759,5693.24 496.561,5611.01 496.561,5611.01Z" style="fill:rgb(52,33,31);"/>
                    </g>
                    <g transform="matrix(0.899413,0,0,1.39038,-3626.26,-1362.56)">
                        <path d="M4630.18,1255.97C4632.61,1254.76 4643.44,1251.06 4647.02,1248.53C4650.84,1245.84 4652.09,1238.33 4652.39,1233.81C4652.92,1225.98 4650.87,1219.56 4647.59,1212.25C4645.05,1206.61 4638.18,1199.53 4641.43,1192.85C4643.23,1189.14 4647.99,1186.94 4651.93,1188.64C4653.92,1189.5 4655.15,1191.83 4657.26,1190.76C4663.56,1187.57 4667.17,1180.91 4672.93,1176.94C4677.16,1174.01 4682.16,1173.08 4687.18,1172.55C4694.32,1171.8 4701.49,1171.93 4705.57,1178.68C4709.28,1184.82 4708.56,1191.7 4707.42,1198.41C4705.37,1210.45 4700.65,1221.63 4693.6,1232.01C4690.89,1236.01 4689.59,1238.29 4686.45,1239.43C4684.78,1240.04 4682.78,1240.62 4681.01,1240.59C4678.01,1240.54 4676.49,1240.14 4676.26,1240.38C4675.61,1241.08 4675.55,1242.97 4675.62,1243.86C4676.08,1250.05 4688.69,1250.56 4692.67,1252.01C4694.51,1252.67 4704.25,1261.64 4705.49,1263.1" style="fill:rgb(113,72,52);"/>
                    </g>
                    <g id="Eyes" transform="matrix(0.92408,0.0618963,-0.0400397,1.42851,-125.718,-449.907)">
                        <g transform="matrix(1.02107,-0.179243,0.155509,0.885868,-1039.99,-5225.83)">
                            <path d="M770.236,6614.25C769.936,6614.44 769.561,6614.31 769.399,6613.96C769.236,6613.62 769.347,6613.19 769.647,6613C770.689,6612.22 771.88,6611.62 773.167,6611.26C773.977,6611.03 774.822,6610.92 775.665,6610.86C779.504,6610.63 783.316,6611.71 784.856,6612.46C785.174,6612.6 785.333,6613.01 785.211,6613.38C785.089,6613.74 784.731,6613.93 784.413,6613.79C783.141,6613.28 780.284,6612.78 777.23,6612.88C776.515,6612.9 775.791,6612.97 775.071,6613.06C774.596,6613.11 774.122,6613.18 773.655,6613.26C773.062,6613.36 772.481,6613.48 771.916,6613.64C771.332,6613.81 770.768,6613.99 770.236,6614.25Z" style="fill:rgb(52,33,31);"/>
                        </g>
                        <g transform="matrix(0.98849,-0.156115,0.140308,0.888402,-916.557,-5256.72)">
                            <path d="M795.824,6613.68C795.489,6613.81 795.126,6613.61 795.014,6613.23C794.902,6612.86 795.082,6612.46 795.417,6612.33C796.358,6611.87 797.234,6611.49 798.107,6611.22C798.49,6611.1 798.87,6611.01 799.249,6610.94C799.838,6610.84 800.424,6610.79 801.008,6610.79C803.528,6610.79 806.047,6611.56 809.32,6613.03C809.652,6613.16 809.825,6613.57 809.706,6613.94C809.586,6614.31 809.22,6614.5 808.888,6614.37C806.337,6613.47 804.283,6613 802.342,6612.91C801.688,6612.88 801.048,6612.9 800.403,6612.95C799.976,6612.98 799.549,6613.03 799.112,6613.09C798.582,6613.15 798.043,6613.23 797.481,6613.34C796.947,6613.44 796.4,6613.54 795.824,6613.68Z" style="fill:rgb(52,33,31);"/>
                        </g>
                        <g transform="matrix(-0.767772,0.0793232,-0.0702408,-0.679863,1845.5,4930.79)">
                            <path d="M777.298,6613.34C776.229,6613.37 775.271,6613.63 774.537,6614.54C772.859,6616.63 774.525,6620.23 777.285,6620.15C778.197,6620.13 778.988,6619.32 779.496,6618.65C781.177,6616.45 780.353,6613.54 777.298,6613.34Z" style="fill:rgb(52,33,31);"/>
                        </g>
                        <g transform="matrix(1.22303,-1.7897e-17,0,1.21816,-173.094,-7563.28)">
                            <path d="M799.769,6612.86C797.59,6614.8 799.761,6617.47 802.185,6616.07C803.808,6615.13 802.425,6611.61 799.769,6612.86Z" style="fill:rgb(52,33,31);"/>
                        </g>
                    </g>
                    <g id="Nose" transform="matrix(-0.964739,0.0825558,0.0534039,1.49137,997.98,-9634.5)">
                        <path d="M790.328,6626.94C790.291,6626.69 790.057,6626.51 789.805,6626.55C789.553,6626.59 789.378,6626.82 789.415,6627.07C789.505,6628.09 789.522,6629.17 789.482,6630.42C789.468,6630.85 789.449,6631.29 789.425,6631.76C789.393,6632.38 789.358,6633.05 789.289,6633.76C789.199,6634.89 789.187,6636.06 789.667,6636.95C790.007,6637.58 790.567,6638.1 791.511,6638.38C791.945,6638.51 792.358,6638.51 792.757,6638.43C793.433,6638.29 794.068,6637.9 794.687,6637.54C795.189,6637.25 795.672,6636.96 796.198,6637.06C796.447,6637.12 796.693,6636.96 796.747,6636.71C796.801,6636.46 796.643,6636.22 796.395,6636.16C795.987,6636.06 795.584,6636.1 795.182,6636.22C794.576,6636.4 793.97,6636.79 793.344,6637.07C792.873,6637.29 792.39,6637.44 791.869,6637.26C791.31,6637.07 790.974,6636.76 790.785,6636.37C790.443,6635.67 790.546,6634.77 790.649,6633.9C790.701,6633.41 790.747,6632.95 790.771,6632.51C790.812,6631.76 790.817,6631.06 790.786,6630.41C790.724,6629.1 790.54,6627.99 790.328,6626.94Z" style="fill:rgb(52,33,31);"/>
                    </g>
                    <g id="Mouth" transform="matrix(0.988607,0.160013,-0.10351,1.52826,-144.862,-575.341)">
                        <g transform="matrix(0.899413,0,-1.31848e-17,0.899413,82.0205,-5458.65)">
                            <path d="M782.32,6645.81C783.103,6645.57 784.618,6646.2 785.664,6645.36C786.403,6644.76 787.844,6644.24 788.829,6644C790.011,6643.71 790.833,6643.47 791.927,6643.65C792.912,6643.82 794.302,6643.64 795.344,6643.97C796.134,6644.21 797.45,6644.95 797.991,6645.53C798.07,6645.62 798.059,6646.26 798.058,6646.36C798.055,6646.55 797.511,6646.97 797.372,6647.09C796.627,6647.71 795.653,6648.68 794.787,6649.13C794.008,6649.53 793.141,6649.75 792.274,6649.85C791.541,6649.93 790.789,6649.92 790.054,6649.88C787.621,6649.76 783.663,6648.17 782.32,6645.81Z" style="fill:rgb(104,50,41);"/>
                        </g>
                        <g transform="matrix(0.899413,0,-1.31848e-17,0.899413,82.0205,-5458.65)">
                            <path d="M782.396,6645.85C783.634,6645.72 784.882,6645.84 785.955,6645.2C786.732,6644.74 788.306,6644.06 789.216,6643.89C790.256,6643.69 791.099,6644.06 792.057,6644.08C793.285,6644.11 794.183,6643.47 795.444,6644.01C796.704,6644.54 797.395,6645.1 799.21,6644.44" style="fill:none;stroke:rgb(70,45,42);stroke-width:0.91px;"/>
                        </g>
                        <g transform="matrix(0.899413,0,-1.31848e-17,0.899413,82.0205,-5458.65)">
                            <path d="M782.218,6646.22C783.165,6646.99 785.01,6648.44 786.156,6648.91C787.3,6649.38 788.408,6649.88 789.635,6649.92C791.433,6649.96 793.203,6649.88 794.867,6649.11C796.19,6648.5 798.034,6646.02 799.02,6644.97" style="fill:none;stroke:rgb(70,45,42);stroke-width:0.91px;"/>
                        </g>
                        <g transform="matrix(0.899413,0,-1.31848e-17,0.899413,82.0205,-5458.65)">
                            <path d="M782.32,6645.81C784.961,6646.25 788.989,6647.05 791.645,6646.87C794.886,6646.66 795.599,6646.26 798.622,6645.06" style="fill:none;stroke:rgb(70,45,42);stroke-width:0.91px;"/>
                        </g>
                    </g>
                    <g transform="matrix(0.858405,3.85908e-17,-2.38255e-17,1.39038,-3437.9,-1362.56)">
                        <path d="M4644.82,1249.99C4630.09,1252.21 4614.81,1258.31 4607.21,1272.11C4604.05,1277.84 4603.71,1284.46 4602.49,1290.76C4601.88,1293.89 4600.44,1296.85 4599.59,1299.93C4598.55,1303.76 4597.95,1307.73 4597.23,1311.63C4596.88,1313.52 4596.58,1315.4 4596.26,1317.29C4595.4,1322.43 4594.41,1327.58 4593.65,1332.74C4593.53,1333.6 4592.69,1336.83 4593.27,1337.57C4595.37,1340.24 4598.43,1340.06 4602.58,1340.74C4609.5,1341.87 4617.6,1342.9 4622.65,1341.77C4624.66,1341.31 4624.91,1342.56 4625.22,1340.73C4625.31,1340.18 4625.78,1338.19 4626.01,1337.68C4626.34,1336.97 4630.12,1333.51 4631.26,1348.66C4631.23,1355.41 4632.26,1361.89 4631.16,1368.91C4630.77,1371.44 4630,1373.86 4629.49,1376.36C4629.36,1377 4628.88,1378.37 4629.07,1379.02C4629.3,1379.83 4632.87,1380.83 4633.58,1381.05C4639.06,1382.81 4641.93,1382.76 4647.67,1383.49C4663.99,1385.58 4681.18,1387.12 4697.49,1383.87C4703.2,1382.73 4710.7,1381.84 4714.69,1377.16C4717.08,1374.37 4715.25,1370.11 4714.32,1367.05C4712.77,1361.98 4710.94,1357.13 4710.01,1351.88C4709.43,1348.62 4709.28,1345.27 4711.5,1342.52C4713.88,1339.56 4717.93,1337.8 4721.19,1336.26C4729.04,1332.55 4739.62,1329.27 4745,1322.18C4749.6,1316.12 4741.05,1308.72 4737.48,1304.28C4734.47,1300.52 4732.67,1296.12 4730.42,1291.91C4728.16,1287.7 4725.55,1283.68 4723.69,1279.27C4721.33,1273.69 4721.46,1267.62 4717.02,1262.87C4712.81,1258.34 4705.87,1255.52 4700.38,1253.01C4697.17,1251.54 4693.77,1250.39 4690.11,1250.7C4689.14,1250.79 4687.59,1252.29 4686.72,1252.74C4684.05,1254.12 4681.27,1255.39 4678.4,1256.29C4666.51,1260 4654.8,1258.53 4645.06,1250.69" style="fill:rgb(247,147,31);"/>
                    </g>
                    <g transform="matrix(0.858405,0,0,1.39038,-3437.9,-1362.56)">
                        <path d="M4630.76,1372.39C4623.52,1386.89 4618.65,1402 4616.66,1418.12C4616.16,1422.21 4612.61,1555.79 4612.46,1559.91C4612.45,1560.17 4612.23,1563.57 4612.39,1563.61C4617.83,1564.97 4624.28,1564.15 4629.84,1564.09C4640.43,1563.97 4651.38,1563.48 4661.96,1564.6C4676.39,1566.11 4690.67,1568.68 4705.17,1569.4C4707.91,1569.54 4716.32,1571.25 4718.32,1569.24C4730.58,1556.95 4725.64,1403.75 4720.56,1390.34C4718.58,1385.13 4715.68,1375.82 4710.03,1374.11C4684.67,1366.48 4656.33,1379.05 4630.76,1372.39Z" style="fill:rgb(117,52,153);"/>
                    </g>
                    <g transform="matrix(0.835371,-0.305344,0.206958,1.35307,-3591.24,135.484)">
                        <path d="M4738.31,1269.83C4739.84,1267.39 4740.9,1264.69 4742.57,1262.34C4745.04,1258.87 4748.01,1255.95 4749.27,1251.77C4750.2,1248.67 4749.78,1245.05 4749.13,1241.94C4748.41,1238.52 4745.41,1235.19 4742.6,1232.9C4731.11,1223.55 4720.68,1224.94 4711.7,1234.97C4708.65,1238.38 4707.61,1241.78 4707.9,1248.11C4707.94,1249.12 4708.53,1250 4708.64,1251.16C4708.69,1251.79 4706.28,1253.29 4707.82,1256.26C4708.33,1257.24 4711.31,1257.74 4711.47,1261.18C4711.77,1267.34 4716.46,1266.98 4724.45,1269.04" style="fill:rgb(113,72,52);"/>
                    </g>
                    <g transform="matrix(0.738042,-0.269768,0.183903,1.20234,-3098.93,153.954)">
                        <path d="M4727.44,1249.71C4727.28,1249.88 4727,1249.9 4726.82,1249.75C4726.64,1249.6 4726.62,1249.34 4726.78,1249.16C4727.28,1248.35 4727.9,1247.6 4728.63,1247.03C4729.26,1246.55 4729.97,1246.28 4730.68,1246.18C4731.89,1246.03 4733.11,1246.5 4734.2,1247.84C4734.41,1248.13 4734.58,1248.42 4734.71,1248.73C4734.83,1249.03 4734.92,1249.35 4734.96,1249.72C4735,1250.08 4735.02,1250.45 4734.98,1250.83C4734.94,1251.2 4734.87,1251.57 4734.76,1251.92C4734.54,1252.55 4734.24,1253.11 4733.86,1253.59C4733.15,1254.49 4732.21,1255.17 4731.3,1255.89C4730.5,1256.52 4729.73,1257.16 4729.27,1258.1C4729.19,1258.31 4728.93,1258.42 4728.71,1258.34C4728.48,1258.26 4728.37,1258.02 4728.45,1257.8C4729.05,1255.9 4730.77,1254.75 4731.95,1253.23C4732.35,1252.71 4732.67,1252.14 4732.81,1251.44C4732.85,1251.22 4732.86,1250.98 4732.86,1250.74C4732.86,1250.5 4732.82,1250.27 4732.77,1250.04C4732.74,1249.87 4732.67,1249.72 4732.6,1249.57C4732.53,1249.42 4732.43,1249.29 4732.31,1249.15C4732.08,1248.86 4731.84,1248.66 4731.59,1248.51C4731.19,1248.28 4730.79,1248.23 4730.36,1248.31C4729.89,1248.41 4729.4,1248.57 4728.93,1248.82C4728.41,1249.09 4727.91,1249.36 4727.44,1249.71Z" style="fill:rgb(93,59,43);"/>
                    </g>
                    <g transform="matrix(0.858405,3.85908e-17,-2.38255e-17,1.39038,-3437.9,-1362.56)">
                        <path d="M4700.16,1282.69C4699.87,1281.05 4699.67,1279.21 4698.87,1277.71C4698.25,1276.54 4697.7,1275.12 4696.74,1274.16C4695.31,1272.74 4691.17,1272.32 4690.46,1274.73C4689.36,1278.47 4691.01,1282.1 4693.26,1284.95" style="fill:rgb(93,59,43);"/>
                    </g>
                    <g transform="matrix(0.858405,3.85908e-17,-2.38255e-17,1.39038,-3437.9,-1362.56)">
                        <path d="M4740,1269.29C4733.66,1272.4 4731.45,1270.81 4726.09,1272.24C4722.84,1273.1 4719.71,1273.69 4716.93,1275.7C4714.6,1277.39 4712.9,1280.29 4711.51,1282.7C4709.63,1285.95 4707.78,1289.29 4706.48,1292.83C4705.59,1295.26 4705.03,1297.82 4704.71,1300.39C4703.87,1307.24 4703.01,1313.98 4703.44,1320.88C4703.58,1323.08 4703.53,1326.3 4704.99,1328.13C4706.67,1330.24 4709.75,1331.24 4712.12,1332.36C4719.92,1336.08 4733.84,1340.56 4741.18,1334.29C4746.21,1329.99 4746.41,1322.62 4747.07,1316.39C4747.77,1309.65 4747.7,1301.84 4747.2,1295.05C4746.78,1289.42 4745.79,1283.94 4745.1,1278.35C4744.69,1274.96 4742.97,1267.83 4740,1269.29Z" style="fill:rgb(250,202,206);"/>
                    </g>
                    <g transform="matrix(0.858405,3.85908e-17,-2.38255e-17,1.39038,-3437.9,-1362.56)">
                        <path d="M4692.1,1288.56C4694.25,1293.86 4697.67,1298.43 4700.21,1303.54C4701.23,1305.59 4702.7,1308.4 4705.08,1309.11C4709.61,1310.46 4713.07,1306.67 4716.1,1304C4721.78,1298.98 4729.05,1295.65 4731.36,1287.89C4731.82,1286.38 4732.26,1284.64 4732,1283.05C4731.24,1278.51 4725.61,1277.1 4721.82,1278.3C4715.65,1280.26 4713.28,1287.73 4706.91,1289.62C4705.41,1290.06 4704.16,1288.81 4703.32,1287.73C4701.33,1285.19 4700.45,1280.67 4696.38,1282.53C4695.56,1282.9 4694.78,1283.33 4694.08,1283.9C4693.22,1284.6 4692.47,1285.42 4691.9,1286.38" style="fill:rgb(245,167,174);"/>
                    </g>
                    <g transform="matrix(0.858405,3.85908e-17,-2.38255e-17,1.39038,-3437.9,-1362.56)">
                        <path d="M4742.63,1328.3C4741.13,1321.55 4730.71,1317.53 4724.29,1318.92C4718.79,1320.11 4713.75,1322.92 4708.49,1324.85C4701.53,1327.4 4694.31,1331.09 4693.6,1339.41C4693.48,1340.8 4693.59,1342.3 4693.94,1343.64C4694.73,1346.75 4696.31,1349.33 4697.79,1352.11C4700.54,1357.31 4702.43,1361.87 4708.08,1364.85C4710.8,1366.29 4715.61,1368.03 4718.48,1365.91C4721.29,1363.84 4720.01,1359.7 4719.52,1356.82C4718.66,1351.83 4718.44,1346.92 4723,1343.44C4727.75,1339.81 4736.11,1339.84 4740,1335.18C4741.96,1332.82 4743.08,1330.33 4742.63,1328.3Z" style="fill:rgb(245,167,174);"/>
                    </g>
                    <g transform="matrix(0.858405,3.85908e-17,-2.38255e-17,1.39038,-3437.41,-1363.17)">
                        <path d="M4621.08,1342.15C4609.2,1343.35 4593.87,1339.17 4593.87,1339.17C4592.11,1350.29 4593.03,1352.36 4593.38,1357.35C4593.86,1364.24 4595.91,1368.8 4602.84,1372.19C4607.46,1374.46 4612.78,1375.51 4617.78,1375.49C4626.94,1375.46 4633.86,1375.61 4642.99,1376.43C4655.29,1377.55 4667.37,1377.73 4679.6,1379.53C4685.53,1380.41 4694.02,1382.74 4700.07,1382.69C4709.53,1382.62 4720.1,1376.7 4722.76,1367.6C4723.27,1365.84 4718.6,1365.51 4717.61,1365.67C4712.01,1366.62 4711.74,1368.07 4706.01,1369.18C4704.17,1369.54 4694.99,1369.54 4695.77,1369.12C4698.02,1367.9 4696.5,1368.24 4698.98,1367.61C4701.34,1367.01 4704.91,1366.31 4707.12,1365.27C4707.92,1364.9 4710.52,1363.07 4709.26,1362.38C4706.98,1361.13 4700.51,1362.5 4698.08,1362.8C4691.95,1363.56 4688.09,1363.23 4681.95,1362.82C4676.61,1362.47 4673.68,1363.38 4668.64,1361.82C4660.1,1359.19 4649.16,1356.5 4640.78,1353.39C4634.92,1351.22 4623.3,1345.51 4623.36,1344.65C4623.46,1343.29 4623.45,1342.52 4623.48,1342.13C4623.49,1342.07 4622.53,1342.01 4621.08,1342.15Z" style="fill:rgb(113,72,52);"/>
                    </g>
                    <g transform="matrix(0.858405,3.85908e-17,-2.38255e-17,1.39038,-3437.9,-1362.56)">
                        <path d="M4746.39,1321.95C4746.44,1322.07 4746.5,1322.21 4746.57,1322.34C4751.09,1331.12 4755.6,1337.74 4757.53,1340.68C4759.07,1343.03 4759.75,1348.52 4758.23,1351.4C4754.88,1357.72 4749.21,1356.99 4735.09,1356.76C4729.08,1356.67 4718.39,1352.61 4716.26,1352.89C4711.94,1353.44 4703.45,1355.42 4699.1,1354.48C4695.83,1353.77 4693.74,1352.38 4690.78,1350.08C4687.76,1347.73 4687.59,1346.22 4686.25,1342.38C4685.77,1341.03 4685.46,1339.6 4685.26,1338.18C4685.13,1337.29 4685.02,1336.4 4684.94,1335.51C4684.88,1334.83 4684.47,1333.16 4684.91,1332.47C4685.67,1331.26 4688.77,1332.7 4689.64,1333.23C4692.73,1335.12 4694.78,1338.02 4698.37,1339.15C4699.47,1339.5 4701.07,1340.13 4702.19,1339.49C4703.46,1338.77 4702,1337.48 4701.17,1336.8C4699.69,1335.58 4697.82,1335.08 4696.32,1333.88C4696.07,1333.68 4695.05,1333.02 4694.98,1332.64C4694.95,1332.51 4696.01,1332.1 4696.11,1332.07C4697.58,1331.57 4699.11,1331.55 4700.63,1331.78C4706.1,1332.61 4710.78,1336.26 4716.31,1337.21C4721.22,1338.06 4738.05,1335.89 4739.05,1335.53C4740.24,1335.1 4744.49,1327.07 4746.39,1321.95Z" style="fill:rgb(113,72,52);"/>
                    </g>
                    <g id="Hair" transform="matrix(0.289831,-0.074772,0.0456606,0.422957,193.109,-2103.6)">
                        <path d="M336.944,5863.11C304.115,5840.25 273.544,5788.57 267.537,5752.51C256.767,5687.85 299.493,5646.22 307.656,5637.97C309.342,5636.27 280.08,5621.71 278.66,5603.35C276.687,5577.84 286.801,5561.54 311.926,5551.04C328.073,5544.29 342.112,5556.77 353.134,5572.35C356.49,5577.09 359.38,5586.08 360.388,5591.86C360.488,5592.43 360.817,5598.13 361.244,5598.31C361.594,5598.45 361.543,5597.58 361.692,5597.22C362.612,5594.99 384.839,5578.87 420.72,5576.78C468.016,5574.03 494.074,5591.78 526.605,5647.18C539.487,5669.11 532.963,5676.62 532.372,5690.25C530.957,5722.92 487.173,5717.29 464.496,5711.97C442.582,5706.83 421.662,5713.77 405.361,5723.73C395.507,5729.74 375.346,5748.26 362.486,5758.1C362.486,5758.1 361.677,5758.63 361.589,5757.15C361.129,5749.45 354.513,5737.75 342.124,5740.43C333.151,5742.37 325.485,5756.06 335.028,5771.92C344.144,5787.07 344.64,5817.4 336.944,5863.11Z" style="fill:rgb(52,33,31);"/>
                    </g>
                </g>
            </g>
        </g>
        <g id="Step-1c" serif:id="Step 1c">
        </g>
        <g id="Step-1a-thumbnail" serif:id="Step 1a thumbnail">
        </g>
        <g id="Step-2-thumbnail" serif:id="Step 2 thumbnail">
        </g>
        <g id="Global-girl-globe" serif:id="Global girl globe">
        </g>
        <g id="Step-2-thumbnail1" serif:id="Step 2 thumbnail">
        </g>
        <g id="Global-girl-globe1" serif:id="Global girl globe">
        </g>
        <g id="Step-2-thumbnail2" serif:id="Step 2 thumbnail">
        </g>
        <g id="Previous-illustrations" serif:id="Previous illustrations">
        </g>
    </g>
</svg>
