<?xml version="1.0" encoding="UTF-8" standalone="no"?>
<!DOCTYPE svg PUBLIC "-//W3C//DTD SVG 1.1//EN" "http://www.w3.org/Graphics/SVG/1.1/DTD/svg11.dtd">
<svg width="100%" height="100%" viewBox="0 0 1125 1125" version="1.1" xmlns="http://www.w3.org/2000/svg" xmlns:xlink="http://www.w3.org/1999/xlink" xml:space="preserve" xmlns:serif="http://www.serif.com/" style="fill-rule:evenodd;clip-rule:evenodd;stroke-linecap:round;stroke-linejoin:round;stroke-miterlimit:1.5;">
    <g transform="matrix(4.16667,0,0,4.16667,-16689,-4329.17)">
        <g id="Bottom">
        </g>
        <g id="Middle">
        </g>
        <g id="Political-unrest" serif:id="Political unrest" transform="matrix(0.584449,0,0,0.521733,1980.59,496.733)">
            <rect x="3464.42" y="1039.36" width="461.973" height="517.506" style="fill:none;"/>
            <g transform="matrix(0.871096,0.538355,-0.490815,0.996582,7175.02,-6282.82)">
                <path d="M416.982,7591.02L416.981,7591.03C416.945,7591.13 416.908,7591.23 416.871,7591.34C413.076,7601.9 407.732,7611.61 400.842,7619.78C398.185,7622.93 395.221,7625.87 391.972,7628.57C384.438,7637.27 375.935,7645.55 366.805,7653.05C357.322,7660.85 347.169,7667.81 336.789,7673.61C332.061,7677.55 327.103,7681.34 321.908,7685C310.046,7693.36 297.162,7700.73 283.645,7706.55C269.061,7712.82 253.745,7717.28 238.126,7719.41C212.737,7722.87 188.193,7719.69 164.991,7711.8C144.697,7704.89 125.45,7694.29 107.844,7681.77C64.725,7651.12 34.254,7600.85 20.927,7545.57C7.979,7491.86 11.356,7434.04 31.537,7387.41C38.563,7371.18 48.428,7356.85 60.24,7344.11C74.583,7328.64 91.945,7315.61 109.381,7304.07C123.542,7294.7 138.532,7286.38 154.375,7280.65C167.034,7276.07 180.229,7273.08 194.005,7272.18C227.739,7269.98 271.841,7274.55 309.878,7288.16C341.533,7299.49 368.927,7317.22 386.97,7340.03C408.578,7367.35 420.992,7395.73 427.58,7425.69C433.47,7452.47 434.493,7480.64 432.976,7510.71C432.312,7523.86 431.524,7537.81 429.229,7551.3C427.204,7563.2 424.055,7574.77 419.434,7585.61C418.664,7587.41 417.847,7589.22 416.982,7591.02Z" style="fill:rgb(188,235,237);"/>
            </g>
            <g transform="matrix(1.00598,0,0,0.72898,2671.37,1017.65)">
                <g id="Girl" transform="matrix(0.559214,0,0,0.864475,524.094,-32.2251)">
                    <g id="Face" transform="matrix(1.22828,0,0,1.1466,430.583,-3986.37)">
                        <path d="M314.875,3913.7C314.875,3913.7 409.597,3885.03 444.328,3929.81C479.06,3974.59 499.524,4040.9 475.521,4077.13C442.572,4126.86 430.118,4136.39 422.087,4144.85C413.01,4154.4 392.52,4168.7 387.41,4172.09C372.574,4181.93 355.3,4193.06 336.589,4188.89C317.878,4184.72 295.083,4164.91 278.252,4140.25C266.186,4122.56 241.434,4084.21 229.563,4071.99C217.692,4059.76 233.632,4016.46 233.632,4016.46C233.632,4016.46 225.176,3935.55 314.875,3913.7Z" style="fill:rgb(104,50,41);"/>
                    </g>
                    <g id="Hair" transform="matrix(1.22828,0,0,1.1466,430.583,-3986.37)">
                        <path d="M295.512,3889.75C309.377,3873.58 319.308,3860.89 338.581,3851.06C356.346,3842.01 394.408,3832.81 414.049,3832.26C446.604,3831.37 491.644,3840.27 512.405,3867.11C523.339,3881.25 523.546,3908.37 525.057,3922.49C525.346,3925.19 527.305,3953.2 524.559,3952.46C514.664,3949.82 507.452,3946.97 507.452,3946.97C507.452,3946.97 515.332,3980.65 515.999,3992.5C517.118,4012.37 516.035,4033.99 514.078,4053.81C512.483,4069.96 503.328,4084.16 500.454,4100.07C497.248,4117.81 502.404,4137.95 496.956,4155.08C492.386,4169.45 479.646,4180.03 473.304,4193.7C470.37,4200.03 470.06,4200.57 468.836,4207.42C468.67,4208.34 467.025,4214.25 465.241,4218.42C464.72,4219.64 457.969,4209.15 456.423,4204.66C453.026,4194.82 449.102,4180.81 447.452,4170.08C447.377,4169.59 441.553,4192.68 436.335,4195.23C429.408,4198.62 419.567,4199.66 419.533,4199.24C418.618,4187.97 414.469,4175.03 411.749,4166.95C410.578,4163.47 408.533,4161.01 408.298,4157.4C408.207,4156 418.024,4148.49 422.223,4144.16C426.926,4139.32 431.909,4131.34 435.581,4124.68C440.056,4116.57 441.73,4103.62 445.965,4088.8C447.744,4082.57 449.231,4073.27 452.772,4067.82C453.506,4066.69 459.199,4066.03 460.581,4065.62C465.346,4064.23 469.201,4061.66 471.478,4057.09C476.916,4046.18 475.569,4017.82 466.439,4008.6C464.696,4006.84 455.935,4007.24 455.851,4006.43C453.677,3985.39 454.084,3988.03 447.529,3972.89C437.746,3950.29 423.465,3954.62 403.403,3940.89C375.895,3922.07 368.201,3933.93 344.644,3937.13C331.453,3938.92 324.501,3929.62 313.585,3934.46C286.88,3946.32 284.651,3945.49 271.288,3957.85C257.708,3970.41 252.215,3976.64 249.299,3999.95C248.599,4005.54 249.634,4019.76 249.634,4019.76C249.634,4019.76 244.972,4018.89 240.025,4025.38C233.057,4034.51 231.787,4043.01 233.632,4054.54C235.582,4066.74 235.988,4071.19 246.856,4076.27C251.411,4078.4 256.661,4077.31 256.661,4077.31C256.661,4077.31 267.775,4125.68 282.519,4145.57C287.569,4152.39 290.604,4155.06 290.604,4155.06C290.604,4155.06 292.872,4175.67 296.137,4181.3C297.948,4184.43 298.778,4186.25 298.82,4188.64C298.933,4194.94 267.284,4227.34 263.305,4226.54C258.115,4225.51 255.772,4215.89 254.659,4214.47C254.659,4214.47 245.993,4215.15 239.552,4214.6C236.372,4211.18 229.099,4193.21 227.091,4187.6C223.442,4177.4 221.022,4167.72 218.255,4159.27C216.183,4152.95 214.959,4139.88 214.562,4139.8C211.565,4139.13 206.716,4143.42 206.716,4143.42C201.274,4136.98 197.143,4131.05 194.906,4121.85C190.797,4104.96 190.934,4097.24 190.411,4081.69C190.276,4077.69 192.173,4060.54 189.874,4057.3C188.262,4055.02 177.791,4059.69 175.964,4060.36C175.851,4060.4 174.673,4060.91 174.624,4060.85C171.628,4057.09 175.291,4033.63 180.086,4018.57C184.503,4004.7 198.936,3963 204.862,3953.55C224.966,3921.48 251.937,3887.63 295.411,3887.57" style="fill:rgb(35,40,44);"/>
                    </g>
                    <g id="Eyes" transform="matrix(1,0,0,1,30.4968,65.9088)">
                        <g>
                            <g transform="matrix(1.1466,0,0,1.1466,426.962,-4044.39)">
                                <path d="M373.948,4006.49C391.474,4014.48 412.937,4020.68 427.449,4003.72" style="fill:none;stroke:rgb(35,40,44);stroke-width:8px;"/>
                            </g>
                            <g transform="matrix(1.1466,0,0,1.1466,426.962,-4044.39)">
                                <path d="M272.769,4004.81C276.336,4008.44 279.581,4012.47 284.197,4014.81C294.98,4020.28 312.569,4018.05 323.225,4013.15" style="fill:none;stroke:rgb(35,40,44);stroke-width:8px;"/>
                            </g>
                            <g transform="matrix(1.1466,0,0,1.1466,426.962,-4044.39)">
                                <path d="M267.175,3996.41C277.532,3990.45 286.951,3987.58 297.997,3986.58C307.831,3985.69 318.863,3985.41 329.278,3989.73" style="fill:none;stroke:rgb(70,45,42);stroke-width:4px;"/>
                            </g>
                            <g transform="matrix(1.1466,0,0,1.1466,426.962,-4044.39)">
                                <path d="M438.77,3987.37C428.653,3983.39 419.669,3980.87 408.701,3981.04C397.939,3981.2 385.513,3983.65 372.514,3992.13" style="fill:none;stroke:rgb(70,45,42);stroke-width:4px;"/>
                            </g>
                        </g>
                    </g>
                    <g id="Nose" transform="matrix(1,0,0,1,30.4968,65.9088)">
                        <g transform="matrix(1.1466,0,0,1.1466,426.962,-4044.39)">
                            <path d="M345.035,4017.87C347.249,4030.28 344.133,4045.09 338.203,4056.27C335.245,4061.84 330.732,4066.35 328.473,4072.29C327.101,4075.9 326.422,4077.38 326.419,4081.23C326.416,4083.6 328.66,4087.94 333.05,4089.67" style="fill:none;stroke:rgb(35,40,44);stroke-width:4px;"/>
                        </g>
                        <g transform="matrix(1.1466,0,0,1.1466,426.962,-4044.39)">
                            <path d="M377.333,4062.97C377.636,4068.93 380.285,4071.53 382.217,4077.13" style="fill:none;stroke:rgb(35,40,44);stroke-width:3px;"/>
                        </g>
                    </g>
                    <g id="Mouth" transform="matrix(1,0,0,1,30.4968,59.0255)">
                        <g transform="matrix(1.1466,0,0,1.1466,426.962,-4045.4)">
                            <path d="M388.037,4124.65C382.13,4130.08 383.143,4135.26 376.333,4135.05C366.546,4134.74 360.751,4132.71 352.238,4132.92C344.119,4133.12 338.733,4133.05 332.371,4133.87C328.102,4134.42 324.4,4136.75 318.154,4131.14C315.967,4129.18 311.199,4126.66 311.804,4126.11C316.555,4121.78 315.989,4119.36 320.481,4116.75C328.179,4112.28 328.888,4108.81 339.751,4107.52C342.032,4107.25 346.074,4108.46 351.249,4108.5C356.692,4108.54 360.482,4106.04 362.92,4106.3C370.618,4107.13 376.837,4120.78 388.037,4124.65Z" style="fill:rgb(70,45,42);"/>
                        </g>
                        <g transform="matrix(1.1466,0,0,1.1466,426.962,-4045.4)">
                            <path d="M314.875,4120C321.854,4116.49 329.306,4110.07 336.837,4107.94C341.556,4106.6 347.873,4108.87 352.887,4108.45C357.13,4108.09 361.572,4105.11 365.694,4106.83C373.478,4110.07 377.127,4118.44 384.212,4122.3" style="fill:none;stroke:rgb(35,40,44);stroke-width:3px;"/>
                        </g>
                        <g transform="matrix(1.1466,0,0,1.1466,426.962,-4045.4)">
                            <path d="M311.752,4127.02C338.348,4117.4 363.339,4115.53 390.182,4125.41" style="fill:none;stroke:rgb(35,40,44);stroke-width:3px;"/>
                        </g>
                        <g transform="matrix(1.1466,0,0,1.1466,426.962,-4045.4)">
                            <path d="M321.856,4135.37C339.287,4132 359.992,4130.8 377.333,4135.3" style="fill:none;stroke:rgb(35,40,44);stroke-width:3px;"/>
                        </g>
                    </g>
                    <g id="Headband" transform="matrix(1.22828,0,0,1.1466,430.583,-3986.37)">
                        <path d="M249.509,3998.29C249.509,3998.29 250.308,3925.56 319.742,3888.01C374.666,3858.31 416.734,3881.59 434.255,3919.91C451.775,3958.24 456.102,3993.37 455.699,4004.96C455.296,4016.54 449.17,3980.99 446.185,3975.07C443.201,3969.14 415.166,3902.33 376.045,3894.67C336.925,3887 323.099,3897.28 310.921,3902.34C298.742,3907.41 285.539,3928.36 279.654,3936.06C273.768,3943.75 255.258,3981.94 249.509,3998.29Z" style="fill:rgb(14,121,106);"/>
                    </g>
                </g>
                <g id="Protest-sign" serif:id="Protest sign" transform="matrix(0.559214,0,0,0.864475,524.094,-32.2251)">
                    <g transform="matrix(1.1466,0,0,1.1466,451.833,-4008.35)">
                        <path d="M157.08,3825.1C157.08,3825.1 167.685,3818.06 172.837,3823.89C177.989,3829.73 200.958,3849.64 205.726,3855.99C207.204,3857.96 203.299,3860.66 201.445,3862.01C199.514,3863.43 196.24,3865.93 194.138,3864.46C189.733,3861.36 175.018,3843.46 175.018,3843.46C175.018,3843.46 171.241,3846 166.528,3848.01C162.828,3849.59 158.55,3850.85 155.071,3850.31C153.741,3850.1 150.976,3849.69 150.062,3848.49C149.012,3847.1 151.552,3842.46 151.389,3840.64C150.907,3835.24 146.25,3833.13 148.813,3827.37C149.203,3826.49 150.296,3823.83 151.527,3823.9C153.365,3824 155.305,3824.64 157.08,3825.1Z" style="fill:rgb(124,31,20);"/>
                    </g>
                    <g transform="matrix(1.1466,0,0,1.1466,451.833,-4008.35)">
                        <path d="M148.048,3805.95L162.85,3860.12L177.158,3853L160.71,3797.95" style="fill:rgb(177,88,72);"/>
                    </g>
                    <g transform="matrix(1.1466,0,0,1.1466,451.833,-4008.35)">
                        <path d="M206.432,3856.83C198.31,3847.07 188.552,3839.17 179.91,3829.94C176.877,3826.7 171.968,3819.64 167.411,3818.47C163.564,3817.49 156.724,3821.68 156.627,3824.91C156.523,3828.35 157.698,3830.7 158.005,3831.23C160.198,3835.07 160.356,3827.66 169.032,3825.57" style="fill:rgb(124,31,20);"/>
                    </g>
                    <g transform="matrix(1.1466,0,0,1.1466,451.833,-4008.35)">
                        <path d="M103.884,3826.93C117.266,3819.31 132.086,3814.9 145.634,3807.72C151.171,3804.79 156.052,3800.9 161.236,3797.42C166.753,3793.71 172.455,3790.31 177.995,3786.64C182.659,3783.55 187.88,3781.31 193.036,3779.18C194.481,3778.59 195.884,3777.94 197.274,3777.22C197.444,3777.13 198.547,3776.62 198.575,3776.45C199.157,3772.95 197.629,3768.59 196.963,3765.25C195.433,3757.57 193.564,3749.84 192.602,3742.07C191.832,3735.85 187.294,3717.92 187.137,3717.76C186.985,3717.6 176.896,3720.78 174.513,3721.89C164.334,3726.63 162.004,3728.53 152.248,3734.08C136.116,3743.26 117.979,3748.56 101.871,3757.95C97.833,3760.3 93.605,3762.5 89.812,3765.26C88.874,3765.93 87.329,3766.67 86.836,3767.83C85.064,3771.99 86.083,3777.41 86.584,3781.73C86.966,3785.03 87.529,3788.34 88.057,3791.62C88.508,3794.41 89.022,3797.2 89.457,3800C89.778,3802.07 90.126,3804.11 90.56,3806.16C90.937,3807.94 91.35,3809.71 91.781,3811.48C92.148,3812.99 92.59,3814.48 93.069,3815.96C94.229,3819.55 95.424,3823.17 96.959,3826.62C97.244,3827.26 97.937,3829.6 98.965,3829.54C100.272,3829.48 102.738,3826.7 103.898,3825.93" style="fill:rgb(177,88,72);"/>
                    </g>
                    <g transform="matrix(1,0,0,1,25.5899,39.8613)">
                        <g transform="matrix(1.1466,0,0,1.1466,426.243,-4048.21)">
                            <path d="M102.909,3786.72C103.779,3785.2 104.604,3783.65 105.506,3782.15C106.234,3780.94 106.971,3779.74 107.707,3778.53C108.055,3777.96 108.397,3777.39 108.759,3776.83C108.867,3776.66 108.951,3776.18 109.092,3776.33C109.881,3777.12 110.162,3778.65 110.373,3779.66C110.92,3782.3 110.735,3785.05 110.521,3787.71C110.432,3788.82 110.362,3789.93 110.329,3791.04C110.319,3791.36 110.318,3791.68 110.328,3791.99C110.334,3792.21 110.177,3792.74 110.367,3792.64C112.277,3791.62 113.559,3790.03 114.731,3788.26C115.027,3787.82 115.309,3787.36 115.578,3786.9C115.799,3786.52 115.962,3785.41 116.227,3785.76C117.731,3787.74 117.375,3790.44 118.142,3792.66" style="fill:none;stroke:rgb(9,42,30);stroke-width:4px;"/>
                        </g>
                        <g transform="matrix(1.1466,0,0,1.1466,426.243,-4048.21)">
                            <path d="M118.979,3778.4C119.92,3776.29 120.838,3774.18 121.873,3772.11C122.565,3770.72 123.282,3769.36 124.158,3768.08C125.466,3766.17 126.995,3762.66 128.31,3766.43C128.548,3767.11 128.691,3767.85 128.743,3768.56C128.81,3769.5 128.771,3770.42 128.721,3771.35C128.685,3772.01 128.648,3772.67 128.584,3773.33C128.383,3775.43 128.272,3777.09 128.752,3779.15C128.819,3779.44 128.968,3780.85 129.265,3780.99C129.912,3781.28 130.978,3780.99 131.627,3780.74C137.973,3778.26 139.386,3769.22 141.146,3763.56C141.603,3762.09 142.023,3760.6 142.496,3759.14C142.91,3757.85 143.373,3757.36 144.181,3758.44C144.464,3758.83 144.739,3759.46 144.894,3759.86C145.079,3760.33 145.21,3760.88 145.294,3761.38C145.469,3762.4 145.556,3763.4 145.556,3764.43C145.557,3766.56 145.336,3768.73 145.018,3770.83C144.554,3773.9 143.797,3777 143.861,3780.13" style="fill:none;stroke:rgb(9,42,30);stroke-width:4px;"/>
                        </g>
                        <g transform="matrix(1.1466,0,0,1.1466,426.243,-4048.21)">
                            <path d="M159.908,3747.78C158.865,3750.64 157.563,3753.33 156.286,3756.09C155.37,3758.07 154.49,3760.06 153.642,3762.06C152.931,3763.75 152.272,3765.42 151.798,3767.18C151.641,3767.77 151.51,3768.36 151.369,3768.95C151.301,3769.23 150.915,3769.91 151.182,3769.8C156.311,3767.59 159.508,3760.71 162.333,3756.28C163.291,3754.78 164.237,3753.26 165.33,3751.86C165.384,3751.79 166.433,3750.49 166.528,3750.57C170.815,3754.12 168.27,3760.91 166.421,3764.99C165.85,3766.25 165.186,3767.47 164.563,3768.7C164.394,3769.04 164.237,3769.38 164.073,3769.72C163.98,3769.91 163.6,3770.33 163.812,3770.31C168.67,3769.7 172.502,3765.78 174.821,3761.74C175.813,3760.01 176.684,3758.22 177.682,3756.5C177.691,3756.48 178.536,3754.9 178.624,3754.94C179.297,3755.28 179.874,3755.76 180.418,3756.27" style="fill:none;stroke:rgb(9,42,30);stroke-width:4px;"/>
                        </g>
                    </g>
                </g>
                <g id="Explosion" transform="matrix(0.641195,0,0,0.991208,776.765,-3497.34)">
                    <path d="M526.332,3713.74C526.591,3703.83 530.202,3691.36 530.224,3683.49C530.238,3678.62 530.248,3673.75 530.254,3668.88C530.261,3664.38 530.265,3659.88 530.268,3655.38C530.269,3654.15 530.27,3652.92 530.271,3651.68C530.271,3651.28 530.031,3650.13 530.274,3650.46C538.104,3661.03 543.559,3673.98 550.635,3685.12C553.573,3689.75 555.799,3697.16 562.043,3696.69C578.115,3695.47 590.48,3679.56 600.476,3668.89C604.441,3664.65 608.309,3660.31 612.176,3655.99C613.49,3654.52 614.731,3652.98 616.015,3651.49C616.435,3651 617.43,3649.39 617.27,3650.02C612.452,3668.88 600.614,3685.79 591.221,3702.63C589.168,3706.32 587.215,3709.96 585.382,3713.74C584.607,3715.35 582.258,3716.95 583.052,3718.54C585.596,3723.64 591.393,3726 596.479,3727.59C608.662,3731.4 622.305,3731.26 634.922,3730.69C638.819,3730.52 642.818,3730.4 646.718,3730.3C648.352,3730.26 649.986,3730.23 651.62,3730.2C652.356,3730.18 654.4,3729.66 653.829,3730.13C643.262,3738.73 626.086,3743.46 612.953,3746.09C612.023,3746.27 611.09,3746.45 610.154,3746.6C608.887,3746.81 607.611,3746.95 606.345,3747.17C604.718,3747.44 596.404,3747.74 595.307,3750.25C590.138,3762.11 597.565,3777.01 602.732,3787.3C604.343,3790.51 606.15,3793.62 607.957,3796.71C608.683,3797.96 609.408,3799.19 610.11,3800.45C610.331,3800.85 611.196,3801.81 610.771,3801.65C600.198,3797.65 590.812,3789.74 582.25,3782.64C579.265,3780.16 571.908,3772.86 571.361,3773.51C565.412,3780.68 584.651,3815.04 584.417,3814.7C578.69,3806.55 550.049,3773.33 548.279,3769.48C548.236,3769.38 543.226,3773.63 543.158,3773.64C541.054,3774.23 538.105,3778.37 536.638,3780.28C532.169,3786.09 521.631,3813.35 521.479,3811.84C521.336,3810.42 526.206,3781.52 527.567,3772.37C528.351,3767.1 530.526,3754.77 530.784,3753.19C530.852,3752.77 525.646,3756.55 519.525,3763.37C512.654,3771.04 501.024,3787.6 500.994,3786.96C500.275,3771.87 521.144,3741.76 521.144,3741.76C521.144,3741.76 494.884,3698.11 487.077,3686.22C484.804,3682.76 482.64,3679.22 480.531,3675.66C479.932,3674.65 479.347,3673.65 478.765,3672.62C478.38,3671.95 477.166,3669.95 477.614,3670.59C487.615,3684.82 518.1,3707.69 526.332,3713.74Z" style="fill:rgb(124,31,20);"/>
                </g>
                <g id="Flames" transform="matrix(0.559214,0,0,0.864475,524.094,-32.2251)">
                    <g transform="matrix(1.14036,-0.119516,0.119516,1.14036,4.87035,-3930.51)">
                        <path d="M427.861,3791.58C425.514,3742.24 446.273,3734.25 453.253,3722.1C455.506,3718.18 457.569,3714.12 459.219,3709.9C459.694,3708.69 460.147,3707.47 460.535,3706.23C460.794,3705.4 460.568,3703.21 461.272,3703.72C462.384,3704.53 463.319,3707.63 463.899,3708.83C466.346,3713.92 468.109,3719.23 469.697,3724.64C476.533,3747.9 470.819,3777.6 450.741,3793.68" style="fill:rgb(124,31,20);"/>
                    </g>
                    <g transform="matrix(1.1466,0,0,1.1466,450.083,-4007.73)">
                        <path d="M444.95,3793.68L435.913,3793.68C436.155,3787.34 442.072,3775.45 442.072,3775.45C447.256,3768.25 451.304,3760.18 454.367,3751.86C455.174,3749.66 456.045,3742.08 457.864,3740.23C458.347,3739.74 458.214,3741.57 458.367,3742.24C458.674,3743.58 458.895,3744.93 459.064,3746.29C459.54,3750.12 459.48,3754.02 459.152,3757.86C458.129,3769.84 453.407,3784.91 444.95,3793.68Z" style="fill:rgb(237,90,81);"/>
                    </g>
                    <g transform="matrix(1.09711,0.333232,-0.333232,1.09711,1727.94,-3963.36)">
                        <path d="M419.357,3796.99C407.873,3788.7 397.723,3773.72 398.74,3759.09C399.18,3752.76 401.503,3746.67 403.874,3740.86C406.086,3735.44 408.289,3730.08 409.701,3724.38C410.184,3722.43 410.558,3720.46 410.904,3718.48C411.075,3717.5 410.923,3714.64 411.368,3715.53C415.791,3724.39 418.929,3733.87 424.177,3742.38C428.311,3749.08 433.839,3754.77 437.837,3761.59C443.29,3770.89 444.829,3778.82 443.93,3789.53" style="fill:rgb(172,52,16);"/>
                    </g>
                    <g transform="matrix(1.09711,0.333232,-0.333232,1.09711,1726.67,-3965.55)">
                        <path d="M430.866,3795.49C417.63,3783.22 414.522,3769.48 415.928,3751.79C415.98,3751.14 416.761,3752.81 417.176,3753.32C417.946,3754.26 418.695,3755.22 419.44,3756.18C421.586,3758.96 423.506,3761.89 425.497,3764.78C431.89,3774.05 438.377,3781.71 437.553,3793.46" style="fill:rgb(237,90,81);"/>
                    </g>
                </g>
                <g transform="matrix(-0.599869,0.0452374,-0.0292633,-0.927322,1320.7,3633.06)">
                    <path d="M397.814,3787.42C387.626,3780.43 372.504,3770.73 361.38,3761.93C334.828,3740.92 433.182,3602.5 432.518,3632.96C431.87,3662.6 379.415,3678.17 358.733,3684.69C347.434,3688.25 323.973,3691.68 321.896,3707.52C318.736,3731.63 397.369,3740.5 410.714,3728.46C414.343,3725.18 431.456,3711.31 427.984,3703.26C411.054,3664.05 325.159,3719.07 361.918,3752.07C367.477,3757.06 374.161,3761.31 380.929,3764.51C389.435,3768.53 399.866,3769.99 408.545,3765.79C450.164,3745.61 432.507,3678.73 408.834,3653.36C355.101,3595.78 365.207,3756.23 389.857,3723.66C397.494,3713.57 412.768,3688.74 407.541,3675.2C398.541,3651.89 361.136,3673.85 350.103,3684.07C342.53,3691.09 338.739,3699.06 334.511,3708.49C334.462,3708.6 323.41,3730.6 326.226,3734.14C343.329,3755.67 381.299,3743.69 400.113,3730.89C406.811,3726.34 413.313,3721.1 418.873,3715.19C420.646,3713.31 421.482,3708.06 423.801,3709.2C426.926,3710.74 445.273,3728.04 443.866,3730.43C439.387,3738.05 418.994,3735.48 412.165,3734.07C402.52,3732.07 392.361,3729.1 384.332,3723.12C371.2,3713.35 348.213,3677.64 364.056,3660.79C395.006,3627.88 491.98,3665.36 502.188,3702.92C504.736,3712.29 482.766,3723.51 477.397,3726.05C448.637,3739.68 417.236,3731.74 388.954,3745.63C379.576,3750.23 375.076,3752.7 366.618,3757.56C362.248,3760.07 352.774,3760.5 353.723,3765.45C357.27,3783.95 387.296,3786.03 400.798,3782.78C434.519,3774.66 478.226,3732.2 458.728,3694.24C438.285,3654.43 373.679,3679.07 346.505,3695.34C341.347,3698.42 311.233,3723.43 314.047,3729.65C324.528,3752.8 371.004,3745.5 384.666,3725.41C399.21,3704.03 421.958,3678.68 410.215,3651.59C399.45,3626.74 369.267,3727.02 410.02,3721.87C426.393,3719.81 436.947,3708.74 447.197,3696.94C457.069,3685.57 463.396,3672.16 469.305,3658.43C475.999,3642.88 469.968,3755.98 427.841,3764.48C409.939,3768.09 388.396,3773.07 371.278,3763.19C339.36,3744.77 348.751,3692.26 383.138,3681.26" style="fill:none;stroke:rgb(9,42,30);stroke-width:8px;"/>
                </g>
            </g>
        </g>
        <g id="Step-1c" serif:id="Step 1c">
        </g>
        <g id="Step-1a-thumbnail" serif:id="Step 1a thumbnail">
        </g>
        <g id="Step-2-thumbnail" serif:id="Step 2 thumbnail">
        </g>
        <g id="Global-girl-globe" serif:id="Global girl globe">
        </g>
        <g id="Step-2-thumbnail1" serif:id="Step 2 thumbnail">
        </g>
        <g id="Global-girl-globe1" serif:id="Global girl globe">
        </g>
        <g id="Step-2-thumbnail2" serif:id="Step 2 thumbnail">
        </g>
        <g id="Previous-illustrations" serif:id="Previous illustrations">
        </g>
    </g>
</svg>
