<?xml version="1.0" encoding="UTF-8" standalone="no"?>
<!DOCTYPE svg PUBLIC "-//W3C//DTD SVG 1.1//EN" "http://www.w3.org/Graphics/SVG/1.1/DTD/svg11.dtd">
<svg width="100%" height="100%" viewBox="0 0 685 534" version="1.1" xmlns="http://www.w3.org/2000/svg" xmlns:xlink="http://www.w3.org/1999/xlink" xml:space="preserve" xmlns:serif="http://www.serif.com/" style="fill-rule:evenodd;clip-rule:evenodd;stroke-linecap:round;stroke-miterlimit:10;">
    <g transform="matrix(1,0,0,1,-4096.17,-2652.36)">
        <g id="Bottom">
        </g>
        <g id="Middle">
        </g>
        <g id="_3.-Talking-about-community" serif:id="3. Talking about community" transform="matrix(0.534488,0,0,0.666875,4096.17,2652.36)">
            <rect x="0" y="0" width="1280" height="800" style="fill:none;"/>
            <clipPath id="_clip1">
                <rect x="0" y="0" width="1280" height="800"/>
            </clipPath>
            <g clip-path="url(#_clip1)">
                <g id="Community-vector-art" serif:id="Community vector art" transform="matrix(1.87095,0,0,1.49953,-9.09495e-13,-215.554)">
                    <g transform="matrix(0.82914,-0.138372,0.130625,0.782717,-741.206,-3936.29)">
                        <path d="M506.199,5614.61C506.199,5614.61 528.311,5633.26 536.299,5665.22C545.673,5702.72 530.413,5723.08 525.095,5736.34C523.388,5740.6 516.088,5751.05 512.952,5754.54C506.427,5761.78 490.009,5767.91 484.29,5756.53C481.209,5750.4 481.119,5742.98 481.956,5736.35C482.988,5728.16 485.297,5719.95 486.951,5711.86C490.759,5693.24 506.199,5614.61 506.199,5614.61Z" style="fill:rgb(82,40,33);"/>
                    </g>
                    <g id="Face" transform="matrix(0.788878,-0.131653,0.131653,0.788878,-728.161,-3978.93)">
                        <path d="M297.33,5907.66C312.885,5875.98 323.75,5843.5 320.734,5827.44C317.273,5809.02 297.668,5789.35 293.97,5771.08C290.712,5754.98 288.133,5708.15 298.835,5695.6C354.159,5630.75 395.426,5625.45 448.637,5631.62C510.828,5638.84 524.251,5684.87 519.34,5719.76C515.658,5745.92 510.217,5744.46 511.143,5764.05C511.81,5778.15 513.349,5785.64 514.784,5799.24C515.477,5805.82 508.186,5808.13 503.904,5808.74C501.833,5809.04 499.136,5808.64 497.253,5809.87C490.938,5813.99 485.453,5830.3 471.649,5844.99C460.102,5857.28 440.271,5863.61 428.797,5864.67C419.369,5865.54 417.479,5874.58 415.047,5891.82C412.813,5907.66 419.461,5917.9 420.649,5926.16" style="fill:rgb(150,100,80);"/>
                    </g>
                    <g id="Eye" transform="matrix(1.28864,0,0,1.28864,-42.8026,111.769)">
                        <g id="Pupil" transform="matrix(0.060984,-0.968002,0.968002,0.060984,-5239.82,398.671)">
                            <path d="M472.337,5745.02C471.095,5744.85 465.293,5744.39 464.956,5749.53C464.742,5752.81 469.541,5757.67 473.51,5753.33C476.737,5749.81 474.545,5745.32 472.337,5745.02Z" style="fill:rgb(70,45,42);"/>
                        </g>
                        <g id="Eye-curve" serif:id="Eye curve" transform="matrix(0.595626,-0.174436,0.174436,0.595626,-937.677,-3047.7)">
                            <path d="M451.893,5743.5C451.112,5743.75 450.278,5743.31 450.032,5742.53C449.786,5741.75 450.22,5740.92 451.002,5740.67C452.684,5739.98 454.354,5739.42 456.045,5738.99C457.809,5738.55 459.569,5738.26 461.311,5738.1C462.755,5737.97 464.184,5737.94 465.585,5738C467.782,5738.08 469.91,5738.36 471.937,5738.76C481.105,5740.56 488.234,5744.87 490.953,5748.15C491.494,5748.77 491.435,5749.71 490.821,5750.25C490.207,5750.79 489.268,5750.73 488.726,5750.12C486.122,5747.35 479.464,5744.16 471.217,5742.94C469.36,5742.67 467.423,5742.52 465.427,5742.45C464.161,5742.4 462.872,5742.4 461.562,5742.43C459.976,5742.47 458.366,5742.56 456.726,5742.74C455.132,5742.92 453.524,5743.13 451.893,5743.5Z" style="fill:rgb(70,45,42);"/>
                        </g>
                    </g>
                    <g id="Mouth" transform="matrix(-0.495196,-0.0413438,0.0309721,-0.370968,461.941,2705.17)">
                        <path d="M447.226,5726.27C447.226,5726.27 483.947,5745.39 496.128,5761.64C496.128,5761.64 501.359,5767.83 493.997,5763.9C486.634,5759.98 441.021,5749.35 441.021,5749.35C441.021,5749.35 442.871,5741.72 443.877,5737.98C444.912,5734.13 447.226,5726.27 447.226,5726.27Z" style="fill:rgb(70,45,42);"/>
                    </g>
                    <g id="Eyebrow" transform="matrix(0.519474,-0.169507,0.189247,0.579969,-922.56,-2744.71)">
                        <path d="M503.381,5702.65C503.919,5703.25 503.815,5704.13 503.149,5704.61C502.483,5705.09 501.505,5705 500.967,5704.4C499.363,5702.84 497.69,5701.45 496.028,5700.14C494.257,5698.74 492.476,5697.49 490.708,5696.37C489.577,5695.65 488.454,5694.98 487.348,5694.36C484.453,5692.74 481.65,5691.47 479.017,5690.7C476.071,5689.81 472.646,5689.41 469.11,5689.34C463.766,5689.22 458.186,5689.81 453.554,5690.63C452.718,5690.8 451.887,5690.33 451.698,5689.58C451.51,5688.83 452.035,5688.09 452.87,5687.92C457.679,5686.83 463.498,5685.93 469.112,5685.81C473.096,5685.73 476.97,5686.06 480.336,5686.93C483.322,5687.73 486.574,5688.98 489.828,5690.81C491.041,5691.49 492.252,5692.26 493.444,5693.11C495.281,5694.41 497.094,5695.89 498.825,5697.57C500.422,5699.11 501.929,5700.82 503.381,5702.65Z" style="fill:rgb(113,72,52);"/>
                    </g>
                    <g id="Hair" transform="matrix(0.82914,-0.138372,0.130625,0.782717,-743.416,-3939.4)">
                        <path d="M333.041,5838.09C300.026,5816.41 284.658,5772.31 282.135,5738.27C279.973,5709.09 293.847,5667.84 302.495,5653.47C304.415,5650.28 306.057,5649.15 304.286,5649.4C283.033,5652.34 249.425,5641.84 234.333,5620.31C215.97,5594.12 237.731,5540.93 277.414,5532.99C302.918,5527.9 320.548,5549.81 332.958,5575.31C336.737,5583.07 338.777,5596.79 338.833,5605.38C338.838,5606.23 337.912,5614.51 338.499,5614.88C338.98,5615.19 339.12,5613.93 339.431,5613.45C341.34,5610.5 364.131,5574.19 415.379,5573.24C459.788,5572.42 495.074,5589.44 523.932,5637.48C536.483,5658.38 534.103,5669.38 533.662,5682.06C532.606,5712.45 475.547,5717.99 452.856,5712.76C430.928,5707.7 423.422,5702.59 407.261,5711.66C397.491,5717.15 395.783,5728.67 383.055,5737.67C383.055,5737.67 382.254,5738.15 382.15,5736.78C381.607,5729.6 374.875,5718.64 362.539,5720.98C353.605,5722.67 346.103,5735.32 355.801,5750.2C365.065,5764.41 351.938,5815.24 333.041,5838.09Z" style="fill:rgb(82,40,33);"/>
                    </g>
                    <g transform="matrix(0.827218,0,0,0.827218,-0.343801,-4250.81)">
                        <path d="M729.984,5823.47C701.826,5846.74 635.465,5862.36 598.528,5822.19C540.689,5759.3 544.171,5635.42 647.652,5623.86C687.827,5619.38 756.174,5633.41 781.194,5671.19C816.89,5725.09 760.428,5798.3 729.984,5823.47Z" style="fill:rgb(196,235,231);"/>
                    </g>
                    <g transform="matrix(0.799788,0,0,0.799788,28.8033,-4120.86)">
                        <path d="M617.276,5406.57C586.658,5392.75 513.055,5361.94 464.526,5397.03C422.628,5427.33 403.669,5488.5 428.974,5528.57C455.67,5570.84 514.713,5602.5 557.857,5587.49C610.331,5569.25 636.388,5537.06 648.234,5479.98C652.233,5460.71 638.233,5416.04 617.276,5406.57Z" style="fill:rgb(188,235,237);"/>
                    </g>
                    <g transform="matrix(0.657051,0,0,0.657051,64.1883,-3336.6)">
                        <path d="M183.819,5359.87C131.365,5345.27 68.006,5342.92 20.841,5380.98C-51.339,5439.23 -26.793,5572.6 60.674,5599.54C114.2,5616.02 246.136,5586.62 288.319,5549.41C338.71,5504.95 328.965,5428.39 282.092,5386.13C266.138,5371.75 203.531,5368.31 183.819,5359.87Z" style="fill:rgb(196,235,231);"/>
                    </g>
                    <g transform="matrix(0.799788,0,0,0.799788,21.5365,-4090.56)">
                        <path d="M168.908,5655.5C114.747,5628.81 31.029,5685.05 27.15,5758.16C22.929,5837.72 51.223,5868.6 120.21,5879.66C276.39,5904.7 270.376,5716.65 168.908,5655.5Z" style="fill:rgb(188,235,237);"/>
                    </g>
                    <g id="Religion" transform="matrix(1.01142,0,0,1.01142,-42.1055,150.113)">
                        <g id="Islam" transform="matrix(0.739895,0,0,0.739895,95.9655,90.8538)">
                            <g transform="matrix(0.620643,0,0,0.620643,31.7856,-26.0893)">
                                <path d="M95.656,64.562C88.969,83 71.25,95.593 51.437,95.593C25.468,95.593 4.343,74.468 4.343,48.531C4.343,28.812 16.874,11.125 35.124,4.375C27.218,12.344 22.78,23.125 22.78,34.469C22.78,57.969 41.905,77.094 65.405,77.094C76.78,77.094 87.624,72.563 95.655,64.563L95.656,64.562Z" style="fill:rgb(58,174,163);fill-rule:nonzero;"/>
                            </g>
                            <g transform="matrix(0.620643,0,0,0.620643,31.7856,-26.0893)">
                                <path d="M78,32.094L84,45.438L71.281,38.157C71,37.969 70.594,38.032 70.344,38.251L59.5,48.063L62.5,33.782C62.593,33.47 62.437,33.095 62.125,32.907L49.437,25.626L63.968,24.063C64.311,24.032 64.624,23.782 64.686,23.438L67.686,9.126L73.686,22.438C73.811,22.751 74.124,22.938 74.53,22.907L89.061,21.345L78.217,31.157C77.936,31.438 77.842,31.782 77.998,32.095L78,32.094Z" style="fill:rgb(58,174,163);fill-rule:nonzero;"/>
                            </g>
                        </g>
                        <g id="Judaism" transform="matrix(0.855746,0,0,0.855746,156.223,22.7743)">
                            <path d="M49.848,19L40.899,34.5L23.001,34.5L31.95,50L23.001,65.5L40.899,65.5L49.848,81L58.797,65.5L76.692,65.5L67.743,50L76.692,34.5L58.797,34.5L49.848,19ZM49.848,29L53.024,34.5L46.672,34.5L49.848,29ZM61.684,39.5L68.032,39.5L64.86,45L61.684,39.5ZM37.723,50L43.786,39.5L55.911,39.5L61.973,50L55.911,60.5L43.786,60.5L37.723,50ZM31.661,39.5L38.012,39.5L34.836,45L31.661,39.5ZM64.859,55L68.031,60.5L61.684,60.5L64.859,55ZM34.837,55L38.012,60.5L31.661,60.5L34.837,55ZM46.673,65.5L53.024,65.5L49.848,71L46.673,65.5Z" style="fill:rgb(58,174,163);"/>
                        </g>
                        <g id="Buddhism" transform="matrix(0.859662,0,0,0.859662,277.656,78.4106)">
                            <g transform="matrix(0.620643,0,0,0.620643,-52.8201,-16.9636)">
                                <path d="M49.984,54.922L50.031,54.969L50.062,54.922L49.984,54.922Z" style="fill:rgb(58,174,163);fill-rule:nonzero;"/>
                            </g>
                            <g transform="matrix(0.620643,0,0,0.620643,-52.8201,-16.9636)">
                                <path d="M93.203,46.391L89.844,46.407C89.094,38.266 85.656,30.86 80.406,25.016L85.516,19.984C86.25,19.25 85.672,17.484 84.234,16.016C82.781,14.547 81.016,13.953 80.281,14.688L74.922,19.969C68.969,15.484 61.672,12.594 53.703,12.016L53.703,6.781C53.703,5.797 53.281,4.922 52.625,4.281C51.937,3.641 51.015,3.25 50,3.25C47.953,3.25 46.297,4.828 46.297,6.781L46.297,12.156C38.547,12.984 31.469,16.016 25.75,20.562L20.343,15.234C20.125,15.016 19.828,14.922 19.468,14.922C18.609,14.922 17.406,15.531 16.39,16.562C14.937,18.031 14.375,19.812 15.109,20.531L20.39,25.734C15.453,31.5 12.265,38.687 11.578,46.546L6.765,46.562C4.843,46.578 3.25,48.218 3.25,50.249L3.25,50.265C3.25,52.312 4.844,53.968 6.797,53.968L11.672,53.968C12.531,61.421 15.64,68.249 20.344,73.765L16.25,77.812C15.515,78.546 16.078,80.312 17.531,81.781C18.547,82.828 19.75,83.421 20.609,83.421C20.968,83.421 21.265,83.328 21.484,83.109L25.703,78.953C31.437,83.515 38.531,86.562 46.297,87.406L46.297,93.203C46.297,94.187 46.719,95.078 47.375,95.718C48.047,96.359 48.969,96.75 50,96.75C52.047,96.75 53.703,95.171 53.703,93.203L53.703,87.531C61.687,86.953 69.015,84.046 74.953,79.546L79.141,83.656C79.875,84.39 81.641,83.796 83.094,82.328C84.531,80.875 85.109,79.093 84.359,78.359L80.437,74.499C85.531,68.812 88.906,61.671 89.765,53.811L93.234,53.796C95.156,53.796 96.75,52.155 96.75,50.108L96.75,50.093C96.75,48.046 95.156,46.39 93.203,46.39L93.203,46.391ZM53.703,21.641C59,22.157 63.875,23.985 67.984,26.797L53.703,40.891L53.703,21.641ZM46.297,21.813L46.297,40.829L32.641,27.36C36.547,24.5 41.219,22.532 46.297,21.813L46.297,21.813ZM26.906,32.891L40.797,46.5L21.219,46.531C21.828,41.453 23.859,36.797 26.906,32.89L26.906,32.891ZM21.343,53.938L40.499,53.907L27.202,67.016C24.171,63.281 22.109,58.813 21.343,53.938L21.343,53.938ZM46.296,77.735C41.296,77.016 36.703,75.125 32.843,72.344L46.296,59.172L46.296,77.735ZM53.203,53.876C52.484,54.423 51.624,54.798 50.671,54.891C50.468,54.923 50.281,54.923 50.078,54.923L50.062,54.923L50.031,54.97L49.984,54.923C49.765,54.923 49.546,54.907 49.343,54.876C48.468,54.751 47.656,54.407 46.984,53.891C46.718,53.72 46.499,53.532 46.296,53.313C45.562,52.548 45.077,51.595 44.906,50.516C44.89,50.438 44.874,50.36 44.859,50.266C44.843,50.141 44.843,49.985 44.843,49.845C44.828,49.798 44.828,49.735 44.828,49.688C44.828,49.673 44.828,49.641 44.843,49.626C44.843,48.454 45.249,47.36 45.937,46.485C46.046,46.329 46.171,46.188 46.296,46.063C47.078,45.235 48.124,44.673 49.281,44.501C49.5,44.47 49.734,44.438 49.968,44.438L50.093,44.438C50.328,44.438 50.546,44.454 50.781,44.501C51.906,44.641 52.921,45.141 53.703,45.891C53.89,46.079 54.062,46.266 54.218,46.47C54.906,47.36 55.328,48.47 55.328,49.688L55.328,49.751C55.312,49.938 55.312,50.126 55.281,50.345L55.281,50.376C55.265,50.391 55.265,50.423 55.265,50.438C55.093,51.626 54.531,52.688 53.703,53.47C53.546,53.626 53.39,53.751 53.203,53.876L53.203,53.876ZM53.703,77.907L53.703,59.126L67.765,72.907C63.702,75.626 58.905,77.407 53.703,77.907ZM73.608,67.751L59.514,53.876L80.092,53.829C79.296,59.079 76.999,63.86 73.608,67.751L73.608,67.751ZM59.28,46.454L73.889,32.142C77.28,36.157 79.53,41.064 80.202,46.423L59.28,46.454Z" style="fill:rgb(58,174,163);fill-rule:nonzero;"/>
                            </g>
                            <g transform="matrix(0.620643,0,0,0.620643,-52.8201,-16.9636)">
                                <path d="M55.281,50.375C55.265,50.391 55.265,50.422 55.265,50.438L55.25,50.438C55.265,50.422 55.265,50.391 55.281,50.375Z" style="fill:rgb(58,174,163);fill-rule:nonzero;"/>
                            </g>
                            <g transform="matrix(0.620643,0,0,0.620643,-52.8201,-16.9636)">
                                <path d="M50.062,54.922L50.031,54.969L49.984,54.922L50.062,54.922Z" style="fill:rgb(58,174,163);fill-rule:nonzero;"/>
                            </g>
                            <g transform="matrix(0.620643,0,0,0.620643,-52.8201,-16.9636)">
                                <path d="M55.281,50.375C55.265,50.391 55.265,50.422 55.265,50.438L55.25,50.438C55.265,50.422 55.265,50.391 55.281,50.375Z" style="fill:rgb(58,174,163);fill-rule:nonzero;"/>
                            </g>
                            <g transform="matrix(0.620643,0,0,0.620643,-52.8201,-16.9636)">
                                <path d="M50.062,54.922L50.031,54.969L49.984,54.922L50.062,54.922Z" style="fill:rgb(58,174,163);fill-rule:nonzero;"/>
                            </g>
                        </g>
                        <g id="Hinduism" transform="matrix(0.928457,0,0,0.928457,219.213,169.838)">
                            <g transform="matrix(0.620643,0,0,0.620643,-25.0272,-53.0628)">
                                <path d="M22.625,42L16.703,32.16C17.715,30.313 42.183,14.476 50.078,33.641C54.609,46.133 41.922,53.614 41.922,53.614C41.922,53.614 46.324,55.77 48.707,56.036C57.711,57.028 57.438,35.013 73.195,35.013C88.226,35.013 91.297,51.31 91.297,59.529C91.297,74.424 84.824,85.619 73.457,85.619C56.199,85.619 58.871,63.299 60.277,62.748C60.621,62.611 60.758,72.56 70.855,72.56C78.351,72.56 85.988,65.966 85.988,54.427C85.988,50.728 85.578,44.122 79.621,43.025C69.879,41.236 67.433,60.384 58.703,60.384C52.574,60.384 51.476,60.486 51.476,60.486C51.476,60.486 54.461,65.622 54.586,72.611C54.761,82.154 48.722,92.33 36.16,92.502C14.336,92.795 7.187,66.732 8.953,55.303C9.019,54.869 9.355,54.588 9.711,55.42C12.957,63.025 14.714,81.772 34.856,80.072C46.528,79.087 46.954,71.677 46.754,69.353C46.066,61.224 40.242,60.591 36.855,60.701C34.129,60.786 33.164,61.005 33.164,61.005C33.164,61.005 30.734,57.751 29.527,55.341C28.058,52.404 27.324,47.861 27.359,47.861C27.683,47.861 32.39,48.15 35.121,48.314C40.082,48.611 47.176,43.599 43.683,39.013C38.172,31.771 22.624,42.001 22.624,42.001L22.625,42Z" style="fill:rgb(58,174,163);fill-rule:nonzero;"/>
                            </g>
                            <g transform="matrix(0.620643,0,0,0.620643,-25.0272,-53.0628)">
                                <path d="M60.246,7.5C61.156,8.078 68.859,14.879 68.582,15.27C68.375,15.562 61.234,22.973 60.586,22.816C60.199,22.723 57.715,21.238 56.305,19.945C54.484,18.27 52.746,16.176 52.926,15.609C53.019,15.309 60.074,7.391 60.246,7.5Z" style="fill:rgb(58,174,163);fill-rule:nonzero;"/>
                            </g>
                            <g transform="matrix(0.620643,0,0,0.620643,-25.0272,-53.0628)">
                                <path d="M77.586,16.867C78.227,17.058 84.215,24.41 83.617,25.367C82.895,26.527 75.332,33.672 63.355,33.695C48.671,33.722 43.644,18.922 44.714,13.718C44.843,13.101 49.48,24.12 60.558,24.616C69.214,24.999 76.929,16.667 77.585,16.866L77.586,16.867Z" style="fill:rgb(58,174,163);fill-rule:nonzero;"/>
                            </g>
                        </g>
                        <g id="Christianity" transform="matrix(0.466114,0,0,0.466114,135.869,128.712)">
                            <path d="M85.895,28.648L85.895,48.226L60.348,48.226L60.348,96.894L40.211,96.894L40.211,48.226L14.106,48.226L14.106,28.648L40.211,28.648L40.211,3.105L60.348,3.105L60.348,28.648L85.895,28.648Z" style="fill:rgb(58,174,163);fill-rule:nonzero;"/>
                        </g>
                    </g>
                    <g id="Gender" transform="matrix(1.50254,0,0,1.50254,-171.639,207.442)">
                        <g id="Non-binary" transform="matrix(0.416399,0,0,0.416399,436.387,144.606)">
                            <path d="M61.359,28.121C61.839,28.133 62.519,28.32 62.879,28.57C68.957,31.781 74.328,40.011 74.801,46.879C76.531,60.57 66.82,73.078 53.121,74.801L53.121,81.25L59.382,81.25L59.382,87.5L53.121,87.5L53.121,93.75L46.882,93.75L46.878,87.5L40.617,87.5L40.617,81.25L46.878,81.25L46.878,74.801C40.007,74.332 31.776,68.961 28.569,62.879C21.46,51.039 25.288,35.68 37.12,28.57C37.479,28.32 38.159,28.129 38.64,28.121C38.171,28.121 37.479,27.922 37.12,27.68C30.011,23.879 24.589,14.301 24.999,6.25L31.249,6.25C31.249,16.609 39.64,25 49.999,25C60.358,25 68.749,16.609 68.749,6.25L74.999,6.25C75.409,14.3 69.987,23.879 62.878,27.68C62.519,27.922 61.827,28.121 61.359,28.121L61.359,28.121ZM68.75,50C68.75,39.641 60.359,31.25 50,31.25C39.64,31.25 31.25,39.641 31.25,50C31.25,60.359 39.64,68.75 50,68.75C60.359,68.75 68.75,60.359 68.75,50Z" style="fill:rgb(58,174,163);fill-rule:nonzero;"/>
                        </g>
                        <g id="Female" transform="matrix(0.34808,0,0,0.34808,496.304,143.408)">
                            <path d="M79.168,37.5C79.168,52.195 68.301,64.348 54.168,66.371L54.168,75L62.5,75L62.5,83.332L54.168,83.332L54.168,91.668L45.832,91.668L45.832,83.332L37.5,83.332L37.5,75L45.832,75L45.832,66.371C31.699,64.348 20.832,52.195 20.832,37.5C20.832,21.391 33.891,8.332 50,8.332C66.109,8.332 79.168,21.391 79.168,37.5L79.168,37.5ZM50,58.332C61.504,58.332 70.832,49.004 70.832,37.5C70.832,25.992 61.504,16.668 50,16.668C38.492,16.668 29.168,25.992 29.168,37.5C29.168,49.004 38.492,58.332 50,58.332Z" style="fill:rgb(58,174,163);"/>
                        </g>
                        <g id="Transgender" transform="matrix(0.387603,0,0,0.387603,451.972,195.527)">
                            <path d="M85.488,21.941L92.066,21.941L92.066,9.488L92.07,2.418L73.054,2.418L73.034,9.097L81.042,9.097L66.854,23.574C62.225,19.571 56.202,17.137 49.616,17.137C43.261,17.137 37.421,19.395 32.862,23.153L29.261,19.383L32.882,15.742L28.222,11.102L24.714,14.625L19.343,9.012L26.792,8.996L26.776,2.418L14.323,2.446L7.745,2.461L7.761,9.039L7.788,21.492L14.366,21.477L14.347,13.309L20.065,19.293L16.226,23.149L20.89,27.789L24.612,24.051L28.331,27.941L28.355,27.918C25.136,32.293 23.23,37.687 23.23,43.52C23.23,57 33.394,68.141 46.457,69.704L46.457,79.833L34.539,79.833L34.539,86.411L46.461,86.411L46.461,98.333L53.039,98.333L53.039,86.415L64.961,86.415L64.957,79.833L53.039,79.833L53.039,69.669C65.973,67.982 75.992,56.899 75.992,43.517C75.992,37.927 74.238,32.74 71.261,28.47L85.488,14.24L85.488,21.941ZM49.613,62.906C38.922,62.906 30.222,54.207 30.222,43.515C30.222,32.823 38.921,24.124 49.613,24.124C60.304,24.124 69.004,32.823 69.004,43.515C69.004,54.207 60.305,62.906 49.613,62.906Z" style="fill:rgb(58,174,163);fill-rule:nonzero;"/>
                        </g>
                        <g id="Gender-queer" serif:id="Gender queer" transform="matrix(0.620643,0,0,0.620643,81.846,-3405.75)">
                            <path d="M649.461,5738.55C649.79,5738.74 651.443,5739.7 651.443,5739.7L651.443,5737.35C651.443,5736.01 652.525,5734.93 653.859,5734.93C655.192,5734.93 656.274,5736.01 656.274,5737.35C656.274,5737.35 656.274,5739.71 656.274,5739.71L658.311,5738.52L658.315,5738.52C659.472,5737.85 660.945,5738.25 661.614,5739.4C662.283,5740.56 661.885,5742.04 660.73,5742.7L658.693,5743.88L660.727,5745.05L660.73,5745.05C661.887,5745.72 662.283,5747.19 661.614,5748.35C660.947,5749.5 659.478,5749.9 658.322,5749.24L656.274,5748.1L656.274,5754.99C661.844,5755.79 666.677,5759.29 669.162,5764.37C671.75,5769.65 671.427,5775.89 668.316,5780.88C665.205,5785.87 659.739,5788.9 653.859,5788.9C647.978,5788.9 642.512,5785.87 639.401,5780.88C636.29,5775.89 635.968,5769.65 638.555,5764.37C641.041,5759.29 645.874,5755.79 651.443,5754.99L651.443,5748.07L649.404,5749.25C648.247,5749.92 646.773,5749.53 646.103,5748.37C645.434,5747.22 645.83,5745.74 646.987,5745.07L649.031,5743.89L646.99,5742.7C645.832,5742.04 645.434,5740.56 646.103,5739.4C646.772,5738.25 648.245,5737.85 649.402,5738.52C649.422,5738.53 649.442,5738.54 649.461,5738.55ZM653.859,5784.11C657.095,5784.11 660.2,5782.82 662.489,5780.53C664.777,5778.24 666.065,5775.14 666.065,5771.9C666.065,5768.66 664.78,5765.56 662.492,5763.27C660.201,5760.98 657.095,5759.69 653.859,5759.69C650.622,5759.69 647.517,5760.98 645.225,5763.27C642.937,5765.56 641.652,5768.66 641.652,5771.9C641.652,5775.14 642.937,5778.24 645.225,5780.53C647.517,5782.82 650.622,5784.11 653.859,5784.11Z" style="fill:rgb(58,174,163);"/>
                        </g>
                        <g transform="matrix(0.83288,0,0,0.83288,8.04461,-4638)">
                            <path d="M609.532,5795.36L623.522,5795.36L623.522,5809.35L620.026,5809.35C620.026,5809.35 620.026,5801.32 620.026,5801.32L610.59,5810.76L610.83,5811.1C614.158,5815.88 613.704,5822.49 609.444,5826.74C604.665,5831.52 596.912,5831.52 592.133,5826.74C587.354,5821.96 587.354,5814.21 592.133,5809.43C596.39,5805.18 603.001,5804.72 607.773,5808.05L608.116,5808.29L617.552,5798.85L609.532,5798.85L609.532,5795.36ZM606.97,5824.27C610.38,5820.86 610.38,5815.32 606.97,5811.91C603.564,5808.5 598.016,5808.5 594.607,5811.91C591.195,5815.31 591.197,5820.86 594.607,5824.27C598.013,5827.68 603.561,5827.68 606.97,5824.27Z" style="fill:rgb(58,174,163);"/>
                        </g>
                    </g>
                    <g id="School" transform="matrix(1.28864,0,0,1.28864,-67.6548,20.2899)">
                        <g id="Calculatro" transform="matrix(0.292833,0.131614,-0.131614,0.292833,430.969,166.933)">
                            <path d="M27.957,5L72.039,5C75.605,5 78.848,6.559 81.191,9.07C83.535,11.578 84.996,15.047 84.996,18.859L84.996,81.144C84.996,84.957 83.539,88.422 81.191,90.934C78.844,93.441 75.602,95.004 72.039,95.004L27.957,95.004C24.391,95.004 21.148,93.445 18.805,90.934C16.461,88.426 15,84.957 15,81.144L15,18.859C15,15.047 16.457,11.582 18.805,9.07C21.152,6.562 24.395,5 27.957,5ZM25.484,12.652L74.515,12.652C76.715,12.652 78.515,14.453 78.515,16.652L78.515,23.363C78.515,25.562 76.715,27.363 74.515,27.363L25.484,27.363C23.285,27.363 21.484,25.562 21.484,23.363L21.484,16.652C21.484,14.453 23.285,12.652 25.484,12.652ZM67.55,62.593L72.171,62.593C73.586,62.593 74.738,63.749 74.738,65.164L74.738,84.781C74.738,86.195 73.582,87.347 72.171,87.347L67.55,87.347C66.136,87.347 64.984,86.191 64.984,84.781L64.984,65.164C64.984,63.75 66.14,62.593 67.55,62.593ZM67.55,47.597L72.171,47.597C73.586,47.597 74.738,48.753 74.738,50.168L74.738,54.789C74.738,56.203 73.582,57.359 72.171,57.359L67.55,57.359C66.136,57.359 64.984,56.203 64.984,54.789L64.984,50.168C64.984,48.754 66.14,47.597 67.55,47.597ZM67.55,32.601L72.171,32.601C73.586,32.601 74.738,33.757 74.738,35.172L74.738,39.793C74.738,41.207 73.582,42.363 72.171,42.363L67.55,42.363C66.136,42.363 64.984,41.207 64.984,39.793L64.984,35.172C64.984,33.758 66.14,32.601 67.55,32.601ZM27.55,77.589L32.171,77.589C33.586,77.589 34.738,78.745 34.738,80.16L34.738,84.781C34.738,86.195 33.582,87.351 32.171,87.351L27.55,87.351C26.136,87.351 24.984,86.195 24.984,84.781L24.984,80.16C24.984,78.745 26.14,77.589 27.55,77.589ZM27.55,62.593L32.171,62.593C33.586,62.593 34.738,63.749 34.738,65.164L34.738,69.785C34.738,71.199 33.582,72.355 32.171,72.355L27.55,72.355C26.136,72.355 24.984,71.199 24.984,69.785L24.984,65.164C24.984,63.749 26.14,62.593 27.55,62.593ZM27.55,47.597L32.171,47.597C33.586,47.597 34.738,48.753 34.738,50.168L34.738,54.789C34.738,56.203 33.582,57.359 32.171,57.359L27.55,57.359C26.136,57.359 24.984,56.203 24.984,54.789L24.984,50.168C24.984,48.753 26.14,47.597 27.55,47.597ZM27.55,32.601L32.171,32.601C33.586,32.601 34.738,33.757 34.738,35.172L34.738,39.793C34.738,41.207 33.582,42.363 32.171,42.363L27.55,42.363C26.136,42.363 24.984,41.207 24.984,39.793L24.984,35.172C24.984,33.757 26.14,32.601 27.55,32.601ZM47.55,77.589L52.171,77.589C53.586,77.589 54.738,78.745 54.738,80.16L54.738,84.781C54.738,86.195 53.582,87.351 52.171,87.351L47.55,87.351C46.136,87.351 44.984,86.195 44.984,84.781L44.984,80.16C44.984,78.745 46.14,77.589 47.55,77.589ZM47.55,62.593L52.171,62.593C53.586,62.593 54.738,63.749 54.738,65.164L54.738,69.785C54.738,71.199 53.582,72.355 52.171,72.355L47.55,72.355C46.136,72.355 44.984,71.199 44.984,69.785L44.984,65.164C44.984,63.749 46.14,62.593 47.55,62.593ZM47.55,47.597L52.171,47.597C53.586,47.597 54.738,48.753 54.738,50.168L54.738,54.789C54.738,56.203 53.582,57.359 52.171,57.359L47.55,57.359C46.136,57.359 44.984,56.203 44.984,54.789L44.984,50.168C44.984,48.753 46.14,47.597 47.55,47.597ZM47.55,32.601L52.171,32.601C53.586,32.601 54.738,33.757 54.738,35.172L54.738,39.793C54.738,41.207 53.582,42.363 52.171,42.363L47.55,42.363C46.136,42.363 44.984,41.207 44.984,39.793L44.984,35.172C44.984,33.757 46.14,32.601 47.55,32.601Z" style="fill:rgb(69,88,145);"/>
                        </g>
                        <g id="Book" transform="matrix(0.511145,-0.0503214,0.0503214,0.511145,364.841,136.342)">
                            <path d="M97.676,30.656L95.512,29.433C95,29.144 94.469,28.863 93.949,28.593L93.949,25.664C93.949,25.136 93.672,24.648 93.219,24.379C86.715,20.445 79.274,18.332 71.672,18.25C64.07,18.172 56.59,20.129 50,23.922C43.414,20.129 35.93,18.172 28.328,18.25C20.726,18.332 13.285,20.445 6.777,24.375C6.328,24.644 6.05,25.132 6.05,25.66L6.05,28.586C5.523,28.855 5,29.136 4.488,29.425L2.324,30.656C1.855,30.922 1.562,31.422 1.562,31.961L1.562,80.117C1.562,80.937 2.218,81.605 3.035,81.621L9.804,81.75C10.074,81.753 10.339,81.687 10.574,81.554C20.992,75.66 33.219,75.257 42.484,80.5C42.71,80.628 42.964,80.695 43.226,80.695L56.769,80.695L56.765,80.695C57.027,80.695 57.281,80.628 57.507,80.5C66.777,75.257 78.999,75.664 89.417,81.554C89.64,81.683 89.898,81.75 90.156,81.75L90.183,81.75L96.952,81.621L96.956,81.621C97.777,81.609 98.437,80.941 98.437,80.117L98.437,31.961C98.437,31.422 98.144,30.922 97.675,30.656L97.676,30.656ZM48.496,73.41C36.144,66.945 21.41,66.945 9.055,73.41L9.055,26.523C21.266,19.5 36.289,19.5 48.496,26.523L48.496,73.41ZM90.941,73.41L90.945,73.41C78.59,66.945 63.855,66.945 51.504,73.41L51.504,26.523C63.711,19.5 78.734,19.5 90.945,26.523L90.941,73.41ZM88.859,59.683C88.718,60.054 88.433,60.355 88.066,60.515C87.703,60.675 87.289,60.687 86.918,60.542C76.824,56.628 65.633,56.628 55.539,60.542C54.765,60.843 53.894,60.456 53.593,59.683C53.296,58.91 53.679,58.038 54.453,57.742C65.246,53.558 77.211,53.558 88.004,57.742C88.773,58.042 89.152,58.91 88.855,59.679L88.859,59.683ZM88.859,53.058C88.718,53.429 88.433,53.73 88.066,53.89C87.703,54.05 87.289,54.058 86.918,53.913C76.824,50.003 65.633,50.003 55.539,53.913C55.164,54.07 54.746,54.066 54.375,53.906C54.003,53.746 53.714,53.445 53.57,53.066C53.421,52.691 53.433,52.273 53.601,51.906C53.769,51.538 54.074,51.253 54.453,51.113C65.246,46.929 77.211,46.929 88.004,51.113C88.773,51.417 89.152,52.285 88.855,53.054L88.859,53.058ZM88.859,66.312L88.859,66.308C88.718,66.683 88.433,66.98 88.066,67.144C87.703,67.304 87.289,67.312 86.918,67.167C76.824,63.257 65.633,63.257 55.539,67.167C54.769,67.449 53.918,67.062 53.621,66.3C53.328,65.535 53.695,64.675 54.453,64.367C65.246,60.183 77.211,60.183 88.004,64.367C88.773,64.667 89.152,65.539 88.855,66.308L88.859,66.312ZM88,37.863L88.004,37.863C88.754,38.176 89.121,39.031 88.828,39.789C88.531,40.551 87.687,40.937 86.918,40.664C76.824,36.75 65.633,36.75 55.539,40.664C55.164,40.816 54.746,40.812 54.374,40.652C54.003,40.492 53.714,40.191 53.57,39.816C53.421,39.437 53.433,39.019 53.601,38.652C53.769,38.285 54.074,38 54.453,37.863C65.242,33.679 77.207,33.679 87.996,37.859L88,37.863ZM88.859,46.433L88.859,46.429C88.718,46.8 88.433,47.101 88.066,47.261C87.703,47.422 87.289,47.433 86.918,47.289C76.824,43.375 65.633,43.375 55.539,47.289C54.765,47.59 53.894,47.203 53.593,46.429C53.296,45.656 53.679,44.785 54.453,44.488C65.246,40.304 77.211,40.304 88.004,44.488C88.773,44.789 89.152,45.656 88.855,46.429L88.859,46.433ZM85.539,30.363C86.242,30.59 86.675,31.293 86.562,32.024C86.445,32.754 85.816,33.293 85.078,33.293C84.921,33.293 84.765,33.27 84.613,33.219C75.91,30.387 66.535,30.387 57.832,33.219C57.043,33.477 56.195,33.043 55.941,32.254C55.683,31.465 56.117,30.617 56.906,30.363C66.211,27.332 76.234,27.332 85.539,30.363L85.539,30.363ZM46.41,53.054C46.265,53.425 45.98,53.726 45.617,53.886C45.253,54.046 44.839,54.058 44.468,53.914C34.374,50 23.183,50 13.085,53.914C12.714,54.066 12.296,54.062 11.925,53.902C11.554,53.742 11.261,53.441 11.117,53.066C10.972,52.691 10.984,52.269 11.152,51.902C11.316,51.535 11.624,51.25 12.003,51.113C22.792,46.929 34.757,46.929 45.55,51.113C45.921,51.257 46.222,51.543 46.382,51.906C46.542,52.269 46.554,52.683 46.41,53.054L46.41,53.054ZM14.461,30.363C23.765,27.332 33.789,27.332 43.094,30.363C43.883,30.617 44.316,31.465 44.059,32.254C43.805,33.043 42.957,33.477 42.168,33.219C33.465,30.387 24.09,30.387 15.387,33.219C15.235,33.27 15.078,33.293 14.922,33.293C14.184,33.293 13.555,32.754 13.438,32.023C13.324,31.293 13.758,30.59 14.461,30.363L14.461,30.363ZM46.41,66.308C46.265,66.679 45.98,66.98 45.617,67.14C45.253,67.3 44.839,67.312 44.468,67.168C34.374,63.254 23.183,63.254 13.085,67.168C12.32,67.449 11.468,67.062 11.171,66.297C10.874,65.535 11.245,64.675 12.003,64.367C22.792,60.183 34.757,60.183 45.55,64.367C45.921,64.508 46.222,64.793 46.382,65.16C46.542,65.523 46.554,65.937 46.41,66.308L46.41,66.308ZM46.41,59.679C46.265,60.054 45.98,60.351 45.617,60.511C45.253,60.675 44.839,60.683 44.468,60.539C34.374,56.629 23.179,56.629 13.085,60.539C12.312,60.84 11.445,60.457 11.144,59.683C10.843,58.906 11.23,58.039 12.003,57.738C22.792,53.554 34.757,53.554 45.55,57.738C45.921,57.883 46.222,58.168 46.382,58.531C46.543,58.894 46.554,59.308 46.41,59.679L46.41,59.679ZM46.41,46.425L46.41,46.429C46.265,46.8 45.98,47.097 45.617,47.261C45.253,47.421 44.839,47.429 44.468,47.289C34.374,43.375 23.179,43.375 13.085,47.289C12.312,47.586 11.445,47.203 11.144,46.429C10.843,45.656 11.23,44.785 12.003,44.484C22.792,40.3 34.757,40.3 45.55,44.484C45.921,44.629 46.222,44.914 46.382,45.277C46.543,45.644 46.554,46.058 46.41,46.429L46.41,46.425ZM45.55,37.855L45.55,37.859C45.933,37.996 46.242,38.281 46.41,38.648C46.578,39.015 46.589,39.437 46.445,39.816C46.3,40.191 46.007,40.496 45.632,40.656C45.261,40.812 44.839,40.816 44.468,40.66C34.374,36.746 23.183,36.746 13.085,40.66C12.32,40.941 11.468,40.554 11.171,39.793C10.874,39.027 11.245,38.168 12.003,37.859C22.792,33.675 34.757,33.675 45.55,37.859L45.55,37.855Z" style="fill:rgb(69,88,145);fill-rule:nonzero;"/>
                        </g>
                        <g id="Ruler" transform="matrix(0.49391,0,0,0.49391,356.855,182.535)">
                            <path d="M88.184,22.422L77.579,11.817C77.298,11.536 76.915,11.38 76.516,11.38C76.118,11.38 75.739,11.536 75.454,11.817L72.626,14.645L76.388,18.407C76.778,18.797 76.778,19.43 76.388,19.821C76.192,20.016 75.938,20.114 75.681,20.114C75.423,20.114 75.169,20.016 74.974,19.821L71.212,16.059L69.091,18.18L72.852,21.942C73.243,22.333 73.243,22.965 72.852,23.356C72.657,23.551 72.403,23.649 72.145,23.649C71.888,23.649 71.634,23.551 71.438,23.356L67.677,19.594L65.556,21.716L69.317,25.477C69.708,25.868 69.708,26.501 69.317,26.891C69.122,27.087 68.868,27.184 68.61,27.184C68.352,27.184 68.099,27.087 67.903,26.891L64.142,23.13L62.02,25.251L68.384,31.614C68.774,32.005 68.774,32.637 68.384,33.028C68.188,33.223 67.934,33.321 67.677,33.321C67.419,33.321 67.165,33.223 66.97,33.028L60.606,26.665L58.485,28.786L62.247,32.548C62.638,32.938 62.638,33.571 62.247,33.962C62.052,34.157 61.798,34.255 61.54,34.255C61.282,34.255 61.028,34.157 60.833,33.962L57.071,30.2L54.95,32.321L58.712,36.083C59.102,36.473 59.102,37.106 58.712,37.497C58.516,37.692 58.263,37.79 58.005,37.79C57.747,37.79 57.493,37.692 57.298,37.497L53.536,33.735L51.415,35.856L55.177,39.618C55.567,40.009 55.567,40.641 55.177,41.032C54.981,41.227 54.727,41.325 54.47,41.325C54.212,41.325 53.958,41.227 53.763,41.032L50.001,37.27L47.88,39.392L51.641,43.153C52.032,43.544 52.032,44.177 51.641,44.567C51.446,44.763 51.192,44.86 50.934,44.86C50.677,44.86 50.423,44.763 50.227,44.567L46.466,40.806L44.345,42.927L50.708,49.29C51.099,49.681 51.099,50.313 50.708,50.704C50.513,50.903 50.259,51.001 50.001,51.001C49.743,51.001 49.489,50.903 49.294,50.708L42.931,44.345L40.809,46.466L44.571,50.228C44.962,50.618 44.962,51.251 44.571,51.642C44.376,51.837 44.122,51.935 43.864,51.935C43.606,51.935 43.352,51.837 43.157,51.642L39.395,47.88L37.274,50.001L41.036,53.763C41.427,54.153 41.427,54.786 41.036,55.177C40.841,55.372 40.587,55.47 40.329,55.47C40.071,55.47 39.817,55.372 39.622,55.177L35.86,51.415L33.739,53.536L37.501,57.298C37.891,57.689 37.891,58.321 37.501,58.712C37.306,58.907 37.052,59.005 36.794,59.005C36.536,59.005 36.282,58.907 36.087,58.712L32.325,54.95L30.204,57.071L33.966,60.833C34.356,61.224 34.356,61.857 33.966,62.247C33.77,62.443 33.516,62.54 33.259,62.54C33.001,62.54 32.747,62.443 32.552,62.247L28.79,58.486L26.669,60.607L33.032,66.97C33.423,67.361 33.423,67.993 33.032,68.384C32.837,68.579 32.583,68.677 32.325,68.677C32.067,68.677 31.813,68.579 31.618,68.384L25.255,62.021L11.817,75.459C11.536,75.74 11.379,76.123 11.379,76.521C11.379,76.92 11.536,77.299 11.817,77.584L22.422,88.189C22.715,88.482 23.098,88.626 23.484,88.626C23.867,88.626 24.254,88.482 24.547,88.189L88.188,24.548C88.77,23.958 88.77,23.009 88.184,22.423L88.184,22.422ZM27.207,76.707C26.16,77.754 24.34,77.754 23.293,76.707C22.769,76.184 22.48,75.488 22.48,74.75C22.48,74.012 22.769,73.316 23.293,72.793C23.816,72.27 24.512,71.981 25.25,71.981C25.988,71.981 26.683,72.27 27.207,72.793C27.73,73.313 28.019,74.008 28.019,74.746C28.019,75.484 27.73,76.184 27.207,76.707L27.207,76.707Z" style="fill:rgb(69,88,145);fill-rule:nonzero;"/>
                        </g>
                        <g id="Pencil" transform="matrix(0.462011,-0.266262,0.266262,0.462011,512.603,264.546)">
                            <g transform="matrix(0.620643,0,0,0.620643,-174.33,-215.941)">
                                <path d="M78.629,14.969L84.996,21.328L81.442,24.887L75.082,18.52L77.844,15.754L78.629,14.969Z" style="fill:rgb(69,88,145);"/>
                            </g>
                            <g transform="matrix(0.620643,0,0,0.620643,-174.33,-215.941)">
                                <path d="M73.668,19.934L80.027,26.305L76.477,29.856L70.113,23.493L73.668,19.934Z" style="fill:rgb(69,88,145);"/>
                            </g>
                            <g transform="matrix(0.620643,0,0,0.620643,-174.33,-215.941)">
                                <path d="M68.695,24.902L75.058,31.265L26.206,80.128L15.003,85.023L19.839,73.765L68.695,24.902Z" style="fill:rgb(69,88,145);"/>
                            </g>
                        </g>
                    </g>
                    <g id="Community" transform="matrix(1.28864,0,0,1.28864,-82.3929,32.4168)">
                        <g id="House" transform="matrix(1.54051,0,0,1.54051,48.3311,493.448)">
                            <g transform="matrix(0.620643,0,0,0.620643,27.5235,-87.5249)">
                                <rect x="32.5" y="50" width="7.5" height="7.5" style="fill:rgb(69,88,145);fill-rule:nonzero;"/>
                            </g>
                            <g transform="matrix(0.620643,0,0,0.620643,24.723,-87.5249)">
                                <rect x="60.953" y="50" width="7.547" height="7.5" style="fill:rgb(69,88,145);fill-rule:nonzero;"/>
                            </g>
                            <g transform="matrix(0.620643,0,0,0.620643,26.1503,-87.5249)">
                                <path d="M71,63.5L71,44.5L75.102,44.5L72.902,32L38,32L38,28L32,28L32,32L27.25,32L25.051,44.5L28.5,44.5L28.5,63.5L25,63.5L25,65.5L74.5,65.5L74.5,63.5L71,63.5ZM69.203,63.5L55,63.5L55,50L46.5,50L46.5,63.5L30.237,63.5L30.237,44.5L69.203,44.5L69.203,63.5Z" style="fill:rgb(69,88,145);fill-rule:nonzero;"/>
                            </g>
                        </g>
                        <g id="Family" transform="matrix(0.662098,0,0,0.662098,181.984,533.335)">
                            <g transform="matrix(0.620643,0,0,0.620643,-15.7339,-226.499)">
                                <path d="M44.523,17.914C44.523,23.828 39.73,28.621 33.816,28.621C27.906,28.621 23.109,23.828 23.109,17.914C23.109,12 27.906,7.207 33.816,7.207C39.73,7.207 44.523,12 44.523,17.914" style="fill:rgb(69,88,145);fill-rule:nonzero;"/>
                            </g>
                            <g transform="matrix(0.620643,0,0,0.620643,-15.7339,-226.499)">
                                <path d="M75.125,23.699L71.098,14.379C69.738,9.586 64.984,6.59 60.075,7.437C55.169,8.285 51.688,12.699 52.016,17.667L51.973,17.667L52.743,28.71L75.125,23.699Z" style="fill:rgb(69,88,145);fill-rule:nonzero;"/>
                            </g>
                            <g transform="matrix(0.620643,0,0,0.620643,-15.7339,-226.499)">
                                <path d="M90.77,61.535L75.879,39.328L75.883,39.328C75.641,39.019 75.359,38.746 75.047,38.515C74.992,38.441 74.949,38.359 74.895,38.285L74.895,38.281C72.789,35.473 69.695,33.57 66.238,32.965C66.008,32.914 65.77,32.883 65.524,32.844C65.199,32.801 64.891,32.699 64.555,32.676L64.559,32.676C64.285,32.644 64.012,32.633 63.735,32.641L63.594,32.641C63.406,32.641 63.238,32.582 63.035,32.582L63.039,32.582C59.981,32.59 57.004,33.558 54.528,35.355C52.047,37.148 50.199,39.68 49.238,42.582C49.238,42.531 49.219,42.476 49.203,42.426C47.606,37.226 43.113,33.445 37.723,32.754C32.329,32.062 27.028,34.586 24.168,39.211C24.145,39.254 24.125,39.301 24.102,39.34L9.231,61.535C7.856,63.582 8.403,66.355 10.45,67.73C12.497,69.105 15.27,68.558 16.645,66.511L22.106,58.363L22.106,92.797L39.536,92.797L39.536,81.211C39.532,76.441 42.723,72.258 47.321,70.996C47.813,70.859 48.313,70.773 48.821,70.746C49.653,70.695 50.489,70.695 51.321,70.746C56.637,71.355 60.649,75.859 60.645,81.211L60.645,92.793L77.61,92.793L77.61,57.938L83.36,66.508L83.356,66.508C84.731,68.555 87.505,69.102 89.552,67.727C91.599,66.352 92.145,63.578 90.77,61.532L90.77,61.535ZM50.079,67.23C46.782,67.238 43.809,65.254 42.548,62.211C41.282,59.168 41.974,55.664 44.302,53.332C46.63,50.996 50.138,50.297 53.181,51.558C56.228,52.816 58.212,55.785 58.216,59.082C58.216,63.578 54.575,67.226 50.079,67.23L50.079,67.23Z" style="fill:rgb(69,88,145);fill-rule:nonzero;"/>
                            </g>
                        </g>
                        <g id="Briefcase" transform="matrix(0.981111,-0.193443,0.193443,0.981111,105.302,434.566)">
                            <g transform="matrix(0.620643,0,0,0.620643,40.0814,-106.759)">
                                <path d="M41,29L41,26L59,26L59,29L65,29L65,26C65,22.699 62.301,20 59,20L41,20C37.699,20 35,22.699 35,26L35,29L41,29Z" style="fill:rgb(69,88,145);fill-rule:nonzero;"/>
                            </g>
                            <g transform="matrix(0.620643,0,0,0.620643,40.0814,-106.759)">
                                <path d="M77,32L23,32C19.699,32 17,34.699 17,38L17,50L83,50L83,38C83,34.699 80.301,32 77,32Z" style="fill:rgb(69,88,145);fill-rule:nonzero;"/>
                            </g>
                            <g transform="matrix(0.620643,0,0,0.620643,40.0814,-106.759)">
                                <path d="M56,53L56,59C56,60.699 54.699,62 53,62L47,62C45.301,62 44,60.699 44,59L44,53L17,53L17,71C17,74.301 19.699,77 23,77L77,77C80.301,77 83,74.301 83,71L83,53L56,53Z" style="fill:rgb(69,88,145);fill-rule:nonzero;"/>
                            </g>
                            <g transform="matrix(0.620643,0,0,0.620643,40.0814,-106.759)">
                                <rect x="47" y="53" width="6" height="6" style="fill:rgb(69,88,145);fill-rule:nonzero;"/>
                            </g>
                        </g>
                    </g>
                    <g id="Critical-thinking-lines" serif:id="Critical thinking lines" transform="matrix(1.28864,0,0,1.28864,-36.6508,126.895)">
                        <g transform="matrix(0.762694,0,0,0.486812,-4.63308,-2543.44)">
                            <g transform="matrix(1.01746,-0,-0,1.59406,43.3653,5251.55)">
                                <path d="M251.579,147.872C248.82,147.872 246.579,145.631 246.579,142.872C246.579,140.112 248.82,137.872 251.579,137.872C254.339,137.872 256.579,140.112 256.579,142.872C256.579,145.631 254.339,147.872 251.579,147.872Z" style="fill:none;stroke:white;stroke-width:5px;"/>
                                <path d="M301.852,220.79L301.852,142.872L256.579,142.872" style="fill:none;stroke:white;stroke-width:5px;stroke-miterlimit:75;"/>
                            </g>
                        </g>
                        <g transform="matrix(0.720136,0,0,0.903315,13.3602,-4916.19)">
                            <g transform="matrix(1.07759,-0,-0,0.859068,20.9421,5456.86)">
                                <path d="M180.862,363.508C180.862,366.267 178.622,368.508 175.862,368.508C173.103,368.508 170.862,366.267 170.862,363.508C170.862,360.748 173.103,358.508 175.862,358.508C178.622,358.508 180.862,360.748 180.862,363.508Z" style="fill:none;stroke:white;stroke-width:5px;"/>
                                <path d="M260.047,327.269L175.862,327.269L175.862,358.508" style="fill:none;stroke:white;stroke-width:5px;stroke-miterlimit:75;"/>
                            </g>
                        </g>
                        <g transform="matrix(1.10967,0,0,0.96113,-198.287,-5174.96)">
                            <g transform="matrix(0.699314,-0,-0,0.807392,204.32,5397.85)">
                                <path d="M558.388,268.091C558.388,270.85 556.147,273.091 553.388,273.091C550.628,273.091 548.388,270.85 548.388,268.091C548.388,265.331 550.628,263.091 553.388,263.091C556.147,263.091 558.388,265.331 558.388,268.091Z" style="fill:none;stroke:white;stroke-width:5px;"/>
                                <path d="M421.619,233.833L553.388,233.833L553.388,263.091" style="fill:none;stroke:white;stroke-width:5px;stroke-miterlimit:75;"/>
                            </g>
                        </g>
                        <g transform="matrix(0.493806,0,0,0.786505,111.363,-4199.39)">
                            <g transform="matrix(1.57149,-0,-0,0.986655,-167.923,5355.94)">
                                <path d="M459.525,184.009C459.525,181.249 461.766,179.009 464.525,179.009C467.285,179.009 469.525,181.249 469.525,184.009C469.525,186.768 467.285,189.009 464.525,189.009C461.766,189.009 459.525,186.768 459.525,184.009Z" style="fill:none;stroke:white;stroke-width:5px;"/>
                                <path d="M464.525,233.833L464.525,189.009" style="fill:none;stroke:white;stroke-width:5px;stroke-miterlimit:75;"/>
                            </g>
                        </g>
                    </g>
                </g>
                <g id="Selecting-issues" serif:id="Selecting issues">
                </g>
            </g>
        </g>
        <g id="Step-1c" serif:id="Step 1c">
        </g>
        <g id="Step-1a-thumbnail" serif:id="Step 1a thumbnail">
        </g>
        <g id="Step-2-thumbnail" serif:id="Step 2 thumbnail">
        </g>
        <g id="Global-girl-globe" serif:id="Global girl globe">
        </g>
        <g id="Step-2-thumbnail1" serif:id="Step 2 thumbnail">
        </g>
        <g id="Global-girl-globe1" serif:id="Global girl globe">
        </g>
        <g id="Step-2-thumbnail2" serif:id="Step 2 thumbnail">
        </g>
        <g id="Previous-illustrations" serif:id="Previous illustrations">
        </g>
    </g>
</svg>
