<?xml version="1.0" encoding="UTF-8" standalone="no"?>
<!DOCTYPE svg PUBLIC "-//W3C//DTD SVG 1.1//EN" "http://www.w3.org/Graphics/SVG/1.1/DTD/svg11.dtd">
<svg width="100%" height="100%" viewBox="0 0 512 534" version="1.1" xmlns="http://www.w3.org/2000/svg" xmlns:xlink="http://www.w3.org/1999/xlink" xml:space="preserve" xmlns:serif="http://www.serif.com/" style="fill-rule:evenodd;clip-rule:evenodd;stroke-linejoin:round;stroke-miterlimit:2;">
    <g transform="matrix(1,0,0,1,-4800.42,-2652.36)">
        <g id="Bottom">
        </g>
        <g id="Middle">
        </g>
        <g id="_3.-Talking-about-community" serif:id="3. Talking about community" transform="matrix(0.399631,0,0,0.666875,4800.42,2652.36)">
            <rect x="0" y="0" width="1280" height="800" style="fill:none;"/>
            <g id="Community-vector-art" serif:id="Community vector art">
            </g>
            <g id="Selecting-issues" serif:id="Selecting issues" transform="matrix(2.50231,0,0,1.20026,-1762.24,-56.8538)">
                <g transform="matrix(-1.1113,-1.70029e-16,1.38993e-16,-1.41795,1210.79,11009.9)">
                    <path d="M416.982,7591.02L416.981,7591.03C416.945,7591.13 416.908,7591.23 416.871,7591.34C413.076,7601.9 407.732,7611.61 400.842,7619.78C398.185,7622.93 395.221,7625.87 391.972,7628.57C384.438,7637.27 375.935,7645.55 366.805,7653.05C357.322,7660.85 347.169,7667.81 336.789,7673.61C332.061,7677.55 327.103,7681.34 321.908,7685C310.046,7693.36 297.162,7700.73 283.645,7706.55C269.061,7712.82 253.745,7717.28 238.126,7719.41C212.737,7722.87 188.193,7719.69 164.991,7711.8C144.697,7704.89 125.45,7694.29 107.844,7681.77C64.725,7651.12 34.254,7600.85 20.927,7545.57C7.979,7491.86 11.356,7434.04 31.537,7387.41C38.563,7371.18 48.428,7356.85 60.24,7344.11C74.583,7328.64 91.945,7315.61 109.381,7304.07C123.542,7294.7 138.532,7286.38 154.375,7280.65C167.034,7276.07 180.229,7273.08 194.005,7272.18C227.739,7269.98 271.841,7274.55 309.878,7288.16C341.533,7299.49 368.927,7317.22 386.97,7340.03C408.578,7367.35 420.992,7395.73 427.58,7425.69C433.47,7452.47 434.493,7480.64 432.976,7510.71C432.312,7523.86 431.524,7537.81 429.229,7551.3C427.204,7563.2 424.055,7574.77 419.434,7585.61C418.664,7587.41 417.847,7589.22 416.982,7591.02Z" style="fill:rgb(188,235,237);"/>
                </g>
                <g transform="matrix(0.820694,0,0,1.02532,497.04,-9249.53)">
                    <path d="M439.922,9190.24C436.696,9210.03 439.086,9230.3 436.301,9250.18C435.579,9255.32 435.016,9260.45 434.748,9265.64C434.713,9266.33 434.073,9270.1 434.543,9270.53C435.159,9271.09 437.967,9270.89 438.861,9270.95C443.393,9271.28 450.266,9268.52 454.802,9268.49C467.433,9268.41 477.504,9269.5 490.052,9268C495.87,9267.3 503.091,9269.25 507.98,9265.78C508.533,9265.38 508.695,9263.07 508.799,9262.41C509.369,9258.76 509.714,9255.09 509.952,9251.41C510.928,9236.31 510.117,9221.18 510.692,9206.08C510.854,9201.81 511.52,9197.69 512.411,9193.51C512.503,9193.08 513.5,9189.7 513.277,9189.53C509.082,9186.35 502.662,9189.54 497.631,9188.86C488.341,9187.59 481.006,9189.36 470.082,9188.78C460.987,9188.3 450.362,9191.05 441.141,9190.13" style="fill:white;"/>
                </g>
                <g transform="matrix(0.820694,0,0,1.02532,497.04,-9249.53)">
                    <path d="M549.755,9191.07C557.683,9189.76 565.524,9187.8 573.613,9187.86C584.229,9187.95 594.612,9190.33 605.212,9190.87C609.722,9191.1 614.437,9191.52 618.912,9190.65C619.673,9190.51 623.324,9189.08 623.867,9189.38C624.365,9189.65 624.242,9192.77 624.276,9193.55C624.474,9198.05 623.889,9202.59 623.172,9207.02C620.846,9221.37 618.923,9235.85 617.23,9250.29C616.784,9254.09 616.447,9257.93 616.384,9261.75C616.366,9262.82 613.697,9264.73 613.272,9265.57C613.003,9266.11 548.835,9267.01 547.821,9269.85C547.259,9271.42 546.957,9265.66 546.804,9264.04C546.279,9258.5 546.849,9252.93 547.229,9247.4C548.503,9228.82 551.341,9209.83 551.205,9191.22" style="fill:white;"/>
                </g>
                <g transform="matrix(0.820694,0,0,1.02532,497.04,-9249.53)">
                    <path d="M659.782,9190.1C676.623,9186.09 693.509,9190.91 710.547,9189.19C715.243,9188.71 719.89,9187.85 724.589,9187.38C725.046,9187.33 728.637,9186.63 728.849,9186.86C729.449,9187.51 729.261,9189.73 729.35,9190.65C729.691,9194.19 729.531,9197.76 729.397,9201.31C728.819,9216.72 724.686,9231.37 722.722,9246.56C722.132,9251.13 721.901,9255.73 721.682,9260.32C721.666,9260.66 721.697,9264.32 721.463,9264.39C716.348,9265.92 709.742,9264.83 704.391,9264.96C692.832,9265.24 681.275,9265.33 669.711,9265.35C665.565,9265.36 661.379,9265.23 657.234,9265.46C656.781,9265.49 653.863,9266.07 653.569,9265.8C653.152,9265.41 652.455,9264.71 652.57,9264.18C654.527,9255.13 655.128,9242.55 656.717,9233.76C659.483,9218.47 658.096,9205.45 659.291,9189.98" style="fill:white;"/>
                </g>
                <g transform="matrix(0.820694,0,0,1.02532,497.04,-9249.53)">
                    <path d="M440.79,9317.31L485.442,9317.31C491.651,9317.31 497.761,9317.86 503.915,9318.66C504.122,9318.69 509.422,9319.06 509.553,9319.41C510.735,9322.53 510.589,9326.52 510.776,9329.79C511.221,9337.6 511.098,9345.38 510.927,9353.19C510.732,9362.06 510.368,9370.99 511.166,9379.83C511.502,9383.55 511.815,9387.27 512.104,9391C512.14,9391.46 512.678,9394.31 512.365,9394.56C509.758,9396.63 504.122,9396.78 501.022,9397.14C491.037,9398.28 480.949,9398.25 470.913,9398.31C463.895,9398.35 456.802,9398.48 449.784,9398.14C448.203,9398.07 444.482,9398.54 443.085,9397.81C442.622,9397.58 442.546,9394.01 442.501,9393.54C442.02,9388.55 441.828,9383.53 441.705,9378.53C441.199,9358.06 439.757,9337.78 440.729,9317.29" style="fill:white;"/>
                </g>
                <g transform="matrix(0.820694,0,0,1.02532,497.04,-9249.53)">
                    <path d="M543.217,9317.2C560.532,9314.91 578.224,9315.07 595.672,9315.01C599.278,9314.99 602.915,9315.09 606.523,9314.96C607.108,9314.94 611.853,9314.36 612.039,9314.72C614.044,9318.55 613.979,9324.51 614.349,9328.88C614.83,9334.58 614.081,9340.3 613.886,9346.01C613.585,9354.77 613.557,9363.55 613.524,9372.32C613.506,9377.04 614.071,9381.47 614.797,9386.13C614.863,9386.55 615.681,9390.19 615.436,9390.34C611.487,9392.71 605.467,9393.11 601.073,9393.83C588.239,9395.94 575.001,9395.99 562.028,9396.13C557.571,9396.18 553.106,9396.14 548.651,9396.29C548.01,9396.31 544.669,9396.81 544.265,9396.4C543.622,9395.74 543.873,9391.93 543.827,9391.2C543.51,9386.18 543.343,9381.15 543.166,9376.12C542.468,9356.2 541.831,9336.42 545.059,9316.68" style="fill:white;"/>
                </g>
                <g transform="matrix(0.820694,0,0,1.02532,497.04,-9249.53)">
                    <path d="M648.484,9316.25C645.631,9328.15 644.788,9340.14 644.543,9352.36C644.352,9361.88 644.014,9372.34 646.722,9381.61C647.269,9383.48 647.792,9385.36 648.349,9387.23C648.439,9387.53 648.647,9388.98 648.872,9389.08C654.993,9391.98 663.657,9391.25 670.168,9390.58C679.952,9389.58 689.771,9388.7 699.59,9388.1C703.636,9387.85 707.835,9388.06 711.791,9387.06C712.306,9386.93 714.782,9386.27 714.886,9385.84C715.521,9383.18 713.911,9378.35 713.928,9375.46C713.971,9367.89 714.856,9360.67 715.957,9353.17C717.393,9343.4 718.572,9333.6 719.933,9323.82C720.238,9321.63 720.56,9319.44 720.685,9317.22C720.691,9317.12 720.872,9315.25 720.734,9315.19C719.078,9314.47 716.649,9314.74 714.813,9314.64C709.029,9314.34 703.238,9314.67 697.453,9314.81C680.667,9315.24 663.661,9315.93 646.869,9315.63" style="fill:white;"/>
                </g>
                <g transform="matrix(0.820694,0,0,1.02532,497.04,-9249.53)">
                    <path d="M489.914,9221.61C489.645,9222 489.366,9222.38 489.075,9222.75C488.664,9223.27 488.23,9223.78 487.771,9224.26C486.789,9225.29 485.716,9226.1 484.562,9226.76C482.887,9227.72 481.05,9228.37 479.115,9228.99C478.697,9229.13 478.24,9228.91 478.097,9228.49C477.953,9228.07 478.176,9227.62 478.595,9227.47C480.381,9226.82 482.074,9226.14 483.605,9225.17C484.576,9224.56 485.477,9223.83 486.289,9222.91C486.688,9222.45 487.061,9221.98 487.417,9221.49C487.776,9221 488.114,9220.5 488.434,9219.98C488.592,9219.72 488.787,9219.13 489.002,9218.77C489.162,9218.5 489.351,9218.31 489.518,9218.19C489.953,9217.87 490.343,9217.92 490.658,9218.03C490.897,9218.12 491.134,9218.3 491.309,9218.61C491.439,9218.85 491.49,9219.44 491.604,9219.72L492.433,9221.88C492.815,9222.85 493.247,9223.7 493.786,9224.49C494.31,9225.25 494.94,9225.94 495.727,9226.59C495.908,9226.74 496.52,9227.24 496.786,9227.46C497.037,9227.17 497.345,9226.59 497.504,9226.4C498.227,9225.51 498.734,9224.41 499.044,9223.26C499.364,9222.07 499.478,9220.83 499.388,9219.67C499.217,9217.44 498.645,9215.1 497.663,9212.96C496.697,9210.87 495.34,9208.96 493.557,9207.58C491.92,9206.31 490.09,9205.4 488.245,9205.22C486.479,9205.05 484.709,9205.56 483.122,9207.05C482.69,9207.46 482.278,9207.91 481.904,9208.39C481.53,9208.87 481.192,9209.38 480.908,9209.9C480.324,9210.97 479.823,9212.09 479.401,9213.24C478.975,9214.39 478.627,9215.58 478.352,9216.77C478.012,9218.25 477.843,9219.83 477.887,9221.4C477.93,9222.96 478.179,9224.51 478.681,9225.94C478.831,9226.35 478.615,9226.81 478.199,9226.96C477.783,9227.11 477.323,9226.9 477.173,9226.48C476.588,9224.91 476.278,9223.19 476.2,9221.46C476.122,9219.74 476.277,9218.01 476.622,9216.39C476.892,9215.12 477.24,9213.85 477.67,9212.62C478.103,9211.37 478.622,9210.16 479.23,9209C479.552,9208.39 479.937,9207.78 480.364,9207.21C480.792,9206.64 481.264,9206.11 481.762,9205.62C483.806,9203.65 486.119,9202.97 488.431,9203.16C490.651,9203.34 492.883,9204.36 494.872,9205.86C496.956,9207.43 498.574,9209.59 499.722,9212C500.85,9214.37 501.517,9216.98 501.736,9219.47C501.859,9220.89 501.735,9222.42 501.354,9223.87C500.964,9225.36 500.302,9226.76 499.378,9227.91C499.069,9228.29 498.581,9228.94 498.065,9229.34C497.664,9229.66 497.234,9229.86 496.829,9229.91C496.54,9229.95 496.114,9229.88 495.666,9229.61C495.159,9229.31 494.476,9228.66 494.196,9228.42C493.237,9227.61 492.473,9226.75 491.842,9225.8C491.223,9224.86 490.73,9223.85 490.302,9222.7L489.914,9221.61ZM496.717,9227.53C496.644,9227.53 496.568,9227.52 496.523,9227.53C496.498,9227.53 496.437,9227.52 496.447,9227.54C496.503,9227.68 496.6,9227.65 496.717,9227.53ZM489.503,9219.91C489.497,9219.7 489.465,9219.53 489.331,9219.57C489.109,9219.63 489.274,9219.78 489.503,9219.91Z"/>
                </g>
                <g transform="matrix(0.820694,0,0,1.02532,497.04,-9249.53)">
                    <path d="M479.311,9230.58C479.116,9230.19 479.281,9229.7 479.678,9229.51C480.076,9229.32 480.556,9229.48 480.751,9229.88C481.55,9231.27 482.396,9232.82 483.345,9234.25C483.932,9235.14 484.55,9235.98 485.31,9236.65C485.918,9237.22 486.559,9237.68 487.258,9237.9C487.873,9238.1 488.529,9238.09 489.228,9237.77C489.472,9237.65 489.704,9237.53 489.926,9237.38C490.151,9237.24 490.369,9237.08 490.578,9236.9C491.006,9236.55 491.424,9236.16 491.823,9235.76C492.224,9235.36 492.609,9234.94 492.967,9234.51C493.444,9233.93 493.884,9233.32 494.287,9232.69C494.697,9232.05 495.073,9231.38 495.419,9230.71C495.609,9230.31 496.088,9230.14 496.487,9230.33C496.887,9230.52 497.058,9231 496.868,9231.4C496.543,9232.14 496.184,9232.87 495.789,9233.58C495.388,9234.31 494.945,9235.01 494.459,9235.67C494.094,9236.17 493.698,9236.66 493.281,9237.13C492.863,9237.6 492.42,9238.05 491.966,9238.47C491.7,9238.72 491.423,9238.94 491.133,9239.15C490.84,9239.36 490.531,9239.55 490.206,9239.73C489.217,9240.25 488.254,9240.39 487.334,9240.28C486.037,9240.13 484.813,9239.42 483.693,9238.43C482.798,9237.59 482.021,9236.57 481.397,9235.43C480.54,9233.87 479.946,9232.13 479.311,9230.58Z"/>
                </g>
                <g transform="matrix(0.820694,0,0,1.02532,497.04,-9249.53)">
                    <path d="M474.671,9266.21C474.618,9266.65 474.218,9266.96 473.779,9266.91C473.339,9266.85 473.026,9266.45 473.079,9266.01C473.156,9265.14 473.255,9264.28 473.371,9263.42C473.637,9261.43 473.982,9259.46 474.249,9257.47L474.864,9252.34C474.995,9251.29 475.064,9249.97 475.301,9248.74C475.487,9247.78 475.783,9246.87 476.227,9246.13C476.995,9244.88 478.31,9244.1 479.85,9243.72C481.752,9243.25 483.993,9243.38 485.605,9243.66C486.267,9243.78 486.833,9244.08 487.364,9244.46C487.71,9244.7 488.037,9244.98 488.411,9245.17C488.591,9245.26 488.785,9245.33 489.017,9245.31C489.15,9245.3 489.268,9245.26 489.379,9245.2C489.983,9244.89 490.506,9244.38 491.151,9244.12C491.947,9243.8 492.813,9243.69 493.697,9243.73C494.837,9243.77 496.007,9244.03 497.041,9244.25C497.707,9244.39 498.393,9244.47 498.925,9244.81C499.248,9245.01 499.534,9245.28 499.752,9245.67C500.294,9246.65 500.568,9247.74 500.662,9248.86C500.79,9250.4 500.593,9252 500.408,9253.43C500.051,9256.2 499.462,9258.94 498.994,9261.69C498.798,9262.85 498.622,9264.02 498.497,9265.19C498.455,9265.63 498.064,9265.95 497.623,9265.91C497.182,9265.87 496.859,9265.48 496.901,9265.03C497,9263.83 497.151,9262.63 497.325,9261.43C497.723,9258.69 498.243,9255.96 498.531,9253.21C498.668,9251.9 498.824,9250.44 498.676,9249.05C498.587,9248.22 498.383,9247.41 497.965,9246.69C497.894,9246.57 497.774,9246.53 497.657,9246.5C497.337,9246.4 496.979,9246.38 496.632,9246.31C495.706,9246.14 494.659,9245.91 493.641,9245.89C493.069,9245.88 492.507,9245.95 491.996,9246.17C491.419,9246.41 490.97,9246.9 490.432,9247.19C490.052,9247.4 489.643,9247.53 489.187,9247.57C488.51,9247.63 487.934,9247.48 487.405,9247.23C487.004,9247.03 486.635,9246.77 486.267,9246.51C485.939,9246.28 485.623,9246.03 485.214,9245.96C483.873,9245.74 482.012,9245.64 480.435,9246.04C479.538,9246.27 478.725,9246.65 478.279,9247.39C477.963,9247.9 477.778,9248.54 477.637,9249.21C477.39,9250.39 477.29,9251.65 477.14,9252.65L476.318,9257.81C475.943,9259.78 475.502,9261.74 475.118,9263.7C474.956,9264.54 474.8,9265.37 474.671,9266.21Z"/>
                </g>
                <g transform="matrix(0.820694,0,0,1.02532,498.589,-9248.89)">
                    <path d="M485.026,9246.94C485.142,9246.51 485.582,9246.26 486.009,9246.37C486.437,9246.49 486.69,9246.93 486.574,9247.35C486.408,9248.31 486.295,9249.24 486.161,9250.18C486.026,9251.12 485.91,9252.05 485.778,9252.98C485.513,9254.85 485.252,9256.71 485.133,9258.58C484.977,9261.06 484.966,9263.57 485.171,9266.14C485.223,9266.58 484.907,9266.98 484.468,9267.03C484.028,9267.09 483.63,9266.77 483.579,9266.33C482.973,9262.32 482.772,9258.45 483.152,9254.57C483.229,9253.78 483.333,9253 483.478,9252.22C483.573,9251.71 483.687,9251.19 483.821,9250.68C484.15,9249.42 484.571,9248.19 485.026,9246.94Z"/>
                </g>
                <g transform="matrix(0.820694,0,0,1.02532,497.04,-9249.53)">
                    <path d="M485.77,9244.9C485.725,9245.34 485.33,9245.66 484.89,9245.62C484.45,9245.57 484.13,9245.18 484.176,9244.74C484.122,9244.38 484.05,9244.07 484.016,9243.71C483.984,9243.38 483.963,9243.04 483.979,9242.7C483.999,9242.24 484.082,9241.78 484.149,9241.33C484.305,9240.25 484.507,9239.2 484.62,9238.12C484.62,9237.68 484.98,9237.32 485.422,9237.32C485.865,9237.32 486.224,9237.68 486.223,9238.12C486.354,9239.49 486.466,9240.86 486.418,9242.24C486.408,9242.52 486.389,9242.79 486.347,9243.06C486.319,9243.24 486.28,9243.42 486.229,9243.59C486.099,9244.05 485.929,9244.45 485.77,9244.9Z"/>
                </g>
                <g transform="matrix(0.820694,0,0,1.02532,497.04,-9249.53)">
                    <path d="M491.983,9245.86C491.983,9246.31 491.624,9246.67 491.181,9246.67C490.739,9246.67 490.38,9246.31 490.38,9245.86C490.289,9245.52 490.184,9245.22 490.113,9244.87C490.045,9244.54 489.988,9244.21 489.967,9243.87C489.938,9243.41 489.971,9242.95 489.99,9242.48C490.035,9241.39 490.133,9240.32 490.173,9239.22C490.144,9238.78 490.478,9238.4 490.92,9238.37C491.361,9238.34 491.744,9238.67 491.773,9239.11C491.997,9240.47 492.244,9241.8 492.343,9243.16C492.362,9243.43 492.372,9243.7 492.36,9243.97C492.351,9244.15 492.331,9244.33 492.3,9244.51C492.22,9244.98 492.095,9245.4 491.983,9245.86Z"/>
                </g>
                <g transform="matrix(0.820694,0,0,1.02532,497.04,-9249.53)">
                    <path d="M456.307,9249.3C454.074,9248.78 452.53,9247.9 451.418,9246.86C450.352,9245.86 449.767,9244.62 449.411,9243.21C449.042,9241.59 448.577,9240.75 448.434,9239.68C448.32,9238.83 448.377,9237.87 448.722,9236.51C450.159,9231.57 453.734,9229.75 457.123,9230.08C460.551,9230.42 463.94,9233.04 464.713,9237.12C464.815,9237.67 465.029,9238.88 465.099,9239.87C465.147,9240.55 465.136,9241.15 465.052,9241.53C464.561,9243.69 463.545,9245.4 462.254,9246.66C460.704,9248.17 458.819,9249.06 457.116,9249.34C456.847,9249.4 456.568,9249.38 456.307,9249.3ZM456.799,9247.77C459.351,9247.26 462.394,9245.12 463.147,9241.16C463.289,9240.42 462.867,9238.31 462.705,9237.57C461.406,9231.64 453.062,9229.83 451.035,9237.15C450.318,9239.74 451.123,9240.33 451.575,9242.82C451.985,9245.07 453.501,9246.71 456.799,9247.77Z"/>
                </g>
                <g transform="matrix(0.820694,0,0,1.02532,497.04,-9249.53)">
                    <path d="M453.327,9251.38C451.636,9251.38 449.897,9251.27 448.216,9251.5C447.991,9251.53 446.692,9251.85 446.549,9251.72C446.138,9251.32 446.208,9250.01 446.208,9249.51C446.208,9247.21 446.545,9244.95 446.939,9242.69C447.944,9236.93 448.078,9227.7 455.863,9227.15C456.92,9227.08 458.09,9227.05 459.122,9227.35C466.102,9229.36 466.506,9238.63 466.341,9244.48C466.298,9245.99 466.223,9247.52 466.338,9249.03C466.374,9249.5 466.715,9250.8 466.45,9251.28C466.076,9251.96 463.867,9252.19 463.232,9252.25C462.852,9252.28 462.412,9251.3 462.29,9251.02C461.578,9249.4 462.383,9247.81 462.416,9246.12C462.464,9243.75 463.915,9239.51 459.568,9233.85C459.099,9233.24 457.238,9233.33 456.464,9233.28C454.408,9233.13 453.628,9233.76 452.375,9235.16C450.6,9237.14 451.179,9239.56 451.408,9242.03C451.561,9243.68 451.927,9245.6 452.239,9247.24C452.639,9249.34 452.391,9249.6 453.163,9251.59" style="fill:rgb(70,45,42);"/>
                </g>
                <g transform="matrix(0.394783,0,0,0.493217,958.84,187.921)">
                    <g>
                        <path d="M44.211,16.871C48.742,16.875 52.418,13.195 52.418,8.664C52.422,4.125 48.742,0.453 44.211,0.461C39.672,0.449 35.996,4.125 36.008,8.664C35.996,13.195 39.676,16.875 44.211,16.871Z" style="fill:rgb(19,31,81);fill-rule:nonzero;"/>
                        <path d="M92.371,99.539L100,58.078L94.156,58.078L87.449,93.746L77.312,93.746L70.507,58.078L64.621,58.078L72.437,99.539L92.371,99.539Z" style="fill:rgb(19,31,81);fill-rule:nonzero;"/>
                        <path d="M4.055,57.074L8.445,61.469L12.84,57.074L8.445,52.734L4.055,57.074Z" style="fill:rgb(19,31,81);fill-rule:nonzero;"/>
                        <rect x="3.57" y="64.414" width="5.984" height="5.981" style="fill:rgb(19,31,81);fill-rule:nonzero;"/>
                        <path d="M9.895,41.633L24.665,41.633C25.813,41.653 27.219,41.223 28.043,39.989L33.641,31.977L33.692,94.676C33.708,100.934 42.93,100.875 42.911,94.531L42.958,58.047L44.743,58.047L44.743,94.485C44.723,100.864 54.055,101.02 54.059,94.677L54.059,31.689L55.7,31.689L55.7,54.185C55.676,59.587 63.001,59.587 62.985,54.282L62.989,29.712C63.004,23.08 58.087,19.189 52.899,19.189L38.278,19.189C34.813,19.185 32.297,20.557 30.168,23.584L22.782,34.35L9.993,34.35C4.821,34.346 5.11,41.655 9.895,41.635L9.895,41.633Z" style="fill:rgb(19,31,81);fill-rule:nonzero;"/>
                        <path d="M8.738,48.824L4.344,44.48L0,48.824L4.344,53.215L8.738,48.824Z" style="fill:rgb(19,31,81);fill-rule:nonzero;"/>
                    </g>
                </g>
                <g transform="matrix(0.820694,0,0,1.02532,497.04,-9249.53)">
                    <path d="M706.534,9249.89L697.416,9249.93L697.425,9252.77C697.425,9252.92 697.323,9253.06 697.174,9253.1C697.025,9253.15 696.865,9253.09 696.781,9252.95L691.008,9243.95C690.929,9243.83 690.929,9243.67 691.007,9243.55L696.778,9234.55C696.862,9234.42 697.022,9234.35 697.171,9234.4C697.32,9234.44 697.423,9234.58 697.422,9234.73C697.422,9234.73 697.402,9237.59 697.402,9237.59L705.824,9237.67C705.913,9237.67 705.996,9237.71 706.04,9237.79L709.791,9244.23C710.13,9244.81 710.324,9245.61 710.364,9246.43C710.402,9247.21 710.301,9248.01 710.067,9248.67C710.044,9248.73 710,9248.78 709.943,9248.82C709.431,9249.14 708.881,9249.4 708.325,9249.58C707.723,9249.78 707.116,9249.89 706.543,9249.9L706.54,9249.9L706.32,9249.8C706.32,9249.8 706.538,9249.89 706.538,9249.89C706.538,9249.89 706.532,9249.74 706.548,9249.59C706.545,9249.59 706.543,9249.59 706.54,9249.59L706.538,9249.58L706.23,9249.58C706.23,9249.67 706.264,9249.75 706.32,9249.8C706.375,9249.86 706.45,9249.89 706.534,9249.89ZM696.207,9205.48C696.539,9204.9 697.127,9204.34 697.815,9203.89C698.467,9203.47 699.208,9203.16 699.893,9203.03C699.953,9203.02 700.014,9203.03 700.068,9203.06C700.595,9203.35 701.092,9203.7 701.528,9204.08C701.999,9204.5 702.398,9204.97 702.686,9205.46C702.691,9205.47 702.695,9205.48 702.698,9205.49C702.959,9205.93 707.29,9213.37 707.29,9213.37L709.766,9211.93C709.891,9211.86 710.049,9211.88 710.154,9211.98C710.258,9212.08 710.284,9212.23 710.218,9212.36L705.317,9221.86C705.253,9221.99 705.122,9222.07 704.983,9222.06L694.301,9221.6C694.135,9221.6 693.993,9221.48 693.953,9221.32C693.914,9221.16 693.986,9220.99 694.13,9220.9L696.568,9219.5L692.418,9212.22C692.361,9212.12 692.361,9212 692.418,9211.9L696.207,9205.48C696.194,9205.5 696.185,9205.53 696.179,9205.55C696.193,9205.49 696.281,9205.62 696.348,9205.73L696.207,9205.48ZM696.306,9205.81C696.249,9205.77 696.189,9205.72 696.176,9205.64C696.18,9205.67 696.19,9205.7 696.207,9205.73C696.229,9205.77 696.261,9205.8 696.298,9205.82L696.306,9205.81ZM702.584,9205.85C702.626,9205.83 702.661,9205.79 702.686,9205.75C702.712,9205.7 702.724,9205.65 702.724,9205.6C702.723,9205.65 702.711,9205.7 702.686,9205.74C702.661,9205.79 702.625,9205.82 702.583,9205.85L702.584,9205.85ZM666.957,9230.21C666.908,9230.18 666.866,9230.14 666.836,9230.09C666.781,9230 666.781,9229.88 666.836,9229.79C666.836,9229.79 671.37,9221.87 671.37,9221.87L668.906,9220.46C668.771,9220.38 668.704,9220.22 668.741,9220.07C668.778,9219.92 668.91,9219.81 669.065,9219.81L679.747,9219.31C679.893,9219.3 680.028,9219.38 680.096,9219.51L685.004,9229.01C685.076,9229.14 685.048,9229.31 684.936,9229.42C684.824,9229.53 684.654,9229.55 684.519,9229.47L682.058,9228.03L677.78,9235.28C677.735,9235.36 677.653,9235.41 677.563,9235.41L670.112,9235.43C669.439,9235.43 668.653,9235.2 667.921,9234.83C667.227,9234.47 666.583,9233.98 666.13,9233.45C666.087,9233.4 666.063,9233.34 666.061,9233.27C666.045,9232.67 666.096,9232.06 666.214,9231.49C666.342,9230.87 666.549,9230.29 666.832,9229.79C666.779,9229.88 666.779,9230 666.834,9230.09C666.863,9230.15 666.906,9230.18 666.956,9230.21C666.957,9230.21 666.957,9230.21 666.957,9230.21ZM695.29,9204.95L686.105,9221C686.017,9221.15 685.822,9221.2 685.67,9221.11L675.542,9215.31C675.461,9215.26 675.401,9215.19 675.377,9215.1C675.352,9215.01 675.365,9214.91 675.412,9214.83L680.821,9205.42C681.351,9204.5 682.262,9203.67 683.31,9203.06C684.356,9202.46 685.536,9202.1 686.593,9202.1L696.998,9202.17L697.646,9202.22C697.768,9202.24 697.866,9202.33 697.888,9202.45C697.91,9202.58 697.852,9202.7 697.743,9202.76C697.245,9203.02 696.774,9203.34 696.362,9203.7C695.926,9204.08 695.555,9204.5 695.29,9204.95ZM670.113,9236.46L688.601,9236.39C688.686,9236.39 688.767,9236.42 688.827,9236.48C688.886,9236.54 688.92,9236.62 688.92,9236.71L688.957,9248.38C688.957,9248.48 688.919,9248.57 688.853,9248.63C688.786,9248.7 688.695,9248.74 688.601,9248.74L677.751,9248.75C676.691,9248.75 675.511,9248.38 674.467,9247.78C673.423,9247.17 672.517,9246.33 671.991,9245.41L666.853,9236.37L666.569,9235.78C666.523,9235.67 666.555,9235.54 666.649,9235.46C666.743,9235.38 666.878,9235.37 666.982,9235.43C667.459,9235.73 667.972,9235.98 668.489,9236.16C669.038,9236.34 669.591,9236.45 670.113,9236.46ZM717.401,9231.02C717.924,9231.92 718.191,9233.1 718.195,9234.28C718.198,9235.47 717.937,9236.66 717.42,9237.57L712.253,9246.59L711.887,9247.14C711.803,9247.25 711.66,9247.29 711.531,9247.25C711.403,9247.2 711.319,9247.08 711.323,9246.94C711.336,9246.38 711.287,9245.82 711.175,9245.28C711.057,9244.72 710.87,9244.2 710.611,9243.75L701.328,9227.76C701.225,9227.59 701.286,9227.36 701.465,9227.25L711.587,9221.45C711.751,9221.35 711.96,9221.41 712.055,9221.57L717.401,9231.02Z" style="fill:rgb(26,114,23);"/>
                </g>
                <g transform="matrix(0.820694,0,0,1.02532,497.04,-9249.53)">
                    <path d="M666.439,9371.65C666.262,9371.35 666.046,9371.03 665.928,9370.79C665.413,9369.77 664.807,9368.82 664.447,9368.21C663.843,9367.17 663.11,9366.12 662.565,9365.01C662.261,9364.38 661.994,9363.75 661.815,9363.09C661.446,9361.72 661.317,9360.26 661.434,9358.77C661.589,9356.8 662.097,9354.81 662.763,9353.09C663.068,9352.3 663.565,9351.69 664.306,9351.33C665.264,9350.85 666.974,9350.92 667.747,9351.12C668.436,9351.3 669.08,9351.55 669.673,9351.89C670.104,9352.15 670.517,9352.43 670.91,9352.75C670.913,9352.71 670.916,9352.67 670.918,9352.63C670.996,9351.51 670.936,9350.38 670.929,9349.26C670.877,9348.11 671.767,9347.13 672.916,9347.08C674.066,9347.03 675.041,9347.92 675.094,9349.07C675.197,9350.29 675.351,9351.53 675.361,9352.77C675.369,9353.74 675.267,9354.7 675.037,9355.66C674.92,9356.15 674.144,9357.8 673.348,9358.44C672.544,9359.09 671.637,9359.16 670.765,9358.91C670.419,9358.81 670.074,9358.62 669.724,9358.37C669.27,9358.05 668.814,9357.49 668.464,9357.19C668.145,9356.92 667.805,9356.68 667.447,9356.49C667.431,9356.48 667.414,9356.47 667.398,9356.46C667.271,9357.08 667.178,9357.72 667.131,9358.36C667.054,9359.4 667.139,9360.44 667.457,9361.38C667.597,9361.79 667.83,9362.18 668.065,9362.57C668.574,9363.4 669.178,9364.2 669.692,9364.99C670.494,9366.28 672.178,9368.8 672.622,9370.99C672.999,9372.85 672.681,9374.56 671.61,9375.85C671.239,9376.28 670.776,9376.7 670.16,9376.95C669.484,9377.24 668.475,9377.34 667.903,9377.44L662.238,9378.14L656.588,9378.49C655.444,9378.61 654.415,9377.78 654.291,9376.64C654.167,9375.49 654.995,9374.46 656.139,9374.34L661.417,9372.98L666.439,9371.65ZM666.791,9356.24C666.733,9356.23 666.675,9356.22 666.616,9356.2C666.529,9356.19 666.223,9356.04 666.231,9356.18C666.253,9356.54 666.498,9356.48 666.791,9356.24ZM667.151,9371.6C667.486,9371.61 667.824,9371.61 667.754,9371.37C667.675,9371.1 667.397,9371.32 667.151,9371.6ZM666.693,9372.17C666.565,9372.32 666.413,9372.49 666.553,9372.49C666.733,9372.48 666.755,9372.35 666.693,9372.17Z" style="fill:rgb(35,40,44);"/>
                </g>
                <g transform="matrix(0.820694,0,0,1.02532,497.04,-9249.53)">
                    <path d="M703.012,9330.4C702.961,9329.25 703.852,9328.27 705.002,9328.22C706.151,9328.17 707.126,9329.06 707.177,9330.21C707.424,9331.71 707.654,9333.18 707.83,9334.69C708.003,9336.17 708.107,9337.65 708.24,9339.14C708.29,9340.17 708.345,9341.53 708.119,9342.72C707.96,9343.55 707.634,9344.31 707.217,9344.94C706.406,9346.12 705.412,9346.86 704.286,9347.27C702.985,9347.76 701.468,9347.8 699.909,9347.65C699.227,9347.58 698.536,9347.47 697.871,9347.45C697.559,9347.44 697.25,9347.36 696.986,9347.49C696.646,9347.65 696.372,9347.86 696.162,9348.12C694.979,9349.62 694.349,9351.55 692.923,9352.9C692.069,9353.7 691.109,9354.39 690.062,9355C688.098,9356.13 685.866,9356.96 684.043,9358.18C683.12,9358.87 681.813,9358.68 681.126,9357.76C680.438,9356.83 680.629,9355.53 681.552,9354.84C683.315,9353.39 685.53,9352.29 687.449,9350.92C688.114,9350.45 688.718,9349.92 689.24,9349.33C689.677,9348.84 689.914,9348.23 690.185,9347.64C690.626,9346.67 691.064,9345.71 691.641,9344.84C692.287,9343.87 693.138,9343.06 694.263,9342.4C695.17,9341.86 696.205,9341.62 697.302,9341.52C698.389,9341.42 699.566,9341.54 700.699,9341.58C701.026,9341.59 701.347,9341.58 701.654,9341.55C701.792,9341.53 701.945,9341.56 702.031,9341.43L702.273,9339.17L703.012,9330.4Z" style="fill:rgb(35,40,44);"/>
                </g>
                <g transform="matrix(0.820694,0,0,1.02532,497.04,-9249.53)">
                    <path d="M695.706,9367.79C695.625,9368.93 695.532,9370.06 695.414,9371.19C695.149,9373.73 694.767,9376.24 694.13,9378.73C693.875,9379.85 692.756,9380.55 691.635,9380.29C690.513,9380.04 689.81,9378.92 690.065,9377.8C690.526,9375.49 690.742,9373.17 690.863,9370.83C691.16,9365.09 690.843,9359.29 691.494,9353.57C691.624,9352.46 691.091,9348.87 691.344,9346.68C691.534,9345.04 692.23,9343.87 692.935,9343.26C693.052,9343.16 693.448,9342.88 694.097,9342.62C694.939,9342.28 696.903,9341.66 697.807,9341.51C699.79,9341.19 700.85,9342.44 701.144,9342.88C701.394,9343.26 701.774,9344.41 701.837,9345.99C701.927,9348.24 701.725,9352 701.7,9352.6L701.053,9360.84C700.917,9363.1 701.102,9365.42 701.413,9367.75C701.907,9371.45 702.698,9375.14 703.506,9378.59C703.837,9379.69 703.212,9380.85 702.11,9381.19C701.008,9381.52 699.845,9380.89 699.513,9379.79C698.219,9376.3 696.821,9372.58 695.922,9368.77C695.845,9368.44 695.773,9368.12 695.706,9367.79ZM697.299,9347.32C698.015,9347.92 698.757,9348.33 698.647,9347.43C698.61,9347.13 697.936,9347.15 697.299,9347.32Z" style="fill:rgb(35,40,44);"/>
                </g>
                <g transform="matrix(1.78319,0,0,1.98277,-147.159,-18195.3)">
                    <ellipse cx="669.775" cy="9344.25" rx="1.835" ry="2.107" style="fill:rgb(35,40,44);"/>
                </g>
                <g transform="matrix(1.84275,0,0,2.049,-167.472,-18823.9)">
                    <ellipse cx="669.775" cy="9344.25" rx="1.835" ry="2.107" style="fill:rgb(35,40,44);"/>
                </g>
                <g transform="matrix(0.604584,0,0,0.755329,857.892,306.069)">
                    <path d="M74.762,47.941C70.063,47.941 66.645,44.879 66.61,40.648L82.911,40.648C82.876,44.879 79.458,47.941 74.762,47.941L74.762,47.941ZM74.762,22.796L79.621,37.386L69.895,37.382L74.762,22.796ZM49.082,33.487C46.699,33.487 44.758,31.55 44.758,29.171C44.758,26.796 46.699,24.858 49.082,24.858C51.465,24.858 53.406,26.796 53.406,29.171C53.406,31.55 51.465,33.487 49.082,33.487ZM58.25,81.62L39.77,81.62L39.77,78.417C42.786,77.624 45.868,77.226 48.954,77.222C48.973,77.222 48.989,77.226 49.012,77.226C49.028,77.226 49.047,77.222 49.067,77.222C52.149,77.226 55.231,77.624 58.25,78.417L58.25,81.62ZM20.551,59.05L25.41,44.46L30.274,59.054L20.551,59.05ZM25.414,69.601C20.715,69.601 17.297,66.535 17.262,62.304L33.567,62.304C33.528,66.535 30.11,69.601 25.415,69.601L25.414,69.601ZM84.543,37.394L83.063,37.394L76.485,17.664C76.493,17.414 76.45,17.164 76.336,16.926C75.985,16.18 75.145,15.836 74.379,16.074C74.192,16.121 74.016,16.191 73.86,16.293L55.411,25.008C54.051,22.961 51.723,21.605 49.083,21.605C44.899,21.605 41.497,25 41.497,29.172C41.497,29.531 41.532,29.883 41.579,30.227L24.962,37.723C24.22,37.894 23.723,38.543 23.708,39.27L17.11,59.055L15.63,59.055C14.731,59.055 14.001,59.781 14.001,60.68L14.001,62.238C14.001,68.289 18.907,72.855 25.415,72.855C31.919,72.855 36.825,68.289 36.825,62.238L36.825,60.68C36.825,59.781 36.094,59.055 35.196,59.055L33.711,59.055L27.422,40.184L42.719,33.281C43.774,34.902 45.434,36.094 47.38,36.543L47.38,74.027C44.11,74.16 40.852,74.679 37.673,75.632C36.981,75.836 36.512,76.468 36.512,77.187L36.512,83.25C36.512,84.148 37.239,84.875 38.141,84.875L59.879,84.875C60.782,84.875 61.512,84.148 61.512,83.25L61.512,77.187C61.512,76.468 61.036,75.836 60.348,75.632C57.168,74.679 53.907,74.16 50.641,74.027L50.641,36.578C54.078,35.859 56.668,32.812 56.668,29.172C56.668,28.793 56.629,28.422 56.575,28.058L71.997,20.773L66.457,37.394L64.977,37.394C64.078,37.394 63.348,38.125 63.348,39.019L63.348,40.582C63.348,46.633 68.254,51.195 74.762,51.195C81.266,51.195 86.172,46.632 86.172,40.582L86.172,39.019C86.172,38.125 85.442,37.394 84.543,37.394L84.543,37.394Z" style="fill:rgb(19,31,81);"/>
                </g>
                <g transform="matrix(0.820694,0,0,1.02532,497.04,-9249.53)">
                    <path d="M441.58,9191.05C440.961,9191.05 440.458,9190.55 440.458,9189.93C440.458,9189.31 440.961,9188.8 441.58,9188.8C444.609,9188.69 447.607,9188.43 450.608,9188.19C453.638,9187.94 456.661,9187.67 459.697,9187.47C461.222,9187.37 462.751,9187.31 464.283,9187.25C471.822,9187.1 479.378,9187.41 486.92,9187.41C488.791,9187.41 490.661,9187.39 492.529,9187.33C497.224,9187.21 501.901,9186.82 506.591,9186.62C507.775,9186.57 508.959,9186.53 510.145,9186.51C510.764,9186.49 511.283,9186.98 511.302,9187.6C511.321,9188.22 510.834,9188.74 510.215,9188.76C509.05,9188.81 507.888,9188.88 506.726,9188.97C502.029,9189.31 497.351,9189.84 492.647,9190.11C489.808,9190.27 486.964,9190.36 484.117,9190.4C477.54,9190.49 470.951,9190.37 464.383,9190.63C459.824,9190.68 455.301,9190.98 450.763,9191.1C447.708,9191.18 444.654,9191.16 441.58,9191.05Z" style="fill:rgb(35,40,44);"/>
                </g>
                <g transform="matrix(0.820694,0,0,1.02532,497.04,-9249.53)">
                    <path d="M513.797,9186.12C513.932,9185.51 514.532,9185.13 515.137,9185.26C515.741,9185.4 516.123,9186 515.988,9186.6C515.568,9188.84 515.161,9191.51 514.74,9194.35C514.302,9197.31 513.877,9200.44 513.459,9203.44C512.996,9206.77 512.534,9209.94 512.196,9212.54C511.751,9215.54 510.543,9229.36 509.831,9242.45C509.414,9250.13 509.152,9257.57 509.384,9262.42C509.421,9263.04 508.95,9263.57 508.332,9263.61C507.714,9263.65 507.181,9263.17 507.143,9262.56C506.775,9257.65 506.797,9250.12 507.039,9242.33C507.45,9229.09 508.463,9215.12 508.854,9212.08C509.399,9208.46 510.104,9203.74 510.976,9199.05C511.85,9194.34 512.886,9189.67 513.797,9186.12Z" style="fill:rgb(35,40,44);"/>
                </g>
                <g transform="matrix(0.820694,0,0,1.02532,497.04,-9249.53)">
                    <path d="M434.255,9271.31C433.636,9271.32 433.119,9270.84 433.102,9270.22C433.085,9269.6 433.573,9269.08 434.192,9269.06C435.382,9268.98 436.554,9268.84 437.724,9268.69C440.525,9268.33 443.291,9267.85 446.113,9267.5C448.439,9267.25 450.776,9267.03 453.123,9266.9C456.617,9266.7 460.125,9266.66 463.611,9266.59C471.77,9266.52 480.039,9266.88 488.263,9266.7C493.698,9266.59 499.112,9266.25 504.46,9265.35C505.069,9265.24 505.654,9265.64 505.765,9266.25C505.877,9266.86 505.472,9267.45 504.863,9267.56C499.426,9268.64 493.907,9269.17 488.358,9269.43C480.131,9269.83 471.843,9269.65 463.677,9269.91C459.647,9269.98 455.592,9270.1 451.553,9270.28C449.828,9270.36 448.106,9270.43 446.39,9270.55C443.557,9270.72 440.773,9271.05 437.959,9271.22C436.73,9271.29 435.499,9271.32 434.255,9271.31Z" style="fill:rgb(35,40,44);"/>
                </g>
                <g transform="matrix(0.820694,0,0,1.02532,497.04,-9249.53)">
                    <path d="M440.336,9189.47C440.381,9188.85 440.92,9188.39 441.538,9188.43C442.155,9188.48 442.62,9189.02 442.575,9189.63C442.407,9193.76 442.409,9197.86 442.262,9201.97C442.163,9204.74 441.983,9207.5 441.715,9210.27C441.538,9211.89 441.339,9213.51 441.098,9215.12C440.15,9221.48 438.81,9227.78 438.076,9234.16C437.479,9239.18 437.132,9244.21 436.995,9249.26C436.858,9254.31 436.929,9259.37 437.192,9264.42C437.232,9265.04 436.764,9265.57 436.145,9265.61C435.527,9265.66 434.992,9265.19 434.952,9264.57C434.543,9259.46 434.322,9254.34 434.326,9249.22C434.33,9244.09 434.563,9238.95 435.043,9233.84C435.274,9231.41 435.576,9228.99 435.931,9226.57C436.746,9221.01 437.789,9215.47 438.41,9209.89C438.675,9207.87 438.866,9205.85 439.054,9203.82C439.499,9199.04 439.839,9194.26 440.336,9189.47Z" style="fill:rgb(35,40,44);"/>
                </g>
                <g transform="matrix(0.820694,0,0,1.02532,497.04,-9249.53)">
                    <path d="M550.271,9191.42C549.664,9191.55 549.068,9191.16 548.94,9190.56C548.811,9189.95 549.199,9189.35 549.805,9189.23C552.524,9188.55 555.202,9187.75 557.919,9187.09C559.773,9186.64 561.643,9186.27 563.543,9186.01C566.113,9185.68 568.7,9185.46 571.298,9185.35C575.144,9185.19 579.005,9185.26 582.837,9185.25C586.996,9185.27 591.169,9185.25 595.34,9185.29C598.135,9185.32 600.928,9185.37 603.715,9185.49C605.737,9185.58 607.757,9185.71 609.777,9185.86C614.448,9186.22 619.114,9186.68 623.787,9186.96C624.405,9186.99 624.886,9187.51 624.858,9188.13C624.831,9188.75 624.306,9189.23 623.687,9189.2C618.996,9189.06 614.306,9188.72 609.614,9188.5C607.62,9188.41 605.626,9188.33 603.631,9188.3C600.873,9188.25 598.11,9188.26 595.345,9188.3C591.178,9188.35 587.009,9188.47 582.854,9188.53C579.055,9188.56 575.229,9188.59 571.415,9188.7C568.899,9188.77 566.387,9188.86 563.891,9189.1C562.075,9189.26 560.285,9189.54 558.501,9189.86C555.753,9190.35 553.026,9190.94 550.271,9191.42Z" style="fill:rgb(35,40,44);"/>
                </g>
                <g transform="matrix(0.820694,0,0,1.02532,497.04,-9249.53)">
                    <path d="M548.854,9190.93C548.813,9190.31 549.281,9189.78 549.899,9189.74C550.518,9189.7 551.053,9190.16 551.094,9190.78C551.397,9193.76 551.806,9196.72 552.186,9199.69C552.567,9202.68 552.949,9205.67 553.227,9208.66C553.602,9212.7 553.779,9216.76 553.706,9220.82C553.656,9222.53 553.525,9224.24 553.342,9225.94C552.929,9229.81 552.271,9233.66 551.906,9237.52C551.263,9244.18 551.041,9250.88 550.529,9257.55C550.4,9259.23 550.253,9260.91 550.076,9262.59C550.021,9263.2 549.474,9263.66 548.857,9263.6C548.24,9263.55 547.785,9263 547.841,9262.39C547.966,9260.73 548.062,9259.06 548.142,9257.4C548.464,9250.69 548.505,9243.97 548.964,9237.28C549.239,9233.4 549.795,9229.52 550.128,9225.63C550.268,9224.01 550.369,9222.38 550.386,9220.76C550.44,9217.8 550.307,9214.85 550.139,9211.9C549.982,9209.12 549.774,9206.34 549.572,9203.56C549.265,9199.35 548.993,9195.15 548.854,9190.93Z" style="fill:rgb(35,40,44);"/>
                </g>
                <g transform="matrix(0.820694,0,0,1.02532,497.04,-9249.53)">
                    <path d="M542.181,9270.62C541.569,9270.71 540.995,9270.29 540.901,9269.68C540.806,9269.07 541.227,9268.49 541.839,9268.4C544.839,9267.82 547.828,9267.19 550.834,9266.6C553.843,9266.01 556.855,9265.43 559.88,9264.93C563.935,9264.26 568.011,9263.73 572.088,9263.3C574.747,9263.04 577.42,9262.9 580.098,9262.84C584.068,9262.76 588.047,9262.83 592.003,9262.86C595.632,9262.9 599.274,9262.89 602.909,9263.01C605.357,9263.1 607.799,9263.25 610.231,9263.52C610.847,9263.58 611.299,9264.13 611.239,9264.75C611.179,9265.37 610.63,9265.82 610.014,9265.76C607.635,9265.56 605.249,9265.49 602.86,9265.48C599.243,9265.46 595.623,9265.59 592.016,9265.66C588.09,9265.73 584.141,9265.77 580.204,9265.95C577.607,9266.07 575.016,9266.25 572.442,9266.56C568.921,9266.95 565.414,9267.49 561.899,9267.99C558.371,9268.5 554.843,9269 551.312,9269.48C548.268,9269.9 545.225,9270.26 542.181,9270.62Z" style="fill:rgb(35,40,44);"/>
                </g>
                <g transform="matrix(0.820694,0,0,1.02532,497.04,-9249.53)">
                    <path d="M615.113,9264.89C614.95,9265.49 614.332,9265.84 613.734,9265.68C613.137,9265.51 612.784,9264.9 612.948,9264.3C614.084,9259.56 614.723,9254.77 615.235,9249.97C615.544,9247.06 615.799,9244.16 616.043,9241.25C616.412,9236.85 616.778,9232.45 617.171,9228.07C617.712,9222.38 618.307,9216.69 618.977,9211.02C619.647,9205.34 620.391,9199.67 621.194,9194.02C621.272,9193.4 621.834,9192.97 622.449,9193.05C623.063,9193.12 623.499,9193.69 623.421,9194.3C622.787,9199.96 622.225,9205.63 621.713,9211.3C621.201,9216.97 620.74,9222.65 620.345,9228.33C620.015,9232.72 619.796,9237.14 619.409,9241.54C619.149,9244.49 618.824,9247.44 618.384,9250.37C617.647,9255.27 616.583,9260.12 615.113,9264.89Z" style="fill:rgb(35,40,44);"/>
                </g>
                <g transform="matrix(0.820694,0,0,1.02532,497.04,-9249.53)">
                    <path d="M656.524,9192.17C655.924,9192.32 655.313,9191.96 655.161,9191.36C655.008,9190.76 655.372,9190.15 655.973,9190C659.565,9188.96 663.142,9187.9 666.783,9187.1C669.241,9186.55 671.726,9186.14 674.244,9185.86C678.216,9185.5 682.209,9185.29 686.211,9185.24C692.159,9185.15 698.119,9185.35 704.043,9185.41L729.673,9185.51C730.292,9185.51 730.796,9186.01 730.797,9186.63C730.798,9187.25 730.295,9187.75 729.676,9187.75L704.046,9188.35C698.142,9188.42 692.201,9188.43 686.274,9188.56C682.351,9188.66 678.433,9188.79 674.538,9189.13C672.117,9189.3 669.728,9189.63 667.349,9190.02C663.721,9190.63 660.127,9191.38 656.524,9192.17Z" style="fill:rgb(35,40,44);"/>
                </g>
                <g transform="matrix(0.820694,0,0,1.02532,497.04,-9249.53)">
                    <path d="M728.854,9189.5C728.937,9188.89 729.502,9188.46 730.116,9188.54C730.73,9188.62 731.162,9189.19 731.079,9189.8C730.721,9193.39 730.435,9196.98 730.126,9200.56C729.817,9204.15 729.531,9207.74 729.223,9211.32C728.604,9218.5 727.976,9225.67 727.508,9232.85C726.885,9242.43 726.411,9252.02 726.127,9261.64C726.117,9262.26 725.606,9262.75 724.987,9262.74C724.368,9262.73 723.873,9262.22 723.882,9261.6C723.928,9247.11 724.244,9232.65 725.28,9218.23C725.487,9215.34 725.729,9212.46 726.023,9209.58C726.218,9207.66 726.441,9205.74 726.688,9203.82C727.305,9199.03 728.06,9194.27 728.854,9189.5Z" style="fill:rgb(35,40,44);"/>
                </g>
                <g transform="matrix(0.820694,0,0,1.02532,497.04,-9249.53)">
                    <path d="M721.958,9262.6C722.574,9262.54 723.129,9262.98 723.196,9263.6C723.263,9264.21 722.818,9264.77 722.202,9264.84C718.867,9265.32 715.563,9265.86 712.25,9266.33C708.913,9266.81 705.581,9267.27 702.232,9267.62C697.762,9268.08 693.267,9268.35 688.729,9268.47C679.959,9268.6 671.086,9268.16 662.262,9268.18C658.502,9268.19 654.751,9268.28 651.021,9268.55C650.403,9268.6 649.859,9268.14 649.806,9267.52C649.753,9266.91 650.211,9266.36 650.829,9266.31C654.605,9265.93 658.407,9265.72 662.221,9265.61C671.024,9265.34 679.888,9265.58 688.635,9265.22C690.858,9265.13 693.067,9264.99 695.271,9264.84C698.829,9264.59 702.365,9264.26 705.905,9263.94C711.24,9263.47 716.574,9263.03 721.958,9262.6Z" style="fill:rgb(35,40,44);"/>
                </g>
                <g transform="matrix(0.820694,0,0,1.02532,497.04,-9249.53)">
                    <path d="M654.263,9264.23C654.204,9264.85 653.656,9265.3 653.039,9265.24C652.422,9265.18 651.97,9264.63 652.029,9264.02C652.124,9262.37 652.254,9260.73 652.419,9259.08C652.799,9255.3 653.314,9251.54 653.591,9247.75C653.805,9245.39 653.984,9243.03 654.195,9240.67C654.513,9237.11 654.867,9233.56 655.241,9230.01C655.657,9226.06 656.131,9222.11 656.687,9218.17C657.396,9213.22 658.204,9208.29 658.692,9203.32C659.014,9200.06 659.199,9196.77 659.114,9193.46C659.089,9192.84 659.571,9192.32 660.19,9192.29C660.809,9192.27 661.332,9192.75 661.357,9193.37C661.545,9196.78 661.459,9200.16 661.224,9203.54C660.875,9208.55 660.195,9213.54 659.619,9218.55C658.674,9226.4 658.175,9234.29 657.443,9242.16C657.26,9244.13 657.034,9246.1 656.814,9248.08C656.612,9249.72 656.381,9251.35 656.114,9252.99C655.498,9256.73 654.754,9260.46 654.263,9264.23Z" style="fill:rgb(35,40,44);"/>
                </g>
                <g transform="matrix(0.820694,0,0,1.02532,497.04,-9249.53)">
                    <path d="M648.648,9316.62C648.028,9316.62 647.525,9316.11 647.525,9315.5C647.525,9314.88 648.028,9314.37 648.648,9314.37C652.955,9314.23 657.254,9314.05 661.562,9313.95C664.431,9313.88 667.301,9313.83 670.171,9313.82C675.193,9313.79 680.215,9313.85 685.237,9313.9C696.957,9314.01 708.672,9314.21 720.392,9314.37C721.011,9314.37 721.514,9314.88 721.514,9315.5C721.514,9316.11 721.011,9316.62 720.392,9316.62C708.672,9316.78 696.957,9316.98 685.237,9317.09C680.215,9317.14 675.193,9317.2 670.171,9317.17C667.301,9317.16 664.431,9317.11 661.562,9317.04C657.254,9316.94 652.955,9316.76 648.648,9316.62Z" style="fill:rgb(35,40,44);"/>
                </g>
                <g transform="matrix(0.820694,0,0,1.02532,497.04,-9249.53)">
                    <path d="M720.22,9317.24C720.288,9316.62 720.843,9316.18 721.459,9316.25C722.074,9316.31 722.519,9316.87 722.451,9317.49C722.226,9320.59 721.906,9323.69 721.5,9326.78C721.196,9329.08 720.853,9331.38 720.49,9333.67C720.13,9335.96 719.736,9338.23 719.387,9340.52C718.158,9347.68 717.145,9354.97 716.5,9362.3C715.857,9369.6 715.576,9376.93 715.915,9384.21C715.953,9384.82 715.482,9385.36 714.864,9385.4C714.245,9385.43 713.712,9384.96 713.674,9384.34C713.107,9376.96 713.131,9369.51 713.595,9362.08C714.058,9354.65 714.964,9347.26 716.057,9339.98C716.582,9336.93 717.128,9333.88 717.718,9330.84C718.304,9327.82 718.92,9324.81 719.458,9321.78C719.727,9320.27 719.991,9318.76 720.22,9317.24Z" style="fill:rgb(35,40,44);"/>
                </g>
                <g transform="matrix(0.820694,0,0,1.02532,497.04,-9249.53)">
                    <path d="M652.218,9388.64C651.598,9388.64 651.099,9388.13 651.103,9387.51C651.107,9386.89 651.613,9386.39 652.233,9386.4C656.497,9386.26 660.754,9386.12 665.022,9386.08C667.574,9386.06 670.127,9386.07 672.679,9386.09C676.501,9386.12 680.322,9386.22 684.143,9386.22C685.167,9386.23 686.189,9386.19 687.209,9386.12C689.683,9385.97 692.148,9385.68 694.625,9385.58C696.96,9385.49 699.3,9385.43 701.643,9385.39C705.146,9385.33 708.651,9385.32 712.146,9385.32C712.766,9385.3 713.278,9385.8 713.29,9386.42C713.302,9387.03 712.809,9387.55 712.189,9387.56C708.708,9387.69 705.217,9387.82 701.731,9388C699.411,9388.12 697.095,9388.25 694.785,9388.42C692.332,9388.6 689.894,9388.95 687.446,9389.18C686.357,9389.28 685.267,9389.35 684.172,9389.38C678.838,9389.45 673.502,9389.51 668.168,9389.38C665.506,9389.32 662.848,9389.19 660.188,9389.06C657.528,9388.94 654.877,9388.77 652.218,9388.64Z" style="fill:rgb(35,40,44);"/>
                </g>
                <g transform="matrix(0.820694,0,0,1.02532,497.04,-9249.53)">
                    <path d="M647.241,9316.2C647.259,9315.58 647.776,9315.1 648.395,9315.11C649.015,9315.13 649.503,9315.65 649.484,9316.27C649.503,9318.89 649.388,9321.48 649.176,9324.07C648.863,9327.9 648.356,9331.71 648.017,9335.56C647.415,9340.83 647.023,9346.09 646.726,9351.36C646.428,9356.64 646.225,9361.93 646.144,9367.24C646.077,9371.03 645.902,9375.08 646.121,9379.06C646.265,9381.66 646.574,9384.23 647.208,9386.67C647.372,9387.27 647.02,9387.89 646.423,9388.05C645.826,9388.22 645.208,9387.87 645.043,9387.27C644.295,9384.7 643.881,9381.99 643.648,9379.23C643.306,9375.19 643.361,9371.08 643.317,9367.23C643.267,9361.88 643.294,9356.54 643.512,9351.21C643.73,9345.86 644.14,9340.53 644.715,9335.19C645.319,9330.73 646.083,9326.32 646.651,9321.87C646.891,9319.99 647.114,9318.11 647.241,9316.2Z" style="fill:rgb(35,40,44);"/>
                </g>
                <g transform="matrix(0.820694,0,0,1.02532,497.04,-9249.53)">
                    <path d="M543.491,9399.37C542.871,9399.38 542.363,9398.88 542.356,9398.26C542.35,9397.64 542.847,9397.13 543.467,9397.13C546.797,9396.97 550.14,9396.84 553.483,9396.67C555.684,9396.56 557.881,9396.43 560.068,9396.21C562.306,9396.01 564.539,9395.76 566.775,9395.51C572.021,9394.94 577.267,9394.31 582.517,9393.76C584.405,9393.56 586.293,9393.39 588.182,9393.23C594.183,9392.74 600.202,9392.86 606.208,9392.59C607.688,9392.52 609.166,9392.44 610.644,9392.31C611.26,9392.24 611.812,9392.69 611.876,9393.31C611.94,9393.92 611.492,9394.48 610.876,9394.54C609.37,9394.72 607.861,9394.86 606.351,9394.97C600.393,9395.42 594.41,9395.47 588.463,9396.14C581.912,9396.84 575.388,9397.89 568.839,9398.66C566.008,9399 563.17,9399.26 560.33,9399.47C558.075,9399.6 555.814,9399.67 553.549,9399.65C550.19,9399.62 546.836,9399.46 543.491,9399.37Z" style="fill:rgb(35,40,44);"/>
                </g>
                <g transform="matrix(0.820694,0,0,1.02532,498.854,-9249.01)">
                    <path d="M611.243,9312.67C611.22,9312.05 611.705,9311.53 612.324,9311.51C612.943,9311.48 613.464,9311.97 613.486,9312.59C613.726,9316.12 613.923,9319.65 614.033,9323.18C614.143,9326.72 614.197,9330.25 614.185,9333.78C614.172,9338.01 614.071,9342.24 613.963,9346.48C613.801,9352.8 613.572,9359.13 613.492,9365.46C613.406,9371.14 612.714,9376.78 613.133,9382.27C613.403,9385.81 614.137,9389.29 615.856,9392.66C616.144,9393.21 615.933,9393.89 615.385,9394.18C614.836,9394.47 614.157,9394.25 613.869,9393.7C611.906,9390.09 610.996,9386.33 610.606,9382.49C610.042,9376.94 610.596,9371.21 610.543,9365.45C610.505,9360.16 610.535,9354.87 610.602,9349.58C610.641,9346.49 610.678,9343.41 610.74,9340.33C610.802,9337.26 610.865,9334.18 610.946,9331.1C611.108,9324.96 611.302,9318.83 611.243,9312.67Z" style="fill:rgb(35,40,44);"/>
                </g>
                <g transform="matrix(0.820694,0,0,1.02532,497.04,-9249.53)">
                    <path d="M544.062,9316.63C543.444,9316.66 542.918,9316.18 542.889,9315.56C542.86,9314.94 543.339,9314.42 543.958,9314.39C547.683,9314.08 551.365,9313.55 555.079,9313.2C556.694,9313.05 558.312,9312.95 559.938,9312.88C562.082,9312.82 564.227,9312.76 566.373,9312.76C574.903,9312.74 583.437,9313.1 591.961,9312.91C596.12,9312.84 600.262,9312.69 604.414,9312.63C606.202,9312.6 607.99,9312.59 609.783,9312.61C610.402,9312.61 610.907,9313.11 610.91,9313.73C610.913,9314.34 610.413,9314.85 609.793,9314.85C608.021,9314.89 606.254,9314.96 604.489,9315.04C600.341,9315.24 596.207,9315.52 592.053,9315.72C587.769,9315.92 583.482,9316.01 579.191,9316.05C574.709,9316.09 570.226,9316.12 565.745,9316.13C563.831,9316.14 561.917,9316.12 560.004,9316.15L544.062,9316.63Z" style="fill:rgb(35,40,44);"/>
                </g>
                <g transform="matrix(0.820694,0,0,1.02532,497.04,-9249.53)">
                    <path d="M544.824,9322.72C544.885,9322.1 545.436,9321.65 546.052,9321.71C546.669,9321.78 547.119,9322.33 547.058,9322.94C546.692,9328.18 546.082,9333.43 545.638,9338.68C545.451,9340.9 545.273,9343.12 545.203,9345.34C545.015,9349.23 544.898,9353.15 544.831,9357.07C544.763,9360.98 544.743,9364.9 544.835,9368.79C544.922,9372.69 545.363,9376.57 545.569,9380.46C545.621,9381.46 545.658,9382.45 545.671,9383.45C545.684,9384.43 545.667,9385.4 545.629,9386.38C545.483,9390.17 545.037,9393.95 545.08,9397.75C545.096,9398.37 544.606,9398.88 543.987,9398.9C543.367,9398.92 542.852,9398.43 542.836,9397.81C542.686,9393.98 543.025,9390.15 543.066,9386.31C543.076,9385.38 543.067,9384.45 543.029,9383.52C542.989,9382.56 542.925,9381.6 542.849,9380.64C542.539,9376.72 542.006,9372.83 541.822,9368.89C541.645,9364.96 541.551,9361 541.562,9357.03C541.574,9353.08 541.691,9349.12 541.851,9345.19C541.981,9342.91 542.183,9340.62 542.472,9338.35C543.138,9333.12 544.147,9327.93 544.824,9322.72Z" style="fill:rgb(35,40,44);"/>
                </g>
                <g transform="matrix(0.820694,0,0,1.02532,497.04,-9249.53)">
                    <path d="M437.617,9316.98C436.997,9316.98 436.494,9316.47 436.494,9315.85C436.494,9315.23 436.997,9314.73 437.617,9314.73C442.777,9314.57 447.928,9314.38 453.089,9314.31C455.667,9314.28 458.245,9314.27 460.823,9314.29C463.399,9314.3 465.975,9314.36 468.552,9314.39C471.799,9314.45 475.08,9314.38 478.345,9314.43C479.773,9314.45 481.198,9314.5 482.615,9314.6C489.508,9315.06 496.326,9316.26 503.203,9316.93C504.897,9317.09 506.595,9317.22 508.298,9317.3C508.917,9317.32 509.404,9317.84 509.385,9318.46C509.366,9319.08 508.848,9319.56 508.228,9319.54C505.614,9319.5 503.01,9319.34 500.409,9319.12C494.422,9318.61 488.46,9317.81 482.456,9317.57C481.086,9317.51 479.709,9317.5 478.33,9317.51C475.061,9317.54 471.777,9317.68 468.526,9317.69C465.948,9317.68 463.371,9317.69 460.794,9317.66C458.218,9317.64 455.642,9317.59 453.066,9317.52C447.913,9317.38 442.771,9317.14 437.617,9316.98Z" style="fill:rgb(35,40,44);"/>
                </g>
                <g transform="matrix(0.820694,0,0,1.02532,497.04,-9249.53)">
                    <path d="M509.274,9317.45C509.274,9316.83 509.777,9316.33 510.396,9316.33C511.016,9316.33 511.519,9316.83 511.519,9317.45L512.543,9334.09C512.681,9337.64 512.789,9341.19 512.811,9344.75C512.845,9350.06 512.73,9355.37 512.69,9360.68C512.611,9367.45 512.203,9374.1 512.16,9380.77C512.131,9385.16 512.256,9389.56 512.756,9394.01C512.834,9394.62 512.398,9395.18 511.783,9395.26C511.169,9395.34 510.607,9394.9 510.529,9394.29C509.895,9389.76 509.636,9385.27 509.549,9380.79C509.42,9374.11 509.673,9367.45 509.586,9360.68L509.339,9334.19C509.317,9330.84 509.211,9327.51 509.187,9324.18C509.171,9321.94 509.197,9319.7 509.274,9317.45Z" style="fill:rgb(35,40,44);"/>
                </g>
                <g transform="matrix(0.820694,0,0,1.02532,497.04,-9249.53)">
                    <path d="M441.631,9397.96C441.011,9397.96 440.508,9397.46 440.508,9396.84C440.508,9396.22 441.011,9395.72 441.631,9395.72C446.057,9395.57 450.477,9395.36 454.907,9395.22C456.677,9395.17 458.448,9395.12 460.219,9395.09C462.876,9395.06 465.533,9395.04 468.19,9395.05C481.494,9395.06 494.796,9395.3 508.079,9395.78C508.698,9395.79 509.19,9396.31 509.176,9396.93C509.161,9397.55 508.647,9398.04 508.028,9398.02C497.194,9397.94 486.356,9398.12 475.513,9398.28C470.865,9398.34 466.217,9398.43 461.568,9398.43C458.91,9398.44 456.252,9398.41 453.595,9398.35C449.602,9398.27 445.619,9398.1 441.631,9397.96Z" style="fill:rgb(35,40,44);"/>
                </g>
                <g transform="matrix(0.820694,0,0,1.02532,497.04,-9249.53)">
                    <path d="M440.493,9323.8C440.493,9323.18 440.996,9322.68 441.616,9322.68C442.235,9322.68 442.738,9323.18 442.738,9323.8C442.866,9327.47 443.027,9331.13 443.121,9334.81C443.214,9338.48 443.285,9342.15 443.299,9345.82C443.326,9353.16 443.172,9360.5 443.109,9367.84C443.039,9372.91 443.262,9378.16 443.164,9383.37C443.098,9386.91 442.887,9390.42 442.349,9393.85C442.262,9394.46 441.693,9394.89 441.08,9394.8C440.466,9394.71 440.039,9394.14 440.126,9393.53C440.548,9390.2 440.644,9386.79 440.609,9383.36C440.556,9378.15 440.192,9372.91 440.122,9367.84C440.059,9360.5 439.905,9353.16 439.933,9345.82C439.947,9342.15 440.017,9338.48 440.111,9334.81C440.204,9331.13 440.366,9327.47 440.493,9323.8Z" style="fill:rgb(35,40,44);"/>
                </g>
                <g transform="matrix(0.820694,0,0,1.02532,498.077,27.2188)">
                    <g transform="matrix(1,0,0,1,-1.26366,-9047.63)">
                        <path d="M688.147,9336.4C688.148,9336.41 688.148,9336.41 688.148,9336.41C688.173,9336.68 687.978,9336.91 687.714,9336.94C687.092,9337 686.48,9337.13 685.873,9337.3C684.403,9337.69 682.965,9338.29 681.518,9338.67C679.704,9339.16 677.837,9339.31 676.011,9339.12C674.169,9338.92 672.371,9338.38 670.71,9337.46C668.055,9335.99 666.418,9332.27 666.925,9329.41C667.295,9327.32 668.728,9325.64 671.63,9325.48C673.554,9325.38 675.53,9325.6 677.375,9326.21C679.236,9326.82 680.961,9327.82 682.379,9329.19C683.097,9329.89 683.612,9330.73 684.085,9331.58C684.52,9332.36 684.919,9333.16 685.469,9333.84C685.891,9334.37 686.402,9334.83 687.102,9335.15C687.303,9335.24 687.537,9335.3 687.779,9335.34C688.191,9335.42 688.622,9335.45 688.977,9335.48C689.242,9335.5 689.444,9335.72 689.428,9335.99C689.412,9336.25 689.183,9336.46 688.918,9336.44C688.684,9336.43 688.42,9336.42 688.147,9336.4ZM686.658,9336.11C685.784,9335.75 685.13,9335.21 684.585,9334.59C683.419,9333.25 682.835,9331.43 681.458,9330.16C680.167,9328.95 678.602,9328.11 676.932,9327.58C675.249,9327.04 673.455,9326.82 671.704,9326.91C670.462,9326.97 669.576,9327.38 669.01,9328.04C668.368,9328.8 668.136,9329.83 668.196,9330.92C668.312,9333.03 669.511,9335.34 671.32,9336.37C672.825,9337.23 674.462,9337.76 676.142,9337.96C677.831,9338.17 679.563,9338.05 681.251,9337.63C682.701,9337.27 684.147,9336.7 685.622,9336.33C685.965,9336.25 686.311,9336.17 686.658,9336.11Z" style="fill:rgb(248,157,54);"/>
                    </g>
                    <g transform="matrix(1,0,0,1,-1.26366,-9047.63)">
                        <path d="M671.224,9331.3C671.263,9331.27 671.303,9331.24 671.341,9331.21C671.588,9331.01 671.813,9330.77 671.995,9330.51L672.516,9329.74C672.563,9329.67 672.625,9329.49 672.671,9329.41C672.754,9329.28 672.846,9329.19 672.916,9329.15C673.148,9329.01 673.37,9329 673.568,9329.09C673.693,9329.14 673.902,9329.24 673.987,9329.56C674.072,9329.89 674.106,9330.28 674.099,9330.7C674.093,9331.09 674.057,9331.49 674.027,9331.88C674.182,9331.85 674.33,9331.92 674.441,9332.01C674.507,9332.06 674.673,9332.25 674.69,9332.71C674.707,9332.93 674.563,9333.14 674.356,9333.2C674.277,9333.53 674.198,9333.9 674.129,9334.12C674.03,9334.43 673.837,9334.57 673.755,9334.61C673.552,9334.72 673.359,9334.68 673.17,9334.56C673.097,9334.51 672.965,9334.37 672.905,9334.11C672.837,9333.82 672.802,9333.07 672.797,9333.02C672.76,9332.68 672.765,9332.26 672.773,9331.83C672.61,9332.01 672.432,9332.18 672.24,9332.33C671.867,9332.62 671.448,9332.84 671.005,9332.98C670.711,9333.06 670.493,9333.01 670.331,9332.9C670.169,9332.78 669.985,9332.58 669.968,9332.24C669.962,9332.12 669.971,9331.96 669.988,9331.8C669.996,9331.73 670.021,9331.66 670.014,9331.61C669.969,9331.24 669.913,9330.9 669.883,9330.55C669.861,9330.31 669.848,9330.06 669.857,9329.8C669.841,9329.53 670.044,9329.31 670.309,9329.29C670.574,9329.28 670.802,9329.48 670.817,9329.74C670.85,9329.96 670.903,9330.17 670.956,9330.37C671.037,9330.68 671.131,9330.98 671.224,9331.3ZM672.663,9329.95C672.662,9329.95 672.661,9329.95 672.661,9329.94C672.661,9329.95 672.662,9329.95 672.663,9329.95ZM671.198,9331.86C671.184,9332 671.194,9332.11 671.293,9332.1C671.432,9332.08 671.326,9331.96 671.198,9331.86ZM670.581,9331.68C670.577,9331.68 670.573,9331.69 670.569,9331.69C670.573,9331.69 670.577,9331.68 670.581,9331.68Z" style="fill:rgb(248,157,54);"/>
                    </g>
                    <g transform="matrix(1,0,0,1,-1.26366,-9047.63)">
                        <path d="M676.007,9329.55C675.999,9329.53 675.986,9329.51 675.999,9329.52C676.015,9329.52 676.016,9329.53 676.007,9329.55ZM676.007,9329.55C676.012,9329.56 676.015,9329.57 676.013,9329.57C676.003,9329.61 676.025,9329.64 676.04,9329.67C675.967,9329.43 676.084,9329.18 676.317,9329.08C676.563,9328.98 676.844,9329.1 676.945,9329.34C677.047,9329.48 677.012,9329.81 676.889,9330.25C676.852,9330.38 676.804,9330.52 676.748,9330.66C677.318,9330.59 678.107,9330.33 678.251,9330.32C678.514,9330.29 678.756,9330.47 678.791,9330.74C678.827,9331 678.642,9331.24 678.378,9331.28C678.162,9331.33 677.089,9331.71 676.424,9331.83C676.163,9331.87 675.945,9331.85 675.802,9331.83C675.594,9331.79 675.461,9331.67 675.363,9331.58C675.178,9331.39 675.035,9330.98 675.255,9330.49C675.314,9330.35 675.399,9330.2 675.505,9330.06C675.589,9329.94 675.681,9329.84 675.77,9329.73C675.837,9329.66 675.978,9329.59 676.007,9329.55ZM676.615,9330.92C676.563,9331 676.521,9331.07 676.57,9331.08C676.672,9331.1 676.663,9331.02 676.615,9330.92ZM676.46,9330.67C676.442,9330.65 676.426,9330.63 676.413,9330.61C676.371,9330.56 676.163,9330.32 676.146,9330.46C676.129,9330.61 676.258,9330.67 676.46,9330.67Z" style="fill:rgb(248,157,54);"/>
                    </g>
                    <g transform="matrix(1,0,0,1,-1.26366,-9047.63)">
                        <path d="M677.203,9334.74C677.193,9334.79 677.182,9334.83 677.167,9334.86C677.108,9335 677.043,9335.14 676.971,9335.28C676.76,9335.68 676.53,9336.03 676.471,9336.14C676.392,9336.39 676.123,9336.53 675.869,9336.45C675.615,9336.38 675.474,9336.11 675.552,9335.85C675.557,9335.77 675.558,9335.57 675.589,9335.3C675.609,9335.13 675.638,9334.94 675.687,9334.75C675.758,9334.48 675.869,9334.21 675.974,9334.01C676.097,9333.77 676.236,9333.6 676.346,9333.52C676.539,9333.37 676.722,9333.3 676.885,9333.31C677.175,9333.33 677.564,9333.49 677.893,9333.85C678.301,9334.29 678.7,9334.97 678.865,9335.25C679.02,9335.47 678.971,9335.77 678.756,9335.92C678.541,9336.08 678.24,9336.03 678.085,9335.81C677.943,9335.65 677.527,9335.04 677.203,9334.74ZM677.1,9334.66C676.966,9334.56 676.858,9334.54 676.81,9334.66C676.799,9334.69 676.862,9334.69 676.887,9334.69C676.954,9334.69 677.028,9334.68 677.1,9334.66ZM677.238,9334.6C677.29,9334.58 677.346,9334.56 677.307,9334.53C677.274,9334.51 677.254,9334.54 677.238,9334.6Z" style="fill:rgb(248,157,54);"/>
                    </g>
                    <g transform="matrix(1,0,0,1,-1.26366,-9047.63)">
                        <path d="M680.043,9332.82C680.106,9333.16 680.185,9333.49 680.282,9333.81C680.345,9334.02 680.413,9334.24 680.488,9334.44C680.614,9334.39 680.737,9334.34 680.804,9334.32C681.009,9334.28 681.154,9334.3 681.205,9334.32C681.409,9334.4 681.531,9334.51 681.591,9334.64C681.642,9334.76 681.682,9334.9 681.643,9335.06C681.621,9335.14 681.582,9335.26 681.505,9335.37C681.465,9335.43 681.393,9335.48 681.373,9335.53L681.007,9336.51C680.931,9336.77 680.662,9336.91 680.408,9336.84C680.154,9336.76 680.009,9336.49 680.085,9336.24L680.215,9335.73C679.796,9335.79 679.582,9335.49 679.516,9335.37C679.321,9335 679.15,9334.63 679.002,9334.25C678.854,9333.86 678.735,9333.47 678.633,9333.07C678.61,9332.96 678.469,9332.42 678.465,9332.2C678.456,9331.78 678.705,9331.56 678.844,9331.48C679.03,9331.39 679.367,9331.31 679.78,9331.4C680.076,9331.47 680.44,9331.6 680.775,9331.75C681.145,9331.91 681.465,9332.09 681.614,9332.15C681.872,9332.21 682.03,9332.48 681.967,9332.73C681.903,9332.99 681.643,9333.15 681.385,9333.09C681.201,9333.07 680.76,9332.98 680.295,9332.89C680.22,9332.87 680.133,9332.85 680.043,9332.82ZM680.887,9335.42C680.948,9335.45 681.127,9335.54 681.095,9335.44C681.074,9335.37 680.992,9335.38 680.887,9335.42ZM680.342,9334.5C680.193,9334.38 680.049,9334.31 680.072,9334.5C680.081,9334.58 680.2,9334.56 680.342,9334.5ZM679.603,9332.69C679.49,9332.68 679.415,9332.69 679.418,9332.77C679.421,9332.83 679.525,9332.75 679.557,9332.73C679.568,9332.72 679.584,9332.71 679.603,9332.69ZM679.898,9332.42C680.016,9332.28 680.078,9332.16 679.902,9332.16C679.829,9332.17 679.852,9332.29 679.898,9332.42Z" style="fill:rgb(248,157,54);"/>
                    </g>
                </g>
                <g transform="matrix(0.743313,0,0,0.928647,541.341,-8346.5)">
                    <path d="M574.599,9323.8C572.227,9331.42 569.77,9339.18 566.367,9346.41C562.846,9353.89 557.675,9362.82 560.365,9371.42C562.382,9377.86 568.519,9384.35 575.06,9386.24C584.195,9388.88 592.261,9381.94 592.618,9373.01C593.006,9363.31 587.869,9353.23 583.18,9345C579.782,9339.03 575.781,9332.42 575.19,9325.43" style="fill:rgb(241,95,82);"/>
                </g>
                <g transform="matrix(0.820694,0,0,1.02532,438.106,-11.0484)">
                    <g transform="matrix(0.870931,0,0,0.870931,150.351,-7804.82)">
                        <path d="M602.272,9355.99C602.291,9356.7 601.73,9357.29 601.019,9357.31C600.308,9357.33 599.715,9356.77 599.695,9356.06C599.501,9353.88 599.186,9351.6 598.832,9349.28C598.497,9347.08 598.072,9344.85 597.581,9342.65C596.601,9338.24 595.263,9333.93 593.014,9330.32C590.079,9325.61 585.739,9322.06 579.22,9321.01C578.515,9320.92 578.02,9320.27 578.116,9319.56C578.211,9318.86 578.861,9318.36 579.566,9318.46C587.124,9319.29 592.358,9323.13 595.942,9328.42C598.565,9332.3 600.347,9336.97 601.349,9341.84C601.733,9343.72 601.985,9345.61 602.138,9347.5C602.374,9350.42 602.355,9353.28 602.272,9355.99Z" style="fill:rgb(124,31,20);"/>
                    </g>
                    <g transform="matrix(0.870931,0,0,0.870931,150.351,-7804.82)">
                        <path d="M577.927,9320.82C578.044,9320.96 578.167,9321.09 578.294,9321.22C579.976,9322.94 582.185,9324.46 583.593,9326.08C584.089,9326.58 584.078,9327.4 583.569,9327.9C583.059,9328.39 582.242,9328.38 581.746,9327.87C580.186,9326.44 577.834,9325.22 576.005,9323.71C575.011,9322.88 574.19,9321.96 573.598,9320.96C573.535,9320.85 573.068,9319.25 574.512,9318.37C574.995,9318.07 576.228,9317.4 576.378,9317.32C577.354,9316.82 578.314,9316.29 579.324,9315.87C580.84,9315.23 582.389,9314.78 583.935,9314.22C584.571,9313.9 585.346,9314.16 585.665,9314.8C585.984,9315.43 585.727,9316.21 585.092,9316.53C583.951,9317.29 582.855,9318.07 581.686,9318.79C581.115,9319.15 580.534,9319.48 579.944,9319.8C579.359,9320.12 578.758,9320.4 578.169,9320.71C578.135,9320.73 578.048,9320.77 577.927,9320.82ZM576.855,9319.25C576.855,9319.25 576.854,9319.25 576.854,9319.25C576.854,9319.25 576.855,9319.25 576.855,9319.25Z" style="fill:rgb(124,31,20);"/>
                    </g>
                </g>
                <g transform="matrix(0.820694,0,0,1.02532,438.106,-11.0484)">
                    <g transform="matrix(1,0,0,1,71.5446,-9009.16)">
                        <path d="M550.738,9349.96C550.9,9349.36 551.517,9349.01 552.115,9349.17C552.713,9349.33 553.067,9349.95 552.905,9350.55C552.096,9354.1 551.832,9358.11 552.007,9362.11C552.119,9364.68 552.417,9367.25 552.992,9369.69C553.982,9373.91 555.728,9377.78 558.655,9380.54C560.344,9382.15 563.305,9383.93 566.561,9385.32C569.559,9386.6 572.804,9387.56 575.573,9387.7C576.192,9387.72 576.679,9388.24 576.66,9388.85C576.642,9389.47 576.124,9389.96 575.504,9389.94C572.48,9389.91 568.895,9389.03 565.574,9387.76C561.905,9386.36 558.573,9384.46 556.635,9382.74C552.391,9378.93 549.905,9373.21 549.083,9367.03C548.703,9364.18 548.69,9361.24 548.974,9358.38C549.267,9355.42 549.903,9352.56 550.738,9349.96Z" style="fill:rgb(124,31,20);"/>
                    </g>
                    <g transform="matrix(1,0,0,1,71.5446,-9009.16)">
                        <path d="M574.117,9388.51C573.669,9387.81 573.21,9387.12 572.803,9386.39C572.378,9385.63 572.017,9384.86 571.637,9384.08C571.292,9383.56 571.43,9382.86 571.945,9382.52C572.459,9382.18 573.157,9382.31 573.502,9382.83L576.833,9386.57C576.896,9386.65 577.464,9387.35 577.675,9387.65C578.496,9388.79 577.645,9389.88 577.574,9389.95C576.06,9391.34 574.466,9392.06 572.779,9392.31C570.509,9392.66 568.117,9392.19 565.689,9391.89C565.071,9391.85 564.602,9391.32 564.642,9390.7C564.683,9390.08 565.218,9389.61 565.836,9389.65C568.025,9389.67 570.194,9389.87 572.187,9389.37C572.861,9389.2 573.505,9388.93 574.117,9388.51ZM575.212,9387.57C575.212,9387.57 575.212,9387.57 575.212,9387.57C575.212,9387.57 575.212,9387.57 575.212,9387.57ZM574.642,9389.01C574.487,9389.56 574.475,9389.97 574.952,9389.62C575.101,9389.51 574.886,9389.25 574.642,9389.01Z" style="fill:rgb(124,31,20);"/>
                    </g>
                </g>
                <g id="Hand-left" serif:id="Hand left" transform="matrix(0.820694,0,0,1.02532,492.529,-9261.95)">
                    <path d="M403.485,9670.82C409.479,9660.47 414.113,9652.43 419.244,9641.62C420.637,9638.69 424.455,9627.33 424.685,9624.1C425.345,9614.84 423.128,9614.26 422.273,9605C421.728,9599.1 419.743,9587.37 420.202,9581.44C420.859,9572.95 420.459,9564.61 421.101,9556.12C421.825,9546.56 422.837,9541.82 426.864,9536.55C430.889,9531.28 434.35,9534.6 439.475,9532.27C442.454,9530.92 448.628,9526.01 452.332,9526.92C456.282,9527.88 458.671,9531.84 462.441,9532.96C463.455,9533.26 465.653,9531.47 466.456,9530.86C469.247,9528.71 472.215,9524.81 476.029,9524.63C480.507,9524.42 484.448,9529.7 487.879,9531.84C488.288,9532.1 490.063,9530.79 490.458,9530.52C492.495,9529.13 494.616,9526.69 497.173,9526.19C499.734,9525.69 503.241,9526.31 505.569,9527.53C506.456,9528 509.099,9532.12 510.144,9532.01C513.783,9531.64 517.677,9524.66 519.854,9522.09C526.54,9514.18 531.129,9504.98 538.378,9497.5C540.899,9494.9 543.299,9492.54 546.177,9490.35C547.011,9489.72 548.324,9488.32 549.506,9488.74C554.393,9490.5 553.408,9497.45 552.324,9501.29C548.974,9513.13 541.908,9524.27 536.228,9535.08C530.008,9546.92 523.023,9562.52 518.806,9575.33C515.688,9584.8 510.503,9593.32 505.647,9602.07C502.688,9607.41 500.324,9611.66 496.341,9616.11C490.888,9622.21 480.713,9636.31 475.521,9642.65C466.562,9653.61 450.793,9678.51 443.385,9690.48" style="fill:rgb(93,59,43);"/>
                </g>
                <g id="Hand-right" serif:id="Hand right" transform="matrix(0.820694,0,0,1.02532,487.096,-9233.52)">
                    <path d="M831.711,9547.93C831.711,9547.93 824.929,9559.46 821.103,9565.04C816.687,9571.48 805.213,9586.57 805.213,9586.57C793.136,9565.91 791.304,9547.71 772.862,9531.57C765.658,9525.26 765.837,9528.47 757.67,9523.07C753.862,9520.55 746.473,9516.12 743.476,9512.68C739.771,9508.42 734.905,9506.18 727.588,9495.39C724.494,9490.82 724.667,9488.27 727.284,9483.58C728.255,9481.83 730.566,9480.91 731.145,9479.01C733.287,9471.95 726.315,9457.77 724.209,9452.43C718.242,9437.3 712.716,9422.96 710.569,9406.68C710.253,9404.29 710.2,9398.85 711.918,9396.56C718.497,9387.78 720.03,9395.01 722.941,9401.97C729.124,9416.75 728.918,9416.62 736.319,9430.85C737.652,9433.41 738.877,9436.03 740.212,9438.59C740.664,9439.45 740.704,9441.12 741.681,9441.13C742.905,9441.14 743.485,9439.47 744.368,9438.62C746.318,9436.75 749.567,9432.9 752.541,9432.36C756.137,9431.7 759.803,9434.89 763.371,9434.09C768.417,9432.97 767.638,9429.1 772.32,9427.45C776.721,9425.9 778.225,9428.94 782.159,9429.59C785.669,9430.17 789.254,9428.29 792.745,9429.81C795.969,9431.22 795.701,9434.37 796.268,9437.09C797.729,9444.1 799.148,9451.12 800.731,9458.11C802.4,9465.48 804.63,9472.71 806.02,9480.14C807.209,9486.48 805.208,9489.45 807.404,9495.69C809.44,9501.48 814.305,9506.51 816.965,9511.92C822.855,9523.92 828.161,9535.07 831.711,9547.93Z" style="fill:rgb(93,59,43);"/>
                </g>
                <g transform="matrix(0.820694,0,0,1.02532,497.04,-9249.53)">
                    <path d="M446.389,9268.63C446.618,9266.54 447.048,9264.38 447.953,9262.48C449.557,9259.11 452.115,9256.33 453.728,9252.98C454.3,9251.79 455.222,9247.04 457.281,9248.58C459.315,9250.1 459.866,9253 460.212,9255.35C460.801,9259.34 461.322,9263.22 462.705,9267.03" style="fill:rgb(55,109,36);"/>
                </g>
            </g>
        </g>
        <g id="Step-1c" serif:id="Step 1c">
        </g>
        <g id="Step-1a-thumbnail" serif:id="Step 1a thumbnail">
        </g>
        <g id="Step-2-thumbnail" serif:id="Step 2 thumbnail">
        </g>
        <g id="Global-girl-globe" serif:id="Global girl globe">
        </g>
        <g id="Step-2-thumbnail1" serif:id="Step 2 thumbnail">
        </g>
        <g id="Global-girl-globe1" serif:id="Global girl globe">
        </g>
        <g id="Step-2-thumbnail2" serif:id="Step 2 thumbnail">
        </g>
        <g id="Previous-illustrations" serif:id="Previous illustrations">
        </g>
    </g>
</svg>
