<?xml version="1.0" encoding="UTF-8" standalone="no"?>
<!DOCTYPE svg PUBLIC "-//W3C//DTD SVG 1.1//EN" "http://www.w3.org/Graphics/SVG/1.1/DTD/svg11.dtd">
<svg width="100%" height="100%" viewBox="0 0 1280 668" version="1.1" xmlns="http://www.w3.org/2000/svg" xmlns:xlink="http://www.w3.org/1999/xlink" xml:space="preserve" xmlns:serif="http://www.serif.com/" style="fill-rule:evenodd;clip-rule:evenodd;stroke-linecap:round;stroke-miterlimit:75;">
    <g transform="matrix(1,0,0,1,-4097.44,-3332)">
        <g id="Bottom">
        </g>
        <g id="Middle">
        </g>
        <g id="_4.-Redefinition-of-leadership" serif:id="4. Redefinition of leadership" transform="matrix(1,0,0,0.834998,4097.44,3332)">
            <rect x="0" y="0" width="1280" height="800" style="fill:none;"/>
            <clipPath id="_clip1">
                <rect x="0" y="0" width="1280" height="800"/>
            </clipPath>
            <g clip-path="url(#_clip1)">
                <g id="_4.-Redefinition-of-leadership-vector-art" serif:id="4. Redefinition of leadership vector art" transform="matrix(1,0,0,1.19761,0,-207.752)">
                    <g id="Thinking-girl" serif:id="Thinking girl" transform="matrix(0.924947,0,0,0.924947,-562.814,47.6302)">
                        <g id="Neck" transform="matrix(0.995596,-0.0937505,0.0937505,0.995596,-627.937,-5968.94)">
                            <path d="M805.372,6654.95C805.372,6654.95 804.261,6678.96 809.627,6682.13C809.627,6682.13 822.147,6689.21 809.627,6701.06C797.107,6712.91 772.917,6707.27 764.058,6688.16C764.058,6688.16 785.264,6687.87 783.117,6661.27C783.117,6661.27 798.161,6654.44 805.372,6654.95Z" style="fill:rgb(147,91,65);"/>
                        </g>
                        <g id="Face" transform="matrix(1.09542,-0.10315,0.0937505,0.995596,-706.314,-5961.31)">
                            <path d="M800.159,6579.17C796.404,6575.8 789.395,6581.19 782.379,6581.51C777.404,6581.73 769.704,6572.91 765.856,6575.87C757.987,6581.94 758.712,6597.95 756.303,6607.85C755.279,6612.06 757.848,6622.5 759.042,6625.74C760.271,6629.07 764.49,6631.46 764.49,6631.46C764.49,6631.46 765.832,6634.58 767.728,6638.61C769.664,6642.73 772.662,6650.31 777.734,6657.13C783.099,6664.35 790.146,6666.02 794.119,6665.81C797.783,6665.61 805.086,6661.44 810.177,6650C813.675,6642.14 815.236,6637.32 815.601,6634.15C816.015,6630.55 820.165,6630.18 821.71,6627.02C823.545,6623.26 822.58,6620.56 823.266,6616.3C824.853,6606.44 824.326,6600.85 820.054,6591.96C818.507,6588.74 802.856,6581.59 800.159,6579.17Z" style="fill:rgb(165,102,73);"/>
                        </g>
                        <g id="Nose" transform="matrix(1.0823,0.225604,-0.225604,1.0823,1421.54,-6794.23)">
                            <path d="M789.235,6627.1C789.184,6626.75 789.428,6626.42 789.779,6626.37C790.13,6626.32 790.457,6626.56 790.508,6626.91C790.745,6627.97 790.962,6629.09 791.044,6630.41C791.084,6631.06 791.084,6631.77 791.045,6632.52C791.022,6632.97 790.971,6633.44 790.918,6633.92C790.83,6634.62 790.741,6635.34 790.905,6635.96C791.029,6636.43 791.322,6636.82 791.94,6637.04C792.401,6637.2 792.831,6637.07 793.251,6636.88C793.889,6636.6 794.506,6636.21 795.123,6636.04C795.559,6635.91 795.994,6635.87 796.433,6635.98C796.78,6636.06 797.001,6636.4 796.925,6636.75C796.849,6637.1 796.506,6637.32 796.159,6637.24C795.674,6637.15 795.243,6637.45 794.784,6637.72C794.148,6638.1 793.493,6638.5 792.796,6638.65C792.362,6638.74 791.914,6638.73 791.44,6638.6C790.418,6638.31 789.819,6637.74 789.446,6637.06C788.937,6636.14 788.935,6634.92 789.02,6633.74C789.088,6633.03 789.117,6632.36 789.154,6631.74C789.196,6631.03 789.231,6630.38 789.248,6629.76C789.274,6628.79 789.285,6627.93 789.235,6627.1Z" style="fill:rgb(35,40,44);"/>
                        </g>
                        <g id="Mouth" transform="matrix(1.11294,-0.1048,0.1048,1.11294,-146.701,121.597)">
                            <g transform="matrix(1,0,0,1,0,-6161.72)">
                                <path d="M783.218,6646.43C784.001,6646.19 785.349,6646.32 786.395,6645.48C787.134,6644.89 787.844,6644.24 788.829,6644C790.011,6643.71 790.833,6643.47 791.927,6643.65C792.912,6643.82 794.302,6643.64 795.344,6643.97C796.134,6644.21 797.45,6644.95 797.991,6645.53C798.07,6645.62 798.059,6646.26 798.058,6646.36C798.055,6646.55 797.511,6646.97 797.372,6647.09C796.627,6647.71 795.688,6648.24 794.822,6648.68C794.043,6649.09 793.176,6649.31 792.309,6649.4C791.576,6649.49 790.824,6649.47 790.089,6649.44C787.656,6649.31 784.561,6648.79 783.218,6646.43Z" style="fill:rgb(104,50,41);"/>
                            </g>
                            <g transform="matrix(1,0,0,1,0,-6161.72)">
                                <path d="M783.294,6646.43C784.532,6646.3 785.613,6645.96 786.686,6645.32C787.463,6644.86 788.306,6644.06 789.216,6643.89C790.256,6643.69 791.099,6644.06 792.057,6644.08C793.285,6644.11 794.183,6643.47 795.444,6644.01C796.704,6644.54 797.206,6645.32 799.12,6645.06" style="fill:none;stroke:rgb(70,45,42);stroke-width:0.87px;"/>
                            </g>
                            <g transform="matrix(1,0,0,1,0,-6161.72)">
                                <path d="M783.116,6646.8C784.063,6647.57 785.01,6648.44 786.156,6648.91C787.3,6649.38 788.443,6649.44 789.67,6649.47C791.468,6649.52 793.238,6649.44 794.902,6648.67C796.225,6648.06 797.638,6646.36 798.823,6645.53" style="fill:none;stroke:rgb(70,45,42);stroke-width:0.87px;"/>
                            </g>
                            <g transform="matrix(1,0,0,1,0,-6161.72)">
                                <path d="M783.218,6646.39C785.859,6646.83 788.522,6646.69 791.177,6646.52C794.419,6646.3 795.207,6646.08 798.416,6645.53" style="fill:none;stroke:rgb(70,45,42);stroke-width:0.87px;"/>
                            </g>
                        </g>
                        <g id="Eyes" transform="matrix(0.981055,-0.193728,0.193728,0.981055,-83.9015,253.344)">
                            <g transform="matrix(1.14973,-0.0815639,0.070764,0.997493,-581.003,-6080.41)">
                                <path d="M770.236,6614.25C769.936,6614.44 769.561,6614.31 769.399,6613.96C769.236,6613.62 769.347,6613.19 769.647,6613C770.6,6612.27 771.592,6611.68 772.63,6611.3C773.348,6611.04 774.083,6610.89 774.804,6610.8C778.174,6610.38 781.294,6611.31 782.886,6612.1C783.204,6612.24 783.363,6612.65 783.241,6613.02C783.119,6613.39 782.762,6613.57 782.444,6613.43C781.153,6612.92 778.834,6612.51 776.26,6612.74C775.657,6612.79 775.042,6612.89 774.418,6613.01C774.017,6613.08 773.614,6613.17 773.209,6613.27C772.711,6613.39 772.212,6613.52 771.712,6613.69C771.217,6613.85 770.725,6614.02 770.236,6614.25Z" style="fill:rgb(35,40,44);"/>
                            </g>
                            <g transform="matrix(1.09904,-0.173575,0.156,0.987757,-1108.07,-5940.22)">
                                <path d="M795.824,6613.68C795.489,6613.81 795.126,6613.61 795.014,6613.23C794.902,6612.86 795.082,6612.46 795.417,6612.33C795.928,6612.06 796.392,6611.81 796.847,6611.6C797.376,6611.36 797.873,6611.16 798.355,6611.01C798.794,6610.86 799.22,6610.76 799.638,6610.69C800.317,6610.57 800.976,6610.54 801.651,6610.58C803.361,6610.69 805.182,6611.28 807.834,6612.49C808.166,6612.62 808.339,6613.03 808.219,6613.4C808.1,6613.77 807.734,6613.96 807.401,6613.83C804.887,6612.96 803.184,6612.6 801.612,6612.62C801.046,6612.63 800.5,6612.7 799.933,6612.8C799.566,6612.86 799.191,6612.94 798.796,6613.03C798.336,6613.12 797.854,6613.23 797.33,6613.35C796.858,6613.46 796.364,6613.56 795.824,6613.68Z" style="fill:rgb(35,40,44);"/>
                            </g>
                            <g transform="matrix(-0.779641,9.54785e-17,-9.03084e-17,-0.737424,1388.39,5333.07)">
                                <path d="M777.298,6613.34C776.229,6613.37 775.271,6613.63 774.537,6614.54C772.859,6616.63 774.525,6620.23 777.285,6620.15C778.197,6620.13 778.988,6619.32 779.496,6618.65C781.177,6616.45 780.353,6613.54 777.298,6613.34Z" style="fill:rgb(35,40,44);"/>
                            </g>
                            <g transform="matrix(1.23238,0,0,1.3544,-180.139,-8504.86)">
                                <path d="M799.769,6612.86C797.59,6614.8 799.761,6617.47 802.185,6616.07C803.808,6615.13 802.425,6611.61 799.769,6612.86Z" style="fill:rgb(35,40,44);"/>
                            </g>
                        </g>
                        <g id="Clothing">
                            <g transform="matrix(1,0,0,1,-3.59698,-6071.86)">
                                <path d="M755.201,6858.75C755.201,6858.75 752.599,6905.65 756.054,6930.39C759.509,6955.14 755.034,6957.88 757.67,6964.8C757.67,6964.8 814.505,6956.1 849.249,6954.39C849.249,6954.39 833.305,6864.14 827.477,6841.9C827.477,6841.9 766.714,6858.8 755.201,6858.75Z" style="fill:rgb(89,40,116);"/>
                            </g>
                            <g transform="matrix(1,0,0,1,-3.59698,-6071.86)">
                                <path d="M817.049,6683.36C817.049,6683.36 838.73,6681.25 843.206,6700.12C847.681,6718.99 845.934,6754.41 846.354,6762.66C846.354,6762.66 831.602,6764.43 825.502,6763.6L825.271,6771.29C825.271,6771.29 831.423,6827.85 835.132,6839.31C835.132,6839.31 775.615,6860.37 748.013,6858.78C748.013,6858.78 749.187,6812.72 748.013,6778.93C748.013,6778.93 743.979,6757.37 739.81,6738.94C735.641,6720.52 741.154,6692.23 749.208,6691.2C757.261,6690.16 761.479,6688.3 770.229,6686.74C770.229,6686.74 787.75,6700.63 792.285,6702.1C796.82,6703.57 808.075,6687.03 811.18,6683.24L817.049,6683.36Z" style="fill:rgb(117,52,153);"/>
                            </g>
                        </g>
                        <g id="Hair" transform="matrix(1.09542,-0.10315,0.0937505,0.995596,-706.314,-5961.31)">
                            <path d="M752.324,6687.91C752.324,6687.91 751.884,6639.36 751.425,6610.36C751.021,6584.89 769.255,6550.69 791.065,6553.53C794.829,6554.02 795.322,6554.77 796.257,6556.22C803.552,6552.18 830.457,6562.04 827.182,6612.19C824.486,6653.49 822.247,6680.03 821.611,6702.46C820.979,6724.75 823.502,6734.72 821.022,6736.17C818.543,6737.63 803.043,6739.5 801.556,6735.79C798.49,6728.16 803.177,6666.52 803.477,6660.35C803.477,6660.35 813.285,6649.07 816.563,6629.2C816.563,6629.2 820.973,6627.79 820.599,6620.84C820.336,6615.95 817.475,6612.96 817.475,6612.96C817.475,6612.96 789.155,6602.29 784.672,6589.44C784.672,6589.44 783.593,6591.32 781.522,6593.3C772.913,6601.53 766.84,6606.52 765.372,6608.53C762.96,6611.82 763.396,6615.29 763.489,6617.7C763.489,6617.7 752.832,6624.14 764.49,6631.46C764.49,6631.46 773.035,6652.1 783.414,6662.58C783.414,6662.58 783.98,6664.79 783.029,6670.57C782.207,6675.57 781.254,6678.28 778.298,6682.18C773.997,6687.85 760.421,6687.37 752.324,6687.91Z" style="fill:rgb(35,40,44);"/>
                        </g>
                        <g transform="matrix(1,0,0,1,-3.59698,-6071.86)">
                            <path d="M825.236,6763.57L824.802,6772C824.802,6772 808.701,6774.89 794.975,6779.31C781.25,6783.73 771.945,6782.32 762.043,6783.01C752.141,6783.7 740.069,6792.04 738.383,6796.9C736.696,6801.77 730.237,6810.22 731.397,6815.8C732.558,6821.38 738.102,6812.97 743.349,6807.45C748.596,6801.92 750.937,6794.63 757.67,6794.63C764.404,6794.63 809.765,6799.19 818.981,6798.38C828.197,6797.56 838.663,6798.41 841.553,6790.08C844.444,6781.75 847.187,6775.66 846.354,6762.66L825.236,6763.57Z" style="fill:rgb(147,91,65);"/>
                        </g>
                        <g id="Arm" transform="matrix(1,0,0,1,-3.59698,-6071.86)">
                            <path d="M765.958,6638.86C765.958,6638.86 759.977,6658.28 759.305,6662.18C758.633,6666.07 761.397,6674.23 763.363,6677.66C765.329,6681.09 767.853,6687.52 765.444,6694.82C763.035,6702.13 751.917,6744.12 751.804,6752.8C751.729,6758.57 752.481,6790.33 765.935,6790.08C779.389,6789.82 781.859,6769.65 781.607,6765.86C781.355,6762.09 776.853,6727.4 776.013,6717.96C775.173,6708.51 772.713,6697.02 775.118,6681.82C777.523,6666.63 779.446,6660.69 776.336,6662.04C774.078,6663.03 773.101,6669.41 772.232,6672.58C772.232,6672.58 767.281,6669 767.157,6661.76C767.034,6654.51 769.877,6648.9 769.482,6644.8C769.087,6640.7 768.84,6637.95 766.62,6639.75" style="fill:rgb(147,91,65);"/>
                        </g>
                    </g>
                    <g transform="matrix(0.898743,-0.218605,0.2017,0.829239,-1838.53,-4879)">
                        <path d="M1099.7,6571.34C1099.01,6543.44 1082.77,6476.09 1057.15,6461.02C1039.35,6450.55 1004.61,6432.57 984.34,6431.03C942.189,6427.82 910.034,6443.16 877.565,6472.31C863.265,6485.15 854.339,6503.51 847.493,6521.11C833.806,6556.3 823.615,6599.69 829.205,6637.7C831.512,6653.39 838.297,6668.27 846.284,6681.81C859.564,6704.33 877.686,6726.48 901.656,6738.06C950.756,6761.79 1020.88,6747.14 1061.81,6712.66C1090.41,6688.57 1100.78,6614.62 1099.7,6571.34Z" style="fill:rgb(139,217,220);"/>
                        <clipPath id="_clip2">
                            <path d="M1099.7,6571.34C1099.01,6543.44 1082.77,6476.09 1057.15,6461.02C1039.35,6450.55 1004.61,6432.57 984.34,6431.03C942.189,6427.82 910.034,6443.16 877.565,6472.31C863.265,6485.15 854.339,6503.51 847.493,6521.11C833.806,6556.3 823.615,6599.69 829.205,6637.7C831.512,6653.39 838.297,6668.27 846.284,6681.81C859.564,6704.33 877.686,6726.48 901.656,6738.06C950.756,6761.79 1020.88,6747.14 1061.81,6712.66C1090.41,6688.57 1100.78,6614.62 1099.7,6571.34Z"/>
                        </clipPath>
                        <g clip-path="url(#_clip2)">
                            <g id="Leader-girl" serif:id="Leader girl" transform="matrix(0.97167,0.256153,-0.236344,1.05311,116.39,5898.49)">
                                <g id="Neck1" serif:id="Neck" transform="matrix(0.995034,0.0995394,-0.0995394,0.995034,659.773,-6224.01)">
                                    <path d="M955.593,6569.2C955.593,6569.2 957.885,6577.16 955.245,6581.48L947.32,6584.01L963.786,6604.11L970.866,6604.37L982.476,6579.32C982.476,6579.32 968.964,6563.67 968.923,6556.87C968.881,6550.07 955.593,6569.2 955.593,6569.2Z" style="fill:rgb(147,91,65);"/>
                                </g>
                                <g id="Face1" serif:id="Face" transform="matrix(0.995034,0.0995394,-0.0995394,0.995034,659.773,-6224.01)">
                                    <path d="M944.461,6504.27C932.436,6509.64 925.953,6521.04 929.308,6537.02C935.719,6567.55 947.223,6571.73 955.718,6569.17C959.192,6568.12 963.58,6565.38 964.813,6563.61C969.063,6557.52 970.878,6554.89 971.544,6544.05C973.55,6511.37 956.486,6498.91 944.461,6504.27Z" style="fill:rgb(165,102,73);"/>
                                </g>
                                <g id="Nose1" serif:id="Nose" transform="matrix(0.691329,0.213395,-0.213395,0.691329,1820.86,-4367.22)">
                                    <path d="M789.093,6627.12C789.031,6626.69 789.329,6626.29 789.758,6626.23C790.188,6626.17 790.587,6626.46 790.65,6626.89C790.908,6627.95 791.147,6629.07 791.246,6630.4C791.295,6631.07 791.298,6631.77 791.26,6632.54C791.237,6632.99 791.184,6633.45 791.129,6633.94C791.041,6634.62 790.941,6635.31 791.095,6635.9C791.202,6636.32 791.452,6636.67 791.996,6636.87C792.528,6637.06 793.016,6636.82 793.499,6636.58C794.033,6636.32 794.555,6636.04 795.077,6635.89C795.539,6635.77 795.999,6635.72 796.464,6635.84C796.888,6635.94 797.157,6636.36 797.065,6636.78C796.972,6637.2 796.553,6637.47 796.128,6637.38C795.677,6637.3 795.285,6637.6 794.86,6637.86C794.211,6638.25 793.54,6638.66 792.827,6638.82C792.366,6638.93 791.889,6638.91 791.385,6638.77C790.302,6638.47 789.671,6637.86 789.272,6637.15C788.74,6636.2 788.728,6634.94 788.809,6633.71C788.876,6633.01 788.902,6632.35 788.941,6631.74C788.986,6631.03 789.029,6630.38 789.054,6629.77C789.094,6628.8 789.128,6627.95 789.093,6627.12Z" style="fill:rgb(35,40,44);"/>
                                </g>
                                <g id="Eyes1" serif:id="Eyes" transform="matrix(0.798643,0.0798933,-0.0798933,0.798643,360.368,-51.6335)">
                                    <g transform="matrix(1.15141,0.0526794,-0.0457041,0.998955,187.92,-6193.97)">
                                        <path d="M768.301,6615.55C767.952,6615.83 767.473,6615.73 767.231,6615.32C766.989,6614.92 767.076,6614.37 767.425,6614.09C767.825,6613.66 768.233,6613.28 768.677,6612.92C769.128,6612.57 769.603,6612.27 770.096,6612.02C770.495,6611.81 770.909,6611.65 771.327,6611.52C771.964,6611.33 772.613,6611.22 773.259,6611.16C775.483,6610.99 777.673,6611.53 779.519,6612.76C779.898,6612.99 780.048,6613.52 779.856,6613.95C779.663,6614.39 779.2,6614.57 778.822,6614.34C777.509,6613.68 776.052,6613.46 774.575,6613.54C773.514,6613.61 772.461,6613.9 771.408,6614.26C770.89,6614.44 770.37,6614.61 769.854,6614.83C769.33,6615.05 768.81,6615.25 768.301,6615.55Z" style="fill:rgb(35,40,44);"/>
                                    </g>
                                    <g transform="matrix(1.11266,0.00173836,-0.00156234,0.999999,-76.3766,-6159.95)">
                                        <path d="M792.316,6612.68C791.918,6612.88 791.443,6612.69 791.256,6612.25C791.069,6611.81 791.24,6611.28 791.638,6611.07C792.126,6610.71 792.611,6610.41 793.122,6610.15C793.654,6609.89 794.196,6609.69 794.746,6609.55C795.196,6609.43 795.651,6609.36 796.103,6609.33C796.795,6609.28 797.481,6609.31 798.15,6609.4C800.533,6609.71 802.704,6610.73 804.376,6612.02C804.75,6612.28 804.867,6612.82 804.636,6613.24C804.405,6613.66 803.913,6613.79 803.539,6613.53C801.994,6612.6 800.045,6612.01 797.975,6611.93C797.415,6611.9 796.849,6611.94 796.274,6611.98C795.902,6612.01 795.528,6612.05 795.15,6612.1C794.684,6612.16 794.216,6612.22 793.74,6612.32C793.266,6612.43 792.796,6612.51 792.316,6612.68Z" style="fill:rgb(35,40,44);"/>
                                    </g>
                                    <g transform="matrix(-0.779641,9.54785e-17,-9.03084e-17,-0.737424,1382.84,5333.66)">
                                        <path d="M777.298,6613.34C776.229,6613.37 775.271,6613.63 774.537,6614.54C772.859,6616.63 774.525,6620.23 777.285,6620.15C778.197,6620.13 778.988,6619.32 779.496,6618.65C781.177,6616.45 780.353,6613.54 777.298,6613.34Z" style="fill:rgb(35,40,44);"/>
                                    </g>
                                    <g transform="matrix(1.22698,0.115168,-0.126571,1.34847,655.638,-8556.49)">
                                        <path d="M799.769,6612.86C797.59,6614.8 799.761,6617.47 802.185,6616.07C803.808,6615.13 802.425,6611.61 799.769,6612.86Z" style="fill:rgb(35,40,44);"/>
                                    </g>
                                </g>
                                <g transform="matrix(1.16275,0.421454,-0.553455,1.52693,3708.93,-10084.6)">
                                    <g id="Mouth1" serif:id="Mouth">
                                        <path id="Curve" d="M788.377,6646.38C790.684,6646.2 793.124,6645.88 794.426,6645.49C796.481,6644.86 796.782,6644.9 799.317,6643.55C799.423,6643.5 799.324,6644.92 798.408,6645.96C797.765,6646.69 796.794,6647.99 794.521,6648.26C792.633,6648.48 789.666,6647.83 788.377,6646.38Z" style="fill:white;stroke:rgb(104,50,41);stroke-width:0.75px;stroke-linejoin:round;"/>
                                    </g>
                                </g>
                                <g id="Hair1" serif:id="Hair" transform="matrix(0.995034,0.0995394,-0.0995394,0.995034,659.773,-6224.01)">
                                    <path d="M944.461,6512.92C944.461,6512.92 951.228,6524.81 960.246,6529.37C969.263,6533.94 967.478,6526.95 969.482,6537.05C970.707,6543.22 968.61,6553.98 968.727,6563.38C968.802,6569.36 974.918,6577.8 978.977,6576.67C978.977,6576.67 986.556,6668.54 989.476,6675.3C989.476,6675.3 1026.21,6660.6 1036.76,6622.67C1036.76,6622.67 1038.55,6607.69 1044.26,6606.3C1044.26,6606.3 1059.96,6609.91 1024.56,6579.99C989.153,6550.07 995.271,6546.6 990.672,6524C986.074,6501.4 982.955,6495.36 967.645,6491.51C955.229,6488.38 959.113,6490.69 957.089,6490.93C953.502,6491.35 927.408,6494.03 926.614,6528.31C925.821,6562.6 937.967,6586.72 937.967,6587.7C937.967,6588.68 944.461,6598.94 944.461,6598.94L954.383,6582.04C954.383,6582.04 958.419,6581.1 956.63,6568.85C956.63,6568.85 938.542,6577.27 929.308,6537.02C929.308,6537.02 932.131,6533.84 936.384,6530.08C940.636,6526.31 938.955,6519.24 944.461,6512.92Z" style="fill:rgb(35,40,44);"/>
                                </g>
                                <g transform="matrix(0.997013,0.0772326,-0.0772326,0.997013,514.333,-6223.81)">
                                    <path d="M1008.64,6645.66L1013.76,6657.49C1013.76,6657.49 1013.5,6689.99 1012.01,6701.54C1011.58,6704.16 1010.36,6705.53 1009.38,6706.13C1008.84,6706.46 1000.71,6710.39 1000.21,6710.52C1000.05,6710.56 998.11,6716.22 997.889,6719.36C997.625,6723.11 1003.56,6722.28 1005.96,6721.56C1012.56,6719.55 1014.5,6715.89 1015.6,6710.33C1016.64,6705.06 1019.99,6701.51 1022.1,6693.9C1023.31,6689.51 1026.01,6679.26 1027.24,6672.62C1028.57,6665.41 1028.69,6656.72 1028.4,6652.95C1027.94,6646.9 1027.16,6646.7 1020.55,6635.67L1008.64,6645.66Z" style="fill:rgb(147,91,65);"/>
                                </g>
                                <g transform="matrix(1,0,0,1,0,-6161.72)">
                                    <path d="M941.74,6699.77C941.74,6699.77 944.571,6740.68 943.137,6749.36C941.702,6758.05 1004.1,6756.84 1003.68,6747.91L995.328,6694L941.74,6699.77Z" style="fill:rgb(89,40,116);"/>
                                </g>
                                <g transform="matrix(0.00029827,-1,-1,-0.00029827,7713.92,1556.54)">
                                    <path d="M1015.6,6710.33C1016.64,6705.06 1010.36,6705.53 1009.38,6706.13C1008.84,6706.46 1003.73,6708.9 1003.73,6708.9L1007.66,6716.41C1007.66,6716.41 1010.85,6714.02 1009.48,6716.03C1008.16,6717.96 1008.9,6717.02 1006.11,6719C1002.91,6721.28 1003.56,6722.28 1005.96,6721.56C1012.56,6719.55 1014.5,6715.89 1015.6,6710.33Z" style="fill:rgb(147,91,65);"/>
                                </g>
                                <g transform="matrix(0.898669,-0.106722,0.106722,0.898669,-614.622,-5389.84)">
                                    <path d="M920.817,6639.86C920.817,6639.86 916.856,6644.68 914.059,6651.98C912.438,6656.22 907.049,6675.2 904.09,6684.63C901.13,6694.06 891.851,6719.07 891.851,6719.07L897.474,6722.52C897.474,6722.52 920.116,6680.43 924.245,6674.51C928.373,6668.59 928.362,6664.64 930.348,6657.48C932.334,6650.32 934.23,6647.52 934.23,6647.52L920.817,6639.86Z" style="fill:rgb(147,91,65);"/>
                                </g>
                                <g id="Clothing1" serif:id="Clothing" transform="matrix(1,0,0,1,0,-6161.72)">
                                    <path d="M939.089,6634.21C939.089,6634.21 939.389,6692 938.801,6702.06C938.213,6712.12 982.237,6712.99 995.328,6694C995.328,6694 991.003,6636.65 991.979,6624.42C991.979,6624.42 1004.36,6640.67 1006.81,6647.52C1006.81,6647.52 1022.57,6637.37 1024.27,6638.28C1024.27,6638.28 1006.79,6593 997.379,6584.46C987.972,6575.92 979.43,6578.86 979.43,6578.86L967.63,6599.31C967.63,6599.31 967.398,6600.04 965.589,6599.54C963.781,6599.04 954.196,6581.66 954.24,6581.8C954.284,6581.94 938.724,6585.76 935.032,6592.1C928.893,6602.65 928.455,6607.05 924.245,6619.8C923.185,6623 918,6642.29 918,6642.29C918,6642.29 923.493,6644.4 926.614,6645.59C929.735,6646.79 935.666,6648.47 935.666,6648.47L939.089,6634.21Z" style="fill:rgb(117,52,153);"/>
                                </g>
                            </g>
                        </g>
                    </g>
                    <g id="Energy-lines" serif:id="Energy lines" transform="matrix(0.924947,0,0,0.924947,-562.814,47.6302)">
                        <g transform="matrix(1,0,0,1,24.8523,-6185.53)">
                            <path d="M906.149,6434.96C907.815,6436.14 908.208,6438.45 907.027,6440.11C905.845,6441.78 903.535,6442.17 901.869,6440.99C898.084,6438.92 894.28,6437.03 890.505,6434.88C889.011,6434.03 887.543,6433.15 886.098,6432.21C883.934,6430.81 881.821,6429.33 879.736,6427.81C869.186,6420.11 859.106,6411.82 849.565,6403.05C847.999,6401.74 847.791,6399.41 849.101,6397.84C850.411,6396.28 852.746,6396.07 854.312,6397.38C862.584,6403.63 871.361,6409.21 880.104,6414.93C883.862,6417.39 887.659,6419.79 891.303,6422.4C893.405,6423.91 895.432,6425.5 897.417,6427.15C900.45,6429.67 903.245,6432.32 906.149,6434.96Z" style="fill:white;"/>
                        </g>
                        <g transform="matrix(1,0,0,1,36.7027,-6181.27)">
                            <path d="M855.16,6490.85C857.151,6491.3 858.4,6493.28 857.948,6495.28C857.496,6497.27 855.512,6498.52 853.521,6498.06C850.911,6497.78 846.349,6497.5 840.697,6496.77C839.071,6496.57 837.371,6496.31 835.611,6495.97C833.183,6495.51 830.653,6494.94 828.08,6494.3C813.817,6490.76 798.089,6485.96 790.775,6483.2C788.834,6482.57 787.771,6480.48 788.403,6478.53C789.035,6476.59 791.125,6475.53 793.066,6476.16C799.269,6477.85 811.456,6479.92 823.563,6482.24C828.075,6483.11 832.586,6483.93 836.733,6484.92C839.386,6485.56 841.873,6486.28 844.151,6486.99C849.052,6488.53 852.865,6490.03 855.16,6490.85Z" style="fill:white;"/>
                        </g>
                        <g transform="matrix(1,0,0,1,6.1639,-6154.19)">
                            <path d="M971.842,6379.91C971.835,6381.95 970.172,6383.6 968.13,6383.59C966.088,6383.59 964.437,6381.92 964.444,6379.88C963.96,6376.26 963.401,6372.98 963.082,6369.69C962.86,6367.39 962.712,6365.15 962.671,6362.89C962.601,6359.02 962.787,6355.15 962.955,6351.01C963.271,6343.24 963.9,6334.6 964.531,6323.28C964.529,6321.24 966.185,6319.58 968.227,6319.58C970.269,6319.57 971.928,6321.23 971.929,6323.27C972.581,6334.6 973.204,6343.25 973.496,6351.03C973.652,6355.17 973.819,6359.05 973.727,6362.92C973.673,6365.18 973.512,6367.43 973.274,6369.72C972.933,6373.02 972.352,6376.28 971.842,6379.91Z" style="fill:white;"/>
                        </g>
                        <g transform="matrix(1,0,0,1,-3.96958,-6151.48)">
                            <path d="M1051.48,6394.77C1050.33,6396.46 1048.03,6396.9 1046.34,6395.75C1044.65,6394.6 1044.21,6392.3 1045.36,6390.61C1046.69,6388.03 1047.83,6385.5 1049.08,6383.01C1050.36,6380.44 1051.6,6377.94 1052.9,6375.49C1053.97,6373.47 1055.07,6371.5 1056.19,6369.57C1057.94,6366.56 1059.74,6363.66 1061.55,6360.8C1067.81,6350.86 1074.29,6341.58 1082.65,6332.89C1084,6331.36 1086.34,6331.2 1087.87,6332.55C1089.41,6333.89 1089.56,6336.23 1088.21,6337.77C1081.2,6346.57 1076.23,6355.9 1071.02,6365.53C1068.78,6369.67 1066.59,6373.91 1064.05,6378.09C1062.63,6380.43 1061.09,6382.73 1059.43,6385C1057,6388.32 1054.32,6391.48 1051.48,6394.77Z" style="fill:white;"/>
                        </g>
                        <g transform="matrix(1,0,0,1,-1.26366,-6161.72)">
                            <path d="M1091.49,6455.25C1089.54,6455.88 1087.45,6454.81 1086.83,6452.86C1086.2,6450.92 1087.27,6448.84 1089.21,6448.21C1094.32,6445.96 1098.6,6443.92 1102.59,6442.23C1104.47,6441.43 1106.27,6440.71 1108,6440.07C1110.93,6438.99 1113.66,6438.07 1116.29,6437.23C1128.58,6433.27 1138.54,6430.55 1158.87,6425.61C1160.84,6425.05 1162.88,6426.19 1163.45,6428.15C1164.01,6430.11 1162.87,6432.16 1160.91,6432.72C1145.51,6437.88 1136.41,6441.42 1127.38,6444.81C1122.81,6446.52 1118.3,6448.31 1112.95,6450.04C1110.35,6450.88 1107.56,6451.68 1104.47,6452.45C1100.62,6453.42 1096.37,6454.22 1091.49,6455.25Z" style="fill:white;"/>
                        </g>
                    </g>
                    <g id="Thought-bubble" serif:id="Thought bubble" transform="matrix(0.85377,0.355814,-0.355814,0.85377,-333.676,-246.105)">
                        <g transform="matrix(1,0,0,1,0,-6161.72)">
                            <path d="M849.546,6659.17C848.207,6655.19 842.35,6648.39 835.978,6651.93C829.559,6655.49 829.709,6670.69 836.056,6675.28C839.561,6677.81 842.92,6676.65 844.013,6675.8C849.493,6671.56 850.886,6663.15 849.546,6659.17Z" style="fill:rgb(139,217,220);"/>
                        </g>
                        <g transform="matrix(1,0,0,1,0,-6161.72)">
                            <path d="M854.904,6639.86C850.213,6641.06 842.84,6639.7 837.332,6632.76C831.169,6624.99 836.41,6613.22 846.564,6614.21C853.784,6614.92 862.168,6618.56 865.474,6625.52C868.67,6632.24 859.594,6638.65 854.904,6639.86Z" style="fill:rgb(139,217,220);"/>
                        </g>
                    </g>
                </g>
                <g id="Top" transform="matrix(1.05578,0,0,1.26441,530.734,-9013)">
                    <g transform="matrix(1.14477,0,0,1.14477,-499.341,-973.49)">
                        <path d="M472.312,7297.03C488.555,7264.57 525.962,7234.06 552.23,7221.27C562.896,7216.07 591.767,7208.28 610.237,7202.9C664.907,7187 725.777,7192.06 768.886,7217.77C816.167,7245.96 843.014,7294.31 848.633,7346.46C853.919,7395.52 839.967,7447.48 808.558,7486.4C784.876,7515.75 749.854,7538.04 711.377,7549.7C673.105,7561.3 631.762,7562.27 596.033,7551.49C586.532,7548.63 545.529,7524.25 533.716,7514.08C521.455,7503.52 510.855,7491.25 501.983,7477.8C493.586,7465.07 486.738,7451.28 481.481,7436.98C475.097,7419.6 466.097,7393.04 462.862,7367.78C459.507,7341.59 462.574,7316.5 472.307,7297.04L472.312,7297.03Z" style="fill:rgb(97,203,207);"/>
                    </g>
                    <g id="Speech-area" serif:id="Speech area" transform="matrix(1.41611,0,0,1.41611,-123.88,-3138.6)">
                        <path d="M405.356,7559.2C449.758,7462.49 402.58,7382.86 362.028,7367.23C362.028,7367.23 313.778,7417.68 303.191,7432.23C296.243,7441.78 288.733,7450.93 281.133,7459.97C278.178,7463.49 268.735,7471.49 267.288,7472.23C266.561,7472.6 264.243,7473.04 265.043,7473.2C268.569,7473.9 282.435,7477.47 285.853,7478.59C294.62,7481.44 329.873,7499.64 342.994,7509.46C354.346,7517.95 399.441,7572.09 405.356,7559.2Z" style="fill:url(#_Linear3);"/>
                    </g>
                    <g id="Shapes" transform="matrix(1,0,0,1,-512.889,-23.0874)">
                        <path d="M982.409,7330.38C980.313,7329.32 978.306,7328 976.477,7326.46C974.404,7324.72 972.565,7322.7 971.08,7320.5C960.758,7305.2 969.052,7289.15 978.506,7283.88C982.852,7281.45 987.462,7281.21 991.138,7283.45C994.708,7285.61 997.722,7290.47 998.044,7299.25C998.112,7301.12 998.054,7303 997.896,7304.86C997.741,7306.7 997.487,7308.53 997.159,7310.35C996.602,7313.44 995.776,7316.49 994.767,7319.49C993.909,7322.04 992.917,7324.55 991.843,7326.99C997.607,7327.75 1003.44,7325.93 1009.26,7322.82C1027.42,7313.11 1045.33,7291.21 1060.21,7284.54C1069.24,7280.5 1077.88,7282.23 1083.93,7287.36C1089.75,7292.28 1093.2,7300.41 1092.08,7309.7C1091.93,7311 1090.76,7311.94 1089.46,7311.79C1088.16,7311.64 1087.23,7310.46 1087.38,7309.16C1088.19,7301.66 1085.46,7295.09 1080.74,7291.17C1076.02,7287.26 1069.32,7286.1 1062.38,7289.3C1047.62,7296.1 1030.07,7318.16 1012.07,7328.02C1004.44,7332.19 996.733,7334.26 989.119,7332.72C987.982,7334.94 986.766,7337.1 985.456,7339.2C983.23,7342.78 980.728,7346.17 977.871,7349.35C973.722,7353.96 968.851,7358.35 963.448,7361.84C957.89,7365.42 951.773,7368.04 945.326,7369.06C940.745,7369.77 936.145,7369.83 931.541,7369.5C921.464,7368.79 911.369,7366.24 901.396,7365.69C890.729,7365.06 880.217,7368.27 871.712,7374.2C863.096,7380.21 856.506,7388.99 853.934,7399.5C853.64,7400.77 852.368,7401.57 851.094,7401.27C849.821,7400.98 849.025,7399.71 849.318,7398.43C851.875,7386.61 858.958,7376.57 868.425,7369.61C877.85,7362.69 889.653,7358.86 901.699,7359.3C911.706,7359.7 921.868,7362.07 931.981,7362.65C936.071,7362.89 940.152,7362.82 944.212,7362.15C949.697,7361.25 954.87,7358.93 959.595,7355.87C964.46,7352.72 968.852,7348.76 972.595,7344.61C975.185,7341.74 977.451,7338.68 979.473,7335.46C980.512,7333.81 981.488,7332.11 982.409,7330.38ZM985.129,7324.85C986.255,7322.38 987.298,7319.84 988.188,7317.26C989.108,7314.58 989.868,7311.86 990.385,7309.1C990.685,7307.5 990.921,7305.89 991.069,7304.26C991.214,7302.67 991.276,7301.07 991.229,7299.47C991.06,7293.64 989.784,7290.24 987.351,7289.01C984.442,7287.53 980.756,7289.57 977.82,7292.79C972.848,7298.23 970.199,7307.77 976.308,7317C977.457,7318.74 978.889,7320.33 980.503,7321.71C981.929,7322.94 983.493,7324 985.129,7324.85Z" style="fill:rgb(241,95,82);"/>
                        <g transform="matrix(1,0,0,1,51.6751,-22.1637)">
                            <path d="M915.716,7411.14C916.96,7410.74 918.296,7411.42 918.696,7412.66C919.096,7413.91 918.41,7415.24 917.166,7415.64C910.796,7417.8 904.381,7420.57 898.882,7424.44C893.609,7428.16 889.202,7432.91 886.632,7439.23C880.721,7453.62 883.916,7468.07 892.292,7478.28C900.651,7488.48 914.208,7494.45 929.183,7491.74C944.046,7489.14 953.177,7476.25 955.157,7462.56C957.138,7448.86 951.969,7434.18 937.66,7427.88C928.268,7423.74 915.828,7428.92 907.445,7437.02C898.98,7445.2 894.389,7456.74 902.585,7465.66C909.008,7472.65 918.356,7473.76 925.33,7470.83C932.484,7467.82 936.98,7460.43 932.845,7450.88C931.36,7447.45 926.853,7445.77 922.861,7445.88C919.094,7445.98 915.554,7447.84 915.971,7452.27C916.102,7453.57 915.152,7454.73 913.851,7454.86C912.551,7454.99 911.389,7454.04 911.259,7452.74C910.588,7446.42 914.292,7442.78 919.259,7441.47C925.866,7439.74 934.755,7442.71 937.492,7448.83C943.22,7461.66 937.058,7471.63 927.451,7475.8C918.607,7479.63 906.676,7478.37 898.39,7469.55C887.769,7458.24 892.433,7443.23 903.173,7432.64C913.318,7422.64 928.713,7417 940.242,7421.94C957.588,7429.4 964.246,7446.96 961.968,7463.52C959.687,7480.11 948.401,7495.51 930.427,7498.75C912.731,7501.83 896.696,7494.73 886.989,7482.57C877.379,7470.53 873.944,7453.57 881.169,7436.92C883.725,7431.09 887.577,7426.41 892.242,7422.65C898.981,7417.21 907.391,7413.68 915.716,7411.14Z" style="fill:rgb(245,167,174);"/>
                        </g>
                        <g transform="matrix(1,0,0,1,74.2251,-33.0119)">
                            <path d="M973.884,7404.62C973.126,7403.64 973.305,7402.23 974.285,7401.47C975.264,7400.71 976.674,7400.89 977.432,7401.87C978.853,7403.21 980.283,7404.43 981.656,7405.81C982.2,7406.36 982.719,7406.92 983.215,7407.51C983.959,7408.4 984.654,7409.33 985.318,7410.28C988.706,7415.11 991.56,7420.24 993.815,7425.76C994.356,7426.87 993.89,7428.21 992.776,7428.75C991.662,7429.29 990.318,7428.83 989.778,7427.71C987.507,7423.74 984.727,7420.22 981.916,7416.67C980.696,7415.14 979.425,7413.64 978.265,7412.05C977.592,7411.13 976.975,7410.18 976.384,7409.2C975.473,7407.69 974.723,7406.17 973.884,7404.62Z" style="fill:rgb(14,121,106);"/>
                            <path d="M995.386,7396.16C994.991,7394.99 995.623,7393.71 996.796,7393.32C997.97,7392.92 999.244,7393.55 999.639,7394.73C1000.68,7396.82 1001.64,7398.87 1002.43,7401.04C1002.74,7401.91 1003.01,7402.78 1003.24,7403.67C1003.58,7404.99 1003.84,7406.34 1004.05,7407.69C1005.07,7414.34 1005.16,7421.06 1005.3,7427.88C1005.39,7429.11 1004.47,7430.19 1003.23,7430.28C1002,7430.38 1000.92,7429.45 1000.82,7428.21C1000.1,7422.86 999.214,7417.61 998.203,7412.37C997.776,7410.15 997.26,7407.96 996.844,7405.74C996.549,7404.16 996.325,7402.58 996.078,7400.98C995.828,7399.37 995.678,7397.78 995.386,7396.16Z" style="fill:rgb(14,121,106);"/>
                            <path d="M1019.07,7388.52C1019.31,7387.31 1020.48,7386.51 1021.7,7386.75C1022.92,7386.98 1023.71,7388.16 1023.48,7389.38C1023.62,7390.23 1023.81,7390.91 1023.87,7391.77C1023.91,7392.29 1023.91,7392.8 1023.85,7393.31C1023.73,7394.19 1023.45,7395.04 1023.2,7395.89C1022.59,7397.91 1021.82,7399.8 1021.12,7401.8C1020.9,7403.02 1019.73,7403.83 1018.51,7403.6C1017.3,7403.38 1016.49,7402.21 1016.71,7400.99C1016.77,7398.87 1016.74,7396.82 1016.91,7394.7C1016.99,7393.81 1017.04,7392.92 1017.26,7392.05C1017.39,7391.54 1017.58,7391.07 1017.8,7390.6C1018.18,7389.83 1018.62,7389.26 1019.07,7388.52Z" style="fill:rgb(14,121,106);"/>
                            <path d="M1038.6,7382.89C1038.94,7381.7 1040.19,7381.01 1041.38,7381.36C1042.57,7381.71 1043.25,7382.95 1042.91,7384.14C1042.41,7386.85 1041.99,7389.52 1041.4,7392.19C1041.02,7393.96 1040.59,7395.72 1040.09,7397.46C1039.23,7400.49 1038.21,7403.48 1037.22,7406.47C1034.93,7413.42 1032.53,7420.31 1030.43,7427.41C1030.14,7428.61 1028.92,7429.35 1027.72,7429.05C1026.51,7428.75 1025.78,7427.53 1026.08,7426.33C1027.93,7417.36 1029.95,7408.57 1032.39,7399.85C1032.87,7398.11 1033.38,7396.38 1033.95,7394.66C1034.33,7393.52 1034.73,7392.39 1035.17,7391.26C1036.25,7388.44 1037.46,7385.71 1038.6,7382.89Z" style="fill:rgb(14,121,106);"/>
                            <path d="M954.918,7427.41C953.793,7426.89 953.299,7425.56 953.816,7424.43C954.334,7423.31 955.667,7422.81 956.792,7423.33C958.874,7423.97 960.912,7424.55 962.952,7425.29C964.29,7425.78 965.605,7426.31 966.899,7426.9C969.145,7427.92 971.316,7429.09 973.508,7430.22C978.566,7432.83 983.568,7435.5 988.875,7437.73C990.042,7438.15 990.651,7439.43 990.235,7440.6C989.819,7441.76 988.535,7442.37 987.368,7441.96C980.426,7439.88 973.74,7437.38 967.195,7434.46C965.901,7433.88 964.617,7433.27 963.359,7432.62C962.521,7432.18 961.704,7431.72 960.894,7431.23C958.858,7429.99 956.944,7428.67 954.918,7427.41Z" style="fill:rgb(14,121,106);"/>
                            <path d="M971.816,7462.69C970.668,7463.15 969.36,7462.6 968.897,7461.45C968.434,7460.3 968.991,7458.99 970.139,7458.53C970.967,7457.93 971.659,7457.3 972.497,7456.72C973.295,7456.16 974.079,7455.61 974.932,7455.14C976.113,7454.49 977.362,7453.97 978.588,7453.39C981.523,7452.02 984.45,7450.72 987.33,7449.27C988.377,7448.61 989.764,7448.93 990.424,7449.98C991.085,7451.02 990.771,7452.41 989.723,7453.07C986.484,7455.55 983.296,7458.11 979.759,7460.18C979.045,7460.6 978.311,7460.99 977.55,7461.31C977.033,7461.53 976.514,7461.72 975.974,7461.86C974.575,7462.25 973.246,7462.46 971.816,7462.69Z" style="fill:rgb(14,121,106);"/>
                            <path d="M971.286,7502.99C970.456,7503.91 969.036,7503.98 968.117,7503.15C967.199,7502.32 967.128,7500.9 967.959,7499.98C969.448,7497.97 970.777,7495.93 972.166,7493.91C973.564,7491.87 974.905,7489.84 976.294,7487.84C979.101,7483.79 981.919,7479.8 984.52,7475.63C987.984,7470.09 991.286,7464.41 994.466,7458.48C995.008,7457.37 996.352,7456.9 997.465,7457.44C998.579,7457.99 999.043,7459.33 998.501,7460.44C994.308,7469.92 990.058,7479.02 984.639,7487.51C983.539,7489.23 982.382,7490.92 981.138,7492.56C980.311,7493.65 979.444,7494.7 978.533,7495.73C976.279,7498.27 973.845,7500.63 971.286,7502.99Z" style="fill:rgb(14,121,106);"/>
                            <path d="M999.847,7497.87C999.379,7499.02 998.068,7499.57 996.921,7499.1C995.775,7498.63 995.224,7497.32 995.693,7496.18C995.937,7494.93 996.084,7493.73 996.36,7492.48C996.625,7491.28 996.899,7490.09 997.266,7488.91C997.771,7487.29 998.417,7485.71 998.996,7484.11C1000.36,7480.34 1001.7,7476.61 1002.62,7472.77C1002.81,7471.55 1003.96,7470.72 1005.18,7470.91C1006.41,7471.1 1007.24,7472.25 1007.05,7473.47C1006.62,7478.56 1005.84,7483.7 1004.4,7488.69C1004.12,7489.68 1003.8,7490.66 1003.41,7491.61C1003.15,7492.24 1002.86,7492.86 1002.54,7493.47C1001.71,7495.02 1000.78,7496.41 999.847,7497.87Z" style="fill:rgb(14,121,106);"/>
                            <path d="M1027.83,7490.68C1028.17,7491.87 1027.49,7493.11 1026.3,7493.45C1025.11,7493.79 1023.86,7493.11 1023.52,7491.92C1022.61,7489.81 1021.69,7487.76 1020.91,7485.6C1020.39,7484.18 1019.93,7482.74 1019.53,7481.28C1018.85,7478.75 1018.34,7476.16 1017.83,7473.58C1016.64,7467.59 1015.71,7461.56 1014.57,7455.57C1014.28,7454.36 1015.02,7453.15 1016.22,7452.86C1017.43,7452.56 1018.64,7453.3 1018.93,7454.5C1020.69,7460.36 1022.44,7466.21 1024.06,7472.11C1024.74,7474.62 1025.47,7477.12 1026.04,7479.66C1026.45,7481.47 1026.76,7483.3 1027.06,7485.13C1027.37,7486.99 1027.55,7488.82 1027.83,7490.68Z" style="fill:rgb(14,121,106);"/>
                            <path d="M1041.99,7474.86C1042.7,7475.88 1042.45,7477.28 1041.43,7477.98C1040.41,7478.69 1039.01,7478.44 1038.31,7477.42C1037.18,7476.35 1036.09,7475.37 1035.04,7474.22C1034.64,7473.77 1034.26,7473.3 1033.91,7472.81C1033.38,7472.08 1032.91,7471.32 1032.46,7470.54C1030.25,7466.64 1028.49,7462.56 1026.62,7458.44C1026.02,7457.36 1026.41,7455.99 1027.5,7455.39C1028.58,7454.79 1029.95,7455.18 1030.55,7456.26C1032.58,7459.25 1034.7,7462.1 1036.75,7465.04C1037.62,7466.29 1038.52,7467.51 1039.3,7468.82C1039.85,7469.77 1040.31,7470.75 1040.77,7471.75C1041.23,7472.79 1041.56,7473.8 1041.99,7474.86Z" style="fill:rgb(14,121,106);"/>
                            <path d="M1063.54,7458.21C1064.65,7458.76 1065.1,7460.11 1064.55,7461.22C1064,7462.32 1062.65,7462.78 1061.54,7462.22C1059.89,7461.75 1058.3,7461.37 1056.68,7460.82C1056.04,7460.61 1055.42,7460.37 1054.81,7460.1C1053.89,7459.7 1053,7459.24 1052.12,7458.76C1047.7,7456.33 1043.53,7453.56 1039.32,7450.73C1038.24,7450.11 1037.87,7448.74 1038.48,7447.67C1039.09,7446.59 1040.47,7446.22 1041.54,7446.83C1045.22,7448.57 1048.94,7450.06 1052.63,7451.69C1054.22,7452.4 1055.82,7453.07 1057.35,7453.89C1058.23,7454.36 1059.07,7454.89 1059.9,7455.45C1061.18,7456.32 1062.3,7457.27 1063.54,7458.21Z" style="fill:rgb(14,121,106);"/>
                            <path d="M1059.78,7421C1060.92,7420.53 1062.24,7421.07 1062.71,7422.22C1063.18,7423.36 1062.64,7424.68 1061.5,7425.15C1060.18,7425.96 1058.97,7426.83 1057.66,7427.65C1056.38,7428.45 1055.1,7429.24 1053.78,7429.98C1051.92,7431 1050,7431.9 1048.11,7432.86C1043.61,7435.15 1039.12,7437.39 1034.64,7439.69C1033.57,7440.32 1032.19,7439.97 1031.56,7438.9C1030.93,7437.84 1031.28,7436.46 1032.35,7435.83C1037.51,7432.34 1042.53,7428.63 1047.92,7425.5C1049.02,7424.87 1050.13,7424.27 1051.28,7423.74C1052.05,7423.38 1052.83,7423.06 1053.63,7422.78C1055.66,7422.06 1057.69,7421.53 1059.78,7421Z" style="fill:rgb(14,121,106);"/>
                            <path d="M1052.25,7393.92C1052.86,7392.84 1054.23,7392.47 1055.31,7393.08C1056.38,7393.69 1056.76,7395.06 1056.15,7396.14C1055.57,7397.79 1055.07,7399.39 1054.4,7401.01C1054.14,7401.64 1053.85,7402.26 1053.53,7402.86C1053.05,7403.77 1052.52,7404.64 1051.97,7405.5C1049.18,7409.8 1046.06,7413.83 1043,7417.93C1042.33,7418.98 1040.94,7419.28 1039.9,7418.61C1038.85,7417.95 1038.55,7416.56 1039.22,7415.52C1041.17,7411.87 1042.98,7408.18 1044.93,7404.53C1045.76,7402.97 1046.56,7401.4 1047.51,7399.91C1048.19,7398.84 1048.94,7397.83 1049.73,7396.84C1050.54,7395.81 1051.4,7394.91 1052.25,7393.92Z" style="fill:rgb(14,121,106);"/>
                        </g>
                        <g transform="matrix(1,0,0,1,123.608,-96.6971)">
                            <path d="M780.852,7559.95C779.675,7559 779.491,7557.27 780.442,7556.1C781.393,7554.92 783.121,7554.74 784.298,7555.69C790.042,7560.09 792.807,7564.19 794.116,7568.07C795.779,7572.99 794.982,7577.7 794.242,7582.75C793.512,7587.73 792.9,7593.12 796.669,7599.81C798.83,7603.69 801.883,7605.72 805.279,7606.87C811.236,7608.9 818.17,7608.49 824.203,7609.19C830.148,7609.87 835.302,7611.6 838.794,7615.75C841.51,7619 843.096,7622.6 843.963,7626.44C845.454,7633.04 844.7,7640.36 844.744,7647.35C844.781,7653.21 845.329,7658.85 849.683,7663.22C854.931,7668.5 862.011,7667.88 869.405,7666.68C877.866,7665.31 886.75,7662.98 894.65,7664.09C899.27,7664.74 903.592,7666.48 907.393,7670.01C911.806,7674.11 914.348,7679.94 916.064,7686.47C918.178,7694.51 919.067,7703.63 921.779,7711.07C923.681,7716.28 926.486,7720.66 931.741,7722.79C933.149,7723.35 933.841,7724.94 933.286,7726.35C932.731,7727.75 931.137,7728.45 929.729,7727.89C925.036,7726.09 921.716,7722.99 919.242,7719.07C915.148,7712.58 913.537,7703.67 911.65,7695.04C909.936,7687.19 908.085,7679.55 902.913,7674.92C897.184,7669.79 889.972,7670.28 882.593,7671.53C874.01,7672.98 865.162,7675.53 857.427,7674.7C852.586,7674.18 848.14,7672.42 844.289,7668.67C841.182,7665.64 839.32,7662.18 838.218,7658.44C836.308,7651.95 836.893,7644.55 836.858,7637.35C836.829,7631.46 836.431,7625.67 832.503,7621.04C829.712,7617.71 825.045,7617.43 820.088,7617.03C814.309,7616.56 808.096,7616.32 802.655,7614.35C797.593,7612.51 793.117,7609.3 790.03,7603.39C785.562,7594.72 786.36,7587.91 787.543,7581.63C788.298,7577.62 789.328,7573.91 788.187,7569.91C787.306,7566.83 785.167,7563.62 780.852,7559.95Z" style="fill:rgb(58,174,163);"/>
                        </g>
                    </g>
                    <g id="Girl-1" serif:id="Girl 1" transform="matrix(1,0,0,1,8.54661,-51.4961)">
                        <g id="Arm1" serif:id="Arm" transform="matrix(0.992432,0.122795,-0.122795,0.992432,926.354,33.3611)">
                            <path d="M172.233,7562.28L152.661,7580.95C152.661,7580.95 135.861,7570.39 125.352,7564.4C114.844,7558.4 109.056,7556.66 107.277,7553.49C105.499,7550.31 103.187,7544.02 100.788,7539.34C98.389,7534.65 96.143,7539.81 99.179,7548.25C99.179,7548.25 98.376,7552.22 89.123,7546.31C79.871,7540.4 76.045,7538.48 70.443,7538.79C64.841,7539.11 72.789,7542.99 74.695,7546.31C76.601,7549.62 92.279,7559.68 97.339,7561.14C102.398,7562.6 105.974,7565.54 111.5,7570.3C117.363,7575.34 143.272,7595.77 147.592,7598.69C151.912,7601.61 155.591,7598.05 162.481,7594.43C169.371,7590.81 177.876,7583.66 180.309,7581.19C183.453,7578.01 172.233,7562.28 172.233,7562.28Z" style="fill:rgb(147,91,65);"/>
                        </g>
                        <g id="Arm2" serif:id="Arm" transform="matrix(0.991459,-0.130422,0.130422,0.991459,-994.496,93.4153)">
                            <path d="M271.812,7576.58C271.812,7576.58 290.828,7617.54 299.97,7613.97C309.112,7610.4 333.038,7593.07 338.416,7589.7C343.795,7586.33 355.317,7571.96 361.128,7569.5C366.939,7567.03 386.646,7552.75 387.847,7546.31C389.048,7539.86 374.574,7551.34 371.172,7554.7C367.769,7558.06 367.394,7555.64 367.394,7555.64C367.394,7555.64 376.751,7546.4 370.994,7548.81C365.236,7551.21 363.362,7552.17 359.331,7556.54C355.3,7560.91 355.32,7561.84 348.621,7565.19C341.923,7568.55 306.735,7587.78 302.565,7587.33C298.395,7586.88 290.606,7571.71 290.606,7571.71L271.812,7576.58Z" style="fill:rgb(147,91,65);"/>
                        </g>
                        <g id="Skirt" transform="matrix(1.12719,0,0,1,-40.3178,25.113)">
                            <path d="M200.414,7699.02L200.623,7655.57C200.623,7655.57 262.028,7653.53 265.246,7652.09C265.246,7652.09 265.343,7694.13 265.246,7702.69C265.246,7702.69 231.757,7715.42 200.414,7699.02Z" style="fill:rgb(248,157,54);"/>
                        </g>
                        <path id="Neck2" serif:id="Neck" d="M210.515,7518.81C210.515,7518.81 215.421,7515.48 217.483,7512.37C219.546,7509.26 219.007,7501.89 218.567,7498.03C218.567,7498.03 234.468,7505.95 238.674,7496.8C238.674,7496.8 236.949,7505.24 237.797,7508.83C238.848,7513.28 243.475,7514.71 246.016,7515.2C249.764,7515.92 251.873,7516.27 251.873,7516.27C251.873,7516.27 250.545,7545.63 237.657,7546.26C224.769,7546.89 205.689,7537.58 210.515,7518.81Z" style="fill:rgb(147,91,65);"/>
                        <path id="Clothing2" serif:id="Clothing" d="M211.163,7518.52C211.163,7518.52 202.943,7522.19 199.205,7523.73C196.094,7525.02 191.418,7528.79 182.417,7538.32C174.265,7546.96 151.044,7571.09 148.476,7573.63C146.863,7575.22 121.119,7553.77 117.466,7551.52C114.024,7549.4 108.237,7562.23 108.911,7564.14C110.2,7567.79 124.588,7583.62 139.256,7593.59C142.496,7595.79 150.102,7595.44 159.516,7589.02C168.193,7583.11 188.518,7572.15 194.635,7567.91C194.635,7567.91 192.028,7604.81 189.933,7626.84C189.035,7636.29 178.875,7702.42 179.654,7710.09C179.654,7710.09 213.218,7708.36 220.01,7708.2C226.803,7708.04 265.144,7707.79 265.254,7701.93C265.501,7688.7 258.713,7593.42 258.713,7587.89L258.713,7564.3C258.713,7564.3 268.815,7578 272.895,7583.87C278.991,7592.64 287.233,7601.92 292.298,7603.64C298.774,7605.83 321.822,7584.3 329.126,7578.03C347.732,7562.07 348.447,7558.83 346.84,7555.86C345.074,7552.58 341.691,7545.54 338.129,7547.85C310.739,7565.6 298.183,7576.64 294.827,7576.47C292.004,7576.33 279.647,7548.14 269.391,7528.35C262.554,7515.16 245.445,7515.08 245.445,7515.08C245.445,7515.08 247.173,7527.09 242.825,7529.56C235.123,7533.92 214.388,7534.28 213.146,7528.86C211.437,7521.42 211.163,7518.52 211.163,7518.52Z" style="fill:rgb(172,52,16);"/>
                        <clipPath id="_clip4">
                            <path id="Clothing3" serif:id="Clothing" d="M211.163,7518.52C211.163,7518.52 202.943,7522.19 199.205,7523.73C196.094,7525.02 191.418,7528.79 182.417,7538.32C174.265,7546.96 151.044,7571.09 148.476,7573.63C146.863,7575.22 121.119,7553.77 117.466,7551.52C114.024,7549.4 108.237,7562.23 108.911,7564.14C110.2,7567.79 124.588,7583.62 139.256,7593.59C142.496,7595.79 150.102,7595.44 159.516,7589.02C168.193,7583.11 188.518,7572.15 194.635,7567.91C194.635,7567.91 192.028,7604.81 189.933,7626.84C189.035,7636.29 178.875,7702.42 179.654,7710.09C179.654,7710.09 213.218,7708.36 220.01,7708.2C226.803,7708.04 265.144,7707.79 265.254,7701.93C265.501,7688.7 258.713,7593.42 258.713,7587.89L258.713,7564.3C258.713,7564.3 268.815,7578 272.895,7583.87C278.991,7592.64 287.233,7601.92 292.298,7603.64C298.774,7605.83 321.822,7584.3 329.126,7578.03C347.732,7562.07 348.447,7558.83 346.84,7555.86C345.074,7552.58 341.691,7545.54 338.129,7547.85C310.739,7565.6 298.183,7576.64 294.827,7576.47C292.004,7576.33 279.647,7548.14 269.391,7528.35C262.554,7515.16 245.445,7515.08 245.445,7515.08C245.445,7515.08 247.173,7527.09 242.825,7529.56C235.123,7533.92 214.388,7534.28 213.146,7528.86C211.437,7521.42 211.163,7518.52 211.163,7518.52Z"/>
                        </clipPath>
                        <g clip-path="url(#_clip4)">
                            <g transform="matrix(1,0,0,1,-438.976,68.2207)">
                                <path d="M663.551,7466.08C663.524,7465.47 664.003,7464.94 664.622,7464.91C665.241,7464.89 665.765,7465.37 665.792,7465.99C666.285,7474.38 666.418,7482.9 666.286,7491.45C666.167,7499.08 665.858,7506.73 665.465,7514.32C665.201,7519.42 664.878,7524.5 664.587,7529.53C664.406,7532.49 664.298,7536.71 664.217,7541.38C664.048,7551.2 664.018,7562.98 663.892,7569.22C663.522,7586.75 664.433,7593.4 664.285,7605.14C664.232,7609.39 664.039,7614.29 663.601,7620.6C663.351,7624.22 663.744,7630.45 663.683,7635.22C663.665,7636.64 663.608,7637.93 663.486,7639C663.42,7639.61 662.866,7640.06 662.251,7639.99C661.635,7639.93 661.189,7639.37 661.255,7638.76C661.357,7637.75 661.394,7636.54 661.394,7635.2C661.397,7630.39 660.931,7624.1 661.14,7620.45C661.498,7614.19 661.628,7609.33 661.632,7605.12C661.646,7593.36 660.669,7586.72 660.849,7569.18C660.919,7562.93 660.823,7551.15 660.923,7541.34C660.971,7536.61 661.069,7532.33 661.236,7529.34C661.534,7524.31 661.826,7519.23 662.134,7514.14C662.591,7506.57 663.032,7498.96 663.319,7491.37C663.641,7482.89 663.802,7474.43 663.551,7466.08Z" style="fill:rgb(124,31,20);"/>
                            </g>
                            <g transform="matrix(1.49823,0,0,1.49823,-766.963,-3661.45)">
                                <path d="M664.927,7489.7C664.58,7487.08 661.922,7484.79 660.691,7488.01C660.346,7488.91 660.671,7492.31 662.341,7491.96C663.493,7491.71 665.021,7490.4 664.927,7489.7Z" style="fill:rgb(172,52,16);"/>
                                <path d="M665.669,7489.6C665.757,7490.09 665.418,7490.84 664.763,7491.5C664.151,7492.12 663.275,7492.66 662.531,7492.85C661.573,7493.1 660.83,7492.65 660.293,7491.85C659.8,7491.11 659.547,7489.97 659.504,7489.04C659.476,7488.44 659.56,7487.93 659.669,7487.62C660.456,7485.53 661.792,7485.09 662.931,7485.4C663.466,7485.54 664.015,7485.87 664.454,7486.39C665.127,7487.19 665.63,7488.37 665.669,7489.6ZM664.183,7489.79C664.202,7489.76 664.205,7489.74 664.176,7489.74C664.173,7489.73 664.171,7489.73 664.17,7489.74C663.939,7488.81 663.315,7488.04 662.684,7487.65C662.29,7487.4 661.987,7487.67 661.713,7488.4C661.603,7488.66 661.593,7489.22 661.666,7489.78C661.716,7490.16 661.789,7490.54 661.95,7490.83C662.01,7490.94 662.027,7491.09 662.151,7491.07C662.472,7491.01 662.835,7490.86 663.166,7490.65C663.484,7490.46 663.782,7490.23 663.984,7489.99C664.04,7489.93 664.145,7489.85 664.183,7489.79Z" style="fill:rgb(124,31,20);"/>
                            </g>
                            <g transform="matrix(1.49823,0,0,1.49823,-768.406,-3630.53)">
                                <path d="M664.927,7489.7C664.58,7487.08 661.922,7484.79 660.691,7488.01C660.346,7488.91 660.671,7492.31 662.341,7491.96C663.493,7491.71 665.021,7490.4 664.927,7489.7Z" style="fill:rgb(172,52,16);"/>
                                <path d="M665.669,7489.6C665.757,7490.09 665.418,7490.84 664.763,7491.5C664.151,7492.12 663.275,7492.66 662.531,7492.85C661.573,7493.1 660.83,7492.65 660.293,7491.85C659.8,7491.11 659.547,7489.97 659.504,7489.04C659.476,7488.44 659.56,7487.93 659.669,7487.62C660.456,7485.53 661.792,7485.09 662.931,7485.4C663.466,7485.54 664.015,7485.87 664.454,7486.39C665.127,7487.19 665.63,7488.37 665.669,7489.6ZM664.183,7489.79C664.202,7489.76 664.205,7489.74 664.176,7489.74C664.173,7489.73 664.171,7489.73 664.17,7489.74C663.939,7488.81 663.315,7488.04 662.684,7487.65C662.29,7487.4 661.987,7487.67 661.713,7488.4C661.603,7488.66 661.593,7489.22 661.666,7489.78C661.716,7490.16 661.789,7490.54 661.95,7490.83C662.01,7490.94 662.027,7491.09 662.151,7491.07C662.472,7491.01 662.835,7490.86 663.166,7490.65C663.484,7490.46 663.782,7490.23 663.984,7489.99C664.04,7489.93 664.145,7489.85 664.183,7489.79Z" style="fill:rgb(124,31,20);"/>
                            </g>
                            <g transform="matrix(1.49823,0,0,1.49823,-768.406,-3601.15)">
                                <path d="M664.927,7489.7C664.58,7487.08 661.922,7484.79 660.691,7488.01C660.346,7488.91 660.671,7492.31 662.341,7491.96C663.493,7491.71 665.021,7490.4 664.927,7489.7Z" style="fill:rgb(172,52,16);"/>
                                <path d="M665.669,7489.6C665.757,7490.09 665.418,7490.84 664.763,7491.5C664.151,7492.12 663.275,7492.66 662.531,7492.85C661.573,7493.1 660.83,7492.65 660.293,7491.85C659.8,7491.11 659.547,7489.97 659.504,7489.04C659.476,7488.44 659.56,7487.93 659.669,7487.62C660.456,7485.53 661.792,7485.09 662.931,7485.4C663.466,7485.54 664.015,7485.87 664.454,7486.39C665.127,7487.19 665.63,7488.37 665.669,7489.6ZM664.183,7489.79C664.202,7489.76 664.205,7489.74 664.176,7489.74C664.173,7489.73 664.171,7489.73 664.17,7489.74C664.174,7489.75 664.178,7489.77 664.182,7489.78C664.176,7489.77 664.163,7489.74 664.17,7489.74C663.939,7488.81 663.315,7488.04 662.684,7487.65C662.29,7487.4 661.987,7487.67 661.713,7488.4C661.603,7488.66 661.593,7489.22 661.666,7489.78C661.716,7490.16 661.789,7490.54 661.95,7490.83C662.01,7490.94 662.027,7491.09 662.151,7491.07C662.472,7491.01 662.835,7490.86 663.166,7490.65C663.484,7490.46 663.782,7490.23 663.984,7489.99C664.04,7489.93 664.145,7489.85 664.183,7489.79Z" style="fill:rgb(124,31,20);"/>
                            </g>
                            <g transform="matrix(1.49823,0,0,1.49823,-769.463,-3570.77)">
                                <path d="M664.927,7489.7C664.58,7487.08 661.922,7484.79 660.691,7488.01C660.346,7488.91 660.671,7492.31 662.341,7491.96C663.493,7491.71 665.021,7490.4 664.927,7489.7Z" style="fill:rgb(172,52,16);"/>
                                <path d="M665.669,7489.6C665.757,7490.09 665.418,7490.84 664.763,7491.5C664.151,7492.12 663.275,7492.66 662.531,7492.85C661.573,7493.1 660.83,7492.65 660.293,7491.85C659.8,7491.11 659.547,7489.97 659.504,7489.04C659.476,7488.44 659.56,7487.93 659.669,7487.62C660.456,7485.53 661.792,7485.09 662.931,7485.4C663.466,7485.54 664.015,7485.87 664.454,7486.39C665.127,7487.19 665.63,7488.37 665.669,7489.6ZM664.183,7489.79C664.202,7489.76 664.205,7489.74 664.176,7489.74C664.173,7489.73 664.171,7489.73 664.17,7489.74C663.939,7488.81 663.315,7488.04 662.684,7487.65C662.29,7487.4 661.987,7487.67 661.713,7488.4C661.603,7488.66 661.593,7489.22 661.666,7489.78C661.716,7490.16 661.789,7490.54 661.95,7490.83C662.01,7490.94 662.027,7491.09 662.151,7491.07C662.472,7491.01 662.835,7490.86 663.166,7490.65C663.484,7490.46 663.782,7490.23 663.984,7489.99C664.04,7489.93 664.145,7489.85 664.183,7489.79Z" style="fill:rgb(124,31,20);"/>
                            </g>
                            <g transform="matrix(1.49823,0,0,1.49823,-770.539,-3537.66)">
                                <path d="M664.927,7489.7C664.58,7487.08 661.922,7484.79 660.691,7488.01C660.346,7488.91 660.671,7492.31 662.341,7491.96C663.493,7491.71 665.021,7490.4 664.927,7489.7Z" style="fill:rgb(172,52,16);"/>
                                <path d="M665.669,7489.6C665.757,7490.09 665.418,7490.84 664.763,7491.5C664.151,7492.12 663.275,7492.66 662.531,7492.85C661.573,7493.1 660.83,7492.65 660.293,7491.85C659.8,7491.11 659.547,7489.97 659.504,7489.04C659.476,7488.44 659.56,7487.93 659.669,7487.62C660.456,7485.53 661.792,7485.09 662.931,7485.4C663.466,7485.54 664.015,7485.87 664.454,7486.39C665.127,7487.19 665.63,7488.37 665.669,7489.6ZM664.183,7489.79C664.202,7489.76 664.205,7489.74 664.176,7489.74C664.173,7489.73 664.171,7489.73 664.17,7489.74C663.939,7488.81 663.315,7488.04 662.684,7487.65C662.29,7487.4 661.987,7487.67 661.713,7488.4C661.603,7488.66 661.593,7489.22 661.666,7489.78C661.716,7490.16 661.789,7490.54 661.95,7490.83C662.01,7490.94 662.027,7491.09 662.151,7491.07C662.472,7491.01 662.835,7490.86 663.166,7490.65C663.484,7490.46 663.782,7490.23 663.984,7489.99C664.04,7489.93 664.145,7489.85 664.183,7489.79Z" style="fill:rgb(124,31,20);"/>
                            </g>
                        </g>
                        <g id="Scarf">
                            <g transform="matrix(1,0,0,1,-438.976,68.2207)">
                                <path d="M622.321,7606.95C624.993,7592.11 622.705,7578.69 626.005,7563.97C626.742,7560.68 629.747,7546.98 630.126,7543.46C631.729,7528.56 632.94,7516.12 630.981,7501.4C629.872,7493.07 631.039,7482.95 631.298,7474.61C631.428,7470.43 632.629,7458.18 633.477,7457.32C636.448,7454.33 638.282,7454.34 642.115,7452.46C645.318,7450.88 649.255,7448.23 650.186,7450.7C651.901,7455.26 650.898,7463.63 650.022,7468.17C648.864,7474.18 648.1,7480.5 648.476,7486.64C649.014,7495.44 652.473,7504.46 651.587,7513.31C650.042,7528.76 643.759,7543.27 642.737,7558.8C642.385,7564.15 638.973,7576.21 638.406,7583.3C637.729,7591.76 641.414,7605.43 639.358,7607.67C634.447,7613.03 629.293,7609.29 622.321,7606.95Z" style="fill:rgb(124,31,20);"/>
                            </g>
                            <g transform="matrix(1,0,0,1,-428.57,71.4132)">
                                <path d="M672.604,7441.4C676.898,7442.3 681.364,7443.92 685.276,7446.02C686.365,7446.6 687.798,7446.58 688.592,7447.57C689.046,7448.13 688.458,7453.5 688.297,7454.09C687.134,7458.38 685.837,7462.64 685.167,7467.05C684.24,7473.13 683.903,7479.71 684.062,7485.86C684.145,7489.09 684.443,7492.36 684.029,7495.56C683.215,7501.88 679.519,7507.54 678.354,7513.82C676.441,7524.15 680.319,7532.76 684.134,7542.02C687.624,7550.49 691.222,7559.27 693.107,7568.27C695.592,7580.13 690.227,7591.88 693.352,7603.53C693.634,7604.58 690.501,7606.64 689.693,7607.1C686.1,7609.14 680.9,7609.37 680.433,7608.8C677.066,7604.76 676.523,7596.72 676.711,7591.76C676.962,7585.12 679.742,7579.12 681.612,7572.84C683.611,7566.12 675.093,7558.79 673.663,7551.89C672.529,7546.4 670.852,7540.81 668.802,7535.59C667.235,7531.6 665.166,7527.44 665.34,7523.03C665.618,7515.97 669.797,7510.27 671.238,7503.5C672.665,7496.8 670.714,7489.92 669.243,7483.49C668.381,7479.72 667.657,7475.59 668.178,7471.71C668.716,7467.72 670.107,7463.82 670.23,7459.78C670.399,7454.23 669.251,7446.41 672.604,7441.4Z" style="fill:rgb(124,31,20);"/>
                            </g>
                        </g>
                        <g id="Face2" serif:id="Face" transform="matrix(0.998527,-0.0542615,0.0542615,0.998527,-405.55,29.1813)">
                            <path d="M213.39,7426.31C213.39,7426.31 187.73,7437.86 193.746,7461.23C193.747,7461.24 204.14,7487.1 217.071,7497.9C223.245,7503.05 233.697,7500.46 237.558,7496.4C244.158,7489.46 249.229,7480.44 250.894,7470.99C253.419,7456.65 250.41,7433.78 238,7427.71C225.591,7421.64 216.125,7425.67 213.39,7426.31Z" style="fill:rgb(165,102,73);"/>
                        </g>
                        <g id="Eyes2" serif:id="Eyes" transform="matrix(0.998527,-0.0542615,0.0542615,0.998527,-10.2996,7246.65)">
                            <g transform="matrix(0.99338,-0.114872,0.114872,0.99338,-857.901,-7157.01)">
                                <path d="M205.679,7464.39C205.35,7464.64 204.881,7464.58 204.632,7464.25C204.383,7463.92 204.447,7463.45 204.777,7463.2C205.199,7462.77 205.642,7462.4 206.132,7462.05C206.458,7461.82 206.799,7461.63 207.158,7461.45C207.744,7461.17 208.368,7460.96 209.009,7460.81C211.27,7460.26 213.732,7460.37 216.103,7460.76C216.513,7460.8 216.811,7461.17 216.767,7461.58C216.723,7461.99 216.354,7462.29 215.943,7462.24C214.135,7462.15 212.311,7462.3 210.583,7462.69C210.07,7462.81 209.57,7462.95 209.075,7463.11C208.745,7463.21 208.418,7463.32 208.094,7463.43C207.683,7463.56 207.279,7463.7 206.88,7463.86C206.471,7464.03 206.07,7464.18 205.679,7464.39Z" style="fill:rgb(35,40,44);"/>
                            </g>
                            <g transform="matrix(0.997682,-0.0680477,0.0680477,0.997682,-505.133,-7198.13)">
                                <path d="M229.167,7461.26C228.772,7461.38 228.353,7461.16 228.23,7460.76C228.108,7460.37 228.329,7459.95 228.723,7459.83C229.601,7459.43 230.515,7459.08 231.493,7458.88C232.125,7458.75 232.776,7458.7 233.42,7458.68C236.093,7458.6 238.69,7459.15 240.527,7459.83C240.921,7459.95 241.141,7460.37 241.018,7460.77C240.894,7461.16 240.475,7461.38 240.081,7461.26C238.877,7460.95 237.355,7460.82 235.721,7460.81C234.653,7460.8 233.546,7460.9 232.439,7460.99C231.892,7461.03 231.349,7461.05 230.808,7461.1C230.248,7461.15 229.707,7461.17 229.167,7461.26Z" style="fill:rgb(35,40,44);"/>
                            </g>
                            <g transform="matrix(0.884502,-0.102282,0.102282,0.884502,-741.394,-6346.2)">
                                <path d="M208.731,7462.17C207.899,7463.54 210.459,7465.74 211.83,7465.31C213.743,7464.71 215.391,7460.48 212.24,7460.21C211.693,7460.16 211.117,7460.33 210.599,7460.48C210.007,7460.66 209.171,7461.73 208.731,7462.17Z" style="fill:rgb(35,40,44);"/>
                            </g>
                            <g transform="matrix(0.997682,-0.0680477,0.0680477,0.997682,-505.333,-7197.91)">
                                <path d="M235.242,7459.63C234.419,7459.37 233.217,7459.79 232.652,7460.66C231.976,7461.69 232.836,7464.02 234.181,7464.14C237.242,7464.42 238.742,7459.97 235.242,7459.63Z" style="fill:rgb(35,40,44);"/>
                            </g>
                        </g>
                        <g transform="matrix(0.998527,-0.0542615,0.0542615,0.998527,-840.046,130.031)">
                            <path d="M632.276,7389.33C634.803,7394.04 637.964,7396.84 637.907,7391.55C637.716,7373.75 653.119,7372.35 661.538,7365.97C670.509,7359.16 671.481,7358.95 673.36,7361.84C676.962,7367.39 678.57,7365.8 683.111,7368.82C685.379,7370.33 686.513,7368.57 689.327,7377.43C690.984,7382.65 689.647,7388.59 691.475,7388.84C691.776,7388.88 695.38,7379.81 695.528,7379.63C696.481,7378.48 696.976,7376.94 697.288,7375.51C697.625,7373.95 697.809,7372.38 697.934,7370.8C698.147,7368.09 697.992,7365.41 697.892,7362.7C697.75,7358.86 697.651,7354.65 696.324,7350.99C694.841,7346.89 692.422,7342.74 689.04,7339.9C686.435,7337.71 683.307,7336.12 680.239,7334.69C677.465,7333.4 675.057,7332.92 672.101,7332.24C671.457,7332.1 669.042,7331.71 669.061,7331.7C674.498,7329.43 675.716,7324.95 676.291,7321.38C677.526,7313.73 670.986,7307.47 663.178,7306.09C653.85,7304.44 648.194,7305.94 642.792,7310.99C634.08,7319.15 635.714,7332.48 648.177,7334.6C648.227,7334.61 640.415,7338.15 638.291,7340.03C636.524,7341.59 632.347,7344.5 629.314,7350.54C626.714,7355.73 624.643,7359.3 624.952,7368.45C625.202,7375.88 628.886,7383 632.276,7389.33Z" style="fill:rgb(70,45,42);"/>
                        </g>
                        <g transform="matrix(0.998527,-0.0542615,0.0542615,0.998527,-840.178,121.121)">
                            <path d="M647.707,7344.69C647.088,7344.69 646.585,7344.19 646.585,7343.57C646.585,7342.95 647.088,7342.45 647.707,7342.45C649.033,7342.29 649.956,7342.18 650.697,7342.12C652.168,7342.02 652.776,7341.99 654.056,7341.9C654.836,7341.84 655.864,7341.82 657.471,7341.72C659.791,7341.63 661.467,7341.58 663.114,7341.3C664.711,7341.03 666.276,7340.56 668.387,7339.63C668.941,7339.36 669.615,7339.58 669.891,7340.14C670.168,7340.69 669.943,7341.36 669.389,7341.64C667.143,7342.9 665.455,7343.59 663.704,7344.05C661.973,7344.5 660.185,7344.69 657.713,7344.97C656.677,7345.07 655.88,7345.16 655.23,7345.2C654.06,7345.27 653.36,7345.27 652.658,7345.23C651.592,7345.17 650.55,7344.98 647.707,7344.69Z" style="fill:rgb(247,147,31);"/>
                        </g>
                        <g id="Nose2" serif:id="Nose" transform="matrix(0.998527,-0.0542615,0.0542615,0.998527,-405.55,29.1813)">
                            <path d="M223.608,7468.07C223.604,7467.8 223.824,7467.57 224.099,7467.56C224.374,7467.56 224.601,7467.78 224.605,7468.06C224.681,7468.99 224.793,7470.2 224.834,7471.38C224.854,7471.95 224.852,7472.52 224.84,7473.04C224.826,7473.7 224.783,7474.28 224.744,7474.73C224.697,7475.19 224.602,7476.19 224.615,7477.07C224.62,7477.39 224.635,7477.69 224.677,7477.94C224.701,7478.08 224.711,7478.2 224.764,7478.28C225.017,7478.62 225.306,7478.74 225.623,7478.71C226.313,7478.63 227.044,7478.13 227.669,7477.8C227.908,7477.66 228.213,7477.75 228.349,7477.99C228.485,7478.23 228.402,7478.53 228.163,7478.67C227.445,7479.11 226.593,7479.71 225.78,7479.85C225.074,7479.97 224.389,7479.79 223.774,7479.05C223.55,7478.77 223.386,7478.22 223.313,7477.56C223.2,7476.53 223.261,7475.2 223.291,7474.62C223.317,7474.19 223.322,7473.63 223.34,7473C223.356,7472.49 223.372,7471.93 223.401,7471.36C223.461,7470.2 223.561,7469 223.608,7468.07Z" style="fill:rgb(35,40,44);"/>
                        </g>
                        <g id="Mouth2" serif:id="Mouth" transform="matrix(0.999425,0.0339125,-0.0339125,0.999425,256.985,1.62791)">
                            <path d="M232.745,7482.79C232.692,7483.58 232.193,7485.2 232.077,7485.55C231.277,7487.89 230.271,7489.18 228.695,7490.63C227.186,7492.02 225.247,7492.76 223.439,7492.51C221.393,7492.22 219.162,7490.66 218.26,7490.03C217.135,7489.25 215.389,7486.96 215.35,7486.9C218.919,7488.28 224.215,7487.32 227.872,7485.81C229.855,7484.99 230.81,7484.09 232.745,7482.79Z" style="fill:white;"/>
                            <path d="M233.242,7482.83C233.23,7483.14 233.156,7483.59 233.06,7484.03C232.906,7484.76 232.693,7485.51 232.623,7485.73C232.248,7486.93 231.814,7487.86 231.285,7488.69C230.711,7489.58 230.021,7490.34 229.173,7491.15C228.382,7491.89 227.479,7492.47 226.532,7492.84C225.488,7493.25 224.39,7493.4 223.334,7493.25C222.533,7493.13 221.704,7492.84 220.928,7492.48C219.61,7491.86 218.446,7491.04 217.848,7490.62C217.438,7490.33 216.948,7489.86 216.484,7489.36C215.609,7488.4 214.813,7487.34 214.785,7487.3C214.614,7487.05 214.624,7486.72 214.811,7486.48C214.997,7486.24 215.316,7486.16 215.597,7486.27C217.312,7486.95 219.457,7487.04 221.608,7486.8C223.748,7486.56 225.896,7485.99 227.659,7485.29C228.432,7484.98 229.044,7484.65 229.623,7484.3C230.506,7483.75 231.313,7483.13 232.468,7482.38C232.626,7482.27 232.83,7482.27 232.994,7482.36C233.159,7482.46 233.255,7482.64 233.242,7482.83ZM231.984,7483.94C231.337,7484.41 230.783,7484.82 230.195,7485.2C229.576,7485.6 228.919,7485.97 228.086,7486.32C225.889,7487.26 223.108,7488 220.442,7488.18C219.337,7488.25 218.252,7488.23 217.233,7488.08C217.327,7488.18 217.423,7488.28 217.521,7488.39C217.916,7488.81 218.325,7489.2 218.672,7489.44C219.232,7489.82 220.321,7490.57 221.551,7491.13C222.196,7491.43 222.88,7491.67 223.544,7491.77C224.356,7491.88 225.197,7491.76 226.005,7491.46C226.792,7491.17 227.55,7490.71 228.217,7490.11C229.009,7489.4 229.654,7488.74 230.204,7487.96C230.711,7487.24 231.142,7486.42 231.53,7485.36C231.601,7485.17 231.808,7484.57 231.984,7483.94Z" style="fill:rgb(104,50,41);"/>
                        </g>
                        <g transform="matrix(0.835573,-0.0933077,0.110979,0.993823,-1150.46,181.333)">
                            <ellipse cx="662.811" cy="7387.05" rx="1.366" ry="1.712" style="fill:rgb(172,52,16);"/>
                        </g>
                    </g>
                </g>
            </g>
        </g>
        <g id="Step-1c" serif:id="Step 1c">
        </g>
        <g id="Step-1a-thumbnail" serif:id="Step 1a thumbnail">
        </g>
        <g id="Step-2-thumbnail" serif:id="Step 2 thumbnail">
        </g>
        <g id="Global-girl-globe" serif:id="Global girl globe">
        </g>
        <g id="Step-2-thumbnail1" serif:id="Step 2 thumbnail">
        </g>
        <g id="Global-girl-globe1" serif:id="Global girl globe">
        </g>
        <g id="Step-2-thumbnail2" serif:id="Step 2 thumbnail">
        </g>
        <g id="Previous-illustrations" serif:id="Previous illustrations">
        </g>
    </g>
    <defs>
        <linearGradient id="_Linear3" x1="0" y1="0" x2="1" y2="0" gradientUnits="userSpaceOnUse" gradientTransform="matrix(74.4539,-13.6263,19.4224,106.124,299.282,7467.85)"><stop offset="0" style="stop-color:rgb(139,217,220);stop-opacity:1"/><stop offset="1" style="stop-color:rgb(188,235,237);stop-opacity:1"/></linearGradient>
    </defs>
</svg>
