<?xml version="1.0" encoding="UTF-8" standalone="no"?>
<!DOCTYPE svg PUBLIC "-//W3C//DTD SVG 1.1//EN" "http://www.w3.org/Graphics/SVG/1.1/DTD/svg11.dtd">
<svg width="100%" height="100%" viewBox="0 0 463 668" version="1.1" xmlns="http://www.w3.org/2000/svg" xmlns:xlink="http://www.w3.org/1999/xlink" xml:space="preserve" xmlns:serif="http://www.serif.com/" style="fill-rule:evenodd;clip-rule:evenodd;stroke-linecap:round;stroke-miterlimit:75;">
    <g transform="matrix(1,0,0,1,-4097.44,-3332)">
        <g id="Bottom">
        </g>
        <g id="Middle">
        </g>
        <g id="_4.-Redefinition-of-leadership" serif:id="4. Redefinition of leadership" transform="matrix(0.361276,0,0,0.834998,4097.44,3332)">
            <rect x="0" y="0" width="1280" height="800" style="fill:none;"/>
            <clipPath id="_clip1">
                <rect x="0" y="0" width="1280" height="800"/>
            </clipPath>
            <g clip-path="url(#_clip1)">
                <g id="_4.-Redefinition-of-leadership-vector-art" serif:id="4. Redefinition of leadership vector art" transform="matrix(2.76797,0,0,1.19761,0,-207.752)">
                    <g id="Thinking-girl" serif:id="Thinking girl" transform="matrix(0.924947,0,0,0.924947,-636.355,47.6302)">
                        <g id="Neck" transform="matrix(0.995596,-0.0937505,0.0937505,0.995596,-627.937,-5968.94)">
                            <path d="M805.372,6654.95C805.372,6654.95 804.261,6678.96 809.627,6682.13C809.627,6682.13 822.147,6689.21 809.627,6701.06C797.107,6712.91 772.917,6707.27 764.058,6688.16C764.058,6688.16 785.264,6687.87 783.117,6661.27C783.117,6661.27 798.161,6654.44 805.372,6654.95Z" style="fill:rgb(147,91,65);"/>
                        </g>
                        <g id="Face" transform="matrix(1.09542,-0.10315,0.0937505,0.995596,-706.314,-5961.31)">
                            <path d="M800.159,6579.17C796.404,6575.8 789.395,6581.19 782.379,6581.51C777.404,6581.73 769.704,6572.91 765.856,6575.87C757.987,6581.94 758.712,6597.95 756.303,6607.85C755.279,6612.06 757.848,6622.5 759.042,6625.74C760.271,6629.07 764.49,6631.46 764.49,6631.46C764.49,6631.46 765.832,6634.58 767.728,6638.61C769.664,6642.73 772.662,6650.31 777.734,6657.13C783.099,6664.35 790.146,6666.02 794.119,6665.81C797.783,6665.61 805.086,6661.44 810.177,6650C813.675,6642.14 815.236,6637.32 815.601,6634.15C816.015,6630.55 820.165,6630.18 821.71,6627.02C823.545,6623.26 822.58,6620.56 823.266,6616.3C824.853,6606.44 824.326,6600.85 820.054,6591.96C818.507,6588.74 802.856,6581.59 800.159,6579.17Z" style="fill:rgb(165,102,73);"/>
                        </g>
                        <g id="Nose" transform="matrix(1.0823,0.225604,-0.225604,1.0823,1421.54,-6794.23)">
                            <path d="M789.235,6627.1C789.184,6626.75 789.428,6626.42 789.779,6626.37C790.13,6626.32 790.457,6626.56 790.508,6626.91C790.745,6627.97 790.962,6629.09 791.044,6630.41C791.084,6631.06 791.084,6631.77 791.045,6632.52C791.022,6632.97 790.971,6633.44 790.918,6633.92C790.83,6634.62 790.741,6635.34 790.905,6635.96C791.029,6636.43 791.322,6636.82 791.94,6637.04C792.401,6637.2 792.831,6637.07 793.251,6636.88C793.889,6636.6 794.506,6636.21 795.123,6636.04C795.559,6635.91 795.994,6635.87 796.433,6635.98C796.78,6636.06 797.001,6636.4 796.925,6636.75C796.849,6637.1 796.506,6637.32 796.159,6637.24C795.674,6637.15 795.243,6637.45 794.784,6637.72C794.148,6638.1 793.493,6638.5 792.796,6638.65C792.362,6638.74 791.914,6638.73 791.44,6638.6C790.418,6638.31 789.819,6637.74 789.446,6637.06C788.937,6636.14 788.935,6634.92 789.02,6633.74C789.088,6633.03 789.117,6632.36 789.154,6631.74C789.196,6631.03 789.231,6630.38 789.248,6629.76C789.274,6628.79 789.285,6627.93 789.235,6627.1Z" style="fill:rgb(35,40,44);"/>
                        </g>
                        <g id="Mouth" transform="matrix(1.11294,-0.1048,0.1048,1.11294,-146.701,121.597)">
                            <g transform="matrix(1,0,0,1,0,-6161.72)">
                                <path d="M783.218,6646.43C784.001,6646.19 785.349,6646.32 786.395,6645.48C787.134,6644.89 787.844,6644.24 788.829,6644C790.011,6643.71 790.833,6643.47 791.927,6643.65C792.912,6643.82 794.302,6643.64 795.344,6643.97C796.134,6644.21 797.45,6644.95 797.991,6645.53C798.07,6645.62 798.059,6646.26 798.058,6646.36C798.055,6646.55 797.511,6646.97 797.372,6647.09C796.627,6647.71 795.688,6648.24 794.822,6648.68C794.043,6649.09 793.176,6649.31 792.309,6649.4C791.576,6649.49 790.824,6649.47 790.089,6649.44C787.656,6649.31 784.561,6648.79 783.218,6646.43Z" style="fill:rgb(104,50,41);"/>
                            </g>
                            <g transform="matrix(1,0,0,1,0,-6161.72)">
                                <path d="M783.294,6646.43C784.532,6646.3 785.613,6645.96 786.686,6645.32C787.463,6644.86 788.306,6644.06 789.216,6643.89C790.256,6643.69 791.099,6644.06 792.057,6644.08C793.285,6644.11 794.183,6643.47 795.444,6644.01C796.704,6644.54 797.206,6645.32 799.12,6645.06" style="fill:none;stroke:rgb(70,45,42);stroke-width:0.87px;"/>
                            </g>
                            <g transform="matrix(1,0,0,1,0,-6161.72)">
                                <path d="M783.116,6646.8C784.063,6647.57 785.01,6648.44 786.156,6648.91C787.3,6649.38 788.443,6649.44 789.67,6649.47C791.468,6649.52 793.238,6649.44 794.902,6648.67C796.225,6648.06 797.638,6646.36 798.823,6645.53" style="fill:none;stroke:rgb(70,45,42);stroke-width:0.87px;"/>
                            </g>
                            <g transform="matrix(1,0,0,1,0,-6161.72)">
                                <path d="M783.218,6646.39C785.859,6646.83 788.522,6646.69 791.177,6646.52C794.419,6646.3 795.207,6646.08 798.416,6645.53" style="fill:none;stroke:rgb(70,45,42);stroke-width:0.87px;"/>
                            </g>
                        </g>
                        <g id="Eyes" transform="matrix(0.981055,-0.193728,0.193728,0.981055,-83.9015,253.344)">
                            <g transform="matrix(1.14973,-0.0815639,0.070764,0.997493,-581.003,-6080.41)">
                                <path d="M770.236,6614.25C769.936,6614.44 769.561,6614.31 769.399,6613.96C769.236,6613.62 769.347,6613.19 769.647,6613C770.6,6612.27 771.592,6611.68 772.63,6611.3C773.348,6611.04 774.083,6610.89 774.804,6610.8C778.174,6610.38 781.294,6611.31 782.886,6612.1C783.204,6612.24 783.363,6612.65 783.241,6613.02C783.119,6613.39 782.762,6613.57 782.444,6613.43C781.153,6612.92 778.834,6612.51 776.26,6612.74C775.657,6612.79 775.042,6612.89 774.418,6613.01C774.017,6613.08 773.614,6613.17 773.209,6613.27C772.711,6613.39 772.212,6613.52 771.712,6613.69C771.217,6613.85 770.725,6614.02 770.236,6614.25Z" style="fill:rgb(35,40,44);"/>
                            </g>
                            <g transform="matrix(1.09904,-0.173575,0.156,0.987757,-1108.07,-5940.22)">
                                <path d="M795.824,6613.68C795.489,6613.81 795.126,6613.61 795.014,6613.23C794.902,6612.86 795.082,6612.46 795.417,6612.33C795.928,6612.06 796.392,6611.81 796.847,6611.6C797.376,6611.36 797.873,6611.16 798.355,6611.01C798.794,6610.86 799.22,6610.76 799.638,6610.69C800.317,6610.57 800.976,6610.54 801.651,6610.58C803.361,6610.69 805.182,6611.28 807.834,6612.49C808.166,6612.62 808.339,6613.03 808.219,6613.4C808.1,6613.77 807.734,6613.96 807.401,6613.83C804.887,6612.96 803.184,6612.6 801.612,6612.62C801.046,6612.63 800.5,6612.7 799.933,6612.8C799.566,6612.86 799.191,6612.94 798.796,6613.03C798.336,6613.12 797.854,6613.23 797.33,6613.35C796.858,6613.46 796.364,6613.56 795.824,6613.68Z" style="fill:rgb(35,40,44);"/>
                            </g>
                            <g transform="matrix(-0.779641,9.54785e-17,-9.03084e-17,-0.737424,1388.39,5333.07)">
                                <path d="M777.298,6613.34C776.229,6613.37 775.271,6613.63 774.537,6614.54C772.859,6616.63 774.525,6620.23 777.285,6620.15C778.197,6620.13 778.988,6619.32 779.496,6618.65C781.177,6616.45 780.353,6613.54 777.298,6613.34Z" style="fill:rgb(35,40,44);"/>
                            </g>
                            <g transform="matrix(1.23238,0,0,1.3544,-180.139,-8504.86)">
                                <path d="M799.769,6612.86C797.59,6614.8 799.761,6617.47 802.185,6616.07C803.808,6615.13 802.425,6611.61 799.769,6612.86Z" style="fill:rgb(35,40,44);"/>
                            </g>
                        </g>
                        <g id="Clothing">
                            <g transform="matrix(1,0,0,1,-3.59698,-6071.86)">
                                <path d="M755.201,6858.75C755.201,6858.75 752.599,6905.65 756.054,6930.39C759.509,6955.14 755.034,6957.88 757.67,6964.8C757.67,6964.8 814.505,6956.1 849.249,6954.39C849.249,6954.39 833.305,6864.14 827.477,6841.9C827.477,6841.9 766.714,6858.8 755.201,6858.75Z" style="fill:rgb(89,40,116);"/>
                            </g>
                            <g transform="matrix(1,0,0,1,-3.59698,-6071.86)">
                                <path d="M817.049,6683.36C817.049,6683.36 838.73,6681.25 843.206,6700.12C847.681,6718.99 845.934,6754.41 846.354,6762.66C846.354,6762.66 831.602,6764.43 825.502,6763.6L825.271,6771.29C825.271,6771.29 831.423,6827.85 835.132,6839.31C835.132,6839.31 775.615,6860.37 748.013,6858.78C748.013,6858.78 749.187,6812.72 748.013,6778.93C748.013,6778.93 743.979,6757.37 739.81,6738.94C735.641,6720.52 741.154,6692.23 749.208,6691.2C757.261,6690.16 761.479,6688.3 770.229,6686.74C770.229,6686.74 787.75,6700.63 792.285,6702.1C796.82,6703.57 808.075,6687.03 811.18,6683.24L817.049,6683.36Z" style="fill:rgb(117,52,153);"/>
                            </g>
                        </g>
                        <g id="Hair" transform="matrix(1.09542,-0.10315,0.0937505,0.995596,-706.314,-5961.31)">
                            <path d="M752.324,6687.91C752.324,6687.91 751.884,6639.36 751.425,6610.36C751.021,6584.89 769.255,6550.69 791.065,6553.53C794.829,6554.02 795.322,6554.77 796.257,6556.22C803.552,6552.18 830.457,6562.04 827.182,6612.19C824.486,6653.49 822.247,6680.03 821.611,6702.46C820.979,6724.75 823.502,6734.72 821.022,6736.17C818.543,6737.63 803.043,6739.5 801.556,6735.79C798.49,6728.16 803.177,6666.52 803.477,6660.35C803.477,6660.35 813.285,6649.07 816.563,6629.2C816.563,6629.2 820.973,6627.79 820.599,6620.84C820.336,6615.95 817.475,6612.96 817.475,6612.96C817.475,6612.96 789.155,6602.29 784.672,6589.44C784.672,6589.44 783.593,6591.32 781.522,6593.3C772.913,6601.53 766.84,6606.52 765.372,6608.53C762.96,6611.82 763.396,6615.29 763.489,6617.7C763.489,6617.7 752.832,6624.14 764.49,6631.46C764.49,6631.46 773.035,6652.1 783.414,6662.58C783.414,6662.58 783.98,6664.79 783.029,6670.57C782.207,6675.57 781.254,6678.28 778.298,6682.18C773.997,6687.85 760.421,6687.37 752.324,6687.91Z" style="fill:rgb(35,40,44);"/>
                        </g>
                        <g transform="matrix(1,0,0,1,-3.59698,-6071.86)">
                            <path d="M825.236,6763.57L824.802,6772C824.802,6772 808.701,6774.89 794.975,6779.31C781.25,6783.73 771.945,6782.32 762.043,6783.01C752.141,6783.7 740.069,6792.04 738.383,6796.9C736.696,6801.77 730.237,6810.22 731.397,6815.8C732.558,6821.38 738.102,6812.97 743.349,6807.45C748.596,6801.92 750.937,6794.63 757.67,6794.63C764.404,6794.63 809.765,6799.19 818.981,6798.38C828.197,6797.56 838.663,6798.41 841.553,6790.08C844.444,6781.75 847.187,6775.66 846.354,6762.66L825.236,6763.57Z" style="fill:rgb(147,91,65);"/>
                        </g>
                        <g id="Arm" transform="matrix(1,0,0,1,-3.59698,-6071.86)">
                            <path d="M765.958,6638.86C765.958,6638.86 759.977,6658.28 759.305,6662.18C758.633,6666.07 761.397,6674.23 763.363,6677.66C765.329,6681.09 767.853,6687.52 765.444,6694.82C763.035,6702.13 751.917,6744.12 751.804,6752.8C751.729,6758.57 752.481,6790.33 765.935,6790.08C779.389,6789.82 781.859,6769.65 781.607,6765.86C781.355,6762.09 776.853,6727.4 776.013,6717.96C775.173,6708.51 772.713,6697.02 775.118,6681.82C777.523,6666.63 779.446,6660.69 776.336,6662.04C774.078,6663.03 773.101,6669.41 772.232,6672.58C772.232,6672.58 767.281,6669 767.157,6661.76C767.034,6654.51 769.877,6648.9 769.482,6644.8C769.087,6640.7 768.84,6637.95 766.62,6639.75" style="fill:rgb(147,91,65);"/>
                        </g>
                    </g>
                    <g transform="matrix(0.898743,-0.218605,0.2017,0.829239,-1912.07,-4879)">
                        <path d="M1099.7,6571.34C1099.01,6543.44 1082.77,6476.09 1057.15,6461.02C1039.35,6450.55 1004.61,6432.57 984.34,6431.03C942.189,6427.82 910.034,6443.16 877.565,6472.31C863.265,6485.15 854.339,6503.51 847.493,6521.11C833.806,6556.3 823.615,6599.69 829.205,6637.7C831.512,6653.39 838.297,6668.27 846.284,6681.81C859.564,6704.33 877.686,6726.48 901.656,6738.06C950.756,6761.79 1020.88,6747.14 1061.81,6712.66C1090.41,6688.57 1100.78,6614.62 1099.7,6571.34Z" style="fill:rgb(139,217,220);"/>
                        <clipPath id="_clip2">
                            <path d="M1099.7,6571.34C1099.01,6543.44 1082.77,6476.09 1057.15,6461.02C1039.35,6450.55 1004.61,6432.57 984.34,6431.03C942.189,6427.82 910.034,6443.16 877.565,6472.31C863.265,6485.15 854.339,6503.51 847.493,6521.11C833.806,6556.3 823.615,6599.69 829.205,6637.7C831.512,6653.39 838.297,6668.27 846.284,6681.81C859.564,6704.33 877.686,6726.48 901.656,6738.06C950.756,6761.79 1020.88,6747.14 1061.81,6712.66C1090.41,6688.57 1100.78,6614.62 1099.7,6571.34Z"/>
                        </clipPath>
                        <g clip-path="url(#_clip2)">
                            <g id="Leader-girl" serif:id="Leader girl" transform="matrix(0.97167,0.256153,-0.236344,1.05311,116.39,5898.49)">
                                <g id="Neck1" serif:id="Neck" transform="matrix(0.995034,0.0995394,-0.0995394,0.995034,659.773,-6224.01)">
                                    <path d="M955.593,6569.2C955.593,6569.2 957.885,6577.16 955.245,6581.48L947.32,6584.01L963.786,6604.11L970.866,6604.37L982.476,6579.32C982.476,6579.32 968.964,6563.67 968.923,6556.87C968.881,6550.07 955.593,6569.2 955.593,6569.2Z" style="fill:rgb(147,91,65);"/>
                                </g>
                                <g id="Face1" serif:id="Face" transform="matrix(0.995034,0.0995394,-0.0995394,0.995034,659.773,-6224.01)">
                                    <path d="M944.461,6504.27C932.436,6509.64 925.953,6521.04 929.308,6537.02C935.719,6567.55 947.223,6571.73 955.718,6569.17C959.192,6568.12 963.58,6565.38 964.813,6563.61C969.063,6557.52 970.878,6554.89 971.544,6544.05C973.55,6511.37 956.486,6498.91 944.461,6504.27Z" style="fill:rgb(165,102,73);"/>
                                </g>
                                <g id="Nose1" serif:id="Nose" transform="matrix(0.691329,0.213395,-0.213395,0.691329,1820.86,-4367.22)">
                                    <path d="M789.093,6627.12C789.031,6626.69 789.329,6626.29 789.758,6626.23C790.188,6626.17 790.587,6626.46 790.65,6626.89C790.908,6627.95 791.147,6629.07 791.246,6630.4C791.295,6631.07 791.298,6631.77 791.26,6632.54C791.237,6632.99 791.184,6633.45 791.129,6633.94C791.041,6634.62 790.941,6635.31 791.095,6635.9C791.202,6636.32 791.452,6636.67 791.996,6636.87C792.528,6637.06 793.016,6636.82 793.499,6636.58C794.033,6636.32 794.555,6636.04 795.077,6635.89C795.539,6635.77 795.999,6635.72 796.464,6635.84C796.888,6635.94 797.157,6636.36 797.065,6636.78C796.972,6637.2 796.553,6637.47 796.128,6637.38C795.677,6637.3 795.285,6637.6 794.86,6637.86C794.211,6638.25 793.54,6638.66 792.827,6638.82C792.366,6638.93 791.889,6638.91 791.385,6638.77C790.302,6638.47 789.671,6637.86 789.272,6637.15C788.74,6636.2 788.728,6634.94 788.809,6633.71C788.876,6633.01 788.902,6632.35 788.941,6631.74C788.986,6631.03 789.029,6630.38 789.054,6629.77C789.094,6628.8 789.128,6627.95 789.093,6627.12Z" style="fill:rgb(35,40,44);"/>
                                </g>
                                <g id="Eyes1" serif:id="Eyes" transform="matrix(0.798643,0.0798933,-0.0798933,0.798643,360.368,-51.6335)">
                                    <g transform="matrix(1.15141,0.0526794,-0.0457041,0.998955,187.92,-6193.97)">
                                        <path d="M768.301,6615.55C767.952,6615.83 767.473,6615.73 767.231,6615.32C766.989,6614.92 767.076,6614.37 767.425,6614.09C767.825,6613.66 768.233,6613.28 768.677,6612.92C769.128,6612.57 769.603,6612.27 770.096,6612.02C770.495,6611.81 770.909,6611.65 771.327,6611.52C771.964,6611.33 772.613,6611.22 773.259,6611.16C775.483,6610.99 777.673,6611.53 779.519,6612.76C779.898,6612.99 780.048,6613.52 779.856,6613.95C779.663,6614.39 779.2,6614.57 778.822,6614.34C777.509,6613.68 776.052,6613.46 774.575,6613.54C773.514,6613.61 772.461,6613.9 771.408,6614.26C770.89,6614.44 770.37,6614.61 769.854,6614.83C769.33,6615.05 768.81,6615.25 768.301,6615.55Z" style="fill:rgb(35,40,44);"/>
                                    </g>
                                    <g transform="matrix(1.11266,0.00173836,-0.00156234,0.999999,-76.3766,-6159.95)">
                                        <path d="M792.316,6612.68C791.918,6612.88 791.443,6612.69 791.256,6612.25C791.069,6611.81 791.24,6611.28 791.638,6611.07C792.126,6610.71 792.611,6610.41 793.122,6610.15C793.654,6609.89 794.196,6609.69 794.746,6609.55C795.196,6609.43 795.651,6609.36 796.103,6609.33C796.795,6609.28 797.481,6609.31 798.15,6609.4C800.533,6609.71 802.704,6610.73 804.376,6612.02C804.75,6612.28 804.867,6612.82 804.636,6613.24C804.405,6613.66 803.913,6613.79 803.539,6613.53C801.994,6612.6 800.045,6612.01 797.975,6611.93C797.415,6611.9 796.849,6611.94 796.274,6611.98C795.902,6612.01 795.528,6612.05 795.15,6612.1C794.684,6612.16 794.216,6612.22 793.74,6612.32C793.266,6612.43 792.796,6612.51 792.316,6612.68Z" style="fill:rgb(35,40,44);"/>
                                    </g>
                                    <g transform="matrix(-0.779641,9.54785e-17,-9.03084e-17,-0.737424,1382.84,5333.66)">
                                        <path d="M777.298,6613.34C776.229,6613.37 775.271,6613.63 774.537,6614.54C772.859,6616.63 774.525,6620.23 777.285,6620.15C778.197,6620.13 778.988,6619.32 779.496,6618.65C781.177,6616.45 780.353,6613.54 777.298,6613.34Z" style="fill:rgb(35,40,44);"/>
                                    </g>
                                    <g transform="matrix(1.22698,0.115168,-0.126571,1.34847,655.638,-8556.49)">
                                        <path d="M799.769,6612.86C797.59,6614.8 799.761,6617.47 802.185,6616.07C803.808,6615.13 802.425,6611.61 799.769,6612.86Z" style="fill:rgb(35,40,44);"/>
                                    </g>
                                </g>
                                <g transform="matrix(1.16275,0.421454,-0.553455,1.52693,3708.93,-10084.6)">
                                    <g id="Mouth1" serif:id="Mouth">
                                        <path id="Curve" d="M788.377,6646.38C790.684,6646.2 793.124,6645.88 794.426,6645.49C796.481,6644.86 796.782,6644.9 799.317,6643.55C799.423,6643.5 799.324,6644.92 798.408,6645.96C797.765,6646.69 796.794,6647.99 794.521,6648.26C792.633,6648.48 789.666,6647.83 788.377,6646.38Z" style="fill:white;stroke:rgb(104,50,41);stroke-width:0.75px;stroke-linejoin:round;"/>
                                    </g>
                                </g>
                                <g id="Hair1" serif:id="Hair" transform="matrix(0.995034,0.0995394,-0.0995394,0.995034,659.773,-6224.01)">
                                    <path d="M944.461,6512.92C944.461,6512.92 951.228,6524.81 960.246,6529.37C969.263,6533.94 967.478,6526.95 969.482,6537.05C970.707,6543.22 968.61,6553.98 968.727,6563.38C968.802,6569.36 974.918,6577.8 978.977,6576.67C978.977,6576.67 986.556,6668.54 989.476,6675.3C989.476,6675.3 1026.21,6660.6 1036.76,6622.67C1036.76,6622.67 1038.55,6607.69 1044.26,6606.3C1044.26,6606.3 1059.96,6609.91 1024.56,6579.99C989.153,6550.07 995.271,6546.6 990.672,6524C986.074,6501.4 982.955,6495.36 967.645,6491.51C955.229,6488.38 959.113,6490.69 957.089,6490.93C953.502,6491.35 927.408,6494.03 926.614,6528.31C925.821,6562.6 937.967,6586.72 937.967,6587.7C937.967,6588.68 944.461,6598.94 944.461,6598.94L954.383,6582.04C954.383,6582.04 958.419,6581.1 956.63,6568.85C956.63,6568.85 938.542,6577.27 929.308,6537.02C929.308,6537.02 932.131,6533.84 936.384,6530.08C940.636,6526.31 938.955,6519.24 944.461,6512.92Z" style="fill:rgb(35,40,44);"/>
                                </g>
                                <g transform="matrix(0.997013,0.0772326,-0.0772326,0.997013,514.333,-6223.81)">
                                    <path d="M1008.64,6645.66L1013.76,6657.49C1013.76,6657.49 1013.5,6689.99 1012.01,6701.54C1011.58,6704.16 1010.36,6705.53 1009.38,6706.13C1008.84,6706.46 1000.71,6710.39 1000.21,6710.52C1000.05,6710.56 998.11,6716.22 997.889,6719.36C997.625,6723.11 1003.56,6722.28 1005.96,6721.56C1012.56,6719.55 1014.5,6715.89 1015.6,6710.33C1016.64,6705.06 1019.99,6701.51 1022.1,6693.9C1023.31,6689.51 1026.01,6679.26 1027.24,6672.62C1028.57,6665.41 1028.69,6656.72 1028.4,6652.95C1027.94,6646.9 1027.16,6646.7 1020.55,6635.67L1008.64,6645.66Z" style="fill:rgb(147,91,65);"/>
                                </g>
                                <g transform="matrix(1,0,0,1,0,-6161.72)">
                                    <path d="M941.74,6699.77C941.74,6699.77 944.571,6740.68 943.137,6749.36C941.702,6758.05 1004.1,6756.84 1003.68,6747.91L995.328,6694L941.74,6699.77Z" style="fill:rgb(89,40,116);"/>
                                </g>
                                <g transform="matrix(0.00029827,-1,-1,-0.00029827,7713.92,1556.54)">
                                    <path d="M1015.6,6710.33C1016.64,6705.06 1010.36,6705.53 1009.38,6706.13C1008.84,6706.46 1003.73,6708.9 1003.73,6708.9L1007.66,6716.41C1007.66,6716.41 1010.85,6714.02 1009.48,6716.03C1008.16,6717.96 1008.9,6717.02 1006.11,6719C1002.91,6721.28 1003.56,6722.28 1005.96,6721.56C1012.56,6719.55 1014.5,6715.89 1015.6,6710.33Z" style="fill:rgb(147,91,65);"/>
                                </g>
                                <g transform="matrix(0.898669,-0.106722,0.106722,0.898669,-614.622,-5389.84)">
                                    <path d="M920.817,6639.86C920.817,6639.86 916.856,6644.68 914.059,6651.98C912.438,6656.22 907.049,6675.2 904.09,6684.63C901.13,6694.06 891.851,6719.07 891.851,6719.07L897.474,6722.52C897.474,6722.52 920.116,6680.43 924.245,6674.51C928.373,6668.59 928.362,6664.64 930.348,6657.48C932.334,6650.32 934.23,6647.52 934.23,6647.52L920.817,6639.86Z" style="fill:rgb(147,91,65);"/>
                                </g>
                                <g id="Clothing1" serif:id="Clothing" transform="matrix(1,0,0,1,0,-6161.72)">
                                    <path d="M939.089,6634.21C939.089,6634.21 939.389,6692 938.801,6702.06C938.213,6712.12 982.237,6712.99 995.328,6694C995.328,6694 991.003,6636.65 991.979,6624.42C991.979,6624.42 1004.36,6640.67 1006.81,6647.52C1006.81,6647.52 1022.57,6637.37 1024.27,6638.28C1024.27,6638.28 1006.79,6593 997.379,6584.46C987.972,6575.92 979.43,6578.86 979.43,6578.86L967.63,6599.31C967.63,6599.31 967.398,6600.04 965.589,6599.54C963.781,6599.04 954.196,6581.66 954.24,6581.8C954.284,6581.94 938.724,6585.76 935.032,6592.1C928.893,6602.65 928.455,6607.05 924.245,6619.8C923.185,6623 918,6642.29 918,6642.29C918,6642.29 923.493,6644.4 926.614,6645.59C929.735,6646.79 935.666,6648.47 935.666,6648.47L939.089,6634.21Z" style="fill:rgb(117,52,153);"/>
                                </g>
                            </g>
                        </g>
                    </g>
                    <g id="Energy-lines" serif:id="Energy lines" transform="matrix(0.924947,0,0,0.924947,-636.355,47.6302)">
                        <g transform="matrix(1,0,0,1,24.8523,-6185.53)">
                            <path d="M906.149,6434.96C907.815,6436.14 908.208,6438.45 907.027,6440.11C905.845,6441.78 903.535,6442.17 901.869,6440.99C898.084,6438.92 894.28,6437.03 890.505,6434.88C889.011,6434.03 887.543,6433.15 886.098,6432.21C883.934,6430.81 881.821,6429.33 879.736,6427.81C869.186,6420.11 859.106,6411.82 849.565,6403.05C847.999,6401.74 847.791,6399.41 849.101,6397.84C850.411,6396.28 852.746,6396.07 854.312,6397.38C862.584,6403.63 871.361,6409.21 880.104,6414.93C883.862,6417.39 887.659,6419.79 891.303,6422.4C893.405,6423.91 895.432,6425.5 897.417,6427.15C900.45,6429.67 903.245,6432.32 906.149,6434.96Z" style="fill:white;"/>
                        </g>
                        <g transform="matrix(1,0,0,1,36.7027,-6181.27)">
                            <path d="M855.16,6490.85C857.151,6491.3 858.4,6493.28 857.948,6495.28C857.496,6497.27 855.512,6498.52 853.521,6498.06C850.911,6497.78 846.349,6497.5 840.697,6496.77C839.071,6496.57 837.371,6496.31 835.611,6495.97C833.183,6495.51 830.653,6494.94 828.08,6494.3C813.817,6490.76 798.089,6485.96 790.775,6483.2C788.834,6482.57 787.771,6480.48 788.403,6478.53C789.035,6476.59 791.125,6475.53 793.066,6476.16C799.269,6477.85 811.456,6479.92 823.563,6482.24C828.075,6483.11 832.586,6483.93 836.733,6484.92C839.386,6485.56 841.873,6486.28 844.151,6486.99C849.052,6488.53 852.865,6490.03 855.16,6490.85Z" style="fill:white;"/>
                        </g>
                        <g transform="matrix(1,0,0,1,6.1639,-6154.19)">
                            <path d="M971.842,6379.91C971.835,6381.95 970.172,6383.6 968.13,6383.59C966.088,6383.59 964.437,6381.92 964.444,6379.88C963.96,6376.26 963.401,6372.98 963.082,6369.69C962.86,6367.39 962.712,6365.15 962.671,6362.89C962.601,6359.02 962.787,6355.15 962.955,6351.01C963.271,6343.24 963.9,6334.6 964.531,6323.28C964.529,6321.24 966.185,6319.58 968.227,6319.58C970.269,6319.57 971.928,6321.23 971.929,6323.27C972.581,6334.6 973.204,6343.25 973.496,6351.03C973.652,6355.17 973.819,6359.05 973.727,6362.92C973.673,6365.18 973.512,6367.43 973.274,6369.72C972.933,6373.02 972.352,6376.28 971.842,6379.91Z" style="fill:white;"/>
                        </g>
                        <g transform="matrix(1,0,0,1,-3.96958,-6151.48)">
                            <path d="M1051.48,6394.77C1050.33,6396.46 1048.03,6396.9 1046.34,6395.75C1044.65,6394.6 1044.21,6392.3 1045.36,6390.61C1046.69,6388.03 1047.83,6385.5 1049.08,6383.01C1050.36,6380.44 1051.6,6377.94 1052.9,6375.49C1053.97,6373.47 1055.07,6371.5 1056.19,6369.57C1057.94,6366.56 1059.74,6363.66 1061.55,6360.8C1067.81,6350.86 1074.29,6341.58 1082.65,6332.89C1084,6331.36 1086.34,6331.2 1087.87,6332.55C1089.41,6333.89 1089.56,6336.23 1088.21,6337.77C1081.2,6346.57 1076.23,6355.9 1071.02,6365.53C1068.78,6369.67 1066.59,6373.91 1064.05,6378.09C1062.63,6380.43 1061.09,6382.73 1059.43,6385C1057,6388.32 1054.32,6391.48 1051.48,6394.77Z" style="fill:white;"/>
                        </g>
                        <g transform="matrix(1,0,0,1,-1.26366,-6161.72)">
                            <path d="M1091.49,6455.25C1089.54,6455.88 1087.45,6454.81 1086.83,6452.86C1086.2,6450.92 1087.27,6448.84 1089.21,6448.21C1094.32,6445.96 1098.6,6443.92 1102.59,6442.23C1104.47,6441.43 1106.27,6440.71 1108,6440.07C1110.93,6438.99 1113.66,6438.07 1116.29,6437.23C1128.58,6433.27 1138.54,6430.55 1158.87,6425.61C1160.84,6425.05 1162.88,6426.19 1163.45,6428.15C1164.01,6430.11 1162.87,6432.16 1160.91,6432.72C1145.51,6437.88 1136.41,6441.42 1127.38,6444.81C1122.81,6446.52 1118.3,6448.31 1112.95,6450.04C1110.35,6450.88 1107.56,6451.68 1104.47,6452.45C1100.62,6453.42 1096.37,6454.22 1091.49,6455.25Z" style="fill:white;"/>
                        </g>
                    </g>
                    <g id="Thought-bubble" serif:id="Thought bubble" transform="matrix(0.85377,0.355814,-0.355814,0.85377,-407.217,-246.105)">
                        <g transform="matrix(1,0,0,1,0,-6161.72)">
                            <path d="M849.546,6659.17C848.207,6655.19 842.35,6648.39 835.978,6651.93C829.559,6655.49 829.709,6670.69 836.056,6675.28C839.561,6677.81 842.92,6676.65 844.013,6675.8C849.493,6671.56 850.886,6663.15 849.546,6659.17Z" style="fill:rgb(139,217,220);"/>
                        </g>
                        <g transform="matrix(1,0,0,1,0,-6161.72)">
                            <path d="M854.904,6639.86C850.213,6641.06 842.84,6639.7 837.332,6632.76C831.169,6624.99 836.41,6613.22 846.564,6614.21C853.784,6614.92 862.168,6618.56 865.474,6625.52C868.67,6632.24 859.594,6638.65 854.904,6639.86Z" style="fill:rgb(139,217,220);"/>
                        </g>
                    </g>
                </g>
                <g id="Top">
                </g>
            </g>
        </g>
        <g id="Step-1c" serif:id="Step 1c">
        </g>
        <g id="Step-1a-thumbnail" serif:id="Step 1a thumbnail">
        </g>
        <g id="Step-2-thumbnail" serif:id="Step 2 thumbnail">
        </g>
        <g id="Global-girl-globe" serif:id="Global girl globe">
        </g>
        <g id="Step-2-thumbnail1" serif:id="Step 2 thumbnail">
        </g>
        <g id="Global-girl-globe1" serif:id="Global girl globe">
        </g>
        <g id="Step-2-thumbnail2" serif:id="Step 2 thumbnail">
        </g>
        <g id="Previous-illustrations" serif:id="Previous illustrations">
        </g>
    </g>
</svg>
