<?xml version="1.0" encoding="UTF-8" standalone="no"?>
<!DOCTYPE svg PUBLIC "-//W3C//DTD SVG 1.1//EN" "http://www.w3.org/Graphics/SVG/1.1/DTD/svg11.dtd">
<svg width="100%" height="100%" viewBox="0 0 722 668" version="1.1" xmlns="http://www.w3.org/2000/svg" xmlns:xlink="http://www.w3.org/1999/xlink" xml:space="preserve" xmlns:serif="http://www.serif.com/" style="fill-rule:evenodd;clip-rule:evenodd;stroke-linejoin:round;stroke-miterlimit:2;">
    <g transform="matrix(1,0,0,1,-4590.37,-3332)">
        <g id="Bottom">
        </g>
        <g id="Middle">
        </g>
        <g id="_4.-Redefinition-of-leadership" serif:id="4. Redefinition of leadership" transform="matrix(0.563733,0,0,0.834998,4590.37,3332)">
            <rect x="0" y="0" width="1280" height="800" style="fill:none;"/>
            <g id="_4.-Redefinition-of-leadership-vector-art" serif:id="4. Redefinition of leadership vector art">
            </g>
            <g id="Top" transform="matrix(1.87284,0,0,1.26441,28.6079,-9013)">
                <g transform="matrix(1.14477,0,0,1.14477,-499.341,-973.49)">
                    <path d="M472.312,7297.03C488.555,7264.57 525.962,7234.06 552.23,7221.27C562.896,7216.07 591.767,7208.28 610.237,7202.9C664.907,7187 725.777,7192.06 768.886,7217.77C816.167,7245.96 843.014,7294.31 848.633,7346.46C853.919,7395.52 839.967,7447.48 808.558,7486.4C784.876,7515.75 749.854,7538.04 711.377,7549.7C673.105,7561.3 631.762,7562.27 596.033,7551.49C586.532,7548.63 545.529,7524.25 533.716,7514.08C521.455,7503.52 510.855,7491.25 501.983,7477.8C493.586,7465.07 486.738,7451.28 481.481,7436.98C475.097,7419.6 466.097,7393.04 462.862,7367.78C459.507,7341.59 462.574,7316.5 472.307,7297.04L472.312,7297.03Z" style="fill:rgb(97,203,207);"/>
                </g>
                <g id="Speech-area" serif:id="Speech area" transform="matrix(1.41611,0,0,1.41611,-123.88,-3138.6)">
                    <path d="M405.356,7559.2C449.758,7462.49 402.58,7382.86 362.028,7367.23C362.028,7367.23 313.778,7417.68 303.191,7432.23C296.243,7441.78 288.733,7450.93 281.133,7459.97C278.178,7463.49 268.735,7471.49 267.288,7472.23C266.561,7472.6 264.243,7473.04 265.043,7473.2C268.569,7473.9 282.435,7477.47 285.853,7478.59C294.62,7481.44 329.873,7499.64 342.994,7509.46C354.346,7517.95 399.441,7572.09 405.356,7559.2Z" style="fill:url(#_Linear1);"/>
                </g>
                <g id="Shapes" transform="matrix(1,0,0,1,-512.889,-23.0874)">
                    <path d="M982.409,7330.38C980.313,7329.32 978.306,7328 976.477,7326.46C974.404,7324.72 972.565,7322.7 971.08,7320.5C960.758,7305.2 969.052,7289.15 978.506,7283.88C982.852,7281.45 987.462,7281.21 991.138,7283.45C994.708,7285.61 997.722,7290.47 998.044,7299.25C998.112,7301.12 998.054,7303 997.896,7304.86C997.741,7306.7 997.487,7308.53 997.159,7310.35C996.602,7313.44 995.776,7316.49 994.767,7319.49C993.909,7322.04 992.917,7324.55 991.843,7326.99C997.607,7327.75 1003.44,7325.93 1009.26,7322.82C1027.42,7313.11 1045.33,7291.21 1060.21,7284.54C1069.24,7280.5 1077.88,7282.23 1083.93,7287.36C1089.75,7292.28 1093.2,7300.41 1092.08,7309.7C1091.93,7311 1090.76,7311.94 1089.46,7311.79C1088.16,7311.64 1087.23,7310.46 1087.38,7309.16C1088.19,7301.66 1085.46,7295.09 1080.74,7291.17C1076.02,7287.26 1069.32,7286.1 1062.38,7289.3C1047.62,7296.1 1030.07,7318.16 1012.07,7328.02C1004.44,7332.19 996.733,7334.26 989.119,7332.72C987.982,7334.94 986.766,7337.1 985.456,7339.2C983.23,7342.78 980.728,7346.17 977.871,7349.35C973.722,7353.96 968.851,7358.35 963.448,7361.84C957.89,7365.42 951.773,7368.04 945.326,7369.06C940.745,7369.77 936.145,7369.83 931.541,7369.5C921.464,7368.79 911.369,7366.24 901.396,7365.69C890.729,7365.06 880.217,7368.27 871.712,7374.2C863.096,7380.21 856.506,7388.99 853.934,7399.5C853.64,7400.77 852.368,7401.57 851.094,7401.27C849.821,7400.98 849.025,7399.71 849.318,7398.43C851.875,7386.61 858.958,7376.57 868.425,7369.61C877.85,7362.69 889.653,7358.86 901.699,7359.3C911.706,7359.7 921.868,7362.07 931.981,7362.65C936.071,7362.89 940.152,7362.82 944.212,7362.15C949.697,7361.25 954.87,7358.93 959.595,7355.87C964.46,7352.72 968.852,7348.76 972.595,7344.61C975.185,7341.74 977.451,7338.68 979.473,7335.46C980.512,7333.81 981.488,7332.11 982.409,7330.38ZM985.129,7324.85C986.255,7322.38 987.298,7319.84 988.188,7317.26C989.108,7314.58 989.868,7311.86 990.385,7309.1C990.685,7307.5 990.921,7305.89 991.069,7304.26C991.214,7302.67 991.276,7301.07 991.229,7299.47C991.06,7293.64 989.784,7290.24 987.351,7289.01C984.442,7287.53 980.756,7289.57 977.82,7292.79C972.848,7298.23 970.199,7307.77 976.308,7317C977.457,7318.74 978.889,7320.33 980.503,7321.71C981.929,7322.94 983.493,7324 985.129,7324.85Z" style="fill:rgb(241,95,82);"/>
                    <g transform="matrix(1,0,0,1,51.6751,-22.1637)">
                        <path d="M915.716,7411.14C916.96,7410.74 918.296,7411.42 918.696,7412.66C919.096,7413.91 918.41,7415.24 917.166,7415.64C910.796,7417.8 904.381,7420.57 898.882,7424.44C893.609,7428.16 889.202,7432.91 886.632,7439.23C880.721,7453.62 883.916,7468.07 892.292,7478.28C900.651,7488.48 914.208,7494.45 929.183,7491.74C944.046,7489.14 953.177,7476.25 955.157,7462.56C957.138,7448.86 951.969,7434.18 937.66,7427.88C928.268,7423.74 915.828,7428.92 907.445,7437.02C898.98,7445.2 894.389,7456.74 902.585,7465.66C909.008,7472.65 918.356,7473.76 925.33,7470.83C932.484,7467.82 936.98,7460.43 932.845,7450.88C931.36,7447.45 926.853,7445.77 922.861,7445.88C919.094,7445.98 915.554,7447.84 915.971,7452.27C916.102,7453.57 915.152,7454.73 913.851,7454.86C912.551,7454.99 911.389,7454.04 911.259,7452.74C910.588,7446.42 914.292,7442.78 919.259,7441.47C925.866,7439.74 934.755,7442.71 937.492,7448.83C943.22,7461.66 937.058,7471.63 927.451,7475.8C918.607,7479.63 906.676,7478.37 898.39,7469.55C887.769,7458.24 892.433,7443.23 903.173,7432.64C913.318,7422.64 928.713,7417 940.242,7421.94C957.588,7429.4 964.246,7446.96 961.968,7463.52C959.687,7480.11 948.401,7495.51 930.427,7498.75C912.731,7501.83 896.696,7494.73 886.989,7482.57C877.379,7470.53 873.944,7453.57 881.169,7436.92C883.725,7431.09 887.577,7426.41 892.242,7422.65C898.981,7417.21 907.391,7413.68 915.716,7411.14Z" style="fill:rgb(245,167,174);"/>
                    </g>
                    <g transform="matrix(1,0,0,1,74.2251,-33.0119)">
                        <path d="M973.884,7404.62C973.126,7403.64 973.305,7402.23 974.285,7401.47C975.264,7400.71 976.674,7400.89 977.432,7401.87C978.853,7403.21 980.283,7404.43 981.656,7405.81C982.2,7406.36 982.719,7406.92 983.215,7407.51C983.959,7408.4 984.654,7409.33 985.318,7410.28C988.706,7415.11 991.56,7420.24 993.815,7425.76C994.356,7426.87 993.89,7428.21 992.776,7428.75C991.662,7429.29 990.318,7428.83 989.778,7427.71C987.507,7423.74 984.727,7420.22 981.916,7416.67C980.696,7415.14 979.425,7413.64 978.265,7412.05C977.592,7411.13 976.975,7410.18 976.384,7409.2C975.473,7407.69 974.723,7406.17 973.884,7404.62Z" style="fill:rgb(14,121,106);"/>
                        <path d="M995.386,7396.16C994.991,7394.99 995.623,7393.71 996.796,7393.32C997.97,7392.92 999.244,7393.55 999.639,7394.73C1000.68,7396.82 1001.64,7398.87 1002.43,7401.04C1002.74,7401.91 1003.01,7402.78 1003.24,7403.67C1003.58,7404.99 1003.84,7406.34 1004.05,7407.69C1005.07,7414.34 1005.16,7421.06 1005.3,7427.88C1005.39,7429.11 1004.47,7430.19 1003.23,7430.28C1002,7430.38 1000.92,7429.45 1000.82,7428.21C1000.1,7422.86 999.214,7417.61 998.203,7412.37C997.776,7410.15 997.26,7407.96 996.844,7405.74C996.549,7404.16 996.325,7402.58 996.078,7400.98C995.828,7399.37 995.678,7397.78 995.386,7396.16Z" style="fill:rgb(14,121,106);"/>
                        <path d="M1019.07,7388.52C1019.31,7387.31 1020.48,7386.51 1021.7,7386.75C1022.92,7386.98 1023.71,7388.16 1023.48,7389.38C1023.62,7390.23 1023.81,7390.91 1023.87,7391.77C1023.91,7392.29 1023.91,7392.8 1023.85,7393.31C1023.73,7394.19 1023.45,7395.04 1023.2,7395.89C1022.59,7397.91 1021.82,7399.8 1021.12,7401.8C1020.9,7403.02 1019.73,7403.83 1018.51,7403.6C1017.3,7403.38 1016.49,7402.21 1016.71,7400.99C1016.77,7398.87 1016.74,7396.82 1016.91,7394.7C1016.99,7393.81 1017.04,7392.92 1017.26,7392.05C1017.39,7391.54 1017.58,7391.07 1017.8,7390.6C1018.18,7389.83 1018.62,7389.26 1019.07,7388.52Z" style="fill:rgb(14,121,106);"/>
                        <path d="M1038.6,7382.89C1038.94,7381.7 1040.19,7381.01 1041.38,7381.36C1042.57,7381.71 1043.25,7382.95 1042.91,7384.14C1042.41,7386.85 1041.99,7389.52 1041.4,7392.19C1041.02,7393.96 1040.59,7395.72 1040.09,7397.46C1039.23,7400.49 1038.21,7403.48 1037.22,7406.47C1034.93,7413.42 1032.53,7420.31 1030.43,7427.41C1030.14,7428.61 1028.92,7429.35 1027.72,7429.05C1026.51,7428.75 1025.78,7427.53 1026.08,7426.33C1027.93,7417.36 1029.95,7408.57 1032.39,7399.85C1032.87,7398.11 1033.38,7396.38 1033.95,7394.66C1034.33,7393.52 1034.73,7392.39 1035.17,7391.26C1036.25,7388.44 1037.46,7385.71 1038.6,7382.89Z" style="fill:rgb(14,121,106);"/>
                        <path d="M954.918,7427.41C953.793,7426.89 953.299,7425.56 953.816,7424.43C954.334,7423.31 955.667,7422.81 956.792,7423.33C958.874,7423.97 960.912,7424.55 962.952,7425.29C964.29,7425.78 965.605,7426.31 966.899,7426.9C969.145,7427.92 971.316,7429.09 973.508,7430.22C978.566,7432.83 983.568,7435.5 988.875,7437.73C990.042,7438.15 990.651,7439.43 990.235,7440.6C989.819,7441.76 988.535,7442.37 987.368,7441.96C980.426,7439.88 973.74,7437.38 967.195,7434.46C965.901,7433.88 964.617,7433.27 963.359,7432.62C962.521,7432.18 961.704,7431.72 960.894,7431.23C958.858,7429.99 956.944,7428.67 954.918,7427.41Z" style="fill:rgb(14,121,106);"/>
                        <path d="M971.816,7462.69C970.668,7463.15 969.36,7462.6 968.897,7461.45C968.434,7460.3 968.991,7458.99 970.139,7458.53C970.967,7457.93 971.659,7457.3 972.497,7456.72C973.295,7456.16 974.079,7455.61 974.932,7455.14C976.113,7454.49 977.362,7453.97 978.588,7453.39C981.523,7452.02 984.45,7450.72 987.33,7449.27C988.377,7448.61 989.764,7448.93 990.424,7449.98C991.085,7451.02 990.771,7452.41 989.723,7453.07C986.484,7455.55 983.296,7458.11 979.759,7460.18C979.045,7460.6 978.311,7460.99 977.55,7461.31C977.033,7461.53 976.514,7461.72 975.974,7461.86C974.575,7462.25 973.246,7462.46 971.816,7462.69Z" style="fill:rgb(14,121,106);"/>
                        <path d="M971.286,7502.99C970.456,7503.91 969.036,7503.98 968.117,7503.15C967.199,7502.32 967.128,7500.9 967.959,7499.98C969.448,7497.97 970.777,7495.93 972.166,7493.91C973.564,7491.87 974.905,7489.84 976.294,7487.84C979.101,7483.79 981.919,7479.8 984.52,7475.63C987.984,7470.09 991.286,7464.41 994.466,7458.48C995.008,7457.37 996.352,7456.9 997.465,7457.44C998.579,7457.99 999.043,7459.33 998.501,7460.44C994.308,7469.92 990.058,7479.02 984.639,7487.51C983.539,7489.23 982.382,7490.92 981.138,7492.56C980.311,7493.65 979.444,7494.7 978.533,7495.73C976.279,7498.27 973.845,7500.63 971.286,7502.99Z" style="fill:rgb(14,121,106);"/>
                        <path d="M999.847,7497.87C999.379,7499.02 998.068,7499.57 996.921,7499.1C995.775,7498.63 995.224,7497.32 995.693,7496.18C995.937,7494.93 996.084,7493.73 996.36,7492.48C996.625,7491.28 996.899,7490.09 997.266,7488.91C997.771,7487.29 998.417,7485.71 998.996,7484.11C1000.36,7480.34 1001.7,7476.61 1002.62,7472.77C1002.81,7471.55 1003.96,7470.72 1005.18,7470.91C1006.41,7471.1 1007.24,7472.25 1007.05,7473.47C1006.62,7478.56 1005.84,7483.7 1004.4,7488.69C1004.12,7489.68 1003.8,7490.66 1003.41,7491.61C1003.15,7492.24 1002.86,7492.86 1002.54,7493.47C1001.71,7495.02 1000.78,7496.41 999.847,7497.87Z" style="fill:rgb(14,121,106);"/>
                        <path d="M1027.83,7490.68C1028.17,7491.87 1027.49,7493.11 1026.3,7493.45C1025.11,7493.79 1023.86,7493.11 1023.52,7491.92C1022.61,7489.81 1021.69,7487.76 1020.91,7485.6C1020.39,7484.18 1019.93,7482.74 1019.53,7481.28C1018.85,7478.75 1018.34,7476.16 1017.83,7473.58C1016.64,7467.59 1015.71,7461.56 1014.57,7455.57C1014.28,7454.36 1015.02,7453.15 1016.22,7452.86C1017.43,7452.56 1018.64,7453.3 1018.93,7454.5C1020.69,7460.36 1022.44,7466.21 1024.06,7472.11C1024.74,7474.62 1025.47,7477.12 1026.04,7479.66C1026.45,7481.47 1026.76,7483.3 1027.06,7485.13C1027.37,7486.99 1027.55,7488.82 1027.83,7490.68Z" style="fill:rgb(14,121,106);"/>
                        <path d="M1041.99,7474.86C1042.7,7475.88 1042.45,7477.28 1041.43,7477.98C1040.41,7478.69 1039.01,7478.44 1038.31,7477.42C1037.18,7476.35 1036.09,7475.37 1035.04,7474.22C1034.64,7473.77 1034.26,7473.3 1033.91,7472.81C1033.38,7472.08 1032.91,7471.32 1032.46,7470.54C1030.25,7466.64 1028.49,7462.56 1026.62,7458.44C1026.02,7457.36 1026.41,7455.99 1027.5,7455.39C1028.58,7454.79 1029.95,7455.18 1030.55,7456.26C1032.58,7459.25 1034.7,7462.1 1036.75,7465.04C1037.62,7466.29 1038.52,7467.51 1039.3,7468.82C1039.85,7469.77 1040.31,7470.75 1040.77,7471.75C1041.23,7472.79 1041.56,7473.8 1041.99,7474.86Z" style="fill:rgb(14,121,106);"/>
                        <path d="M1063.54,7458.21C1064.65,7458.76 1065.1,7460.11 1064.55,7461.22C1064,7462.32 1062.65,7462.78 1061.54,7462.22C1059.89,7461.75 1058.3,7461.37 1056.68,7460.82C1056.04,7460.61 1055.42,7460.37 1054.81,7460.1C1053.89,7459.7 1053,7459.24 1052.12,7458.76C1047.7,7456.33 1043.53,7453.56 1039.32,7450.73C1038.24,7450.11 1037.87,7448.74 1038.48,7447.67C1039.09,7446.59 1040.47,7446.22 1041.54,7446.83C1045.22,7448.57 1048.94,7450.06 1052.63,7451.69C1054.22,7452.4 1055.82,7453.07 1057.35,7453.89C1058.23,7454.36 1059.07,7454.89 1059.9,7455.45C1061.18,7456.32 1062.3,7457.27 1063.54,7458.21Z" style="fill:rgb(14,121,106);"/>
                        <path d="M1059.78,7421C1060.92,7420.53 1062.24,7421.07 1062.71,7422.22C1063.18,7423.36 1062.64,7424.68 1061.5,7425.15C1060.18,7425.96 1058.97,7426.83 1057.66,7427.65C1056.38,7428.45 1055.1,7429.24 1053.78,7429.98C1051.92,7431 1050,7431.9 1048.11,7432.86C1043.61,7435.15 1039.12,7437.39 1034.64,7439.69C1033.57,7440.32 1032.19,7439.97 1031.56,7438.9C1030.93,7437.84 1031.28,7436.46 1032.35,7435.83C1037.51,7432.34 1042.53,7428.63 1047.92,7425.5C1049.02,7424.87 1050.13,7424.27 1051.28,7423.74C1052.05,7423.38 1052.83,7423.06 1053.63,7422.78C1055.66,7422.06 1057.69,7421.53 1059.78,7421Z" style="fill:rgb(14,121,106);"/>
                        <path d="M1052.25,7393.92C1052.86,7392.84 1054.23,7392.47 1055.31,7393.08C1056.38,7393.69 1056.76,7395.06 1056.15,7396.14C1055.57,7397.79 1055.07,7399.39 1054.4,7401.01C1054.14,7401.64 1053.85,7402.26 1053.53,7402.86C1053.05,7403.77 1052.52,7404.64 1051.97,7405.5C1049.18,7409.8 1046.06,7413.83 1043,7417.93C1042.33,7418.98 1040.94,7419.28 1039.9,7418.61C1038.85,7417.95 1038.55,7416.56 1039.22,7415.52C1041.17,7411.87 1042.98,7408.18 1044.93,7404.53C1045.76,7402.97 1046.56,7401.4 1047.51,7399.91C1048.19,7398.84 1048.94,7397.83 1049.73,7396.84C1050.54,7395.81 1051.4,7394.91 1052.25,7393.92Z" style="fill:rgb(14,121,106);"/>
                    </g>
                    <g transform="matrix(1,0,0,1,123.608,-96.6971)">
                        <path d="M780.852,7559.95C779.675,7559 779.491,7557.27 780.442,7556.1C781.393,7554.92 783.121,7554.74 784.298,7555.69C790.042,7560.09 792.807,7564.19 794.116,7568.07C795.779,7572.99 794.982,7577.7 794.242,7582.75C793.512,7587.73 792.9,7593.12 796.669,7599.81C798.83,7603.69 801.883,7605.72 805.279,7606.87C811.236,7608.9 818.17,7608.49 824.203,7609.19C830.148,7609.87 835.302,7611.6 838.794,7615.75C841.51,7619 843.096,7622.6 843.963,7626.44C845.454,7633.04 844.7,7640.36 844.744,7647.35C844.781,7653.21 845.329,7658.85 849.683,7663.22C854.931,7668.5 862.011,7667.88 869.405,7666.68C877.866,7665.31 886.75,7662.98 894.65,7664.09C899.27,7664.74 903.592,7666.48 907.393,7670.01C911.806,7674.11 914.348,7679.94 916.064,7686.47C918.178,7694.51 919.067,7703.63 921.779,7711.07C923.681,7716.28 926.486,7720.66 931.741,7722.79C933.149,7723.35 933.841,7724.94 933.286,7726.35C932.731,7727.75 931.137,7728.45 929.729,7727.89C925.036,7726.09 921.716,7722.99 919.242,7719.07C915.148,7712.58 913.537,7703.67 911.65,7695.04C909.936,7687.19 908.085,7679.55 902.913,7674.92C897.184,7669.79 889.972,7670.28 882.593,7671.53C874.01,7672.98 865.162,7675.53 857.427,7674.7C852.586,7674.18 848.14,7672.42 844.289,7668.67C841.182,7665.64 839.32,7662.18 838.218,7658.44C836.308,7651.95 836.893,7644.55 836.858,7637.35C836.829,7631.46 836.431,7625.67 832.503,7621.04C829.712,7617.71 825.045,7617.43 820.088,7617.03C814.309,7616.56 808.096,7616.32 802.655,7614.35C797.593,7612.51 793.117,7609.3 790.03,7603.39C785.562,7594.72 786.36,7587.91 787.543,7581.63C788.298,7577.62 789.328,7573.91 788.187,7569.91C787.306,7566.83 785.167,7563.62 780.852,7559.95Z" style="fill:rgb(58,174,163);"/>
                    </g>
                </g>
                <g id="Girl-1" serif:id="Girl 1" transform="matrix(1,0,0,1,8.54661,-51.4961)">
                    <g id="Arm" transform="matrix(0.992432,0.122795,-0.122795,0.992432,926.354,33.3611)">
                        <path d="M172.233,7562.28L152.661,7580.95C152.661,7580.95 135.861,7570.39 125.352,7564.4C114.844,7558.4 109.056,7556.66 107.277,7553.49C105.499,7550.31 103.187,7544.02 100.788,7539.34C98.389,7534.65 96.143,7539.81 99.179,7548.25C99.179,7548.25 98.376,7552.22 89.123,7546.31C79.871,7540.4 76.045,7538.48 70.443,7538.79C64.841,7539.11 72.789,7542.99 74.695,7546.31C76.601,7549.62 92.279,7559.68 97.339,7561.14C102.398,7562.6 105.974,7565.54 111.5,7570.3C117.363,7575.34 143.272,7595.77 147.592,7598.69C151.912,7601.61 155.591,7598.05 162.481,7594.43C169.371,7590.81 177.876,7583.66 180.309,7581.19C183.453,7578.01 172.233,7562.28 172.233,7562.28Z" style="fill:rgb(147,91,65);"/>
                    </g>
                    <g id="Arm1" serif:id="Arm" transform="matrix(0.991459,-0.130422,0.130422,0.991459,-994.496,93.4153)">
                        <path d="M271.812,7576.58C271.812,7576.58 290.828,7617.54 299.97,7613.97C309.112,7610.4 333.038,7593.07 338.416,7589.7C343.795,7586.33 355.317,7571.96 361.128,7569.5C366.939,7567.03 386.646,7552.75 387.847,7546.31C389.048,7539.86 374.574,7551.34 371.172,7554.7C367.769,7558.06 367.394,7555.64 367.394,7555.64C367.394,7555.64 376.751,7546.4 370.994,7548.81C365.236,7551.21 363.362,7552.17 359.331,7556.54C355.3,7560.91 355.32,7561.84 348.621,7565.19C341.923,7568.55 306.735,7587.78 302.565,7587.33C298.395,7586.88 290.606,7571.71 290.606,7571.71L271.812,7576.58Z" style="fill:rgb(147,91,65);"/>
                    </g>
                    <g id="Skirt" transform="matrix(1.12719,0,0,1,-40.3178,25.113)">
                        <path d="M200.414,7699.02L200.623,7655.57C200.623,7655.57 262.028,7653.53 265.246,7652.09C265.246,7652.09 265.343,7694.13 265.246,7702.69C265.246,7702.69 231.757,7715.42 200.414,7699.02Z" style="fill:rgb(248,157,54);"/>
                    </g>
                    <path id="Neck" d="M210.515,7518.81C210.515,7518.81 215.421,7515.48 217.483,7512.37C219.546,7509.26 219.007,7501.89 218.567,7498.03C218.567,7498.03 234.468,7505.95 238.674,7496.8C238.674,7496.8 236.949,7505.24 237.797,7508.83C238.848,7513.28 243.475,7514.71 246.016,7515.2C249.764,7515.92 251.873,7516.27 251.873,7516.27C251.873,7516.27 250.545,7545.63 237.657,7546.26C224.769,7546.89 205.689,7537.58 210.515,7518.81Z" style="fill:rgb(147,91,65);"/>
                    <path id="Clothing" d="M211.163,7518.52C211.163,7518.52 202.943,7522.19 199.205,7523.73C196.094,7525.02 191.418,7528.79 182.417,7538.32C174.265,7546.96 151.044,7571.09 148.476,7573.63C146.863,7575.22 121.119,7553.77 117.466,7551.52C114.024,7549.4 108.237,7562.23 108.911,7564.14C110.2,7567.79 124.588,7583.62 139.256,7593.59C142.496,7595.79 150.102,7595.44 159.516,7589.02C168.193,7583.11 188.518,7572.15 194.635,7567.91C194.635,7567.91 192.028,7604.81 189.933,7626.84C189.035,7636.29 178.875,7702.42 179.654,7710.09C179.654,7710.09 213.218,7708.36 220.01,7708.2C226.803,7708.04 265.144,7707.79 265.254,7701.93C265.501,7688.7 258.713,7593.42 258.713,7587.89L258.713,7564.3C258.713,7564.3 268.815,7578 272.895,7583.87C278.991,7592.64 287.233,7601.92 292.298,7603.64C298.774,7605.83 321.822,7584.3 329.126,7578.03C347.732,7562.07 348.447,7558.83 346.84,7555.86C345.074,7552.58 341.691,7545.54 338.129,7547.85C310.739,7565.6 298.183,7576.64 294.827,7576.47C292.004,7576.33 279.647,7548.14 269.391,7528.35C262.554,7515.16 245.445,7515.08 245.445,7515.08C245.445,7515.08 247.173,7527.09 242.825,7529.56C235.123,7533.92 214.388,7534.28 213.146,7528.86C211.437,7521.42 211.163,7518.52 211.163,7518.52Z" style="fill:rgb(172,52,16);"/>
                    <clipPath id="_clip2">
                        <path id="Clothing1" serif:id="Clothing" d="M211.163,7518.52C211.163,7518.52 202.943,7522.19 199.205,7523.73C196.094,7525.02 191.418,7528.79 182.417,7538.32C174.265,7546.96 151.044,7571.09 148.476,7573.63C146.863,7575.22 121.119,7553.77 117.466,7551.52C114.024,7549.4 108.237,7562.23 108.911,7564.14C110.2,7567.79 124.588,7583.62 139.256,7593.59C142.496,7595.79 150.102,7595.44 159.516,7589.02C168.193,7583.11 188.518,7572.15 194.635,7567.91C194.635,7567.91 192.028,7604.81 189.933,7626.84C189.035,7636.29 178.875,7702.42 179.654,7710.09C179.654,7710.09 213.218,7708.36 220.01,7708.2C226.803,7708.04 265.144,7707.79 265.254,7701.93C265.501,7688.7 258.713,7593.42 258.713,7587.89L258.713,7564.3C258.713,7564.3 268.815,7578 272.895,7583.87C278.991,7592.64 287.233,7601.92 292.298,7603.64C298.774,7605.83 321.822,7584.3 329.126,7578.03C347.732,7562.07 348.447,7558.83 346.84,7555.86C345.074,7552.58 341.691,7545.54 338.129,7547.85C310.739,7565.6 298.183,7576.64 294.827,7576.47C292.004,7576.33 279.647,7548.14 269.391,7528.35C262.554,7515.16 245.445,7515.08 245.445,7515.08C245.445,7515.08 247.173,7527.09 242.825,7529.56C235.123,7533.92 214.388,7534.28 213.146,7528.86C211.437,7521.42 211.163,7518.52 211.163,7518.52Z"/>
                    </clipPath>
                    <g clip-path="url(#_clip2)">
                        <g transform="matrix(1,0,0,1,-438.976,68.2207)">
                            <path d="M663.551,7466.08C663.524,7465.47 664.003,7464.94 664.622,7464.91C665.241,7464.89 665.765,7465.37 665.792,7465.99C666.285,7474.38 666.418,7482.9 666.286,7491.45C666.167,7499.08 665.858,7506.73 665.465,7514.32C665.201,7519.42 664.878,7524.5 664.587,7529.53C664.406,7532.49 664.298,7536.71 664.217,7541.38C664.048,7551.2 664.018,7562.98 663.892,7569.22C663.522,7586.75 664.433,7593.4 664.285,7605.14C664.232,7609.39 664.039,7614.29 663.601,7620.6C663.351,7624.22 663.744,7630.45 663.683,7635.22C663.665,7636.64 663.608,7637.93 663.486,7639C663.42,7639.61 662.866,7640.06 662.251,7639.99C661.635,7639.93 661.189,7639.37 661.255,7638.76C661.357,7637.75 661.394,7636.54 661.394,7635.2C661.397,7630.39 660.931,7624.1 661.14,7620.45C661.498,7614.19 661.628,7609.33 661.632,7605.12C661.646,7593.36 660.669,7586.72 660.849,7569.18C660.919,7562.93 660.823,7551.15 660.923,7541.34C660.971,7536.61 661.069,7532.33 661.236,7529.34C661.534,7524.31 661.826,7519.23 662.134,7514.14C662.591,7506.57 663.032,7498.96 663.319,7491.37C663.641,7482.89 663.802,7474.43 663.551,7466.08Z" style="fill:rgb(124,31,20);"/>
                        </g>
                        <g transform="matrix(1.49823,0,0,1.49823,-766.963,-3661.45)">
                            <path d="M664.927,7489.7C664.58,7487.08 661.922,7484.79 660.691,7488.01C660.346,7488.91 660.671,7492.31 662.341,7491.96C663.493,7491.71 665.021,7490.4 664.927,7489.7Z" style="fill:rgb(172,52,16);"/>
                            <path d="M665.669,7489.6C665.757,7490.09 665.418,7490.84 664.763,7491.5C664.151,7492.12 663.275,7492.66 662.531,7492.85C661.573,7493.1 660.83,7492.65 660.293,7491.85C659.8,7491.11 659.547,7489.97 659.504,7489.04C659.476,7488.44 659.56,7487.93 659.669,7487.62C660.456,7485.53 661.792,7485.09 662.931,7485.4C663.466,7485.54 664.015,7485.87 664.454,7486.39C665.127,7487.19 665.63,7488.37 665.669,7489.6ZM664.183,7489.79C664.202,7489.76 664.205,7489.74 664.176,7489.74C664.173,7489.73 664.171,7489.73 664.17,7489.74C664.174,7489.75 664.178,7489.77 664.182,7489.78C664.176,7489.77 664.163,7489.74 664.17,7489.74C663.939,7488.81 663.315,7488.04 662.684,7487.65C662.29,7487.4 661.987,7487.67 661.713,7488.4C661.603,7488.66 661.593,7489.22 661.666,7489.78C661.716,7490.16 661.789,7490.54 661.95,7490.83C662.01,7490.94 662.027,7491.09 662.151,7491.07C662.472,7491.01 662.835,7490.86 663.166,7490.65C663.484,7490.46 663.782,7490.23 663.984,7489.99C664.04,7489.93 664.145,7489.85 664.183,7489.79Z" style="fill:rgb(124,31,20);"/>
                        </g>
                        <g transform="matrix(1.49823,0,0,1.49823,-768.406,-3630.53)">
                            <path d="M664.927,7489.7C664.58,7487.08 661.922,7484.79 660.691,7488.01C660.346,7488.91 660.671,7492.31 662.341,7491.96C663.493,7491.71 665.021,7490.4 664.927,7489.7Z" style="fill:rgb(172,52,16);"/>
                            <path d="M665.669,7489.6C665.757,7490.09 665.418,7490.84 664.763,7491.5C664.151,7492.12 663.275,7492.66 662.531,7492.85C661.573,7493.1 660.83,7492.65 660.293,7491.85C659.8,7491.11 659.547,7489.97 659.504,7489.04C659.476,7488.44 659.56,7487.93 659.669,7487.62C660.456,7485.53 661.792,7485.09 662.931,7485.4C663.466,7485.54 664.015,7485.87 664.454,7486.39C665.127,7487.19 665.63,7488.37 665.669,7489.6ZM664.183,7489.79C664.202,7489.76 664.205,7489.74 664.176,7489.74C664.173,7489.73 664.171,7489.73 664.17,7489.74C663.939,7488.81 663.315,7488.04 662.684,7487.65C662.29,7487.4 661.987,7487.67 661.713,7488.4C661.603,7488.66 661.593,7489.22 661.666,7489.78C661.716,7490.16 661.789,7490.54 661.95,7490.83C662.01,7490.94 662.027,7491.09 662.151,7491.07C662.472,7491.01 662.835,7490.86 663.166,7490.65C663.484,7490.46 663.782,7490.23 663.984,7489.99C664.04,7489.93 664.145,7489.85 664.183,7489.79Z" style="fill:rgb(124,31,20);"/>
                        </g>
                        <g transform="matrix(1.49823,0,0,1.49823,-768.406,-3601.15)">
                            <path d="M664.927,7489.7C664.58,7487.08 661.922,7484.79 660.691,7488.01C660.346,7488.91 660.671,7492.31 662.341,7491.96C663.493,7491.71 665.021,7490.4 664.927,7489.7Z" style="fill:rgb(172,52,16);"/>
                            <path d="M665.669,7489.6C665.757,7490.09 665.418,7490.84 664.763,7491.5C664.151,7492.12 663.275,7492.66 662.531,7492.85C661.573,7493.1 660.83,7492.65 660.293,7491.85C659.8,7491.11 659.547,7489.97 659.504,7489.04C659.476,7488.44 659.56,7487.93 659.669,7487.62C660.456,7485.53 661.792,7485.09 662.931,7485.4C663.466,7485.54 664.015,7485.87 664.454,7486.39C665.127,7487.19 665.63,7488.37 665.669,7489.6ZM664.183,7489.79C664.202,7489.76 664.205,7489.74 664.176,7489.74C664.173,7489.73 664.171,7489.73 664.17,7489.74C663.939,7488.81 663.315,7488.04 662.684,7487.65C662.29,7487.4 661.987,7487.67 661.713,7488.4C661.603,7488.66 661.593,7489.22 661.666,7489.78C661.716,7490.16 661.789,7490.54 661.95,7490.83C662.01,7490.94 662.027,7491.09 662.151,7491.07C662.472,7491.01 662.835,7490.86 663.166,7490.65C663.484,7490.46 663.782,7490.23 663.984,7489.99C664.04,7489.93 664.145,7489.85 664.183,7489.79Z" style="fill:rgb(124,31,20);"/>
                        </g>
                        <g transform="matrix(1.49823,0,0,1.49823,-769.463,-3570.77)">
                            <path d="M664.927,7489.7C664.58,7487.08 661.922,7484.79 660.691,7488.01C660.346,7488.91 660.671,7492.31 662.341,7491.96C663.493,7491.71 665.021,7490.4 664.927,7489.7Z" style="fill:rgb(172,52,16);"/>
                            <path d="M665.669,7489.6C665.757,7490.09 665.418,7490.84 664.763,7491.5C664.151,7492.12 663.275,7492.66 662.531,7492.85C661.573,7493.1 660.83,7492.65 660.293,7491.85C659.8,7491.11 659.547,7489.97 659.504,7489.04C659.476,7488.44 659.56,7487.93 659.669,7487.62C660.456,7485.53 661.792,7485.09 662.931,7485.4C663.466,7485.54 664.015,7485.87 664.454,7486.39C665.127,7487.19 665.63,7488.37 665.669,7489.6ZM664.183,7489.79C664.202,7489.76 664.205,7489.74 664.176,7489.74C664.173,7489.73 664.171,7489.73 664.17,7489.74C663.939,7488.81 663.315,7488.04 662.684,7487.65C662.29,7487.4 661.987,7487.67 661.713,7488.4C661.603,7488.66 661.593,7489.22 661.666,7489.78C661.716,7490.16 661.789,7490.54 661.95,7490.83C662.01,7490.94 662.027,7491.09 662.151,7491.07C662.472,7491.01 662.835,7490.86 663.166,7490.65C663.484,7490.46 663.782,7490.23 663.984,7489.99C664.04,7489.93 664.145,7489.85 664.183,7489.79Z" style="fill:rgb(124,31,20);"/>
                        </g>
                        <g transform="matrix(1.49823,0,0,1.49823,-770.539,-3537.66)">
                            <path d="M664.927,7489.7C664.58,7487.08 661.922,7484.79 660.691,7488.01C660.346,7488.91 660.671,7492.31 662.341,7491.96C663.493,7491.71 665.021,7490.4 664.927,7489.7Z" style="fill:rgb(172,52,16);"/>
                            <path d="M665.669,7489.6C665.757,7490.09 665.418,7490.84 664.763,7491.5C664.151,7492.12 663.275,7492.66 662.531,7492.85C661.573,7493.1 660.83,7492.65 660.293,7491.85C659.8,7491.11 659.547,7489.97 659.504,7489.04C659.476,7488.44 659.56,7487.93 659.669,7487.62C660.456,7485.53 661.792,7485.09 662.931,7485.4C663.466,7485.54 664.015,7485.87 664.454,7486.39C665.127,7487.19 665.63,7488.37 665.669,7489.6ZM664.183,7489.79C664.176,7489.77 664.163,7489.74 664.17,7489.74C663.939,7488.81 663.315,7488.04 662.684,7487.65C662.29,7487.4 661.987,7487.67 661.713,7488.4C661.603,7488.66 661.593,7489.22 661.666,7489.78C661.716,7490.16 661.789,7490.54 661.95,7490.83C662.01,7490.94 662.027,7491.09 662.151,7491.07C662.472,7491.01 662.835,7490.86 663.166,7490.65C663.484,7490.46 663.782,7490.23 663.984,7489.99C664.04,7489.93 664.144,7489.85 664.183,7489.79ZM664.17,7489.74C664.175,7489.75 664.179,7489.77 664.183,7489.79C664.202,7489.76 664.205,7489.74 664.176,7489.74C664.173,7489.73 664.171,7489.73 664.17,7489.74Z" style="fill:rgb(124,31,20);"/>
                        </g>
                    </g>
                    <g id="Scarf">
                        <g transform="matrix(1,0,0,1,-438.976,68.2207)">
                            <path d="M622.321,7606.95C624.993,7592.11 622.705,7578.69 626.005,7563.97C626.742,7560.68 629.747,7546.98 630.126,7543.46C631.729,7528.56 632.94,7516.12 630.981,7501.4C629.872,7493.07 631.039,7482.95 631.298,7474.61C631.428,7470.43 632.629,7458.18 633.477,7457.32C636.448,7454.33 638.282,7454.34 642.115,7452.46C645.318,7450.88 649.255,7448.23 650.186,7450.7C651.901,7455.26 650.898,7463.63 650.022,7468.17C648.864,7474.18 648.1,7480.5 648.476,7486.64C649.014,7495.44 652.473,7504.46 651.587,7513.31C650.042,7528.76 643.759,7543.27 642.737,7558.8C642.385,7564.15 638.973,7576.21 638.406,7583.3C637.729,7591.76 641.414,7605.43 639.358,7607.67C634.447,7613.03 629.293,7609.29 622.321,7606.95Z" style="fill:rgb(124,31,20);"/>
                        </g>
                        <g transform="matrix(1,0,0,1,-428.57,71.4132)">
                            <path d="M672.604,7441.4C676.898,7442.3 681.364,7443.92 685.276,7446.02C686.365,7446.6 687.798,7446.58 688.592,7447.57C689.046,7448.13 688.458,7453.5 688.297,7454.09C687.134,7458.38 685.837,7462.64 685.167,7467.05C684.24,7473.13 683.903,7479.71 684.062,7485.86C684.145,7489.09 684.443,7492.36 684.029,7495.56C683.215,7501.88 679.519,7507.54 678.354,7513.82C676.441,7524.15 680.319,7532.76 684.134,7542.02C687.624,7550.49 691.222,7559.27 693.107,7568.27C695.592,7580.13 690.227,7591.88 693.352,7603.53C693.634,7604.58 690.501,7606.64 689.693,7607.1C686.1,7609.14 680.9,7609.37 680.433,7608.8C677.066,7604.76 676.523,7596.72 676.711,7591.76C676.962,7585.12 679.742,7579.12 681.612,7572.84C683.611,7566.12 675.093,7558.79 673.663,7551.89C672.529,7546.4 670.852,7540.81 668.802,7535.59C667.235,7531.6 665.166,7527.44 665.34,7523.03C665.618,7515.97 669.797,7510.27 671.238,7503.5C672.665,7496.8 670.714,7489.92 669.243,7483.49C668.381,7479.72 667.657,7475.59 668.178,7471.71C668.716,7467.72 670.107,7463.82 670.23,7459.78C670.399,7454.23 669.251,7446.41 672.604,7441.4Z" style="fill:rgb(124,31,20);"/>
                        </g>
                    </g>
                    <g id="Face" transform="matrix(0.998527,-0.0542615,0.0542615,0.998527,-405.55,29.1813)">
                        <path d="M213.39,7426.31C213.39,7426.31 187.73,7437.86 193.746,7461.23C193.747,7461.24 204.14,7487.1 217.071,7497.9C223.245,7503.05 233.697,7500.46 237.558,7496.4C244.158,7489.46 249.229,7480.44 250.894,7470.99C253.419,7456.65 250.41,7433.78 238,7427.71C225.591,7421.64 216.125,7425.67 213.39,7426.31Z" style="fill:rgb(165,102,73);"/>
                    </g>
                    <g id="Eyes" transform="matrix(0.998527,-0.0542615,0.0542615,0.998527,-10.2996,7246.65)">
                        <g transform="matrix(0.99338,-0.114872,0.114872,0.99338,-857.901,-7157.01)">
                            <path d="M205.679,7464.39C205.35,7464.64 204.881,7464.58 204.632,7464.25C204.383,7463.92 204.447,7463.45 204.777,7463.2C205.199,7462.77 205.642,7462.4 206.132,7462.05C206.458,7461.82 206.799,7461.63 207.158,7461.45C207.744,7461.17 208.368,7460.96 209.009,7460.81C211.27,7460.26 213.732,7460.37 216.103,7460.76C216.513,7460.8 216.811,7461.17 216.767,7461.58C216.723,7461.99 216.354,7462.29 215.943,7462.24C214.135,7462.15 212.311,7462.3 210.583,7462.69C210.07,7462.81 209.57,7462.95 209.075,7463.11C208.745,7463.21 208.418,7463.32 208.094,7463.43C207.683,7463.56 207.279,7463.7 206.88,7463.86C206.471,7464.03 206.07,7464.18 205.679,7464.39Z" style="fill:rgb(35,40,44);"/>
                        </g>
                        <g transform="matrix(0.997682,-0.0680477,0.0680477,0.997682,-505.133,-7198.13)">
                            <path d="M229.167,7461.26C228.772,7461.38 228.353,7461.16 228.23,7460.76C228.108,7460.37 228.329,7459.95 228.723,7459.83C229.601,7459.43 230.515,7459.08 231.493,7458.88C232.125,7458.75 232.776,7458.7 233.42,7458.68C236.093,7458.6 238.69,7459.15 240.527,7459.83C240.921,7459.95 241.141,7460.37 241.018,7460.77C240.894,7461.16 240.475,7461.38 240.081,7461.26C238.877,7460.95 237.355,7460.82 235.721,7460.81C234.653,7460.8 233.546,7460.9 232.439,7460.99C231.892,7461.03 231.349,7461.05 230.808,7461.1C230.248,7461.15 229.707,7461.17 229.167,7461.26Z" style="fill:rgb(35,40,44);"/>
                        </g>
                        <g transform="matrix(0.884502,-0.102282,0.102282,0.884502,-741.394,-6346.2)">
                            <path d="M208.731,7462.17C207.899,7463.54 210.459,7465.74 211.83,7465.31C213.743,7464.71 215.391,7460.48 212.24,7460.21C211.693,7460.16 211.117,7460.33 210.599,7460.48C210.007,7460.66 209.171,7461.73 208.731,7462.17Z" style="fill:rgb(35,40,44);"/>
                        </g>
                        <g transform="matrix(0.997682,-0.0680477,0.0680477,0.997682,-505.333,-7197.91)">
                            <path d="M235.242,7459.63C234.419,7459.37 233.217,7459.79 232.652,7460.66C231.976,7461.69 232.836,7464.02 234.181,7464.14C237.242,7464.42 238.742,7459.97 235.242,7459.63Z" style="fill:rgb(35,40,44);"/>
                        </g>
                    </g>
                    <g transform="matrix(0.998527,-0.0542615,0.0542615,0.998527,-840.046,130.031)">
                        <path d="M632.276,7389.33C634.803,7394.04 637.964,7396.84 637.907,7391.55C637.716,7373.75 653.119,7372.35 661.538,7365.97C670.509,7359.16 671.481,7358.95 673.36,7361.84C676.962,7367.39 678.57,7365.8 683.111,7368.82C685.379,7370.33 686.513,7368.57 689.327,7377.43C690.984,7382.65 689.647,7388.59 691.475,7388.84C691.776,7388.88 695.38,7379.81 695.528,7379.63C696.481,7378.48 696.976,7376.94 697.288,7375.51C697.625,7373.95 697.809,7372.38 697.934,7370.8C698.147,7368.09 697.992,7365.41 697.892,7362.7C697.75,7358.86 697.651,7354.65 696.324,7350.99C694.841,7346.89 692.422,7342.74 689.04,7339.9C686.435,7337.71 683.307,7336.12 680.239,7334.69C677.465,7333.4 675.057,7332.92 672.101,7332.24C671.457,7332.1 669.042,7331.71 669.061,7331.7C674.498,7329.43 675.716,7324.95 676.291,7321.38C677.526,7313.73 670.986,7307.47 663.178,7306.09C653.85,7304.44 648.194,7305.94 642.792,7310.99C634.08,7319.15 635.714,7332.48 648.177,7334.6C648.227,7334.61 640.415,7338.15 638.291,7340.03C636.524,7341.59 632.347,7344.5 629.314,7350.54C626.714,7355.73 624.643,7359.3 624.952,7368.45C625.202,7375.88 628.886,7383 632.276,7389.33Z" style="fill:rgb(70,45,42);"/>
                    </g>
                    <g transform="matrix(0.998527,-0.0542615,0.0542615,0.998527,-840.178,121.121)">
                        <path d="M647.707,7344.69C647.088,7344.69 646.585,7344.19 646.585,7343.57C646.585,7342.95 647.088,7342.45 647.707,7342.45C649.033,7342.29 649.956,7342.18 650.697,7342.12C652.168,7342.02 652.776,7341.99 654.056,7341.9C654.836,7341.84 655.864,7341.82 657.471,7341.72C659.791,7341.63 661.467,7341.58 663.114,7341.3C664.711,7341.03 666.276,7340.56 668.387,7339.63C668.941,7339.36 669.615,7339.58 669.891,7340.14C670.168,7340.69 669.943,7341.36 669.389,7341.64C667.143,7342.9 665.455,7343.59 663.704,7344.05C661.973,7344.5 660.185,7344.69 657.713,7344.97C656.677,7345.07 655.88,7345.16 655.23,7345.2C654.06,7345.27 653.36,7345.27 652.658,7345.23C651.592,7345.17 650.55,7344.98 647.707,7344.69Z" style="fill:rgb(247,147,31);"/>
                    </g>
                    <g id="Nose" transform="matrix(0.998527,-0.0542615,0.0542615,0.998527,-405.55,29.1813)">
                        <path d="M223.608,7468.07C223.604,7467.8 223.824,7467.57 224.099,7467.56C224.374,7467.56 224.601,7467.78 224.605,7468.06C224.681,7468.99 224.793,7470.2 224.834,7471.38C224.854,7471.95 224.852,7472.52 224.84,7473.04C224.826,7473.7 224.783,7474.28 224.744,7474.73C224.697,7475.19 224.602,7476.19 224.615,7477.07C224.62,7477.39 224.635,7477.69 224.677,7477.94C224.701,7478.08 224.711,7478.2 224.764,7478.28C225.017,7478.62 225.306,7478.74 225.623,7478.71C226.313,7478.63 227.044,7478.13 227.669,7477.8C227.908,7477.66 228.213,7477.75 228.349,7477.99C228.485,7478.23 228.402,7478.53 228.163,7478.67C227.445,7479.11 226.593,7479.71 225.78,7479.85C225.074,7479.97 224.389,7479.79 223.774,7479.05C223.55,7478.77 223.386,7478.22 223.313,7477.56C223.2,7476.53 223.261,7475.2 223.291,7474.62C223.317,7474.19 223.322,7473.63 223.34,7473C223.356,7472.49 223.372,7471.93 223.401,7471.36C223.461,7470.2 223.561,7469 223.608,7468.07Z" style="fill:rgb(35,40,44);"/>
                    </g>
                    <g id="Mouth" transform="matrix(0.999425,0.0339125,-0.0339125,0.999425,256.985,1.62791)">
                        <path d="M232.745,7482.79C232.692,7483.58 232.193,7485.2 232.077,7485.55C231.277,7487.89 230.271,7489.18 228.695,7490.63C227.186,7492.02 225.247,7492.76 223.439,7492.51C221.393,7492.22 219.162,7490.66 218.26,7490.03C217.135,7489.25 215.389,7486.96 215.35,7486.9C218.919,7488.28 224.215,7487.32 227.872,7485.81C229.855,7484.99 230.81,7484.09 232.745,7482.79Z" style="fill:white;"/>
                        <path d="M233.242,7482.83C233.23,7483.14 233.156,7483.59 233.06,7484.03C232.906,7484.76 232.693,7485.51 232.623,7485.73C232.248,7486.93 231.814,7487.86 231.285,7488.69C230.711,7489.58 230.021,7490.34 229.173,7491.15C228.382,7491.89 227.479,7492.47 226.532,7492.84C225.488,7493.25 224.39,7493.4 223.334,7493.25C222.533,7493.13 221.704,7492.84 220.928,7492.48C219.61,7491.86 218.446,7491.04 217.848,7490.62C217.438,7490.33 216.948,7489.86 216.484,7489.36C215.609,7488.4 214.813,7487.34 214.785,7487.3C214.614,7487.05 214.624,7486.72 214.811,7486.48C214.997,7486.24 215.316,7486.16 215.597,7486.27C217.312,7486.95 219.457,7487.04 221.608,7486.8C223.748,7486.56 225.896,7485.99 227.659,7485.29C228.432,7484.98 229.044,7484.65 229.623,7484.3C230.506,7483.75 231.313,7483.13 232.468,7482.38C232.626,7482.27 232.83,7482.27 232.994,7482.36C233.159,7482.46 233.255,7482.64 233.242,7482.83ZM231.984,7483.94C231.337,7484.41 230.783,7484.82 230.195,7485.2C229.576,7485.6 228.919,7485.97 228.086,7486.32C225.889,7487.26 223.108,7488 220.442,7488.18C219.337,7488.25 218.252,7488.23 217.233,7488.08C217.327,7488.18 217.423,7488.28 217.521,7488.39C217.916,7488.81 218.325,7489.2 218.672,7489.44C219.232,7489.82 220.321,7490.57 221.551,7491.13C222.196,7491.43 222.88,7491.67 223.544,7491.77C224.356,7491.88 225.197,7491.76 226.005,7491.46C226.792,7491.17 227.55,7490.71 228.217,7490.11C229.009,7489.4 229.654,7488.74 230.204,7487.96C230.711,7487.24 231.142,7486.42 231.53,7485.36C231.601,7485.17 231.808,7484.57 231.984,7483.94Z" style="fill:rgb(104,50,41);"/>
                    </g>
                    <g transform="matrix(0.835573,-0.0933077,0.110979,0.993823,-1150.46,181.333)">
                        <ellipse cx="662.811" cy="7387.05" rx="1.366" ry="1.712" style="fill:rgb(172,52,16);"/>
                    </g>
                </g>
            </g>
        </g>
        <g id="Step-1c" serif:id="Step 1c">
        </g>
        <g id="Step-1a-thumbnail" serif:id="Step 1a thumbnail">
        </g>
        <g id="Step-2-thumbnail" serif:id="Step 2 thumbnail">
        </g>
        <g id="Global-girl-globe" serif:id="Global girl globe">
        </g>
        <g id="Step-2-thumbnail1" serif:id="Step 2 thumbnail">
        </g>
        <g id="Global-girl-globe1" serif:id="Global girl globe">
        </g>
        <g id="Step-2-thumbnail2" serif:id="Step 2 thumbnail">
        </g>
        <g id="Previous-illustrations" serif:id="Previous illustrations">
        </g>
    </g>
    <defs>
        <linearGradient id="_Linear1" x1="0" y1="0" x2="1" y2="0" gradientUnits="userSpaceOnUse" gradientTransform="matrix(74.4539,-13.6263,19.4224,106.124,299.282,7467.85)"><stop offset="0" style="stop-color:rgb(139,217,220);stop-opacity:1"/><stop offset="1" style="stop-color:rgb(188,235,237);stop-opacity:1"/></linearGradient>
    </defs>
</svg>
