<?xml version="1.0" encoding="UTF-8" standalone="no"?>
<!DOCTYPE svg PUBLIC "-//W3C//DTD SVG 1.1//EN" "http://www.w3.org/Graphics/SVG/1.1/DTD/svg11.dtd">
<svg width="100%" height="100%" viewBox="0 0 611 668" version="1.1" xmlns="http://www.w3.org/2000/svg" xmlns:xlink="http://www.w3.org/1999/xlink" xml:space="preserve" xmlns:serif="http://www.serif.com/" style="fill-rule:evenodd;clip-rule:evenodd;stroke-linejoin:round;stroke-miterlimit:2;">
    <g transform="matrix(1,0,0,1,-4097.44,-4131.65)">
        <g id="Bottom">
        </g>
        <g id="Middle">
        </g>
        <g id="_5.-Actioning-ideas-and-running-a-community-event-" serif:id="5. Actioning ideas and running a community event " transform="matrix(0.477172,0,0,0.834998,4097.44,4131.65)">
            <rect x="0" y="0" width="1280" height="800" style="fill:none;"/>
            <g transform="matrix(-2.79528,-1.95626e-16,3.49611e-16,-1.63141,1269.82,12629.4)">
                <path d="M416.982,7591.02L416.981,7591.03C416.945,7591.13 416.908,7591.23 416.871,7591.34C413.076,7601.9 407.732,7611.61 400.842,7619.78C398.185,7622.93 395.221,7625.87 391.972,7628.57C384.438,7637.27 375.935,7645.55 366.805,7653.05C357.322,7660.85 321.796,7689.45 283.645,7706.55C269.161,7713.04 253.745,7717.28 238.126,7719.41C212.737,7722.87 188.193,7719.69 164.991,7711.8C144.697,7704.89 125.45,7694.29 107.844,7681.77C64.725,7651.12 34.254,7600.85 20.927,7545.57C7.979,7491.86 11.356,7434.04 31.537,7387.41C38.563,7371.18 48.428,7356.85 60.24,7344.11C74.583,7328.64 91.945,7315.61 109.381,7304.07C123.542,7294.7 138.532,7286.38 154.375,7280.65C167.034,7276.07 180.229,7273.08 194.005,7272.18C227.739,7269.98 271.841,7274.55 309.878,7288.16C341.533,7299.49 368.927,7317.22 386.97,7340.03C408.578,7367.35 420.992,7395.73 427.58,7425.69C433.47,7452.47 434.493,7480.64 432.976,7510.71C432.312,7523.86 431.524,7537.81 429.229,7551.3C427.204,7563.2 424.055,7574.77 419.434,7585.61C418.664,7587.41 417.847,7589.22 416.982,7591.02Z" style="fill:rgb(188,235,237);"/>
            </g>
            <g id="Running-event" serif:id="Running event">
            </g>
            <g id="Actioning-ideas" serif:id="Actioning ideas" transform="matrix(1.90798,0,0,0.910434,46.7534,35.9605)">
                <g id="Paper" transform="matrix(1,0,0,1.19761,-4097.44,-4948.1)">
                    <path d="M4391.86,4417.22C4399.01,4427.47 4428.98,4463.6 4439.06,4480.21C4450.29,4498.71 4461.89,4517.07 4472.22,4536.11C4474.81,4540.88 4477.69,4545.56 4480.56,4550.17C4481.52,4551.73 4484.09,4554.39 4484.33,4556.12C4484.47,4557.12 4482.62,4559.12 4481.97,4559.82C4478.89,4563.15 4474.82,4565.18 4471.09,4567.68C4455.96,4577.84 4441.78,4589.6 4426.18,4599.03C4417.68,4604.17 4409.2,4609.56 4401.24,4615.51C4398.07,4617.88 4394.74,4620 4391.53,4622.31C4391.07,4622.64 4388.89,4624.67 4388.67,4624.61C4387.68,4624.34 4386.24,4622.2 4385.59,4621.47C4383.17,4618.75 4381.01,4615.8 4378.7,4613C4368.5,4600.62 4359.37,4587.3 4348.7,4575.35C4343.35,4569.37 4336.94,4564.37 4332.07,4557.95C4322.77,4545.68 4316.2,4531.78 4308.84,4518.35C4305.8,4512.81 4303.07,4507.14 4300.21,4501.52C4299.2,4499.53 4296.67,4496.4 4296.37,4494.17C4296.27,4493.45 4297.44,4493.19 4297.98,4492.71C4299.37,4491.47 4300.66,4490.13 4302.03,4488.86C4307.73,4483.55 4312.53,4477.3 4317.77,4471.55C4325.15,4463.46 4337.99,4455.46 4347.16,4449.48C4357.34,4442.85 4377.86,4426.47 4391.86,4417.22Z" style="fill:white;"/>
                    <path d="M4392.83,4416.54C4397.84,4423.63 4413.98,4443.14 4426.76,4459.93C4432.4,4467.35 4437.38,4474.26 4440.5,4479.34C4447.29,4490.41 4454.21,4501.43 4460.9,4512.59C4465.38,4520.05 4469.74,4527.57 4473.9,4535.19C4474.93,4537.08 4476.01,4538.95 4477.11,4540.81C4478.78,4543.61 4480.49,4546.39 4482.21,4549.15C4482.86,4550.18 4484.22,4551.72 4485.12,4553.14C4485.74,4554.11 4486.15,4555.06 4486.26,4555.85C4486.36,4556.51 4486.15,4557.44 4485.6,4558.37C4484.97,4559.43 4483.89,4560.62 4483.4,4561.15C4482.08,4562.59 4480.58,4563.8 4479.01,4564.91C4476.8,4566.46 4474.43,4567.8 4472.19,4569.31C4461.61,4576.41 4451.49,4584.29 4441.03,4591.6C4436.49,4594.77 4431.9,4597.82 4427.17,4600.67C4422.94,4603.22 4418.71,4605.84 4414.54,4608.55C4410.39,4611.26 4406.31,4614.06 4402.36,4617.01L4392.61,4623.81C4392.24,4624.08 4390.75,4625.45 4390.06,4625.94C4389.2,4626.56 4388.41,4626.46 4388.18,4626.4C4387.62,4626.24 4386.93,4625.81 4386.28,4625.16C4385.49,4624.36 4384.67,4623.2 4384.22,4622.69C4383.47,4621.85 4382.76,4620.99 4382.05,4620.12C4380.45,4618.15 4378.91,4616.11 4377.3,4614.15C4370.18,4605.47 4363.57,4596.32 4356.6,4587.51C4353.63,4583.76 4350.6,4580.06 4347.42,4576.49C4343.7,4572.31 4339.46,4568.61 4335.59,4564.57C4333.88,4562.78 4332.24,4560.93 4330.74,4558.95C4326.99,4553.98 4323.69,4548.75 4320.59,4543.39C4315.99,4535.43 4311.87,4527.18 4307.47,4519.1C4306.25,4516.87 4305.09,4514.61 4303.94,4512.35C4302.23,4508.98 4300.57,4505.58 4298.86,4502.2C4298.18,4500.85 4296.79,4498.97 4295.88,4497.2C4295.37,4496.2 4295,4495.23 4294.89,4494.37C4294.81,4493.8 4294.95,4493.3 4295.26,4492.87C4295.46,4492.6 4295.74,4492.34 4296.09,4492.12C4296.38,4491.94 4296.76,4491.8 4296.99,4491.6L4301.02,4487.78C4302.71,4486.22 4304.32,4484.57 4305.88,4482.88C4309.58,4478.87 4313.05,4474.61 4316.72,4470.6C4319.78,4467.26 4323.76,4463.93 4328.03,4460.76C4334.19,4456.19 4340.96,4451.92 4346.44,4448.37C4354.58,4443.09 4369.34,4431.61 4382.09,4422.52C4385.3,4420.23 4388.38,4418.08 4391.2,4416.23L4392.16,4415.59L4392.83,4416.54ZM4388.7,4622.85C4388.92,4623.05 4389.12,4623.09 4389.26,4622.87C4389.29,4622.83 4389.18,4622.84 4389.15,4622.83C4389.1,4622.82 4388.91,4622.83 4388.7,4622.85ZM4297.97,4494.49C4298.1,4494.91 4298.31,4495.36 4298.55,4495.82C4299.47,4497.59 4300.87,4499.47 4301.56,4500.83C4303.29,4504.2 4304.97,4507.59 4306.69,4510.95C4307.83,4513.18 4309,4515.4 4310.21,4517.6C4314.64,4525.63 4318.78,4533.84 4323.4,4541.77C4326.45,4546.99 4329.7,4552.1 4333.39,4556.94C4334.82,4558.82 4336.38,4560.56 4338.01,4562.25C4341.92,4566.3 4346.21,4570.02 4349.97,4574.21C4353.21,4577.82 4356.31,4581.55 4359.33,4585.34C4366.33,4594.11 4372.95,4603.21 4380.1,4611.84C4381.73,4613.81 4383.28,4615.84 4384.89,4617.81C4385.57,4618.64 4386.25,4619.45 4386.96,4620.25C4387.27,4620.59 4387.87,4621.82 4388.41,4622.52C4389.07,4621.95 4390.19,4620.99 4390.45,4620.81L4400.12,4614.01C4404.12,4611.01 4408.26,4608.14 4412.47,4605.38C4416.66,4602.63 4420.92,4599.98 4425.19,4597.39C4429.83,4594.57 4434.35,4591.55 4438.8,4588.42C4449.28,4581.07 4459.4,4573.17 4469.99,4566.05C4472.22,4564.55 4474.57,4563.24 4476.75,4561.7C4478.11,4560.76 4479.4,4559.72 4480.53,4558.49C4480.91,4558.09 4482.05,4556.53 4482.34,4556.15C4482.2,4555.71 4481.85,4555.23 4481.48,4554.71C4480.59,4553.43 4479.48,4552.12 4478.9,4551.2C4477.18,4548.41 4475.45,4545.61 4473.78,4542.78C4472.67,4540.87 4471.58,4538.95 4470.53,4537.02C4466.43,4529.42 4462.12,4521.92 4457.73,4514.48C4451.12,4503.29 4444.3,4492.21 4437.62,4481.09C4434.59,4476.04 4429.74,4469.19 4424.26,4461.81C4412.2,4445.53 4397.12,4426.69 4391.55,4418.85C4389.03,4420.55 4386.32,4422.46 4383.5,4424.49C4370.77,4433.67 4356.02,4445.26 4347.89,4450.6C4342.47,4454.15 4335.77,4458.41 4329.68,4462.98C4325.58,4466.06 4321.75,4469.27 4318.82,4472.51C4315.16,4476.54 4311.72,4480.82 4308.03,4484.85C4306.42,4486.61 4304.77,4488.32 4303.03,4489.94L4298.98,4493.82C4298.76,4494.02 4298.29,4494.3 4297.97,4494.49Z" style="fill:rgb(35,40,44);"/>
                </g>
                <g transform="matrix(1,0,0,1.19761,-4097.44,-4948.1)">
                    <path d="M4311.61,4495.67C4311.07,4494.64 4311.47,4493.36 4312.5,4492.82C4313.53,4492.29 4314.8,4492.69 4315.34,4493.71C4316.01,4494.41 4316.66,4494.95 4317.33,4495.65C4317.75,4496.09 4318.15,4496.52 4318.54,4496.99C4318.93,4497.45 4319.31,4497.9 4319.66,4498.39C4320.18,4499.12 4320.66,4499.89 4321.13,4500.66C4323.54,4504.71 4325.71,4508.84 4327.63,4513.15C4328.2,4514.16 4327.84,4515.45 4326.83,4516.02C4325.82,4516.59 4324.53,4516.23 4323.96,4515.22C4321.8,4512.17 4319.31,4509.44 4316.98,4506.51C4315.97,4505.22 4314.92,4503.94 4314.08,4502.53C4313.46,4501.49 4312.94,4500.41 4312.54,4499.27C4312.11,4498.06 4311.88,4496.93 4311.61,4495.67Z" style="fill:rgb(35,40,44);"/>
                </g>
                <g transform="matrix(1,0,0,1.19761,-4097.44,-4948.1)">
                    <path d="M4334.72,4533.03C4333.94,4532.17 4334.01,4530.84 4334.87,4530.06C4335.74,4529.28 4337.07,4529.35 4337.85,4530.22C4339.08,4531.07 4340.2,4531.88 4341.29,4532.9C4342.33,4533.88 4343.25,4534.96 4344.08,4536.12C4345.2,4537.7 4346.1,4539.43 4346.99,4541.16C4349.02,4545.04 4350.71,4549.04 4352.94,4552.79C4353.62,4553.73 4353.41,4555.05 4352.47,4555.73C4351.52,4556.4 4350.21,4556.19 4349.53,4555.25C4345.98,4551.09 4342.84,4546.65 4339.73,4542.14C4339.14,4541.29 4338.56,4540.42 4338.02,4539.53C4337.66,4538.95 4337.34,4538.35 4337.01,4537.74C4336.67,4537.13 4336.38,4536.53 4336.07,4535.9C4335.58,4534.93 4335.23,4534 4334.72,4533.03Z" style="fill:rgb(35,40,44);"/>
                </g>
                <g transform="matrix(1,0,0,1.19761,-4097.44,-4948.1)">
                    <path d="M4367.62,4572.8C4366.93,4571.87 4367.13,4570.55 4368.07,4569.86C4369,4569.17 4370.32,4569.37 4371.01,4570.31C4372.27,4571.46 4373.49,4572.51 4374.64,4573.75C4375.77,4574.95 4376.8,4576.22 4377.76,4577.56C4379.09,4579.41 4380.22,4581.39 4381.37,4583.36C4384.04,4587.91 4386.47,4592.55 4389.19,4597.1C4389.86,4598.05 4389.63,4599.36 4388.68,4600.03C4387.73,4600.7 4386.41,4600.47 4385.74,4599.52C4382.36,4595.38 4379.07,4591.24 4375.91,4586.95C4374.58,4585.14 4373.21,4583.35 4372,4581.44C4371.14,4580.09 4370.36,4578.69 4369.63,4577.25C4368.88,4575.78 4368.32,4574.31 4367.62,4572.8Z" style="fill:rgb(35,40,44);"/>
                </g>
                <g transform="matrix(-0.6336,-0.926542,0.77366,-0.758805,-472.383,7856.01)">
                    <path d="M4335.5,4481.08C4336.32,4481.68 4337.26,4482.19 4338.26,4482.65C4341.97,4484.34 4346.47,4485.14 4349.42,4485.57L4355.21,4486.31C4355.79,4486.39 4356.97,4486.46 4357.72,4486.57C4358.29,4486.67 4358.72,4486.83 4358.92,4486.97C4359.54,4487.38 4359.7,4487.92 4359.68,4488.39C4359.66,4488.74 4359.57,4489.43 4358.64,4489.86C4357.41,4490.44 4356.06,4490.87 4354.68,4491.19C4352.72,4491.65 4350.67,4491.89 4348.77,4492.09C4347.5,4492.23 4346.23,4492.34 4344.95,4492.41C4344.09,4492.46 4343.23,4492.48 4342.36,4492.47C4340.45,4492.45 4338.56,4492.4 4336.68,4492.29C4334.78,4492.18 4332.89,4492.01 4330.99,4491.77C4330.34,4491.7 4329.87,4491.11 4329.95,4490.46C4330.02,4489.81 4330.61,4489.34 4331.26,4489.42C4333.11,4489.6 4334.94,4489.71 4336.79,4489.77C4338.64,4489.83 4340.49,4489.84 4342.36,4489.81C4343.37,4489.8 4344.38,4489.73 4345.38,4489.64C4346.4,4489.55 4347.42,4489.43 4348.44,4489.29C4349.16,4489.2 4349.89,4489.1 4350.64,4488.98L4348.98,4488.81C4345.77,4488.41 4340.89,4487.62 4336.83,4485.86C4333.75,4484.54 4331.16,4482.63 4329.82,4480.08C4329.23,4478.96 4329.65,4478.21 4330.14,4477.7C4330.41,4477.42 4330.85,4477.15 4331.49,4477.08C4332.02,4477.02 4333.19,4477.3 4333.77,4477.3L4338.05,4477.34C4341.13,4477.34 4344.35,4477.39 4347.51,4477.12C4349.45,4476.96 4351.37,4476.67 4353.22,4476.15C4350.64,4475.78 4348.06,4475.54 4345.49,4475.16C4344.25,4474.98 4343,4474.76 4341.76,4474.49C4339.8,4474.06 4337.86,4473.57 4335.95,4472.98C4334.04,4472.4 4332.16,4471.73 4330.3,4470.99C4329.68,4470.78 4329.36,4470.1 4329.57,4469.48C4329.79,4468.87 4330.47,4468.54 4331.09,4468.76C4332.94,4469.34 4334.8,4469.84 4336.67,4470.28C4338.55,4470.72 4340.43,4471.09 4342.34,4471.38C4343.53,4471.57 4344.72,4471.7 4345.91,4471.82C4348.77,4472.11 4351.64,4472.27 4354.51,4472.59C4355.31,4472.68 4356.82,4472.7 4358,4472.99C4358.9,4473.21 4359.65,4473.61 4360.15,4474.1C4360.5,4474.45 4360.67,4474.87 4360.7,4475.36C4360.72,4475.69 4360.67,4476.22 4360.19,4476.77C4360.09,4476.9 4359.8,4477.15 4359.35,4477.42C4358.11,4478.17 4354.78,4479.77 4354.53,4479.84C4352.37,4480.48 4350.11,4480.84 4347.83,4481.02C4344.55,4481.28 4341.22,4481.18 4338.02,4481.14L4335.5,4481.08Z" style="fill:rgb(35,40,44);"/>
                </g>
                <g transform="matrix(-0.543666,-1.00515,0.839302,-0.651099,-1116.82,7836.67)">
                    <path d="M4386.06,4505.1C4387.8,4505.68 4389.65,4506.07 4391.56,4506.36C4398.1,4507.33 4405.28,4506.96 4410.96,4507.1L4421.68,4507.3C4422.5,4507.32 4424.5,4507.25 4425.06,4507.28C4426.9,4507.38 4426.8,4509.34 4426.72,4509.56C4426.68,4509.66 4426.43,4510.53 4425.16,4510.71C4421.49,4511.24 4417.81,4511.6 4414.11,4511.85C4408.6,4512.23 4403.07,4512.36 4397.56,4512.47C4396.41,4512.49 4395.28,4512.58 4394.16,4512.71C4392.43,4512.91 4390.72,4513.2 4388.94,4513.48C4388.89,4513.49 4388.83,4513.5 4388.77,4513.51C4391.67,4514.35 4394.65,4514.87 4397.68,4515.21C4404.37,4515.95 4411.25,4515.76 4417.91,4515.83C4418.57,4515.83 4419.1,4516.37 4419.09,4517.02C4419.09,4517.67 4418.56,4518.2 4417.9,4518.2C4411.16,4518.22 4404.19,4518.52 4397.4,4517.86C4392.74,4517.41 4388.18,4516.51 4383.81,4514.81C4383.07,4514.52 4382.91,4514.01 4382.84,4513.71C4382.74,4513.27 4382.81,4512.78 4383.26,4512.34C4383.38,4512.22 4383.59,4512.06 4383.9,4511.94C4384.25,4511.8 4385.05,4511.66 4385.4,4511.53C4385.98,4511.3 4386.57,4511.08 4387.17,4510.91C4387.6,4510.78 4388.03,4510.68 4388.47,4510.6C4389.44,4510.44 4390.38,4510.27 4391.32,4510.11C4391.23,4510.1 4391.13,4510.09 4391.03,4510.07C4386.07,4509.39 4381.47,4507.93 4377.97,4505.14C4377.3,4504.6 4377.21,4504.01 4377.19,4503.63C4377.17,4503.04 4377.36,4502.49 4377.89,4502.04C4378.09,4501.87 4378.42,4501.66 4378.91,4501.56C4379.22,4501.5 4379.91,4501.53 4380.23,4501.48L4383.27,4501.26L4391.17,4501.09C4394.59,4501.01 4397.91,4500.8 4401.21,4500.36C4404.45,4499.92 4407.67,4499.26 4410.92,4498.24C4411.18,4498.16 4411.48,4498.07 4411.82,4497.96C4410.46,4497.87 4409.09,4497.78 4407.73,4497.71C4406.37,4497.64 4405.02,4497.58 4403.66,4497.53L4376.08,4497.04C4375.43,4497.04 4374.9,4496.51 4374.9,4495.86C4374.9,4495.2 4375.43,4494.67 4376.08,4494.67C4381.6,4494.57 4387.12,4494.4 4392.65,4494.29C4396.34,4494.22 4400.03,4494.18 4403.72,4494.18C4405.45,4494.19 4407.18,4494.22 4408.9,4494.28C4410.63,4494.34 4412.35,4494.42 4414.07,4494.52L4417.28,4494.74C4417.34,4494.74 4418.32,4494.88 4418.68,4494.97C4420.61,4495.47 4420.05,4497.52 4419.83,4497.85C4419.34,4498.58 4418.47,4499.27 4417.38,4499.85C4415.66,4500.77 4413.35,4501.45 4412.08,4501.87C4408.62,4502.98 4405.19,4503.74 4401.74,4504.22C4398.3,4504.7 4394.84,4504.92 4391.27,4505.01L4386.06,4505.1ZM4416.79,4495.76C4416.79,4495.76 4416.79,4495.76 4416.79,4495.76C4416.79,4495.76 4416.79,4495.76 4416.79,4495.76ZM4380.41,4502.13C4380.41,4502.13 4380.4,4502.13 4380.4,4502.13C4380.4,4502.13 4380.41,4502.13 4380.41,4502.13Z" style="fill:rgb(35,40,44);"/>
                </g>
                <g transform="matrix(-0.543666,-1.00515,0.839302,-0.651099,-1120.51,7918.01)">
                    <path d="M4392.7,4552.74C4393.36,4552.85 4394.03,4552.94 4394.72,4553.01C4399.85,4553.56 4405.42,4553.15 4409.49,4553.03L4417.31,4552.86L4420.84,4552.82C4421.18,4552.81 4421.99,4552.74 4422.21,4552.76C4423.1,4552.82 4423.47,4553.38 4423.59,4553.57C4423.91,4554.1 4423.99,4554.68 4423.62,4555.32C4423.54,4555.45 4423.33,4555.89 4422.59,4556.12C4418.48,4557.4 4414.43,4558.5 4410.33,4559.37C4406.22,4560.24 4402.06,4560.88 4397.75,4561.25L4395.23,4561.41C4396.1,4561.5 4396.96,4561.57 4397.83,4561.63C4404.32,4562.06 4410.97,4561.65 4417.34,4561.84C4418,4561.86 4418.52,4562.4 4418.5,4563.05C4418.49,4563.7 4417.94,4564.22 4417.29,4564.21C4410.88,4564.12 4404.21,4564.64 4397.68,4564.3C4393.17,4564.07 4388.73,4563.44 4384.49,4561.96C4383.94,4561.78 4383.75,4561.46 4383.67,4561.33C4383.35,4560.82 4383.39,4560.34 4383.62,4559.89C4383.73,4559.68 4383.99,4559.29 4384.61,4559.14C4384.84,4559.09 4385.77,4559.09 4386.15,4559.06L4388.97,4558.87L4397.47,4558.2C4400.84,4557.86 4404.11,4557.36 4407.34,4556.7C4403.45,4556.9 4398.75,4557.15 4394.34,4556.73C4390.43,4556.35 4386.75,4555.43 4383.96,4553.62C4383.2,4553.13 4383.08,4552.52 4383.04,4552.14C4382.97,4551.55 4383.14,4550.96 4383.69,4550.47C4383.71,4550.45 4383.72,4550.44 4383.74,4550.43C4381.99,4550.6 4380.23,4550.75 4378.48,4550.88C4377.82,4550.94 4377.25,4550.46 4377.19,4549.81C4377.12,4549.16 4377.6,4548.58 4378.25,4548.52C4384.91,4547.75 4391.53,4546.64 4398.18,4545.74C4401.05,4545.35 4403.93,4545.01 4406.82,4544.74L4416.34,4544.08L4419.21,4543.98C4419.63,4543.98 4420.66,4543.88 4420.93,4543.9C4422.09,4543.99 4422.47,4544.83 4422.58,4545.1C4422.78,4545.6 4422.79,4546.15 4422.45,4546.74C4422.37,4546.89 4422.13,4547.36 4421.34,4547.63C4418.2,4548.72 4415.02,4549.52 4411.81,4550.14C4407.07,4551.05 4402.26,4551.57 4397.42,4552.14L4392.7,4552.74ZM4420.12,4544.07C4420.13,4544.06 4420.13,4544.06 4420.13,4544.06C4420.13,4544.06 4420.13,4544.06 4420.12,4544.07Z" style="fill:rgb(35,40,44);"/>
                </g>
                <g transform="matrix(1,0,0,1.19761,-4097.44,-4948.1)">
                    <path d="M4322.96,4341.83C4319,4343.35 4314.73,4345.05 4311.8,4348.23C4307.26,4353.14 4305.62,4360.35 4304.51,4366.76C4303.08,4375.1 4301.91,4383.49 4300.91,4391.89C4299.83,4401.03 4299.9,4412.79 4310.03,4416.36C4319.36,4419.64 4328.95,4412.76 4336.93,4408.93C4356.68,4399.47 4376.42,4389.35 4395.06,4377.82" style="fill:rgb(101,25,16);"/>
                </g>
                <g transform="matrix(0.319163,0.830081,-0.810365,0.446892,2550.21,-5219.04)">
                    <path d="M4322.96,4341.83C4319,4343.35 4314.73,4345.05 4311.8,4348.23C4307.26,4353.14 4305.62,4360.35 4304.51,4366.76C4303.08,4375.1 4301.91,4383.49 4300.91,4391.89C4299.83,4401.03 4299.9,4412.79 4310.03,4416.36C4319.36,4419.64 4344.45,4413.71 4352.42,4409.88C4372.17,4400.41 4376.42,4389.35 4395.06,4377.82" style="fill:rgb(89,40,116);"/>
                </g>
                <g transform="matrix(-0.740402,-0.421005,0.380011,-0.958531,1840.22,6653.9)">
                    <path d="M4322.96,4341.83C4319,4343.35 4314.73,4345.05 4311.8,4348.23C4307.26,4353.14 4305.62,4360.35 4304.51,4366.76C4303.08,4375.1 4301.91,4383.49 4300.91,4391.89C4299.83,4401.03 4299.9,4412.79 4310.03,4416.36C4319.36,4419.64 4344.45,4413.71 4352.42,4409.88C4372.17,4400.41 4376.42,4389.35 4395.06,4377.82" style="fill:rgb(124,31,20);"/>
                </g>
                <g transform="matrix(1,0,0,1.19761,-4097.44,-4948.1)">
                    <path d="M4329.55,4348.19C4342.88,4354.15 4385.05,4382.81 4398.46,4388.58C4405.56,4391.64 4412.61,4395.62 4420.49,4396.15C4427.82,4396.65 4434.77,4394.43 4441.66,4392.2C4450.97,4389.18 4463.61,4386.13 4465.15,4374.58C4466.48,4364.65 4463.03,4354.77 4461.1,4345.14C4459.11,4335.24 4456.54,4325.45 4452.91,4316.01" style="fill:rgb(124,31,20);"/>
                </g>
                <g transform="matrix(0.319163,0.830081,-0.810365,0.446892,2550.21,-5219.04)">
                    <path d="M4329.55,4348.19C4342.88,4354.15 4385.05,4382.81 4398.46,4388.58C4405.56,4391.64 4412.61,4395.62 4420.49,4396.15C4427.82,4396.65 4434.77,4394.43 4441.66,4392.2C4450.97,4389.18 4463.61,4386.13 4465.15,4374.58C4466.48,4364.65 4463.03,4354.77 4461.1,4345.14C4459.11,4335.24 4456.54,4325.45 4452.91,4316.01" style="fill:rgb(117,52,153);"/>
                </g>
                <g transform="matrix(-0.777545,-0.31045,0.280222,-1.00662,2430.62,6375.83)">
                    <path d="M4329.55,4348.19C4342.88,4354.15 4385.05,4382.81 4398.46,4388.58C4405.56,4391.64 4413.56,4392.65 4420.49,4396.15C4430.62,4401.28 4438.43,4403.87 4445.25,4406.28C4461.67,4412.08 4463.61,4386.13 4465.15,4374.58C4466.48,4364.65 4463.03,4354.77 4461.1,4345.14C4459.11,4335.24 4456.54,4325.45 4452.91,4316.01" style="fill:rgb(124,31,20);"/>
                </g>
                <g transform="matrix(-0.836769,0.62791,-0.496295,-0.948587,6277.3,1969.68)">
                    <path d="M4322.96,4341.83C4319,4343.35 4310.17,4337.91 4307.24,4341.09C4302.7,4346 4293.92,4376.6 4292.93,4385.01C4291.84,4394.14 4307.75,4407.24 4326.39,4411.66C4335.99,4413.93 4359.77,4397.71 4367.74,4393.88C4387.5,4384.41 4386.85,4384.33 4405.49,4372.8" style="fill:rgb(248,157,54);"/>
                </g>
                <g transform="matrix(-0.74707,0.5606,-0.4681,-0.894698,5769.14,2025.17)">
                    <path d="M4329.55,4348.19C4342.88,4354.15 4385.05,4382.81 4398.46,4388.58C4405.56,4391.64 4412.61,4395.62 4420.49,4396.15C4427.82,4396.65 4434.77,4394.43 4441.66,4392.2C4450.97,4389.18 4463.61,4386.13 4465.15,4374.58C4466.48,4364.65 4463.03,4354.77 4461.1,4345.14C4459.11,4335.24 4453.75,4329.75 4450.12,4320.31" style="fill:rgb(248,157,54);"/>
                </g>
                <g transform="matrix(1,0,0,1.19761,-4097.44,-4948.1)">
                    <path d="M4311.49,4335.32C4315.82,4358.04 4325.9,4386.04 4332.48,4403.26C4335.06,4410.02 4339.4,4412.31 4341.65,4419.19C4344.23,4427.09 4358.27,4438.4 4362.14,4445.74C4366.01,4453.08 4369.61,4461.03 4375.37,4467.14C4376.39,4468.23 4379.43,4472.14 4380.97,4472.08C4381.25,4472.07 4385.11,4470.32 4385.19,4469.96C4386.04,4466.12 4379.48,4459.64 4383.09,4451.28C4383.43,4450.49 4385.6,4459.8 4388.18,4458.59C4391.33,4457.11 4389,4451.09 4387.84,4448.26C4385.71,4443.04 4379.56,4439.75 4375.61,4436.01C4369.53,4430.26 4361.19,4417.83 4357.55,4410.27C4354.1,4403.1 4348.9,4391.96 4349.2,4384.3C4349.68,4372.4 4346.02,4349.25 4344.88,4340.94C4344.14,4335.54 4341.63,4331.71 4341.65,4331.27" style="fill:rgb(165,102,73);"/>
                </g>
                <g transform="matrix(1,0,0,1.19761,-4097.44,-4948.1)">
                    <path d="M4456.45,4318.48C4457.34,4332.34 4454.57,4346.9 4449.83,4359.94C4446.39,4369.41 4442.27,4378.72 4439.76,4388.5C4438.93,4391.76 4438.96,4395.22 4438.35,4398.52C4437.14,4405.01 4435.4,4411.39 4434.44,4417.92C4433.1,4426.96 4430.92,4438.69 4428.61,4447.55C4427.9,4450.28 4429.77,4457.95 4425.76,4461.94C4421.27,4466.41 4410.81,4476.22 4407.58,4469.43C4404.85,4463.69 4402.33,4462.06 4404.99,4456.84C4406.45,4453.96 4410.48,4446.92 4412.77,4444.56C4417.2,4440.01 4416.11,4440.08 4418.22,4433.58C4421.98,4422.01 4420.01,4408.29 4422.55,4395.13C4424.98,4382.6 4426.81,4369.06 4425.08,4356.33C4424.15,4349.45 4423.16,4342.53 4422.79,4334.5" style="fill:rgb(165,102,73);"/>
                </g>
                <g transform="matrix(1,0,0,1.19761,-4097.44,-4948.1)">
                    <path d="M4496.82,4377.22C4500.09,4374.79 4510.64,4397 4510.64,4397L4495.58,4434.76C4488.78,4447.05 4483.73,4459.72 4477.32,4472.12C4471.92,4482.57 4464.61,4493.47 4458.37,4503.45C4457.32,4505.13 4448.02,4504.63 4450.73,4506.37C4454.29,4508.66 4453.92,4514.09 4452.27,4514.86C4450.69,4515.6 4447.46,4515.04 4445.98,4514.64C4440.14,4513.07 4433.32,4506.67 4434.69,4499.88C4436.66,4490.1 4447.82,4488.15 4454.59,4483.85C4459.11,4480.98 4461.31,4472.05 4463.92,4467.51C4468.16,4460.16 4470.25,4451.72 4473.4,4443.92C4479.36,4429.17 4480.27,4426.47 4484.34,4411.88C4487.62,4400.1 4488.22,4383.63 4496.82,4377.22Z" style="fill:rgb(147,91,65);"/>
                </g>
                <g id="Pencil" transform="matrix(1,0,0,1.19761,-4097.44,-4948.1)">
                    <path d="M4444.56,4522.16C4444.56,4522.16 4441.42,4524.45 4440.93,4520.32C4440.44,4516.19 4456.92,4471.98 4456.92,4471.98C4456.92,4471.98 4464.84,4468.4 4462.84,4474.75C4460.84,4481.11 4446.88,4515.95 4444.56,4522.16Z" style="fill:rgb(35,40,44);"/>
                </g>
                <g transform="matrix(1,0,0,1.19761,-4097.44,-4948.1)">
                    <path d="M4444.86,4489.07C4440.99,4490.66 4437.53,4493.59 4435.68,4497.38C4432.09,4504.72 4436.86,4510.29 4443.66,4512.72C4444.71,4513.1 4448.28,4514.87 4449.4,4514.45C4449.94,4514.24 4450.63,4512.75 4450.93,4512.29C4454.7,4506.63 4446.74,4504.59 4446.23,4499.64C4446.02,4497.53 4447.85,4494.36 4449.05,4492.88" style="fill:rgb(147,91,65);"/>
                </g>
                <g id="Speech-bubble-1" serif:id="Speech bubble 1" transform="matrix(1,0,0,1.19761,-4097.44,-4948.1)">
                    <path d="M4241.08,4388.35C4243.5,4377.99 4249.39,4367.17 4258.86,4361.8C4269.08,4356.01 4284.56,4353.75 4291.27,4343.1C4297.33,4333.46 4294.48,4321.72 4291.15,4311.64C4289.5,4306.64 4287.67,4299.49 4284.16,4295.41C4274.37,4284.02 4260.73,4276.95 4246.75,4271.82C4241.24,4269.8 4235.25,4267.73 4229.29,4267.68C4209.45,4267.5 4189.83,4276.31 4179.29,4293.53C4176.42,4298.22 4173.44,4303.92 4173.01,4309.52C4171.95,4323.39 4181.97,4331.69 4193.78,4336.33C4213.96,4344.26 4248.07,4354.45 4242.61,4383.16" style="fill:rgb(14,121,106);"/>
                    <path d="M4240.58,4381.69C4242.09,4371.54 4238.14,4364.01 4231.7,4358.16C4221.26,4348.67 4204.57,4343.46 4192.76,4338.92C4186.42,4336.48 4180.57,4333.01 4176.41,4328.34C4172.01,4323.41 4169.43,4317.14 4169.98,4309.29C4170.16,4306.76 4170.8,4304.21 4171.71,4301.72C4172.98,4298.23 4174.82,4294.87 4176.61,4291.89C4182.15,4282.71 4190.13,4275.74 4199.36,4271.09C4208.5,4266.48 4218.88,4264.15 4229.32,4264.18C4231.96,4264.19 4234.6,4264.56 4237.21,4265.14C4240.91,4265.96 4244.54,4267.22 4247.98,4268.46C4255.18,4271.07 4262.3,4274.18 4268.87,4278.1C4275.62,4282.12 4281.8,4286.99 4286.98,4292.99C4288.63,4294.92 4289.99,4297.42 4291.11,4300.12C4292.57,4303.6 4293.64,4307.43 4294.64,4310.49C4296.72,4316.92 4298.58,4323.99 4298.36,4330.82C4298.19,4335.74 4296.99,4340.53 4294.17,4344.92C4291.8,4348.59 4288.55,4351.41 4284.79,4353.66C4277.21,4358.2 4267.49,4360.38 4260.28,4364.32C4255.89,4366.71 4252.3,4370.38 4249.5,4374.62C4246.61,4379 4244.51,4383.97 4243.26,4388.86C4242.98,4390.06 4241.77,4390.81 4240.57,4390.53C4239.37,4390.25 4238.62,4389.05 4238.9,4387.84C4239.33,4385.8 4239.89,4383.73 4240.58,4381.69ZM4245.07,4371.93C4245.08,4371.91 4245.1,4371.88 4245.11,4371.85C4248.22,4366.72 4252.35,4362.29 4257.43,4359.29C4264.43,4355.18 4273.96,4352.72 4281.32,4348.04C4284.15,4346.25 4286.62,4344.11 4288.36,4341.27C4290.42,4337.94 4291.19,4334.32 4291.25,4330.64C4291.36,4324.63 4289.57,4318.44 4287.66,4312.79C4286.7,4309.9 4285.69,4306.27 4284.29,4302.98C4283.48,4301.04 4282.54,4299.22 4281.34,4297.84C4276.71,4292.42 4271.15,4288.04 4265.1,4284.39C4258.94,4280.67 4252.27,4277.69 4245.51,4275.18C4242.36,4274.01 4239.04,4272.81 4235.65,4272.02C4233.54,4271.53 4231.4,4271.2 4229.26,4271.17C4219.89,4271.03 4210.56,4273 4202.32,4277.03C4194.11,4281.05 4186.97,4287.11 4181.97,4295.17C4180.34,4297.81 4178.65,4300.77 4177.47,4303.87C4176.74,4305.8 4176.2,4307.78 4176.03,4309.75C4175.53,4315.8 4177.44,4320.65 4180.78,4324.49C4184.32,4328.57 4189.36,4331.56 4194.8,4333.74C4207.04,4338.65 4224.3,4344.48 4235.05,4354.54C4240.15,4359.32 4243.86,4365 4245.07,4371.93Z" style="fill:rgb(14,121,106);"/>
                </g>
                <g transform="matrix(-0.804337,0.881705,-0.736222,-0.96328,7268.3,1003.06)">
                    <path d="M4518.53,4487.28C4514.27,4494.64 4490.93,4538.72 4487.21,4543.02C4485.01,4545.57 4481.23,4543.68 4478.52,4545.73C4473.94,4549.18 4470.98,4548.7 4470.71,4555.5C4470.65,4557.14 4477.99,4565.2 4477.31,4566.5C4473.21,4574.35 4471.37,4576.99 4475.77,4574.87C4480.59,4572.55 4485.26,4564.84 4487.45,4563.12C4491.3,4560.1 4491.23,4554.92 4493.45,4551.48C4497.98,4544.45 4514.97,4525.6 4522.49,4519.25C4529.39,4513.41 4533.53,4507.55 4540.31,4501.59" style="fill:rgb(147,91,65);"/>
                </g>
                <g transform="matrix(1,0,0,1.19761,-4097.44,-4948.1)">
                    <path d="M4286.08,4638.74C4274.47,4644.92 4265.89,4660.47 4269.93,4674.43C4271.39,4679.48 4274.45,4683.96 4277.62,4688.09C4280.43,4691.75 4284.1,4695.27 4288.15,4697.56C4297.06,4702.62 4307.2,4704.05 4317.31,4704.6C4329.05,4705.24 4341.14,4704.11 4352.73,4706.4C4371.77,4710.15 4393.9,4720.62 4413.16,4712.57C4424.98,4707.63 4437.2,4685.18 4423.05,4676.34C4415.83,4671.84 4407.28,4673.17 4399.2,4673.21C4392.88,4673.23 4386.78,4672.21 4380.67,4670.39C4370.38,4667.32 4359.41,4662.96 4349.8,4658.11C4337.94,4652.11 4327.05,4644.96 4314.34,4640.68C4306.27,4637.97 4294.28,4634.37 4286.08,4638.74Z" style="fill:rgb(241,95,82);"/>
                </g>
                <g transform="matrix(1,0,0,1.19761,-4097.44,-4948.1)">
                    <path d="M4504.22,4669.25C4483.49,4652.42 4474.82,4629.39 4458.49,4608.86C4450.69,4599.05 4447.51,4596.28 4440.92,4585.52C4438.63,4581.77 4430.6,4572.57 4426.75,4569.22C4419.67,4563.07 4422.22,4561.69 4421.41,4558.74C4420.67,4556.07 4424.78,4554.36 4426.93,4553.67C4431.03,4552.34 4421.69,4542.23 4424.25,4541.88C4430.54,4541.01 4437.69,4556.41 4439.4,4561.77C4441.92,4569.67 4452.25,4576.26 4458.6,4584.61C4463.24,4590.72 4467.99,4594.92 4473.4,4603.96C4477.99,4611.62 4491.46,4621.92 4509.17,4643.46" style="fill:rgb(113,72,52);"/>
                </g>
                <g transform="matrix(1,0,0,1.19761,-4097.44,-4948.1)">
                    <path d="M4538.11,4619.5C4530.35,4622.9 4524.26,4629.05 4517.34,4633.79C4511.65,4637.69 4505.35,4640.82 4502.54,4647.57C4497.51,4659.61 4503.17,4676.27 4516.94,4679.28C4524.83,4681 4533.1,4677.9 4540.43,4675.3C4555.95,4669.78 4570.61,4662.1 4585.4,4654.9C4595.66,4649.9 4605.82,4645.63 4612.13,4635.61C4616.42,4628.79 4621.68,4619.28 4621.63,4610.93C4621.59,4601.84 4615.79,4591.28 4605.36,4591.57C4595,4591.86 4585.48,4598.06 4576.7,4602.9C4564.47,4609.63 4551.13,4616.72 4537.86,4621.27" style="fill:rgb(251,197,136);"/>
                </g>
                <g transform="matrix(1,0,0,1.19761,-4097.44,-4948.1)">
                    <path d="M4194.78,4496.88C4194.49,4500.91 4189.49,4532.65 4198.23,4555.76C4204.23,4571.62 4212.53,4586.28 4227.79,4594.89C4231.31,4596.87 4234.07,4597.45 4238.5,4598.88C4255.96,4604.54 4270.44,4597.72 4287.26,4593.61C4296.8,4591.28 4308.15,4590.85 4311.12,4579.41C4312.28,4574.94 4310.58,4570.67 4308.51,4566.73C4304.3,4558.76 4297.24,4553.55 4289.96,4548.54C4285.86,4545.71 4274.21,4543.55 4271.57,4539.17C4266.94,4531.49 4262.99,4514.78 4262.24,4512.33C4258.91,4501.44 4251.26,4485.38 4244.36,4487.86C4240.1,4489.39 4234.38,4486.51 4228.2,4480.68C4219.52,4472.49 4219.95,4457.31 4206.8,4463.31C4204.54,4464.34 4195.92,4480.98 4194.78,4496.88Z" style="fill:rgb(245,167,174);"/>
                </g>
                <g transform="matrix(1,0,0,1.19761,-4097.44,-4948.1)">
                    <path d="M4250.3,4499.67C4247.49,4494.65 4240.28,4493.72 4235.2,4496.08C4224.36,4501.12 4221.87,4506.46 4222.91,4516.59C4223.61,4523.34 4228.74,4532 4232.56,4537.19C4242.95,4551.35 4265.61,4565.56 4272.89,4567.98C4278.94,4570 4287.06,4565.39 4287.41,4561.56C4289.2,4541.7 4288.88,4535.07 4287.41,4522.72C4286.31,4513.51 4285.43,4493.18 4281.22,4485.98C4279.76,4483.48 4270.49,4476.36 4267.55,4475.93C4261.91,4475.1 4250.69,4480.81 4255.86,4483.43C4268.63,4489.92 4273.93,4492.53 4275.38,4497.07C4277.54,4503.79 4274.29,4523.31 4272.75,4532.07C4272.34,4534.4 4270.54,4545.51 4270.52,4545.48C4267.96,4541.75 4261.33,4535.96 4259.67,4529.58C4255.96,4515.29 4253.68,4505.7 4250.3,4499.67Z" style="fill:rgb(113,72,52);"/>
                </g>
                <g transform="matrix(1,0,0,1.19761,-4097.44,-4948.1)">
                    <path d="M4229.61,4538.3C4225.77,4532.34 4220.49,4526.55 4218.62,4519.53C4216.38,4511.13 4218.33,4501.35 4226.08,4496.35C4229.05,4494.43 4238.3,4491.56 4245.9,4495.82C4253.55,4500.11 4255.67,4505.73 4258.1,4513.01C4259.05,4515.88 4260.18,4518.66 4261.27,4521.47C4261.41,4521.83 4262.68,4524.27 4262.5,4524.75C4262.23,4525.48 4260.58,4526.26 4259.98,4526.55C4257.27,4527.87 4252.81,4530.1 4249.96,4531.02C4242.45,4533.45 4236.11,4536.82 4229.61,4538.3Z" style="fill:rgb(239,116,127);"/>
                </g>
                <g id="Speech-bubble-2" serif:id="Speech bubble 2" transform="matrix(1,0,0,1.19761,-4097.44,-4948.1)">
                    <path d="M4449.75,4263.49C4456.87,4263.89 4464.28,4265.46 4470.32,4269.48C4480.75,4276.41 4487.09,4288.33 4496.32,4296.62C4506.85,4306.09 4521.28,4310.98 4535.16,4312.85C4539.13,4313.38 4543.55,4314.23 4547.54,4313.88C4560.42,4312.76 4575.97,4306.44 4582.82,4294.72C4595.12,4273.71 4584.28,4241.23 4560.76,4233.72C4538.94,4226.76 4520.66,4246.73 4502.68,4254.89C4485.54,4262.67 4466.61,4261.2 4448.38,4263.3" style="fill:rgb(14,121,106);"/>
                    <path d="M4448.78,4265.51C4448.73,4265.51 4448.68,4265.52 4448.64,4265.52C4447.41,4265.66 4446.3,4264.78 4446.16,4263.56C4446.02,4262.33 4446.9,4261.22 4448.12,4261.08C4459.03,4259.73 4470.2,4259.67 4481.08,4258.13C4488.09,4257.13 4494.98,4255.52 4501.57,4252.46C4514.22,4246.6 4526.99,4234.98 4541.06,4230.82C4547.64,4228.87 4554.49,4228.48 4561.71,4230.74C4574.49,4234.73 4583.92,4245.48 4588.44,4258.13C4592.93,4270.73 4592.48,4285.15 4585.91,4296.53C4582.17,4302.99 4576.06,4308.02 4569.08,4311.55C4562.31,4314.97 4554.73,4316.97 4547.86,4317.58C4546.04,4317.73 4544.15,4317.68 4542.24,4317.51C4539.68,4317.28 4537.09,4316.83 4534.67,4316.5C4527.46,4315.49 4520.1,4313.71 4513.2,4310.91C4506.17,4308.06 4499.6,4304.18 4494.08,4299.11C4487.66,4293.15 4482.66,4285.45 4476.7,4278.88C4474.3,4276.23 4471.75,4273.77 4468.82,4271.74C4466.07,4269.83 4463,4268.48 4459.79,4267.53C4456.47,4266.56 4453.02,4266 4449.62,4265.73C4449.32,4265.71 4449.03,4265.63 4448.78,4265.51ZM4466.14,4264.33C4468.11,4265.12 4470.02,4266.07 4471.82,4267.22C4475.19,4269.36 4478.18,4272 4480.97,4274.87C4487.02,4281.09 4492.09,4288.51 4498.56,4294.14C4503.57,4298.55 4509.52,4301.84 4515.82,4304.28C4522.22,4306.75 4529,4308.34 4535.65,4309.2C4537.97,4309.5 4540.44,4309.92 4542.89,4310.13C4544.36,4310.25 4545.82,4310.3 4547.22,4310.18C4553.23,4309.67 4559.86,4307.95 4565.79,4305C4571.52,4302.15 4576.63,4298.17 4579.73,4292.92C4585.42,4283.33 4585.75,4271.09 4582.07,4260.36C4578.37,4249.57 4570.61,4240.23 4559.8,4236.7C4551.78,4234.08 4544.27,4235.54 4537.07,4238.6C4525.42,4243.56 4514.54,4252.54 4503.78,4257.32C4496.67,4260.49 4489.27,4262.14 4481.74,4263.09C4476.59,4263.74 4471.37,4264.06 4466.14,4264.33Z" style="fill:rgb(14,121,106);"/>
                </g>
                <g id="Speech-bubble-3" serif:id="Speech bubble 3" transform="matrix(1,0,0,1.19761,-4097.44,-4948.1)">
                    <path d="M4600.14,4520.82C4604.01,4498.14 4586.38,4470.17 4607.59,4452.62C4619.98,4442.37 4639.74,4440.15 4655.24,4442.68C4660.32,4443.51 4666.64,4444.77 4670.87,4447.86C4677.51,4452.72 4680.81,4459.15 4682.39,4467.08C4683.14,4470.81 4683.35,4474.49 4682.66,4478.24C4682.07,4481.44 4681.02,4484.57 4679.47,4487.44C4668.84,4507.13 4646.37,4499.57 4628.53,4502.48C4614.75,4504.72 4599.28,4519.88 4597.5,4534" style="fill:rgb(14,121,106);"/>
                    <path d="M4598.9,4522.69C4598.19,4522.21 4597.78,4521.34 4597.93,4520.44C4599.04,4512.76 4597.52,4504.54 4596.06,4496.32C4594.48,4487.46 4592.95,4478.61 4594.01,4470.45C4594.99,4462.86 4598.18,4455.85 4605.28,4449.84C4611.94,4444.28 4620.58,4440.82 4629.67,4439.19C4638.49,4437.61 4647.72,4437.76 4655.82,4439.11C4659.03,4439.65 4662.7,4440.37 4666.09,4441.56C4668.61,4442.44 4670.97,4443.57 4672.95,4445.03C4676.66,4447.79 4679.44,4450.98 4681.5,4454.6C4683.5,4458.13 4684.83,4462.07 4685.67,4466.43C4686.06,4468.47 4686.31,4470.51 4686.36,4472.55C4686.41,4474.64 4686.26,4476.73 4685.85,4478.84C4685.52,4480.59 4685.06,4482.32 4684.46,4484.01C4683.86,4485.71 4683.14,4487.37 4682.27,4488.95C4677.44,4497.72 4670.56,4501.64 4662.74,4503.32C4652.17,4505.6 4639.75,4503.47 4628.97,4505.13C4622.53,4506.11 4615.71,4510.16 4610.24,4515.55C4604.77,4520.95 4600.62,4527.7 4599.72,4534.28C4599.57,4535.51 4598.44,4536.38 4597.22,4536.22C4595.99,4536.07 4595.13,4534.95 4595.28,4533.72C4595.71,4530.05 4596.99,4526.29 4598.9,4522.69ZM4603,4516.37C4604.15,4514.88 4605.41,4513.44 4606.74,4512.07C4612.9,4505.76 4620.73,4501.1 4628.1,4499.82C4638.72,4497.99 4651.03,4499.91 4661.42,4497.48C4667.58,4496.04 4672.98,4492.91 4676.68,4485.93C4677.36,4484.65 4677.92,4483.3 4678.38,4481.92C4678.85,4480.53 4679.2,4479.1 4679.46,4477.65C4679.75,4476.01 4679.83,4474.38 4679.77,4472.76C4679.7,4471.08 4679.47,4469.42 4679.12,4467.74C4678.37,4464.16 4677.25,4460.92 4675.55,4458.04C4673.91,4455.25 4671.71,4452.8 4668.8,4450.7C4667.35,4449.66 4665.61,4448.9 4663.79,4448.28C4660.77,4447.27 4657.5,4446.69 4654.65,4446.24C4647.31,4445.07 4638.97,4445.06 4630.98,4446.49C4623.16,4447.89 4615.66,4450.67 4609.89,4455.41C4604.2,4460.01 4601.63,4465.48 4600.67,4471.42C4599.46,4478.95 4600.67,4487.17 4601.76,4495.43C4602.7,4502.53 4603.54,4509.64 4603,4516.37Z" style="fill:rgb(14,121,106);"/>
                </g>
                <g transform="matrix(1,0,0,1.19761,-4112.24,-4935.39)">
                    <path d="M4219.26,4458.99C4224.31,4467.71 4241.96,4480.49 4257.9,4478.19C4261.36,4477.69 4264.63,4476.23 4267.82,4474.86C4271.95,4473.09 4275.88,4471.19 4278.98,4467.85C4286.11,4460.16 4291.29,4454.36 4293.57,4444.57C4295.6,4435.82 4294.19,4420.41 4290.49,4411.72C4287.81,4405.45 4282.17,4400.5 4276.05,4397.71C4268.62,4394.32 4258.93,4390.93 4250.65,4393.42C4246.28,4394.74 4242.84,4397.38 4239.49,4400.41C4233.35,4405.98 4228.62,4413.03 4223.97,4419.85C4220.9,4424.33 4217.83,4428.84 4216.45,4434.17C4215.39,4438.23 4213.75,4449.46 4219.26,4458.99Z" style="fill:rgb(52,33,31);"/>
                </g>
                <g transform="matrix(1,0,0,1.19761,-4100.72,-4904.32)">
                    <path d="M4218.83,4435.51L4222.6,4421.74C4215.84,4424.74 4208.57,4428.17 4203,4433.14C4199.81,4435.99 4197.51,4439.67 4195.25,4443.25C4190.77,4450.34 4187.26,4457.89 4185.33,4466.07C4184.24,4470.7 4183.91,4475.48 4183.1,4480.16C4182.3,4484.81 4181.84,4489.45 4180.77,4494.07C4180.54,4495.09 4178.81,4499.09 4179.14,4499.99C4179.83,4501.93 4181.98,4503.31 4183.71,4504.2C4188.32,4506.59 4198.44,4507.74 4201.96,4502.98C4206.99,4496.18 4206.39,4486.38 4207.04,4478.37C4208.17,4464.35 4210.43,4446.01 4218.83,4435.51Z" style="fill:rgb(52,33,31);"/>
                </g>
                <g transform="matrix(1,0,0,1.19761,-4097.44,-4948.1)">
                    <path d="M4395.4,4665.94C4395.89,4658.04 4389.69,4643.09 4384.74,4637.93C4376.49,4629.32 4362.66,4624.49 4350.5,4624.61C4343.22,4624.69 4323.98,4629.06 4316.81,4635.82C4306.62,4645.41 4303.97,4654.65 4302.42,4668.11C4301.26,4678.2 4302.71,4690.02 4309.06,4700.62C4311.52,4704.72 4330.36,4718.26 4339.3,4718.12C4352.76,4717.9 4365.27,4711.5 4373.77,4702.63C4381.02,4695.07 4394.86,4674.84 4395.4,4665.94Z" style="fill:rgb(70,45,42);"/>
                </g>
                <g transform="matrix(1,0,0,1.19761,-4097.44,-4948.1)">
                    <path d="M4327.42,4710.88C4320.81,4722.57 4302.22,4719.3 4299.21,4733.69C4298.88,4735.29 4298.94,4736.85 4299.14,4738.47C4300.04,4745.74 4306.47,4750.06 4312.69,4752.62C4324,4757.28 4337.32,4758.83 4348.85,4754.19C4352.6,4752.68 4357.33,4749.96 4359.3,4746.16C4361.46,4741.98 4358.93,4737.66 4356.25,4734.41C4352.13,4729.44 4346.22,4722.06 4348.31,4714.94" style="fill:rgb(70,45,42);"/>
                </g>
                <g transform="matrix(1,0,0,1.19761,-4097.44,-4948.1)">
                    <path d="M4601.1,4568.47C4593.13,4560.17 4582.54,4548.92 4568.1,4546.83C4562.39,4546 4556.87,4545.86 4551.42,4548.01C4544.13,4550.89 4539.48,4556.95 4536.4,4563.94C4531.1,4575.98 4527.68,4590.12 4529.04,4603.33C4529.62,4608.93 4531.3,4614.48 4534.64,4619.08C4541.44,4628.45 4556.24,4634.55 4567.99,4635.82C4576.42,4636.73 4595.78,4626.8 4599.58,4622.92C4608.12,4614.21 4610.58,4607.97 4610.21,4596.08C4610.03,4590.34 4608.44,4576.12 4601.1,4568.47Z" style="fill:rgb(82,40,33);"/>
                </g>
                <g transform="matrix(1,0,0,1.19761,-4106.19,-4950.3)">
                    <path d="M4579.86,4630.11C4580.08,4632.7 4580.08,4635.11 4579.24,4637.59C4578.52,4639.73 4576.93,4641.99 4577.08,4644.35C4577.36,4648.67 4580.7,4652.29 4581.55,4656.53C4582.24,4659.99 4578.49,4662.72 4578.56,4666.18C4578.63,4669.84 4582.16,4671.89 4582.56,4675.29C4583.1,4679.88 4580.11,4684.33 4581.9,4688.88C4582.73,4690.99 4584.3,4692.42 4585.76,4694.08C4587.84,4696.44 4589.55,4699.04 4590.45,4702.07C4590.59,4702.54 4591.06,4705.25 4591.45,4705.36C4591.6,4705.4 4592.32,4704.61 4592.49,4704.46C4593.48,4703.6 4594.41,4702.68 4595.41,4701.84C4597,4700.53 4598.94,4699.52 4600.36,4698.02C4603.59,4694.59 4604.86,4690.14 4605.47,4685.57C4606.15,4680.51 4605.11,4675.8 4602.55,4671.39C4600.87,4668.5 4598.08,4665.83 4597.37,4662.46C4596.15,4656.72 4601.44,4651.87 4600.99,4646.33C4600.62,4641.64 4595.6,4638.36 4595.51,4633.53C4595.43,4629.87 4599.7,4624.81 4595.87,4622.05C4595.06,4621.46 4594.16,4621.03 4593.29,4620.54" style="fill:rgb(82,40,33);"/>
                </g>
                <g transform="matrix(1,0,0,1.19761,-4097.44,-4948.1)">
                    <path d="M4539.24,4463.81C4534.92,4471.12 4529.62,4477.77 4525.35,4485.13C4521.09,4492.48 4516.97,4499.11 4511.47,4505.6C4504.94,4513.27 4490.93,4538.72 4487.21,4543.02C4485.01,4545.57 4481.23,4543.68 4478.52,4545.73C4473.94,4549.18 4468.8,4552.19 4468.54,4558.99C4468.48,4560.63 4475.91,4555.83 4475.8,4557.3C4475.29,4564.49 4467.57,4575.64 4475.77,4574.87C4481.09,4574.37 4483.73,4570.19 4485.93,4568.47C4489.78,4565.45 4488.59,4558.37 4490.81,4554.93C4495.34,4547.9 4514.97,4525.6 4522.49,4519.25C4529.39,4513.41 4533.53,4507.55 4540.31,4501.59C4548.36,4494.51 4555.9,4488.42 4559.7,4478.2" style="fill:rgb(147,91,65);"/>
                </g>
                <g transform="matrix(1,0,0,1.19761,-4097.44,-4948.1)">
                    <path d="M4528.74,4359.44C4521.49,4358.33 4516.32,4360.93 4511.73,4362.76C4508.41,4364.09 4505.16,4365.52 4502.38,4367.81C4495.32,4373.63 4491.5,4384.05 4496.58,4392.35C4499.4,4396.97 4504.15,4400.2 4507.55,4404.39C4512.78,4410.85 4517.73,4418.02 4521.06,4425.65C4526.94,4439.09 4527.93,4454.07 4534.2,4467.5C4538.24,4476.14 4546.5,4487.07 4557.73,4484.26C4562.22,4483.14 4565.39,4479.53 4567.53,4475.64C4571.56,4468.3 4573.54,4459.75 4574.9,4451.56C4577.77,4434.28 4575.72,4418.6 4570.2,4402.11C4566.12,4389.93 4561.17,4379.77 4551.45,4371.34C4543.94,4364.84 4538.81,4360.97 4528.74,4359.44Z" style="fill:rgb(250,202,206);"/>
                </g>
                <g transform="matrix(1,0,0,1.19761,-4097.44,-4948.1)">
                    <path d="M4558.63,4385.37C4553.93,4381.31 4545.84,4378.02 4539.41,4377.4C4534.42,4376.92 4529.38,4378.69 4524.78,4380.42C4507.99,4386.7 4496.43,4400.43 4493.5,4418.2C4492.01,4427.25 4492,4435.55 4497.22,4443.38C4500.21,4447.87 4504.64,4452.02 4509.33,4454.68C4517.53,4459.32 4528.91,4462.8 4538.28,4460.13C4555.51,4455.22 4565.94,4435.42 4568.44,4418.97C4569.32,4413.13 4569.4,4407.46 4567.59,4401.8C4567.59,4401.8 4563.32,4389.44 4558.63,4385.37Z" style="fill:rgb(52,33,31);"/>
                </g>
                <g transform="matrix(1.07382,0,0,1.19761,-4432.57,-4957.3)">
                    <path d="M4581.67,4395.16C4579.26,4387.46 4567.75,4381.55 4558.91,4387.32C4554.48,4390.21 4551.73,4396.3 4550.48,4401.28C4548.15,4410.57 4552.77,4422.8 4557.21,4430.77C4561.28,4438.07 4570.74,4443.1 4577.54,4435.89C4578.92,4434.42 4580.07,4432.62 4580.89,4430.77C4586.05,4419.18 4585.42,4407.11 4581.67,4395.16Z" style="fill:rgb(52,33,31);"/>
                </g>
                <g transform="matrix(1,0,0,1.19761,-4097.44,-4948.1)">
                    <path d="M4425.64,4284.19C4433.8,4284.62 4444.55,4283.34 4451.47,4288.73C4457.72,4293.59 4461.94,4304.07 4460.74,4311.8C4460.04,4316.31 4457.64,4320.61 4455.63,4324.65C4453.3,4329.3 4456.59,4330.07 4451.94,4332.8C4434.53,4343.04 4432.31,4338.57 4413.32,4340.33C4399.35,4341.62 4369.55,4341.26 4355.64,4342.09C4349.7,4342.45 4334.92,4350.95 4328.98,4350.7C4325.29,4350.54 4320.88,4350.56 4317.62,4348.52C4302.86,4339.28 4311,4318.4 4319.15,4307.85C4321.09,4305.33 4323.04,4302.77 4325.12,4300.36C4328.06,4296.94 4331.02,4293.68 4334.89,4291.3C4350.95,4281.45 4370.3,4284.81 4387.91,4286.26C4399.52,4287.21 4414.08,4285.78 4425.64,4284.19Z" style="fill:rgb(241,95,82);"/>
                </g>
                <g transform="matrix(1,0,0,1.19761,-4100.23,-4898.95)">
                    <path d="M4376.7,4251.52C4368.77,4254.77 4362.63,4263.23 4361.16,4271.65C4360.11,4277.7 4360.99,4284.42 4362.09,4290.42C4364.22,4302.11 4366.5,4319.14 4379.62,4323.63C4383.67,4325.02 4388.09,4325.16 4392.32,4324.99C4396.11,4324.85 4399.69,4324.4 4403.2,4322.86C4421.8,4314.71 4430.02,4290.99 4428.41,4271.91C4427.82,4264.92 4426.17,4257.23 4421.65,4251.63C4416.35,4245.03 4406.28,4242.47 4398.14,4242.95C4392.04,4243.31 4382.17,4248.89 4376.7,4251.52Z" style="fill:rgb(70,45,42);"/>
                </g>
                <g transform="matrix(1,0,0,1.19761,-4100.23,-4898.95)">
                    <path d="M4403.96,4224.11C4399.9,4220.94 4389.99,4219.27 4383.77,4222.69C4380.62,4224.41 4379.07,4227.59 4377.81,4230.8C4375.18,4237.51 4374.65,4244.87 4380.76,4249.89C4388.75,4256.45 4403.97,4250.79 4408.09,4241.72C4410.33,4236.79 4408.01,4227.28 4403.96,4224.11Z" style="fill:rgb(70,45,42);"/>
                </g>
            </g>
        </g>
        <g id="Step-1c" serif:id="Step 1c">
        </g>
        <g id="Step-1a-thumbnail" serif:id="Step 1a thumbnail">
        </g>
        <g id="Step-2-thumbnail" serif:id="Step 2 thumbnail">
        </g>
        <g id="Global-girl-globe" serif:id="Global girl globe">
        </g>
        <g id="Step-2-thumbnail1" serif:id="Step 2 thumbnail">
        </g>
        <g id="Global-girl-globe1" serif:id="Global girl globe">
        </g>
        <g id="Step-2-thumbnail2" serif:id="Step 2 thumbnail">
        </g>
        <g id="Previous-illustrations" serif:id="Previous illustrations">
        </g>
    </g>
</svg>
