<?xml version="1.0" encoding="UTF-8" standalone="no"?>
<!DOCTYPE svg PUBLIC "-//W3C//DTD SVG 1.1//EN" "http://www.w3.org/Graphics/SVG/1.1/DTD/svg11.dtd">
<svg width="100%" height="100%" viewBox="0 0 1280 668" version="1.1" xmlns="http://www.w3.org/2000/svg" xmlns:xlink="http://www.w3.org/1999/xlink" xml:space="preserve" xmlns:serif="http://www.serif.com/" style="fill-rule:evenodd;clip-rule:evenodd;stroke-linejoin:round;stroke-miterlimit:2;">
    <g transform="matrix(1,0,0,1,-4097.44,-5852.42)">
        <g id="Bottom">
        </g>
        <g id="Middle">
        </g>
        <g id="_7.-Impact" serif:id="7. Impact" transform="matrix(1,0,0,0.834998,4097.44,5852.42)">
            <rect x="0" y="0" width="1280" height="800" style="fill:none;"/>
            <g id="Table">
            </g>
            <g id="Monitor">
            </g>
            <g id="Phone-google-translate" serif:id="Phone google translate">
            </g>
            <g id="Keyboard">
            </g>
            <g id="Energy-lines" serif:id="Energy lines">
            </g>
            <g transform="matrix(1.01237,0.194463,-0.176405,1.31717,-3068.01,-8739.04)">
                <path d="M5123.91,6170.1C5111,6134.48 5083.09,6077.02 5052.34,6054.46C4913.1,5952.32 4722.19,5977.9 4570.34,6033C4460.1,6073 4342.97,6157.69 4372.17,6291.27C4384.04,6345.57 4410.47,6383.31 4451.03,6420.67C4548.95,6510.85 4683.45,6509.66 4807.64,6487.97C4895.4,6472.65 4986.11,6442.2 5046.54,6372.73C5046.54,6372.73 5156.62,6260.28 5123.91,6170.1Z" style="fill:rgb(188,235,237);"/>
            </g>
            <g id="Girl-right" serif:id="Girl right" transform="matrix(1.04238,-0.0777054,0.0541778,1.04238,565.232,-32.097)">
                <g id="Neck" transform="matrix(1.15466,-0.199806,0.166838,1.38283,-1279.7,-10036.7)">
                    <path d="M204.114,7512.07C204.114,7512.07 207.756,7516.07 209.818,7512.96C211.88,7509.85 211.218,7503.86 210.777,7500.01C210.777,7500.01 234.843,7499.89 239.049,7490.74C239.049,7490.74 237.143,7506.95 239.615,7511.87C240.375,7513.39 243.475,7514.71 246.016,7515.2C249.764,7515.92 251.873,7516.27 251.873,7516.27C251.873,7516.27 250.545,7545.63 237.657,7546.26C224.769,7546.89 207.552,7532.86 204.114,7512.07Z" style="fill:rgb(52,33,31);"/>
                </g>
                <g transform="matrix(1,0,0,1.19761,-4097.44,-7008.91)">
                    <path d="M4322.99,6042.12C4339.72,6044.76 4345.14,6050.92 4345.07,6056.3C4345.04,6058.31 4345.17,6060.35 4345.4,6062.35C4345.47,6063.03 4345.58,6063.7 4345.68,6064.38C4345.72,6064.7 4345.57,6065.55 4345.82,6065.34C4346.83,6064.43 4347.03,6063.6 4348.05,6063.73C4350.83,6064.1 4352.1,6067.22 4351.45,6070.32C4350.97,6072.62 4349.26,6075.15 4347.75,6075.66C4347.26,6075.83 4347.11,6075.47 4346.84,6076.31C4345.82,6079.47 4346.03,6082.39 4344.74,6086.53C4343.66,6090.01 4341.77,6093.11 4339.99,6096.23C4337.29,6100.95 4335.08,6105.68 4329.44,6107.33C4326.26,6108.26 4321.31,6109.15 4318.23,6107.58C4316.01,6106.45 4313.81,6105.06 4311.75,6103.66C4308.11,6101.2 4305.04,6098.27 4303.11,6094.05C4300.85,6089.09 4301.73,6090.74 4300.37,6085.58C4300.25,6085.13 4296.08,6081.11 4295.61,6079.3C4293.98,6073.05 4297.6,6073.62 4297.52,6073.35C4295.47,6066.98 4295.5,6060.97 4295.89,6055.96C4296.18,6052.26 4300.5,6049.68 4303.59,6047.82C4309.47,6044.29 4316.33,6041.08 4322.99,6042.12Z" style="fill:rgb(70,45,42);"/>
                </g>
                <g transform="matrix(1.31897,0.107156,-0.096374,1.70141,-4839.94,-10716.7)">
                    <path d="M4273.41,6444.47C4269.64,6443.64 4268.05,6447.78 4268.52,6450.96C4268.96,6453.89 4270.73,6456.85 4271.73,6459.63C4273.48,6464.56 4274.8,6469.6 4276.34,6474.59C4276.95,6476.58 4277.92,6481.36 4280.42,6481.87C4285.47,6482.91 4287.57,6477.04 4288.47,6473.17C4289.08,6470.6 4289.4,6467.97 4289.98,6465.39C4290.49,6463.12 4291.26,6460.66 4291.09,6458.3C4290.87,6455.29 4289.78,6452.34 4288.69,6449.55C4288.24,6448.4 4288.1,6446.63 4287.41,6445.62C4286.71,6444.6 4285.1,6444.13 4283.96,6443.9C4282.64,6443.63 4281.43,6444.06 4280.16,6444.34C4278.21,6444.78 4275.43,6444.88 4273.41,6444.47Z" style="fill:rgb(245,167,174);"/>
                </g>
                <g transform="matrix(1,-1.66202e-17,1.38778e-17,1.19761,-4097.61,-7011.14)">
                    <path d="M4294.1,6457.38C4296.16,6462.1 4299.36,6464.62 4304.35,6466.31C4307.03,6467.21 4310.7,6467.27 4312.96,6469.18C4316.08,6471.81 4317.6,6476.39 4319.64,6479.81C4321.59,6483.07 4324.26,6485.73 4327.06,6488.23C4328.81,6489.79 4330.57,6491.33 4332.38,6492.81C4335.97,6495.76 4340.46,6498.68 4339.75,6503.99C4339.64,6504.87 4339.3,6505.71 4338.91,6506.51C4338.64,6507.07 4338.23,6507.58 4337.78,6508.02C4334.72,6511.07 4330.91,6508.97 4327.44,6507.83C4323.61,6506.57 4319.67,6505.51 4316.05,6503.7C4313.21,6502.29 4310.68,6500.29 4307.9,6498.74C4303.03,6496.01 4298.33,6494.16 4294.45,6489.89C4291.44,6486.58 4290.22,6482.46 4289.42,6478.15C4288.86,6475.12 4288.56,6472.14 4289.24,6469.1C4290.14,6465.12 4291.98,6461.55 4293.87,6457.98" style="fill:rgb(245,167,174);"/>
                </g>
                <g transform="matrix(1,0,0,1.19761,-4097.44,-7008.91)">
                    <path d="M4274.12,6216.45C4269.95,6233.66 4262.51,6250.78 4260.82,6268.51C4258.88,6289.05 4263.18,6309.2 4265.64,6329.48C4267.5,6344.72 4265.49,6356.08 4266.27,6371.43C4267.36,6392.72 4268.18,6405.49 4267.91,6421.28C4267.84,6425.85 4266.4,6439.64 4268.13,6443.04C4269.55,6445.81 4289.99,6445.66 4290.42,6444.35C4294.63,6431.58 4293.8,6417.59 4294.78,6404.35C4296.11,6386.5 4297.1,6367.44 4299.58,6349.6C4301.24,6337.62 4304.93,6327.46 4310.65,6316.81C4312.15,6314.01 4313.86,6308.61 4316.28,6306.55C4316.77,6306.13 4317.03,6307.6 4317.38,6308.14C4319.43,6311.23 4321.14,6314.53 4322.57,6317.96C4327.27,6329.16 4333.51,6345.24 4333.52,6357.59C4333.52,6362.9 4330.54,6369.61 4329.15,6374.67C4323.7,6394.57 4314.32,6412.98 4305.74,6431.64C4302.76,6438.12 4299.63,6444.53 4296.77,6451.06C4296.54,6451.57 4293.77,6456.76 4294.17,6457.37C4296.75,6461.21 4303.18,6465.09 4307.27,6466.98C4308.17,6467.4 4311.36,6469.08 4312.17,6468.59C4314.61,6467.15 4317.37,6460.1 4319,6457.64C4326.42,6446.41 4332.76,6434.42 4339.69,6422.88C4350.34,6405.14 4359.51,6386.9 4368.28,6368.18C4371.21,6361.93 4378.29,6352.53 4378.64,6345.32C4378.91,6339.77 4375.9,6332.26 4374.55,6326.98C4371.2,6313.81 4367.42,6300.64 4364.42,6287.4C4361.88,6276.15 4361,6258.05 4356.06,6248.36C4353.54,6243.41 4334.7,6238.2 4329.11,6237.02C4309.42,6232.87 4292.22,6227.61 4275.44,6216.07" style="fill:rgb(19,31,81);"/>
                </g>
                <g transform="matrix(1,0,0,1.19761,-4097.44,-7008.91)">
                    <path d="M4276.3,6102.47C4272.35,6080.04 4270.62,6066.2 4271.18,6043.95C4271.5,6031.2 4270.45,6014.9 4275.08,6002.51C4280.81,5987.19 4291.22,5972.82 4299.4,5958.74C4302.97,5952.61 4305.39,5945.28 4310.04,5939.88C4312.7,5936.79 4317.64,5935.54 4319.31,5931.82C4320.07,5930.13 4319.91,5928.95 4319.49,5927.16C4319.21,5925.93 4320.01,5923.24 4320.91,5923.51C4321.42,5923.67 4322.15,5925.29 4322.41,5925.74C4324.01,5928.53 4324.19,5931.3 4323.84,5934.43C4323.82,5934.63 4323.23,5938.17 4323.34,5938.21C4323.72,5938.37 4325.93,5937.18 4326.4,5936.8C4330.7,5933.33 4332.11,5928.92 4336.21,5925.24C4337.31,5924.26 4339.09,5921.52 4340.4,5920.84C4340.97,5920.53 4342.24,5921.31 4342.31,5921.96C4342.44,5923.27 4341.99,5923.32 4341.37,5924.43C4339,5928.66 4336.27,5932.8 4333.2,5936.54C4332.61,5937.25 4331.65,5938.27 4331.03,5939.05C4330.78,5939.37 4330.78,5940.08 4331.16,5939.95C4331.92,5939.68 4332.69,5939.4 4333.44,5939.11C4336.95,5937.72 4338.93,5934.8 4341.65,5932.21C4343.09,5930.84 4343.63,5929.78 4345.3,5930.03C4345.73,5930.1 4346.41,5931.23 4346.34,5931.66C4346.02,5933.65 4341.51,5937.77 4340.07,5939.16C4334.76,5944.27 4327.37,5946.87 4321.6,5951.44C4319.95,5952.74 4317.14,5954.58 4316.16,5956.47C4313.56,5961.48 4312.47,5967.47 4310.68,5972.79C4308.03,5980.68 4304.8,5988.39 4301.9,5996.19C4300.26,6000.61 4298.71,6005.08 4296.87,6009.43C4295.87,6011.8 4294.1,6014.54 4293.67,6017.09C4292.81,6022.06 4292.53,6033.32 4292.48,6038.36C4292.4,6047.9 4295.02,6058.92 4296.49,6068.37C4298.04,6078.32 4298.91,6080.66 4300.71,6090.54" style="fill:rgb(70,45,42);"/>
                </g>
                <g transform="matrix(1,0,0,1.19761,-4097.44,-7008.91)">
                    <path d="M4390.43,6185.73C4396.49,6198 4398.43,6201.28 4403.01,6214.19C4404.43,6218.19 4408.34,6227.52 4409.91,6231.45C4410.27,6232.35 4412.03,6233.43 4412.83,6234.02C4415.69,6236.11 4418.1,6238.57 4421.49,6239.73C4425.1,6240.97 4430.56,6243.62 4434.42,6245.41C4436.82,6246.52 4437.67,6249.07 4433.93,6249.41C4432.32,6249.56 4422.52,6246.69 4423.64,6247.79C4429.29,6253.31 4438.15,6264.4 4438.97,6267.8C4439.18,6268.67 4438.08,6269.14 4437.42,6269.01C4435.75,6268.69 4434.58,6267.91 4433.29,6266.8C4431.09,6264.92 4423.7,6256.66 4423.01,6256.48C4422.83,6256.44 4425.23,6259.96 4426.15,6261.33C4428.06,6264.17 4431.12,6267.42 4433.02,6270.28C4433.55,6271.1 4435.1,6272.78 4434.23,6273.57C4431.81,6275.77 4428.09,6272.84 4425.82,6269.3C4425.15,6268.25 4424.01,6266.71 4423.36,6265.65C4423.12,6265.25 4419.81,6261.37 4419.86,6261.64C4420.26,6264.1 4423.4,6269.79 4424.39,6272.07C4425.38,6274.33 4425.57,6274.13 4425.98,6276.58C4426.12,6277.41 4426.03,6278.95 4425.37,6279.4C4424.96,6279.68 4422.9,6279.06 4422.66,6278.66C4419.04,6272.65 4415.03,6263.01 4414.89,6263.56C4414.02,6266.93 4415.11,6269.92 4415.71,6272.55C4415.88,6273.28 4416.92,6276.51 4416.32,6277.36C4416.18,6277.56 4415.71,6277.85 4415.21,6277.71C4413.52,6277.26 4411.97,6273.54 4411.7,6272.17C4409.02,6258.66 4404.65,6257.11 4402.68,6250.84C4400.83,6244.93 4398.78,6239.67 4396.99,6235.42C4395.87,6232.75 4392.08,6229.28 4385.63,6220.3C4378.84,6210.84 4373.71,6205.97 4371.35,6194.48" style="fill:rgb(70,45,42);"/>
                </g>
                <g transform="matrix(1,0,0,1.19761,-4097.44,-7008.91)">
                    <path d="M4275.6,6102.65C4281.68,6098.23 4288.84,6095.85 4295.64,6092.83C4296.38,6092.5 4300.96,6089.72 4301.29,6089.99C4303.38,6091.7 4304.47,6096.26 4306,6098.5C4308.99,6102.89 4313.45,6106.1 4316.97,6110.04C4321.31,6114.91 4323.55,6121.02 4330.43,6122.94C4338.88,6125.3 4348.29,6119.6 4354.07,6113.88C4356.18,6111.78 4353.04,6108.65 4356.66,6107.85C4364.6,6106.1 4373.51,6107.57 4381.37,6109.22C4385.1,6110.01 4392.1,6117.21 4391.89,6120.77C4391.61,6125.47 4391.93,6132.17 4391.86,6136.87C4391.67,6147.64 4392.54,6158.02 4392.83,6168.78C4392.99,6175.09 4393.49,6179.5 4394.5,6185.73C4394.65,6186.63 4389.38,6189.03 4388.72,6189.6C4385.33,6192.49 4381.35,6194.75 4377.24,6196.45C4376.12,6196.91 4373.92,6198.28 4372.7,6198.15C4372.56,6198.14 4372.94,6195.69 4372.98,6195.49C4373.6,6192.74 4369.99,6215.08 4363.9,6232.12C4362.47,6236.12 4361.15,6240.13 4360.08,6244.25C4359.92,6244.85 4359.5,6248.69 4358.91,6249.09C4356.11,6250.98 4349.41,6249.96 4346.24,6249.41C4334.54,6247.38 4321.84,6243.14 4310.94,6238.48C4298.49,6233.16 4285.02,6229.51 4274.63,6220.51C4272.28,6218.48 4270,6216.14 4268.09,6213.68C4267.72,6213.2 4266.28,6211.74 4266.27,6211.18C4266.27,6209.86 4267.58,6207.83 4268.07,6206.57C4269.24,6203.51 4270.13,6200.35 4270.8,6197.14C4273.25,6185.54 4274.26,6173.39 4277.6,6162.03C4280.33,6152.75 4285.51,6144.66 4286.55,6134.8C4287.5,6125.8 4282.88,6120.08 4278.75,6112.39C4276.88,6108.92 4274.74,6106.75 4275.6,6102.65Z" style="fill:rgb(247,147,31);"/>
                </g>
                <g id="Global-girl-logo" serif:id="Global girl logo" transform="matrix(0.242157,0.0649136,-0.0542027,0.29001,222.102,337.416)">
                    <path d="M150.6,59.4C141.3,18.4 100.4,-7.4 59.4,1.9C18.4,11.2 -7.4,52 1.9,93C11.2,134 52.1,159.8 93.1,150.5C134,141.3 159.9,100.4 150.6,59.4ZM12.3,47.7C13.9,47 16.1,46.5 16.9,45.5C18.3,43.6 20,39.7 21.3,41C23.4,43 24.1,42.3 25.7,44.4C26.5,45.5 26.5,49 27.6,49.6C28.6,50.1 31.4,48.8 32.6,49.1C35.3,49.8 36.4,52.1 38.6,53.9C42,56.7 43.8,62.6 47.4,63.9C49.4,64.7 52,63.2 53,64.3C54.1,65.5 54,65.7 53.4,66.6C52.6,67.9 47.4,72.2 44,72.7C41.6,73.1 41.7,73 40.2,72.8C38.3,72.6 35.2,70.6 34.1,72C32.3,74.1 33.4,75.3 31.6,77.2C30,78.8 28.2,76.9 25.2,77.3C22.2,77.7 21.3,77.3 20.2,77.3C17.2,77.4 15.9,79.1 15.1,80.3C14.2,81.6 14.9,83.5 14.1,85C12.6,87.8 9.8,88.3 8.5,91.5C8.4,91.7 8.3,91.9 8.2,92.2C8,92.2 8,91.9 7.9,91.7C4.5,76.4 6.3,61.1 12.3,47.7ZM98.8,142.5C97.4,141.6 96.2,140.6 95.4,139.5C92.2,135.9 91.8,130.9 93,127.4C94.2,123.8 97.1,115 98.5,113.3C101.4,110 105.9,109.1 107,108.9C108.1,108.7 113.7,107.8 118.2,106.4C119.1,106.1 119.7,105.7 119.9,105.4C120.5,104.3 120.5,103.3 120.4,102.1C120.3,101 120,99.8 119.8,98.7C119.4,96.9 119.2,95.2 120.8,93.7C121.7,92.8 121.4,91.9 120.2,91.4C119.7,91.2 119.1,91 118.5,90.8C119.4,90 120.1,89.1 120.3,88C120.5,87.1 120.2,86.6 119.4,86.6C118.5,86.5 118.2,85.9 118.1,85.2C118,84.4 118.1,83.7 118.4,83C118.7,82.2 119.2,81.6 119.6,80.9C120,80.3 120.4,79.7 120.7,79.1C121.3,77.9 120.7,76.2 119.6,75.6C117,74.3 114.5,72.7 112,71.3C110.4,70.4 108.9,69.2 108,67.5C107.4,66.4 107.6,66.6 107.6,65.4C107.6,61.3 107.4,57.1 107,54.3C106.4,49.9 104.6,45.7 102.9,42.1C102.6,41.4 102,40.3 101.9,40.2C101.8,40.1 101.7,40.2 101.7,40.4C101.7,40.6 101.8,41.1 101.9,41.5C102.6,47.6 102,55 100.1,60.8C99.5,62 99.1,63 98.7,64C98.7,64.1 98.6,64.1 98.6,64.2C98.5,64.3 98.5,64.4 98.4,64.5C96.7,68.3 94.6,71.2 92.2,74.4C90,77.4 87.3,80 83,83.2C80.9,84.8 79.1,86.3 76.2,86.7C73.8,87 71.3,87.5 70.2,89.1C68.9,91 69.7,93.3 70.6,94.6C71.5,95.9 72.2,96.9 73.4,98.3C73.6,98.5 73.7,98.6 73.8,98.8C74,99 74.2,99.3 74.5,99.6C75.1,100.3 75.3,100.5 75.6,101.1C75.7,101.3 75.9,101.5 76,101.7C76.1,101.9 76.2,101.9 76.9,103.5C77.6,105 78.7,109.3 79.5,114.2C79.5,114.7 79.7,117.8 79.7,117.9C79.7,118 79.5,118 79.5,117.9C79.4,117.8 78.2,114.2 76.7,111.5C76.3,110.7 75.7,109.8 75,108.8C74.7,109.2 74.5,109.6 74.2,109.9C74.1,110 74.1,110.1 74,110.2C73.9,110.4 73.7,110.7 73.6,111C71.8,114.1 69.2,117.5 66.1,121.5C64.1,124 62.3,126.6 60.1,129.6C58.9,131.2 58.2,131.9 55.4,135.2C53.4,137.6 51.3,139.8 50,141.1C42.6,138.1 35.7,133.8 29.7,128.4C31.2,125.3 32,122.2 31.3,121.5C28.7,118.8 28.3,118.1 30.2,115.9C31.5,114.4 31.9,105.8 33.6,103.1C35.5,100.1 36.9,99.7 37,96.4C37.1,93.5 34.2,93 33,90.6C32.2,88.9 32.6,88.4 32.1,86.5C32,86.2 32,85.7 32,85.2C32,83.3 36.3,79.3 38.1,78.1C42,75.6 51.6,77.4 57,76.3C59.9,75.7 59.3,75.2 60.3,72C61.1,69.5 61.7,68.4 62.2,65.8C62.7,63.2 62.7,61.9 63.1,59.4C63.9,54 62.9,50.5 64.2,52.3C64.2,52.3 65.4,54.8 65.6,56.5C65.7,57.5 65.8,58.4 65.8,59.1C65.8,59.5 66.2,59.7 66.5,59.5C66.8,59.3 67.1,58.7 67.7,57.2C68,56.5 69.5,53.2 70.1,50.7C70.7,48.2 70.9,42.9 70.8,40.9C70.7,37 71.1,34.8 69.7,31.1L69.7,31.2C68.4,27.7 67.6,26.9 65.6,23.3C63.5,19.5 59.1,16.1 61,15.9C62.3,15.7 62.9,16.4 66.4,17.8C67.6,18.3 67.8,16 69.4,15C70.9,14.1 72.7,15.2 73.4,13.7C74.6,11.1 74.4,8.9 74.3,7.2C74.3,7 74.3,6.7 74.2,6.5C88.2,6.1 101.7,10 113.2,17.1C112.9,19.1 111,24.3 110.6,27.3C110.4,28.6 109.9,32.3 111.4,33.4C112.1,33.9 113.3,32.4 114.5,33.1C116.1,34 119.5,37.1 120.9,38.2C124.5,41.1 125.5,39.1 125,36.4C124.6,34 126,33.1 126.8,35.6C127.6,38.2 127,40 127.5,41.3C128.4,43.6 133.5,42.4 135.4,45.2C137.1,47.6 136.6,48.5 137.4,51C138.3,54.2 138.2,54.4 139.7,56.4C141.9,59.4 141,64.4 143.2,65.3C143.8,65.5 144.6,65.5 145.4,65.1C150.9,98.7 131,131.6 98.8,142.5Z" style="fill:white;fill-rule:nonzero;"/>
                </g>
                <g transform="matrix(0.192668,1.66202e-17,1.73472e-17,0.178845,152.993,-452.182)">
                    <path d="M342.671,4027.66C342.333,4025.76 343.251,4023.87 344.721,4023.43C346.19,4022.99 347.658,4024.18 347.996,4026.08C349.36,4031.33 348.924,4036.55 347.646,4041.37C346.703,4044.94 345.181,4048.2 343.569,4051C341.663,4054.32 339.553,4056.88 338.208,4058.63C335.341,4062.17 332.241,4065.2 330.028,4068.82C328.793,4070.84 327.802,4073.01 327.544,4075.76C327.327,4077.98 327.978,4080.06 329.04,4081.76C330.343,4083.85 332.114,4085.51 333.847,4086.3C335.289,4086.87 336.103,4088.84 335.663,4090.7C335.223,4092.56 333.695,4093.61 332.252,4093.04C328.983,4091.95 325.483,4088.99 323.229,4085.07C321.573,4082.19 320.693,4078.74 320.812,4075.03C320.978,4070.49 322.267,4066.7 324.116,4063.21C326.319,4059.06 329.5,4055.44 332.436,4051.33C333.613,4049.76 335.351,4047.38 337.133,4044.55C338.441,4042.48 339.802,4040.19 340.824,4037.63C342.035,4034.59 343.042,4031.34 342.671,4027.66Z" style="fill:rgb(52,33,31);"/>
                </g>
                <g transform="matrix(0.192668,2.07752e-17,1.56125e-17,0.178845,153.532,-453.913)">
                    <path d="M374.607,4063.2C374.508,4061.26 375.65,4059.58 377.154,4059.45C378.659,4059.33 379.961,4060.8 380.059,4062.74C380.325,4063.31 380.686,4063.48 380.934,4063.99C381.239,4064.62 381.679,4064.96 381.92,4065.55C382.227,4066.31 382.383,4067.12 382.64,4067.9C383.408,4070.24 384.155,4072.57 384.713,4075.69C385.326,4077.47 384.705,4079.56 383.327,4080.35C381.95,4081.14 380.334,4080.34 379.72,4078.56C378.44,4076.2 377.033,4074.81 375.938,4073.01C375.282,4071.94 374.68,4070.81 374.351,4069.51C374.146,4068.69 373.983,4067.88 374.034,4066.97C374.109,4065.65 374.17,4064.63 374.607,4063.2Z" style="fill:rgb(52,33,31);"/>
                </g>
                <g id="Eyes" transform="matrix(1.01974,0.0419954,-0.0350661,1.22124,7.80641,-29.8131)">
                    <g transform="matrix(1,0,0,1,-2.14866,-7230)">
                        <path d="M205.617,7464.31C205.333,7464.53 204.929,7464.47 204.714,7464.19C204.499,7463.9 204.555,7463.5 204.839,7463.28C205.204,7462.92 205.567,7462.59 205.96,7462.28C206.365,7461.96 206.787,7461.68 207.23,7461.43C207.59,7461.23 207.966,7461.06 208.351,7460.91C208.927,7460.69 209.529,7460.53 210.15,7460.42C211.953,7460.1 213.932,7460.2 216.177,7460.87C216.523,7460.96 216.734,7461.31 216.649,7461.65C216.564,7462 216.215,7462.21 215.869,7462.13C213.841,7461.73 212.104,7461.82 210.539,7462.22C210.023,7462.35 209.531,7462.53 209.046,7462.71C208.717,7462.84 208.393,7462.98 208.07,7463.12C207.66,7463.3 207.253,7463.48 206.847,7463.68C206.435,7463.88 206.025,7464.08 205.617,7464.31Z"/>
                    </g>
                    <g transform="matrix(0.995856,-0.0909416,0.0909416,0.995856,-681.595,-7178.7)">
                        <path d="M229.261,7461.1C228.951,7461.28 228.557,7461.17 228.383,7460.86C228.208,7460.55 228.318,7460.15 228.628,7459.98C229.047,7459.67 229.497,7459.39 229.992,7459.14C230.458,7458.9 230.955,7458.7 231.475,7458.54C231.878,7458.42 232.295,7458.33 232.718,7458.26C233.346,7458.16 233.987,7458.11 234.625,7458.12C236.897,7458.14 239.114,7458.74 240.688,7460.02C240.974,7460.24 241.034,7460.64 240.822,7460.93C240.61,7461.21 240.206,7461.27 239.92,7461.06C238.773,7460.29 237.306,7459.98 235.783,7459.94C234.686,7459.9 233.568,7460.06 232.486,7460.27C231.931,7460.37 231.386,7460.47 230.86,7460.61C230.298,7460.76 229.76,7460.9 229.261,7461.1Z"/>
                    </g>
                    <g transform="matrix(0.774915,1.50453e-17,-1.23567e-17,0.774915,45.088,-5549.83)">
                        <path d="M208.731,7462.17C207.899,7463.54 210.459,7465.74 211.83,7465.31C212.705,7465.04 213.526,7464 213.856,7462.93C214.246,7461.66 213.949,7460.35 212.24,7460.21C211.693,7460.16 211.117,7460.33 210.599,7460.48C210.007,7460.66 209.171,7461.73 208.731,7462.17Z"/>
                    </g>
                    <g transform="matrix(0.778812,-0.0711211,0.0711211,0.778812,-482.79,-5564.44)">
                        <path d="M235.242,7459.63C234.419,7459.37 233.217,7459.79 232.652,7460.66C231.976,7461.69 232.836,7464.02 234.181,7464.14C237.242,7464.42 238.742,7459.97 235.242,7459.63Z"/>
                    </g>
                </g>
                <g id="Mouth" transform="matrix(1.11848,0.219317,-0.168811,1.23477,1236.32,-9006.07)">
                    <path d="M232.745,7482.79C232.692,7483.58 232.193,7485.2 232.077,7485.55C231.277,7487.89 230.271,7489.18 228.695,7490.63C227.186,7492.02 225.247,7492.76 223.439,7492.51C221.393,7492.22 219.162,7490.66 218.26,7490.03C217.135,7489.25 215.389,7486.96 215.35,7486.9C218.919,7488.28 224.215,7487.32 227.872,7485.81C229.855,7484.99 230.81,7484.09 232.745,7482.79Z" style="fill:white;"/>
                    <path d="M233.228,7482.83C233.215,7483.15 233.139,7483.6 233.041,7484.05C232.884,7484.78 232.67,7485.53 232.6,7485.76C232.217,7486.97 231.773,7487.92 231.232,7488.75C230.661,7489.64 229.976,7490.39 229.135,7491.19C228.34,7491.94 227.43,7492.52 226.477,7492.89C225.453,7493.29 224.379,7493.43 223.344,7493.29C222.555,7493.18 221.739,7492.89 220.974,7492.54C219.65,7491.92 218.48,7491.09 217.881,7490.67C217.473,7490.38 216.986,7489.92 216.524,7489.41C215.644,7488.46 214.842,7487.38 214.814,7487.34C214.637,7487.09 214.636,7486.73 214.811,7486.48C214.986,7486.22 215.296,7486.11 215.574,7486.22C217.296,7486.91 219.447,7487.01 221.605,7486.77C223.753,7486.53 225.91,7485.96 227.679,7485.25C228.45,7484.94 229.061,7484.62 229.637,7484.27C230.523,7483.72 231.332,7483.1 232.491,7482.35C232.645,7482.24 232.841,7482.24 232.996,7482.34C233.152,7482.45 233.241,7482.64 233.228,7482.83ZM231.996,7483.95C231.33,7484.43 230.764,7484.85 230.161,7485.24C229.545,7485.64 228.892,7486 228.066,7486.36C225.871,7487.29 223.093,7488.04 220.431,7488.22C219.35,7488.29 218.287,7488.26 217.287,7488.12C217.356,7488.2 217.425,7488.27 217.495,7488.35C217.888,7488.76 218.295,7489.15 218.639,7489.39C219.202,7489.78 220.3,7490.53 221.537,7491.09C222.184,7491.39 222.869,7491.63 223.534,7491.72C224.349,7491.84 225.195,7491.73 226.008,7491.43C226.807,7491.13 227.578,7490.67 228.255,7490.06C229.036,7489.37 229.675,7488.72 230.22,7487.95C230.731,7487.23 231.164,7486.4 231.554,7485.34C231.623,7485.15 231.823,7484.56 231.996,7483.95Z" style="fill:rgb(52,33,31);"/>
                </g>
                <g transform="matrix(1,0,0,1.47237,-4099.88,-8665.69)">
                    <path d="M4308.19,6038.39C4308.27,6035.66 4310.92,6035.28 4313.16,6034.96C4308.84,6032.02 4310.58,6026.73 4314.65,6024.66C4317.03,6023.45 4320.16,6023.09 4322.75,6022.79L4325.12,6022.52L4329.43,6022.34C4333.86,6022.49 4339.29,6024.85 4341.09,6029.19C4348.19,6030.57 4341.22,6035.98 4338.72,6036.55C4347.07,6038.97 4347.74,6045.85 4348.48,6053.24C4348.61,6054.56 4349.27,6057.4 4348.1,6058.61C4346.42,6060.36 4340.33,6055.3 4339.72,6054.76C4338.51,6053.68 4337.58,6052.32 4336.45,6051.16L4335.32,6050.07C4330.98,6046.04 4324.82,6045.59 4319.27,6046.29L4312.57,6047.37C4306.57,6049.01 4303.18,6055.45 4300.48,6060.34C4299.96,6061.29 4300.51,6064.79 4299.86,6065.65C4299.66,6065.91 4298.84,6062.97 4298.73,6062.66C4298.3,6061.32 4297.92,6059.95 4297.79,6058.55C4297.58,6056.4 4297.54,6054.22 4297.7,6052.07C4298.2,6045.34 4301.78,6040.57 4308.19,6038.39Z"/>
                </g>
                <g transform="matrix(1,0,0,1.19761,-4097.44,-7008.91)">
                    <path d="M4296.8,6060.68C4296.72,6060.97 4296.42,6061.14 4296.12,6061.06C4295.83,6060.98 4295.66,6060.67 4295.74,6060.38C4297.19,6053.56 4299.71,6049.16 4302.9,6046.3C4305.5,6043.97 4308.56,6042.67 4311.84,6041.94C4313.88,6041.48 4316.03,6041.3 4318.23,6041.2C4322.95,6041.14 4327.6,6041.19 4331.71,6042.55C4334.64,6043.52 4337.31,6045.11 4339.56,6047.69C4341.33,6049.75 4343.08,6052.39 4344.34,6055.45C4345.43,6058.13 4346.16,6061.1 4346.21,6064.27C4346.23,6064.58 4346,6064.84 4345.7,6064.86C4345.4,6064.88 4345.13,6064.65 4345.11,6064.34C4344.79,6061.38 4343.84,6058.67 4342.59,6056.26C4341.18,6053.56 4339.37,6051.28 4337.59,6049.53C4335.56,6047.53 4333.24,6046.42 4330.76,6045.77C4326.92,6044.76 4322.68,6044.91 4318.37,6045.17C4315.88,6045.22 4313.48,6045.44 4311.19,6045.97C4308.95,6046.5 4306.83,6047.32 4304.87,6048.73C4301.7,6051.03 4298.93,6054.68 4296.8,6060.68Z" style="fill:rgb(245,167,174);"/>
                </g>
                <g transform="matrix(0.784454,0,0,0.939469,-3167.13,-5450.82)">
                    <path d="M4318.72,6036.58C4317,6035.74 4314.73,6034.41 4313.31,6032.68C4312.13,6031.24 4311.49,6029.55 4311.9,6027.66C4312.14,6026.54 4312.87,6026.04 4313.86,6025.96C4314.87,6025.88 4316.38,6026.55 4316.87,6026.79L4317.82,6027.27L4318.96,6027.97C4320.83,6029.3 4322.07,6030.64 4322.88,6032.2C4322.9,6032.25 4322.93,6032.29 4322.95,6032.34C4323.29,6031.6 4323.62,6030.86 4324.03,6030.17C4324.54,6029.34 4325.15,6028.59 4325.96,6027.99C4326.49,6027.6 4327.27,6027.18 4327.99,6027.04C4328.51,6026.94 4329.01,6026.98 4329.44,6027.14C4330.1,6027.39 4330.69,6027.9 4330.9,6028.95C4331.16,6030.21 4330.85,6031.51 4330.19,6032.71C4329.4,6034.16 4328.1,6035.48 4327.04,6036.4C4326.7,6036.69 4326.35,6036.95 4325.98,6037.19C4327.32,6037.28 4328.63,6037.5 4329.85,6037.91C4331.46,6038.45 4332.94,6039.27 4334.5,6039.91C4335.1,6040.16 4335.71,6040.38 4336.35,6040.53C4336.99,6040.68 4337.38,6041.32 4337.23,6041.95C4337.09,6042.59 4336.45,6042.98 4335.82,6042.83C4335.05,6042.66 4334.32,6042.41 4333.61,6042.12C4332.09,6041.52 4330.65,6040.73 4329.09,6040.22C4327.88,6039.84 4326.57,6039.67 4325.23,6039.64C4323.16,6039.59 4321.04,6039.88 4319.12,6040.24C4318.29,6040.4 4317.46,6040.52 4316.62,6040.64C4315.4,6040.81 4314.18,6040.95 4312.95,6041.11L4310.57,6041.48C4310.32,6041.53 4309.73,6041.66 4309.55,6041.69C4309.07,6041.78 4308.77,6041.62 4308.73,6041.6C4308.34,6041.42 4308.16,6041.14 4308.06,6040.9C4307.93,6040.6 4307.91,6040.26 4308.06,6039.89C4308.1,6039.78 4308.23,6039.39 4308.79,6039.16C4308.82,6039.15 4308.88,6039.13 4308.98,6039.1C4310.53,6038.65 4312.03,6038.05 4313.57,6037.58C4314.28,6037.36 4315,6037.18 4315.73,6037.04C4316.71,6036.86 4317.72,6036.73 4318.72,6036.58ZM4325.27,6034.21C4325.96,6033.6 4326.78,6032.78 4327.39,6031.87C4327.79,6031.26 4328.13,6030.6 4328.14,6029.95C4327.97,6030.07 4327.78,6030.22 4327.68,6030.3C4327.18,6030.67 4326.82,6031.15 4326.51,6031.66C4326.03,6032.46 4325.67,6033.35 4325.27,6034.21ZM4328.31,6029.84C4328.44,6029.94 4328.57,6029.97 4328.57,6029.86C4328.58,6029.73 4328.46,6029.75 4328.31,6029.84ZM4321.29,6034.79C4321.13,6034.29 4320.93,6033.82 4320.69,6033.38C4320.01,6032.15 4318.98,6031.14 4317.47,6030.12L4316.59,6029.61L4315.73,6029.2C4315.57,6029.12 4314.95,6028.72 4314.53,6028.56C4314.47,6029.44 4314.89,6030.21 4315.46,6030.89C4316.68,6032.32 4318.65,6033.38 4320.08,6034.04C4320.28,6034.13 4320.84,6034.56 4321.29,6034.79ZM4314.42,6028.52C4314.22,6028.46 4314.08,6028.48 4314.09,6028.66C4314.11,6028.82 4314.28,6028.7 4314.42,6028.52Z" style="fill:rgb(245,167,174);"/>
                </g>
            </g>
            <g id="Girl-left" serif:id="Girl left" transform="matrix(0.880441,0.0827261,-0.0576784,0.880441,-11.6588,18.246)">
                <g transform="matrix(1,0,0,1.19761,-4097.44,-7008.91)">
                    <path d="M4746.74,6455.43C4744.98,6462.05 4743.33,6467.47 4745.51,6474.31C4747.04,6479.12 4747.71,6484.39 4749.78,6489C4751.63,6493.12 4754.44,6495.95 4758.09,6498.6C4759.68,6499.76 4761.9,6501.18 4764.01,6500.67C4766.8,6499.99 4768.79,6494.82 4769.93,6492.68C4770.91,6490.85 4772.38,6488.93 4772.71,6486.84C4773.14,6484.1 4770.43,6480.77 4769.14,6478.62C4765.89,6473.19 4763.29,6467.79 4760.72,6462.03C4759.65,6459.64 4758.55,6455.73 4756.31,6454.21" style="fill:rgb(250,178,98);"/>
                </g>
                <g transform="matrix(1,0,0,1.19761,-4097.44,-7008.91)">
                    <path d="M4662.67,6466.88C4663.62,6473.19 4664.48,6479.65 4666.61,6485.7C4668.06,6489.82 4670.42,6493.7 4673.53,6496.78C4675.64,6498.87 4678.05,6500.62 4680.24,6502.61C4681.98,6504.18 4683.9,6506.51 4686.46,6506.59C4687.81,6506.63 4688.86,6505.33 4689.56,6504.35C4691.42,6501.73 4692.72,6498.2 4693.18,6495.03C4694.33,6486.99 4689.75,6478.55 4686.64,6471.4C4685.18,6468.02 4683.9,6461.94 4679.44,6461.81" style="fill:rgb(250,178,98);"/>
                </g>
                <g transform="matrix(1,0,0,1.19761,-4097.44,-7008.91)">
                    <path d="M4617.14,6233.53C4616.41,6246.85 4614.02,6259.93 4615.87,6273.25C4619.47,6299.15 4625.28,6323.67 4629.5,6349.63C4633.31,6373.02 4635.55,6397.94 4643.83,6420.58C4648.03,6432.06 4650.58,6440.09 4654.25,6451.77C4654.78,6453.45 4659.11,6467.26 4659.52,6467.48C4664.09,6469.92 4682.01,6465.49 4682.24,6465.08C4684.95,6460.26 4682.17,6450.38 4681.24,6445.25C4678.61,6430.63 4678.24,6430.55 4676.27,6415.8C4675.23,6408.04 4671.69,6390.94 4669.93,6383.26C4668.07,6375.11 4668.15,6365.82 4667.89,6357.41C4667.49,6343.98 4667.45,6333.08 4669.41,6319.87C4671.76,6304.06 4673.09,6287.84 4676.09,6272.14C4676.2,6271.55 4676.66,6273.2 4676.94,6273.73C4677.52,6274.85 4678.1,6275.98 4678.67,6277.1C4680.31,6280.34 4681.79,6283.73 4683.13,6287.1C4687.37,6297.76 4689.51,6309.26 4692.53,6320.31C4695.8,6332.31 4698.16,6345.06 4703.45,6356.38C4707.89,6365.9 4713.82,6376.7 4717.12,6383.63C4724.3,6398.73 4728.79,6415.49 4734.43,6431.21C4736.71,6437.58 4739.02,6443.94 4741.21,6450.34C4741.5,6451.2 4742.67,6456.8 4743.64,6457.56C4744.44,6458.18 4749.11,6456.91 4750.34,6456.75C4751.55,6456.6 4756.69,6456.73 4757.38,6455.88C4758.43,6454.57 4757.67,6448.42 4757.69,6447.03C4757.82,6438.8 4757.78,6430.57 4757.78,6422.33C4757.78,6411.61 4757.62,6397.33 4755.03,6386.83C4752.65,6377.18 4748.14,6371.93 4746.22,6362.23C4743.2,6346.9 4743.6,6330.78 4742.6,6315.24C4740.89,6288.8 4737.88,6261.46 4736.17,6232.6C4735.82,6226.57 4736.52,6220.43 4736.27,6214.39C4736.18,6212.35 4734.8,6211.8 4732.82,6211.3C4717.83,6207.53 4710.37,6215.91 4696.44,6220.38C4670.21,6228.8 4642.69,6238.29 4615.12,6240.61" style="fill:rgb(69,88,145);"/>
                </g>
                <g transform="matrix(1,0,0,1.19761,-4097.03,-7007.42)">
                    <path d="M4741.09,6057.66C4745.89,6051.92 4749.89,6044.33 4753.63,6037.97C4756.07,6033.81 4760,6028.17 4762.73,6024.19C4765.77,6019.76 4768.68,6013.85 4770.59,6008.8C4773.85,6000.22 4773.52,5990.86 4773.98,5981.86C4774.61,5969.41 4773.65,5947.17 4773.57,5944.86C4773.48,5942.16 4772.92,5938.98 4772.34,5936.37C4771.69,5933.47 4770.77,5930 4769.94,5927.14C4768.68,5922.77 4767.8,5919.62 4767.43,5915.1C4766.88,5908.44 4765.27,5907.02 4763.44,5903.67C4762.61,5902.14 4761.21,5899.87 4760.11,5899.02C4757.96,5897.35 4756.39,5900.23 4755.54,5899.85C4754.97,5899.59 4752.72,5898.71 4752.04,5898.86C4750.84,5899.13 4750.27,5901.84 4749.26,5902.06C4748.26,5902.27 4746.17,5900.45 4744.76,5900.85C4742,5901.64 4743.56,5904.82 4741.43,5905.52C4741.36,5905.55 4740.11,5905.17 4739.98,5905.14C4738.85,5904.91 4737.55,5904.76 4736.65,5905.59C4733.3,5908.66 4735.98,5913.72 4737.74,5916.87C4740.05,5921.03 4742.9,5925.67 4746.82,5928.5C4750.97,5931.49 4753.16,5930.2 4755.07,5934.78C4755.28,5935.3 4756.24,5942.09 4756.11,5945.78C4755.96,5949.93 4755.81,5959.28 4754.7,5964.95C4753.21,5972.54 4750.34,5979.82 4748.81,5987.38C4748.15,5990.64 4747.76,5993.99 4747.55,5997.3C4747.32,6000.85 4747.98,6004.61 4745.3,6007.17C4739.79,6012.41 4737.73,6013.95 4732.08,6018.97C4728.6,6022.06 4724.16,6027.31 4721.26,6031.04" style="fill:rgb(195,143,119);"/>
                </g>
                <g transform="matrix(0.999724,-0.0281456,0.0235015,1.19728,-4241.9,-6877.61)">
                    <path d="M4614.71,6136.3C4613.85,6143.76 4611.64,6155.13 4609.5,6162.33C4606.7,6171.68 4604.85,6183.92 4603.13,6195.05C4602.01,6202.35 4599.91,6208.07 4598.21,6215.28C4596.66,6221.86 4595.29,6231.16 4593.76,6239.06C4593.28,6241.55 4596.18,6245.26 4597.74,6249.3C4599.87,6254.79 4600.99,6258.02 4596.97,6264.58C4595.3,6267.31 4594.37,6268.01 4591.57,6266.44C4591.06,6266.16 4589.27,6264.34 4588.85,6264.46C4587.09,6264.98 4586.26,6267.12 4584.2,6266.76C4583.19,6266.58 4582.25,6265.83 4581.62,6265.04C4581.48,6264.87 4580.94,6263.73 4580.83,6263.76C4579.6,6264.14 4578.43,6265.43 4577.2,6265.59C4575.44,6265.81 4575.48,6264.18 4574.43,6263.83C4573.83,6263.62 4573.1,6264.28 4572.5,6264.09C4570.99,6263.6 4570.07,6262.67 4569.86,6261.39C4569.07,6256.66 4571.46,6251.48 4573,6247.12C4574.31,6243.45 4574.97,6240.26 4576.54,6237.44C4577.88,6235.03 4578.97,6221.89 4579.7,6215.78C4580.6,6208.34 4580.78,6201.21 4580.22,6193.75C4579.67,6186.29 4580.07,6179.13 4580.71,6172.89C4581.22,6167.98 4583.68,6163.47 4585.92,6153.33C4587.66,6145.4 4589.19,6139.89 4590.11,6131.86" style="fill:rgb(195,143,119);"/>
                </g>
                <g transform="matrix(0.881436,0,0,0.881436,66.7122,29.8104)">
                    <g id="Neck1" serif:id="Neck" transform="matrix(1.73528,0.176137,-0.147074,2.07818,1274.65,-15408.5)">
                        <path d="M210.515,7518.81C210.515,7518.81 215.421,7515.48 217.483,7512.37C219.546,7509.26 219.007,7501.89 218.567,7498.03C218.567,7498.03 234.468,7505.95 238.674,7496.8C238.674,7496.8 236.949,7505.24 237.797,7508.83C238.848,7513.28 243.475,7514.71 246.016,7515.2C249.764,7515.92 251.873,7516.27 251.873,7516.27C251.873,7516.27 250.545,7545.63 237.657,7546.26C224.769,7546.89 205.689,7537.58 210.515,7518.81Z" style="fill:rgb(93,59,43);"/>
                    </g>
                    <g transform="matrix(1.13451,0,0,1.3587,-4724.28,-7985.51)">
                        <path d="M4637.62,6059.86C4640.06,6062.78 4646.03,6066.42 4649.27,6068.51C4656.98,6073.46 4668.58,6073.46 4676.17,6068.33C4679.17,6066.3 4681.82,6063.27 4684.07,6060.46C4685.18,6059.09 4685.94,6057.52 4687.3,6056.38C4695.1,6049.87 4703.53,6043.92 4711.95,6038.24C4715.78,6035.65 4735.01,6015.75 4738.15,6012.41C4738.89,6011.62 4752.2,5933.18 4753.48,5933.09C4758.57,5932.73 4765.33,5932.48 4771.41,5930.22C4772.48,5929.82 4775.78,5953.19 4776.4,5976.73C4776.84,5993.33 4774.84,6012.47 4774.66,6012.7C4772.81,6015.03 4741.46,6061.97 4739.36,6064.06C4732.88,6070.53 4726.41,6079.29 4723.7,6088.08C4722.31,6092.6 4722.11,6097.21 4721.72,6101.87C4721.29,6107.03 4720.34,6112.56 4720.76,6117.76C4721.47,6126.4 4723.52,6134.86 4724.8,6143.41C4725.54,6148.35 4725.32,6153.96 4726.12,6159.17C4727.08,6165.51 4728.89,6173.98 4730.6,6181.43C4731.9,6187.15 4733.68,6192.86 4734.49,6198.69C4734.89,6201.55 4735.16,6204.41 4735.56,6207.26C4735.76,6208.65 4751.01,6309.32 4750.04,6310.57C4743.53,6318.97 4722.26,6317.81 4712.77,6320.46C4709.82,6321.28 4706.91,6322.28 4703.99,6323.19C4695.81,6325.76 4687.19,6326.2 4678.96,6328.51C4663.29,6332.91 4648.23,6336.13 4631.93,6336.37C4628.48,6336.42 4625.02,6336.49 4621.57,6336.32C4620.37,6336.26 4618.21,6336.51 4617.15,6335.7C4616.19,6334.97 4616.08,6332.8 4616.04,6331.75C4615.89,6327.89 4612.47,6204.48 4613.19,6198.18C4614.94,6182.78 4614.14,6176.28 4616.11,6160.9C4617.19,6152.55 4622.4,6138.11 4622.8,6129.67C4622.92,6126.95 4622.98,6124.22 4623.02,6121.49C4623.04,6120.61 4623.04,6119.72 4623,6118.83C4622.98,6118.49 4622.96,6118.15 4622.94,6117.81C4622.93,6117.66 4622.94,6117.2 4622.9,6117.35C4620.93,6125.09 4620.29,6133.45 4618.84,6141.32C4618.47,6143.33 4618.03,6145.33 4617.64,6147.35C4617.6,6147.56 4601.51,6243.77 4601.28,6243.86C4599.5,6244.61 4596.39,6244.08 4594.56,6243.87C4586.85,6243.01 4580.57,6237.97 4574.03,6234.27C4571.86,6233.05 4566.44,6230.8 4566.25,6227.76C4566.12,6225.5 4582.94,6128.28 4583.48,6126.11C4584.6,6121.56 4586.01,6117.07 4587.13,6112.51C4588.05,6108.82 4588.28,6104.97 4589.19,6101.3C4589.97,6098.14 4591.49,6095.21 4592.27,6092.02C4593.01,6089.05 4593.36,6084.75 4595.16,6082.15C4596.49,6080.23 4598.9,6078.72 4600.74,6077.3C4606.23,6073.07 4612.63,6069.66 4618.86,6066.69C4622.85,6064.78 4626.82,6062.92 4630.96,6061.37C4633.01,6060.6 4635.36,6059.51 4637.62,6059.86Z" style="fill:rgb(241,95,82);"/>
                    </g>
                    <g id="Global-girl-logo1" serif:id="Global girl logo" transform="matrix(0.333056,-0.0934514,0.0780317,0.39887,540.204,308.933)">
                        <path d="M150.6,59.4C141.3,18.4 100.4,-7.4 59.4,1.9C18.4,11.2 -7.4,52 1.9,93C11.2,134 52.1,159.8 93.1,150.5C134,141.3 159.9,100.4 150.6,59.4ZM12.3,47.7C13.9,47 16.1,46.5 16.9,45.5C18.3,43.6 20,39.7 21.3,41C23.4,43 24.1,42.3 25.7,44.4C26.5,45.5 26.5,49 27.6,49.6C28.6,50.1 31.4,48.8 32.6,49.1C35.3,49.8 36.4,52.1 38.6,53.9C42,56.7 43.8,62.6 47.4,63.9C49.4,64.7 52,63.2 53,64.3C54.1,65.5 54,65.7 53.4,66.6C52.6,67.9 47.4,72.2 44,72.7C41.6,73.1 41.7,73 40.2,72.8C38.3,72.6 35.2,70.6 34.1,72C32.3,74.1 33.4,75.3 31.6,77.2C30,78.8 28.2,76.9 25.2,77.3C22.2,77.7 21.3,77.3 20.2,77.3C17.2,77.4 15.9,79.1 15.1,80.3C14.2,81.6 14.9,83.5 14.1,85C12.6,87.8 9.8,88.3 8.5,91.5C8.4,91.7 8.3,91.9 8.2,92.2C8,92.2 8,91.9 7.9,91.7C4.5,76.4 6.3,61.1 12.3,47.7ZM98.8,142.5C97.4,141.6 96.2,140.6 95.4,139.5C92.2,135.9 91.8,130.9 93,127.4C94.2,123.8 97.1,115 98.5,113.3C101.4,110 105.9,109.1 107,108.9C108.1,108.7 113.7,107.8 118.2,106.4C119.1,106.1 119.7,105.7 119.9,105.4C120.5,104.3 120.5,103.3 120.4,102.1C120.3,101 120,99.8 119.8,98.7C119.4,96.9 119.2,95.2 120.8,93.7C121.7,92.8 121.4,91.9 120.2,91.4C119.7,91.2 119.1,91 118.5,90.8C119.4,90 120.1,89.1 120.3,88C120.5,87.1 120.2,86.6 119.4,86.6C118.5,86.5 118.2,85.9 118.1,85.2C118,84.4 118.1,83.7 118.4,83C118.7,82.2 119.2,81.6 119.6,80.9C120,80.3 120.4,79.7 120.7,79.1C121.3,77.9 120.7,76.2 119.6,75.6C117,74.3 114.5,72.7 112,71.3C110.4,70.4 108.9,69.2 108,67.5C107.4,66.4 107.6,66.6 107.6,65.4C107.6,61.3 107.4,57.1 107,54.3C106.4,49.9 104.6,45.7 102.9,42.1C102.6,41.4 102,40.3 101.9,40.2C101.8,40.1 101.7,40.2 101.7,40.4C101.7,40.6 101.8,41.1 101.9,41.5C102.6,47.6 102,55 100.1,60.8C99.5,62 99.1,63 98.7,64C98.7,64.1 98.6,64.1 98.6,64.2C98.5,64.3 98.5,64.4 98.4,64.5C96.7,68.3 94.6,71.2 92.2,74.4C90,77.4 87.3,80 83,83.2C80.9,84.8 79.1,86.3 76.2,86.7C73.8,87 71.3,87.5 70.2,89.1C68.9,91 69.7,93.3 70.6,94.6C71.5,95.9 72.2,96.9 73.4,98.3C73.6,98.5 73.7,98.6 73.8,98.8C74,99 74.2,99.3 74.5,99.6C75.1,100.3 75.3,100.5 75.6,101.1C75.7,101.3 75.9,101.5 76,101.7C76.1,101.9 76.2,101.9 76.9,103.5C77.6,105 78.7,109.3 79.5,114.2C79.5,114.7 79.7,117.8 79.7,117.9C79.7,118 79.5,118 79.5,117.9C79.4,117.8 78.2,114.2 76.7,111.5C76.3,110.7 75.7,109.8 75,108.8C74.7,109.2 74.5,109.6 74.2,109.9C74.1,110 74.1,110.1 74,110.2C73.9,110.4 73.7,110.7 73.6,111C71.8,114.1 69.2,117.5 66.1,121.5C64.1,124 62.3,126.6 60.1,129.6C58.9,131.2 58.2,131.9 55.4,135.2C53.4,137.6 51.3,139.8 50,141.1C42.6,138.1 35.7,133.8 29.7,128.4C31.2,125.3 32,122.2 31.3,121.5C28.7,118.8 28.3,118.1 30.2,115.9C31.5,114.4 31.9,105.8 33.6,103.1C35.5,100.1 36.9,99.7 37,96.4C37.1,93.5 34.2,93 33,90.6C32.2,88.9 32.6,88.4 32.1,86.5C32,86.2 32,85.7 32,85.2C32,83.3 36.3,79.3 38.1,78.1C42,75.6 51.6,77.4 57,76.3C59.9,75.7 59.3,75.2 60.3,72C61.1,69.5 61.7,68.4 62.2,65.8C62.7,63.2 62.7,61.9 63.1,59.4C63.9,54 62.9,50.5 64.2,52.3C64.2,52.3 65.4,54.8 65.6,56.5C65.7,57.5 65.8,58.4 65.8,59.1C65.8,59.5 66.2,59.7 66.5,59.5C66.8,59.3 67.1,58.7 67.7,57.2C68,56.5 69.5,53.2 70.1,50.7C70.7,48.2 70.9,42.9 70.8,40.9C70.7,37 71.1,34.8 69.7,31.1L69.7,31.2C68.4,27.7 67.6,26.9 65.6,23.3C63.5,19.5 59.1,16.1 61,15.9C62.3,15.7 62.9,16.4 66.4,17.8C67.6,18.3 67.8,16 69.4,15C70.9,14.1 72.7,15.2 73.4,13.7C74.6,11.1 74.4,8.9 74.3,7.2C74.3,7 74.3,6.7 74.2,6.5C88.2,6.1 101.7,10 113.2,17.1C112.9,19.1 111,24.3 110.6,27.3C110.4,28.6 109.9,32.3 111.4,33.4C112.1,33.9 113.3,32.4 114.5,33.1C116.1,34 119.5,37.1 120.9,38.2C124.5,41.1 125.5,39.1 125,36.4C124.6,34 126,33.1 126.8,35.6C127.6,38.2 127,40 127.5,41.3C128.4,43.6 133.5,42.4 135.4,45.2C137.1,47.6 136.6,48.5 137.4,51C138.3,54.2 138.2,54.4 139.7,56.4C141.9,59.4 141,64.4 143.2,65.3C143.8,65.5 144.6,65.5 145.4,65.1C150.9,98.7 131,131.6 98.8,142.5Z" style="fill:white;fill-rule:nonzero;"/>
                    </g>
                    <g transform="matrix(1.28069,-0.120333,0.100478,1.53376,-5897.87,-8541.77)">
                        <path d="M4599.35,6003.54C4592.49,5999.83 4585.05,5998.01 4577.36,5997.21C4571.3,5996.58 4565.32,5996.75 4559.49,5998.72C4555.27,6000.14 4551.07,6002.2 4547.36,6004.65C4542.11,6008.12 4537.36,6012.46 4534.97,6018.41C4532.78,6023.85 4532.81,6030.59 4532.61,6036.35C4532.31,6045.07 4534.58,6052.61 4535.74,6061.11C4537.06,6070.84 4515.83,6091.66 4515.51,6101.51C4515.43,6104.09 4531.56,6122.99 4532.36,6125.45C4542.82,6157.76 4574.71,6188.19 4578.18,6186.42C4583.7,6183.61 4599.09,6141.96 4602.56,6137.38C4611.02,6126.22 4613.09,6103.61 4608.27,6096.85C4600.39,6085.78 4589.43,6092.88 4592.19,6080.46C4593.82,6073.09 4600.85,6065.98 4604.93,6059.7C4614.87,6044.38 4613.99,6020.84 4601.62,6006.92" style="fill:rgb(245,167,174);"/>
                    </g>
                    <g id="Face" transform="matrix(1.15914,0.0420263,-0.0350919,1.38819,566.579,-10183.3)">
                        <path d="M213.39,7426.31C213.39,7426.31 183.928,7436.7 189.504,7462.46C189.733,7463.52 191.873,7466.42 192.665,7467.73C193.286,7468.75 189.025,7464.96 188.063,7471.05C187.74,7473.1 191.182,7479.73 194.351,7480.24C195.273,7480.38 197.211,7480.84 198.044,7479.27C198.338,7478.71 198.883,7478.89 198.937,7478.96C204.331,7486.16 210.237,7492.19 217.071,7497.9C223.245,7503.05 233.697,7500.46 237.558,7496.4C244.158,7489.46 249.229,7480.44 250.894,7470.99C251.225,7469.11 256.327,7460.09 256.262,7459.82C255.605,7457.17 252.64,7457.47 252.964,7455.91C253.697,7452.36 258.936,7438.6 238,7427.71C225.744,7421.34 216.125,7425.67 213.39,7426.31Z" style="fill:rgb(195,143,119);"/>
                    </g>
                    <g id="Eyes1" serif:id="Eyes" transform="matrix(1.40443,0.0509197,-0.0425178,1.68195,259.747,-217.356)">
                        <g transform="matrix(0.99338,-0.114872,0.114872,0.99338,-853.32,-7156.71)">
                            <path d="M205.624,7464.32C205.335,7464.54 204.923,7464.48 204.705,7464.19C204.486,7463.9 204.543,7463.49 204.832,7463.27C205.256,7462.86 205.701,7462.49 206.189,7462.16C206.514,7461.94 206.853,7461.74 207.209,7461.58C207.791,7461.3 208.409,7461.09 209.043,7460.94C211.289,7460.39 213.735,7460.48 216.093,7460.85C216.453,7460.89 216.714,7461.21 216.676,7461.57C216.637,7461.93 216.313,7462.19 215.953,7462.15C214.136,7462.05 212.299,7462.18 210.56,7462.56C210.041,7462.68 209.535,7462.82 209.034,7462.98C208.701,7463.08 208.371,7463.19 208.043,7463.3C207.63,7463.44 207.223,7463.59 206.822,7463.76C206.414,7463.93 206.013,7464.1 205.624,7464.32Z" style="fill:rgb(40,25,24);"/>
                        </g>
                        <g transform="matrix(0.997682,-0.0680477,0.0680477,0.997682,-505.133,-7198.13)">
                            <path d="M229.139,7461.17C228.793,7461.28 228.425,7461.08 228.318,7460.74C228.21,7460.39 228.404,7460.02 228.75,7459.91C229.626,7459.54 230.541,7459.2 231.511,7459.01C232.14,7458.89 232.786,7458.83 233.426,7458.81C236.083,7458.73 238.67,7459.25 240.5,7459.92C240.846,7460.02 241.039,7460.39 240.931,7460.74C240.822,7461.08 240.454,7461.28 240.108,7461.17C238.9,7460.86 237.369,7460.7 235.728,7460.68C234.653,7460.67 233.538,7460.76 232.425,7460.85C231.875,7460.9 231.328,7460.93 230.785,7460.98C230.224,7461.04 229.679,7461.07 229.139,7461.17Z" style="fill:rgb(40,25,24);"/>
                        </g>
                        <g transform="matrix(0.884502,-0.102282,0.102282,0.884502,-736.813,-6345.89)">
                            <path d="M208.731,7462.17C207.899,7463.54 210.459,7465.74 211.83,7465.31C213.743,7464.71 215.391,7460.48 212.24,7460.21C211.693,7460.16 211.117,7460.33 210.599,7460.48C210.007,7460.66 209.171,7461.73 208.731,7462.17Z" style="fill:rgb(40,25,24);"/>
                        </g>
                        <g transform="matrix(0.997682,-0.0680477,0.0680477,0.997682,-505.333,-7197.91)">
                            <path d="M235.242,7459.63C234.419,7459.37 233.217,7459.79 232.652,7460.66C231.976,7461.69 232.836,7464.02 234.181,7464.14C237.242,7464.42 238.742,7459.97 235.242,7459.63Z" style="fill:rgb(40,25,24);"/>
                        </g>
                    </g>
                    <g id="Nose" transform="matrix(1.15914,0.0420263,-0.0350919,1.38819,566.579,-10183.3)">
                        <path d="M223.577,7468.07C223.572,7467.78 223.806,7467.54 224.099,7467.53C224.391,7467.53 224.633,7467.76 224.637,7468.06C224.717,7468.99 224.835,7470.2 224.879,7471.38C224.901,7471.95 224.899,7472.52 224.888,7473.04C224.874,7473.7 224.83,7474.29 224.79,7474.73C224.743,7475.2 224.646,7476.19 224.658,7477.07C224.662,7477.38 224.675,7477.68 224.717,7477.93C224.74,7478.06 224.745,7478.18 224.796,7478.25C225.037,7478.58 225.313,7478.7 225.618,7478.67C226.304,7478.6 227.031,7478.1 227.654,7477.77C227.908,7477.63 228.232,7477.72 228.377,7477.97C228.522,7478.23 228.433,7478.55 228.178,7478.69C227.458,7479.14 226.602,7479.74 225.785,7479.89C225.067,7480.01 224.37,7479.82 223.743,7479.07C223.515,7478.8 223.347,7478.24 223.271,7477.56C223.156,7476.53 223.216,7475.19 223.244,7474.62C223.271,7474.19 223.274,7473.63 223.293,7473C223.308,7472.49 223.325,7471.93 223.355,7471.36C223.419,7470.19 223.526,7469 223.577,7468.07Z" style="fill:rgb(40,25,24);"/>
                    </g>
                    <g id="Mouth1" serif:id="Mouth" transform="matrix(1.15154,0.164152,-0.137067,1.37909,1334.85,-10143.7)">
                        <path d="M232.745,7482.79C232.692,7483.58 232.193,7485.2 232.077,7485.55C231.277,7487.89 230.271,7489.18 228.695,7490.63C227.186,7492.02 225.247,7492.76 223.439,7492.51C221.393,7492.22 219.162,7490.66 218.26,7490.03C217.135,7489.25 215.389,7486.96 215.35,7486.9C218.919,7488.28 224.215,7487.32 227.872,7485.81C229.855,7484.99 230.81,7484.09 232.745,7482.79Z" style="fill:white;"/>
                        <path d="M233.274,7482.83C233.262,7483.15 233.188,7483.59 233.093,7484.04C232.939,7484.77 232.727,7485.52 232.658,7485.74C232.283,7486.94 231.849,7487.88 231.319,7488.71C230.745,7489.61 230.054,7490.37 229.203,7491.18C228.409,7491.93 227.501,7492.51 226.549,7492.89C225.497,7493.3 224.391,7493.44 223.327,7493.3C222.521,7493.18 221.688,7492.89 220.908,7492.52C219.587,7491.91 218.421,7491.08 217.822,7490.66C217.41,7490.37 216.917,7489.9 216.451,7489.39C215.574,7488.43 214.777,7487.36 214.75,7487.32C214.567,7487.06 214.578,7486.71 214.776,7486.45C214.975,7486.2 215.314,7486.11 215.613,7486.23C217.322,7486.9 219.459,7487 221.603,7486.76C223.74,7486.53 225.885,7485.96 227.645,7485.25C228.417,7484.94 229.028,7484.62 229.605,7484.27C230.487,7483.72 231.295,7483.11 232.45,7482.35C232.618,7482.24 232.835,7482.23 233.01,7482.33C233.185,7482.44 233.287,7482.63 233.274,7482.83ZM231.924,7484.02C231.311,7484.47 230.778,7484.86 230.213,7485.23C229.593,7485.63 228.934,7486 228.1,7486.36C225.9,7487.29 223.114,7488.04 220.444,7488.22C219.38,7488.29 218.334,7488.27 217.347,7488.14C217.415,7488.21 217.484,7488.28 217.554,7488.36C217.947,7488.77 218.354,7489.16 218.698,7489.4C219.257,7489.78 220.344,7490.53 221.57,7491.09C222.211,7491.38 222.891,7491.63 223.551,7491.72C224.355,7491.84 225.188,7491.71 225.988,7491.42C226.77,7491.12 227.524,7490.67 228.187,7490.07C228.977,7489.38 229.621,7488.72 230.17,7487.94C230.676,7487.22 231.107,7486.4 231.496,7485.35C231.563,7485.17 231.754,7484.61 231.924,7484.02Z" style="fill:rgb(104,50,41);"/>
                    </g>
                </g>
            </g>
            <g transform="matrix(1,0,0,1.19761,-4097.44,-6998.99)">
                <path d="M4550.66,6063.77C4550.34,6061.37 4546.15,6043.61 4546.36,6041.19C4546.61,6038.25 4547.07,6034.96 4548.43,6032.3C4551.49,6026.26 4557.95,6022.77 4562.65,6018.15C4565.26,6015.58 4570.44,6009.03 4574.63,6010.21C4577.41,6010.99 4579.62,6013.39 4581.51,6015.45C4584.14,6018.31 4586.43,6021.44 4588.9,6024.42C4591.65,6027.73 4597.99,6032.42 4597.44,6039.55C4597.03,6044.78 4594.6,6049.01 4592.67,6055.98C4592.3,6057.29 4604.77,6043.96 4605.8,6040.8C4609.21,6030.25 4609.72,6016.11 4603.22,6006.61C4600.84,6003.14 4598.18,5999.92 4594.65,5997.59C4582.54,5989.61 4567.19,5990.29 4554.94,5995.08C4547.93,5997.82 4538.52,6005.96 4534.82,6012.91C4533.65,6015.12 4532.81,6017.47 4532.23,6019.91C4531.78,6021.82 4531.33,6023.83 4531.23,6025.79C4531.15,6027.34 4531.23,6028.9 4531.29,6030.44C4531.49,6035.6 4543.87,6062.61 4550.66,6063.77Z" style="fill:rgb(245,167,174);"/>
            </g>
            <g id="Girl-middle" serif:id="Girl middle" transform="matrix(2.87085,0,0,2.87085,-2679.35,-248.96)">
                <g id="Neck2" serif:id="Neck" transform="matrix(0.428446,3.45673e-17,-2.88637e-17,0.51311,1061.95,-3667.69)">
                    <path d="M208.731,7520.49C208.731,7520.49 213.72,7516.78 215.783,7513.67C217.845,7510.56 219.007,7501.89 218.567,7498.03C218.567,7498.03 234.843,7499.89 239.049,7490.74C239.049,7490.74 237.143,7506.95 239.615,7511.87C240.375,7513.39 243.475,7514.71 246.016,7515.2C249.764,7515.92 251.873,7516.27 251.873,7516.27C251.873,7516.27 250.545,7545.63 237.657,7546.26C224.769,7546.89 212.168,7541.28 208.731,7520.49Z" style="fill:rgb(147,91,65);"/>
                </g>
                <g transform="matrix(0.880622,0,0,1.08999,-3326.64,-4476.67)">
                    <path d="M5087.39,4424.57C5087.71,4419.72 5082.76,4419.18 5079.25,4419.72C5077.54,4419.98 5069.99,4423.53 5070.12,4425.76C5070.21,4427.4 5076.14,4426.35 5077.93,4426.47C5081.63,4426.7 5087.32,4425.71 5087.39,4424.57Z" style="fill:rgb(35,40,44);"/>
                </g>
                <g transform="matrix(-1.21182,0,0,1.04816,7333.86,-4293.19)">
                    <path d="M5087.39,4424.57C5085.82,4416.11 5082.76,4419.18 5079.25,4419.72C5077.54,4419.98 5072.5,4423.71 5072.62,4425.94C5072.72,4427.58 5074.79,4426.8 5076.8,4427.02C5080.43,4427.42 5087.6,4425.68 5087.39,4424.57Z" style="fill:rgb(35,40,44);"/>
                </g>
                <g id="Arm" transform="matrix(0.0140872,-0.414857,-0.346488,-0.0029888,3764.81,307.154)">
                    <path d="M170.648,7571.91L154,7585.3C154,7585.3 135.926,7572.16 125.417,7566.16C114.908,7560.16 109.056,7556.66 107.277,7553.49C105.499,7550.31 103.187,7544.02 100.788,7539.34C98.389,7534.65 96.143,7539.81 99.179,7548.25C99.179,7548.25 98.376,7552.22 89.123,7546.31C79.871,7540.4 76.045,7538.48 70.443,7538.79C64.841,7539.11 72.789,7542.99 74.695,7546.31C76.601,7549.62 92.279,7559.68 97.339,7561.14C102.398,7562.6 105.059,7565.73 109.535,7569.46C116.52,7575.28 139.575,7600.4 143.895,7603.32C148.215,7606.24 154.593,7612.33 161.483,7608.72C168.373,7605.1 192.168,7588.36 195.575,7587.75C198.983,7587.14 170.648,7571.91 170.648,7571.91Z" style="fill:rgb(147,91,65);"/>
                </g>
                <g transform="matrix(1.21844,0,0,1.73917,-5049.54,-7343.28)">
                    <path d="M5087.02,4359.94C5086.41,4363.94 5083.16,4369.69 5082.87,4373.71C5081.96,4386.03 5084.89,4394.5 5084.77,4401.8C5084.71,4405.36 5084.88,4417.77 5085.4,4418.4C5085.64,4418.16 5086.95,4418.57 5087.81,4418.64C5088.64,4418.7 5089.4,4418.69 5089.73,4418.57C5090.28,4418.35 5093.27,4403.72 5093.59,4401.41C5093.98,4398.54 5093.77,4395.2 5095.48,4383.59C5095.99,4380.07 5096.73,4377.83 5097.31,4379.81C5098.49,4383.75 5100.24,4388.96 5101.82,4395.28C5103.5,4402.02 5104.67,4417.82 5105.09,4417.92C5107.7,4418.58 5106.87,4417.96 5109.52,4417.92C5111.9,4417.89 5110.15,4406.59 5110.49,4398.89C5110.71,4393.9 5110.96,4386.15 5110.92,4379.62C5110.84,4367.92 5108.18,4368.44 5106.58,4359.28" style="fill:rgb(14,23,61);"/>
                </g>
                <g id="Arm1" serif:id="Arm" transform="matrix(-0.100221,-0.397474,0.334868,-0.106609,-1344.99,1091.92)">
                    <path d="M180.271,7578.32L158.22,7590.53C158.22,7590.53 136.59,7573.46 125.417,7566.16C115.276,7559.54 109.056,7556.66 107.277,7553.49C105.499,7550.31 106.034,7551.91 103.635,7547.22C101.236,7542.54 100.162,7546.92 99.179,7548.25C99.179,7548.25 98.376,7552.22 89.123,7546.31C79.871,7540.4 76.045,7538.48 70.443,7538.79C64.841,7539.11 72.789,7542.99 74.695,7546.31C76.601,7549.62 92.279,7559.68 97.339,7561.14C102.398,7562.6 105.059,7565.73 109.535,7569.46C116.52,7575.28 131.287,7590.62 136.217,7595.39C141.211,7600.22 148.401,7609.93 156.225,7609.15C164.048,7608.38 186.38,7602.47 189.815,7603.17C193.25,7603.86 180.271,7578.32 180.271,7578.32Z" style="fill:rgb(147,91,65);"/>
                </g>
                <g id="Tshirt" transform="matrix(0.380169,7.81066e-18,0,0.455293,1071.42,-3235.18)">
                    <path d="M217.19,7517.76C217.19,7517.76 206.681,7517.74 202.702,7518.47C199.391,7519.07 187.685,7529 182.083,7537.31C176.481,7545.61 173.126,7551.52 166.276,7560.43C164.073,7563.29 182.001,7589.97 185.059,7587.43C188.725,7584.39 187.797,7582.38 190.766,7580.65C190.766,7580.65 196.564,7599.22 197.971,7614.82C198.823,7624.27 198.499,7639.47 199.278,7647.14C199.278,7647.14 208.092,7648.8 215.021,7650.4C220.412,7651.65 228.87,7651.49 235.663,7651.32C242.455,7651.16 266.749,7652.38 268.516,7646.78C270.813,7639.52 268.516,7621.76 268.516,7616.23L268.516,7575.6L278.843,7582.85C278.843,7582.85 287.351,7581.2 292.482,7573.05C297.095,7565.74 297.984,7563.55 297.984,7563.55C297.984,7563.55 289.659,7551.6 285.569,7544.01C281.478,7536.42 271.304,7528.57 269.155,7527C267.006,7525.43 261.229,7519.85 253.172,7518.22C250.337,7517.64 245.445,7515.08 245.445,7515.08C245.445,7515.08 245.501,7520.31 237.683,7524.46C233.725,7526.57 227.261,7527.58 223.511,7524.98C217.234,7520.61 217.19,7517.76 217.19,7517.76Z" style="fill:rgb(58,174,163);"/>
                </g>
                <g id="Global-girl-logo2" serif:id="Global girl logo" transform="matrix(0.0895625,-0.00540326,0.00451171,0.107261,1152.46,200.47)">
                    <path d="M150.6,59.4C141.3,18.4 100.4,-7.4 59.4,1.9C18.4,11.2 -7.4,52 1.9,93C11.2,134 52.1,159.8 93.1,150.5C134,141.3 159.9,100.4 150.6,59.4ZM12.3,47.7C13.9,47 16.1,46.5 16.9,45.5C18.3,43.6 20,39.7 21.3,41C23.4,43 24.1,42.3 25.7,44.4C26.5,45.5 26.5,49 27.6,49.6C28.6,50.1 31.4,48.8 32.6,49.1C35.3,49.8 36.4,52.1 38.6,53.9C42,56.7 43.8,62.6 47.4,63.9C49.4,64.7 52,63.2 53,64.3C54.1,65.5 54,65.7 53.4,66.6C52.6,67.9 47.4,72.2 44,72.7C41.6,73.1 41.7,73 40.2,72.8C38.3,72.6 35.2,70.6 34.1,72C32.3,74.1 33.4,75.3 31.6,77.2C30,78.8 28.2,76.9 25.2,77.3C22.2,77.7 21.3,77.3 20.2,77.3C17.2,77.4 15.9,79.1 15.1,80.3C14.2,81.6 14.9,83.5 14.1,85C12.6,87.8 9.8,88.3 8.5,91.5C8.4,91.7 8.3,91.9 8.2,92.2C8,92.2 8,91.9 7.9,91.7C4.5,76.4 6.3,61.1 12.3,47.7ZM98.8,142.5C97.4,141.6 96.2,140.6 95.4,139.5C92.2,135.9 91.8,130.9 93,127.4C94.2,123.8 97.1,115 98.5,113.3C101.4,110 105.9,109.1 107,108.9C108.1,108.7 113.7,107.8 118.2,106.4C119.1,106.1 119.7,105.7 119.9,105.4C120.5,104.3 120.5,103.3 120.4,102.1C120.3,101 120,99.8 119.8,98.7C119.4,96.9 119.2,95.2 120.8,93.7C121.7,92.8 121.4,91.9 120.2,91.4C119.7,91.2 119.1,91 118.5,90.8C119.4,90 120.1,89.1 120.3,88C120.5,87.1 120.2,86.6 119.4,86.6C118.5,86.5 118.2,85.9 118.1,85.2C118,84.4 118.1,83.7 118.4,83C118.7,82.2 119.2,81.6 119.6,80.9C120,80.3 120.4,79.7 120.7,79.1C121.3,77.9 120.7,76.2 119.6,75.6C117,74.3 114.5,72.7 112,71.3C110.4,70.4 108.9,69.2 108,67.5C107.4,66.4 107.6,66.6 107.6,65.4C107.6,61.3 107.4,57.1 107,54.3C106.4,49.9 104.6,45.7 102.9,42.1C102.6,41.4 102,40.3 101.9,40.2C101.8,40.1 101.7,40.2 101.7,40.4C101.7,40.6 101.8,41.1 101.9,41.5C102.6,47.6 102,55 100.1,60.8C99.5,62 99.1,63 98.7,64C98.7,64.1 98.6,64.1 98.6,64.2C98.5,64.3 98.5,64.4 98.4,64.5C96.7,68.3 94.6,71.2 92.2,74.4C90,77.4 87.3,80 83,83.2C80.9,84.8 79.1,86.3 76.2,86.7C73.8,87 71.3,87.5 70.2,89.1C68.9,91 69.7,93.3 70.6,94.6C71.5,95.9 72.2,96.9 73.4,98.3C73.6,98.5 73.7,98.6 73.8,98.8C74,99 74.2,99.3 74.5,99.6C75.1,100.3 75.3,100.5 75.6,101.1C75.7,101.3 75.9,101.5 76,101.7C76.1,101.9 76.2,101.9 76.9,103.5C77.6,105 78.7,109.3 79.5,114.2C79.5,114.7 79.7,117.8 79.7,117.9C79.7,118 79.5,118 79.5,117.9C79.4,117.8 78.2,114.2 76.7,111.5C76.3,110.7 75.7,109.8 75,108.8C74.7,109.2 74.5,109.6 74.2,109.9C74.1,110 74.1,110.1 74,110.2C73.9,110.4 73.7,110.7 73.6,111C71.8,114.1 69.2,117.5 66.1,121.5C64.1,124 62.3,126.6 60.1,129.6C58.9,131.2 58.2,131.9 55.4,135.2C53.4,137.6 51.3,139.8 50,141.1C42.6,138.1 35.7,133.8 29.7,128.4C31.2,125.3 32,122.2 31.3,121.5C28.7,118.8 28.3,118.1 30.2,115.9C31.5,114.4 31.9,105.8 33.6,103.1C35.5,100.1 36.9,99.7 37,96.4C37.1,93.5 34.2,93 33,90.6C32.2,88.9 32.6,88.4 32.1,86.5C32,86.2 32,85.7 32,85.2C32,83.3 36.3,79.3 38.1,78.1C42,75.6 51.6,77.4 57,76.3C59.9,75.7 59.3,75.2 60.3,72C61.1,69.5 61.7,68.4 62.2,65.8C62.7,63.2 62.7,61.9 63.1,59.4C63.9,54 62.9,50.5 64.2,52.3C64.2,52.3 65.4,54.8 65.6,56.5C65.7,57.5 65.8,58.4 65.8,59.1C65.8,59.5 66.2,59.7 66.5,59.5C66.8,59.3 67.1,58.7 67.7,57.2C68,56.5 69.5,53.2 70.1,50.7C70.7,48.2 70.9,42.9 70.8,40.9C70.7,37 71.1,34.8 69.7,31.1L69.7,31.2C68.4,27.7 67.6,26.9 65.6,23.3C63.5,19.5 59.1,16.1 61,15.9C62.3,15.7 62.9,16.4 66.4,17.8C67.6,18.3 67.8,16 69.4,15C70.9,14.1 72.7,15.2 73.4,13.7C74.6,11.1 74.4,8.9 74.3,7.2C74.3,7 74.3,6.7 74.2,6.5C88.2,6.1 101.7,10 113.2,17.1C112.9,19.1 111,24.3 110.6,27.3C110.4,28.6 109.9,32.3 111.4,33.4C112.1,33.9 113.3,32.4 114.5,33.1C116.1,34 119.5,37.1 120.9,38.2C124.5,41.1 125.5,39.1 125,36.4C124.6,34 126,33.1 126.8,35.6C127.6,38.2 127,40 127.5,41.3C128.4,43.6 133.5,42.4 135.4,45.2C137.1,47.6 136.6,48.5 137.4,51C138.3,54.2 138.2,54.4 139.7,56.4C141.9,59.4 141,64.4 143.2,65.3C143.8,65.5 144.6,65.5 145.4,65.1C150.9,98.7 131,131.6 98.8,142.5Z" style="fill:white;fill-rule:nonzero;"/>
                </g>
                <g id="Face-3" serif:id="Face 3" transform="matrix(0.354253,0.0969447,-0.0675919,0.354253,798.947,-2.83925)">
                    <g id="Face1" serif:id="Face" transform="matrix(0.991241,-0.0645099,0.0538656,1.18712,430.306,-8649.98)">
                        <path d="M213.39,7426.31C213.39,7426.31 187.366,7443.43 193.381,7466.8C193.383,7466.81 201.675,7490.89 223.716,7500.46C231.095,7503.66 237.594,7497.77 241.455,7493.71C248.054,7486.77 251.298,7476.8 252.963,7467.34C255.488,7453 250.41,7433.78 238,7427.71C225.591,7421.64 216.125,7425.67 213.39,7426.31Z" style="fill:rgb(165,102,73);"/>
                    </g>
                    <g id="Mouth2" serif:id="Mouth" transform="matrix(0.80256,-0.025048,0.0179636,0.825521,746.562,-5949.63)">
                        <path d="M232.745,7482.79C232.692,7483.58 232.193,7485.2 232.077,7485.55C231.277,7487.89 230.271,7489.18 228.695,7490.63C227.186,7492.02 225.247,7492.76 223.439,7492.51C221.393,7492.22 219.162,7490.66 218.26,7490.03C217.135,7489.25 215.389,7486.96 215.35,7486.9C218.919,7488.28 224.215,7487.32 227.872,7485.81C229.855,7484.99 230.81,7484.09 232.745,7482.79Z" style="fill:white;"/>
                        <path d="M233.392,7482.85C233.381,7483.19 233.303,7483.65 233.204,7484.13C233.051,7484.88 232.837,7485.64 232.767,7485.86C232.378,7487.13 231.922,7488.11 231.365,7488.98C230.791,7489.88 230.101,7490.64 229.257,7491.45C228.438,7492.24 227.498,7492.84 226.514,7493.23C225.47,7493.63 224.376,7493.78 223.321,7493.64C222.519,7493.52 221.691,7493.23 220.913,7492.87C219.571,7492.24 218.384,7491.4 217.777,7490.97C217.359,7490.67 216.861,7490.2 216.388,7489.68C215.494,7488.7 214.677,7487.6 214.649,7487.56C214.399,7487.2 214.384,7486.69 214.611,7486.31C214.838,7485.93 215.254,7485.77 215.633,7485.91C217.33,7486.6 219.451,7486.7 221.581,7486.48C223.719,7486.25 225.867,7485.7 227.628,7485C228.388,7484.7 228.99,7484.39 229.559,7484.05C230.449,7483.51 231.259,7482.89 232.422,7482.14C232.63,7482 232.888,7482.01 233.092,7482.15C233.295,7482.3 233.411,7482.57 233.392,7482.85ZM218.067,7488.52C218.304,7488.74 218.535,7488.95 218.744,7489.09C219.302,7489.47 220.394,7490.22 221.623,7490.77C222.25,7491.06 222.913,7491.29 223.557,7491.38C224.339,7491.5 225.15,7491.39 225.931,7491.11C226.713,7490.83 227.469,7490.39 228.133,7489.8C228.895,7489.13 229.52,7488.51 230.055,7487.77C230.563,7487.07 230.997,7486.27 231.386,7485.23C231.431,7485.11 231.533,7484.82 231.647,7484.47C231.151,7484.83 230.699,7485.16 230.223,7485.48C229.604,7485.88 228.947,7486.25 228.116,7486.61C225.909,7487.56 223.113,7488.32 220.433,7488.51C219.628,7488.57 218.833,7488.57 218.067,7488.52Z" style="fill:rgb(104,50,41);"/>
                    </g>
                    <g id="Eyes2" serif:id="Eyes" transform="matrix(0.952751,-0.17955,0.149924,1.14102,809.793,-33.4364)">
                        <g transform="matrix(1.11802,0.0799595,-0.140976,1.35018,1023.81,-9854.38)">
                            <path d="M205.599,7463.99C205.473,7464.16 205.206,7464.2 205.001,7464.1C204.797,7463.99 204.732,7463.77 204.857,7463.6C205.033,7463.11 205.242,7462.67 205.561,7462.23C205.874,7461.8 206.283,7461.43 206.738,7461.1C207.103,7460.83 207.517,7460.61 207.951,7460.43C208.611,7460.15 209.326,7459.96 210.055,7459.86C212.381,7459.55 214.848,7460 216.821,7461.61C217.009,7461.74 217.042,7461.97 216.893,7462.12C216.745,7462.27 216.472,7462.29 216.283,7462.16C214.797,7461.34 213.223,7461.16 211.726,7461.35C211.053,7461.44 210.417,7461.63 209.793,7461.86C209.383,7462.01 208.996,7462.2 208.602,7462.38C208.095,7462.62 207.599,7462.85 207.116,7463.11C206.583,7463.41 206.065,7463.63 205.599,7463.99Z" style="fill:rgb(35,40,44);"/>
                        </g>
                        <g transform="matrix(1.00869,0.0993565,-0.107583,1.11158,801.866,-8080.12)">
                            <path d="M240.653,7460.24C240.835,7460.42 240.826,7460.69 240.634,7460.86C240.442,7461.02 240.137,7461.02 239.955,7460.84C239.634,7460.66 239.074,7460.58 238.332,7460.42C237.944,7460.34 237.528,7460.27 237.069,7460.19C236.673,7460.12 236.256,7460.06 235.822,7459.99C235.295,7459.91 234.747,7459.82 234.179,7459.77C233.38,7459.71 232.555,7459.68 231.722,7459.81C230.05,7460.07 228.377,7460.79 226.973,7462.4C226.829,7462.6 226.531,7462.66 226.309,7462.53C226.087,7462.4 226.024,7462.13 226.168,7461.93C227.807,7459.11 230.366,7457.92 232.899,7457.57C233.782,7457.45 234.666,7457.45 235.503,7457.55C236.09,7457.62 236.656,7457.74 237.173,7457.91C237.909,7458.16 238.554,7458.45 239.079,7458.8C239.9,7459.34 240.41,7459.85 240.653,7460.24Z" style="fill:rgb(35,40,44);"/>
                        </g>
                        <g transform="matrix(0.887927,0.565378,-0.73554,0.989359,5508.62,-7263.99)">
                            <path d="M208.731,7462.17C207.899,7463.54 209.962,7464.92 211.332,7464.49C213.245,7463.89 215.233,7461.65 212.24,7460.21C211.749,7459.97 211.117,7460.33 210.599,7460.48C210.007,7460.66 209.171,7461.73 208.731,7462.17Z" style="fill:rgb(35,40,44);"/>
                        </g>
                        <g transform="matrix(1.14464,-0.0715885,0.0520158,0.841827,-422.441,-6028.82)">
                            <path d="M235.242,7459.63C234.419,7459.37 233.217,7459.79 232.652,7460.66C231.976,7461.69 233.001,7464.69 234.346,7464.81C237.407,7465.09 238.742,7459.97 235.242,7459.63Z" style="fill:rgb(35,40,44);"/>
                        </g>
                    </g>
                    <g id="Nose1" serif:id="Nose" transform="matrix(1.51947,-0.00964506,0.00413844,0.935088,684.116,-6775.2)">
                        <path d="M223.654,7468.09C223.647,7467.6 223.844,7467.2 224.093,7467.18C224.343,7467.17 224.552,7467.55 224.559,7468.04C224.632,7469.16 224.735,7470.67 224.757,7472.07C224.774,7473.16 224.731,7474.18 224.687,7474.87C224.66,7475.18 224.612,7475.76 224.596,7476.37C224.587,7476.7 224.582,7477.05 224.606,7477.35C224.616,7477.49 224.645,7477.71 224.645,7477.71C224.645,7477.71 224.619,7477.68 224.608,7477.66C224.92,7478.1 225.29,7478.22 225.677,7478.2C226.39,7478.15 227.145,7477.69 227.789,7477.39C228.029,7477.25 228.28,7477.52 228.35,7477.99C228.421,7478.45 228.283,7478.94 228.043,7479.08C227.352,7479.54 226.542,7480.17 225.76,7480.35C225.111,7480.5 224.487,7480.31 223.931,7479.66C223.644,7479.32 223.444,7478.65 223.349,7477.81C223.221,7476.67 223.306,7475.14 223.347,7474.48L223.654,7468.09Z" style="fill:rgb(35,40,44);"/>
                    </g>
                </g>
                <g id="Hair-2" serif:id="Hair 2" transform="matrix(0.274306,-0.0248781,0.0217614,0.344139,1176.58,218.096)">
                    <path d="M0,-174.775C-1.823,-189.561 -14.007,-205.483 -30.967,-203.675C-32.259,-203.537 -32.784,-201.738 -33.951,-201.168C-39.211,-202.931 -44.975,-203.729 -51.116,-203.319C-51.116,-203.319 -51.09,-203.112 -51.041,-202.761C-57.9,-201.447 -68.575,-199.944 -74.615,-196.248C-82.391,-191.49 -85.059,-184.523 -89.814,-177.336C-91.588,-174.654 -93.987,-172.361 -95.406,-169.476C-101.451,-157.184 -97.143,-142.457 -94.154,-130.146C-91.92,-120.942 -84.798,-114.819 -78.883,-107.924C-77.046,-105.782 -73.86,-100.409 -70.321,-100.001C-67.28,-99.65 -68.447,-106.38 -68.52,-106.476C-76.126,-116.461 -77.318,-116.092 -82.04,-126.472C-85.738,-134.603 -82.654,-143.479 -80.186,-149.849C-79.265,-152.224 -78.369,-155.871 -76.311,-157.661C-70.677,-162.559 -49.169,-170.92 -42.509,-174.234C-40.066,-175.449 -36.496,-169.588 -29.119,-160.041C-24.078,-153.518 -19.389,-147.382 -17.124,-139.888C-15.799,-129.701 -26.971,-114.901 -37.157,-106.485C-38.142,-103.067 -38.258,-94.662 -34.61,-91.933C-30.976,-89.214 -24.985,-92.111 -24.424,-86.19C-22.156,-78.694 -25.289,-69.928 -24.991,-62.421C-24.777,-57.035 -21.883,-57.443 -23.027,-52.203C-25.091,-42.75 -28.134,-43.748 -28.745,-33.882C-28.963,-30.352 -28.656,-26.769 -27.97,-23.3C-27.386,-20.344 -24.233,-17.976 -24.098,-14.808C-23.944,-11.199 -25.298,-7.635 -25.17,-4.025C-25.035,-0.233 -22.459,3.204 -22.312,6.996C-22.079,13.031 -24.597,19.023 -19.714,24.182C-17.969,26.026 -15.923,25.554 -14.551,23.656C-11.654,19.645 -9.634,8.53 -9.759,3.942C-9.872,-0.236 -11.009,-4.333 -11.968,-8.401C-12.519,-10.741 -14.805,-13.529 -14.342,-16.192C-6.807,-24.122 -3.709,-37.977 -13.228,-46.078C-4.249,-56.323 -6.269,-64.979 -5.729,-77.254C-5.579,-80.671 -2.499,-83.644 -2.701,-87.058C-3.23,-95.974 -15.091,-95.529 -10.543,-103.779C-6.258,-111.55 -0.143,-123.138 1.008,-129.24C3.467,-142.27 1.634,-161.509 0,-174.775" style="fill:rgb(35,40,44);fill-rule:nonzero;"/>
                </g>
            </g>
        </g>
        <g transform="matrix(0.897413,0.0978085,-0.0978085,0.897413,4038.5,-651.831)">
            <path d="M631.541,7352.91C631.019,7353.31 630.269,7353.21 629.867,7352.69C629.466,7352.17 629.563,7351.42 630.085,7351.02C632.164,7349.26 634.245,7347.69 636.355,7346.31C638.638,7344.82 640.938,7343.55 643.239,7342.48C645.201,7341.56 647.168,7340.8 649.121,7340.16C652.241,7339.14 655.331,7338.45 658.348,7337.99C670.34,7336.18 681.215,7338.17 689.367,7340.25C690.007,7340.4 690.404,7341.05 690.252,7341.69C690.099,7342.33 689.456,7342.73 688.815,7342.57C680.906,7340.83 670.397,7339.32 658.901,7341.36C656.067,7341.86 653.178,7342.59 650.236,7343.56C648.396,7344.16 646.538,7344.86 644.658,7345.66C642.441,7346.6 640.2,7347.68 637.938,7348.94C635.822,7350.11 633.679,7351.41 631.541,7352.91Z" style="fill:rgb(247,147,31);"/>
        </g>
        <g id="Step-1c" serif:id="Step 1c">
        </g>
        <g id="Step-1a-thumbnail" serif:id="Step 1a thumbnail">
        </g>
        <g id="Step-2-thumbnail" serif:id="Step 2 thumbnail">
        </g>
        <g id="Global-girl-globe" serif:id="Global girl globe">
        </g>
        <g id="Step-2-thumbnail1" serif:id="Step 2 thumbnail">
        </g>
        <g id="Global-girl-globe1" serif:id="Global girl globe">
        </g>
        <g id="Step-2-thumbnail2" serif:id="Step 2 thumbnail">
        </g>
        <g id="Previous-illustrations" serif:id="Previous illustrations">
        </g>
    </g>
</svg>
