<svg width="635" height="635" viewBox="0 0 635 635" fill="none" xmlns="http://www.w3.org/2000/svg">
<g clip-path="url(#clip0_24_813)">
<path d="M626.108 247.601C587.444 77.1482 417.407 -30.1121 246.955 8.55152C76.5024 47.2151 -30.7579 216.836 7.90567 387.289C46.5693 557.741 216.606 665.001 387.058 626.338C557.095 588.09 664.771 418.053 626.108 247.601ZM51.1424 198.959C57.7942 196.049 66.9404 193.971 70.2663 189.813C76.0867 181.914 83.1542 165.7 88.5588 171.105C97.2893 179.42 100.199 176.51 106.851 185.24C110.177 189.813 110.177 204.364 114.75 206.858C118.908 208.937 130.548 203.533 135.537 204.78C146.762 207.69 151.335 217.252 160.481 224.735C174.616 236.376 182.1 260.904 197.066 266.309C205.381 269.635 216.19 263.399 220.348 267.972C224.921 272.961 224.505 273.792 222.011 277.534C218.685 282.938 197.066 300.815 182.931 302.894C172.954 304.557 173.369 304.141 167.133 303.31C159.234 302.478 146.346 294.163 141.773 299.984C134.29 308.714 138.863 313.703 131.38 321.602C124.728 328.254 117.245 320.355 104.773 322.018C92.3004 323.681 88.5588 322.018 83.9857 322.018C71.5135 322.434 66.109 329.501 62.7831 334.49C59.0414 339.895 61.9516 347.794 58.6257 354.03C52.3896 365.67 40.749 367.749 35.3444 381.053C34.9286 381.884 34.5129 382.715 34.0971 383.963C33.2657 383.963 33.2657 382.715 32.8499 381.884C18.7149 318.276 26.1981 254.668 51.1424 198.959ZM410.756 593.079C404.935 589.337 399.946 585.18 396.62 580.607C383.317 565.64 381.654 544.853 386.643 530.302C391.632 515.336 403.688 478.751 409.508 471.683C421.565 457.964 440.273 454.222 444.846 453.391C449.419 452.559 472.7 448.818 491.409 442.997C495.15 441.75 497.645 440.087 498.476 438.84C500.971 434.267 500.971 430.11 500.555 425.121C500.139 420.548 498.892 415.559 498.06 410.986C496.398 403.502 495.566 396.435 502.218 390.199C505.959 386.457 504.712 382.715 499.723 380.637C497.645 379.805 495.15 378.974 492.656 378.142C496.398 374.816 499.308 371.075 500.139 366.502C500.971 362.76 499.723 360.681 496.398 360.681C492.656 360.266 491.409 357.771 490.993 354.861C490.577 351.535 490.993 348.625 492.24 345.715C493.487 342.389 495.566 339.895 497.229 336.984C498.892 334.49 500.555 331.995 501.802 329.501C504.297 324.512 501.802 317.445 497.229 314.95C486.42 309.546 476.026 302.894 465.633 297.074C458.981 293.332 452.745 288.343 449.003 281.275C446.509 276.702 447.34 277.534 447.34 272.545C447.34 255.5 446.509 238.039 444.846 226.398C442.352 208.106 434.868 190.645 427.801 175.678C426.554 172.768 424.059 168.195 423.643 167.779C423.228 167.363 422.812 167.779 422.812 168.611C422.812 169.442 423.228 171.521 423.643 173.184C426.554 198.544 424.059 229.308 416.16 253.421C413.666 258.41 412.003 262.567 410.34 266.725C410.34 267.14 409.924 267.14 409.924 267.556C409.508 267.972 409.508 268.388 409.093 268.803C402.025 284.601 393.295 296.658 383.317 309.961C374.171 322.434 362.946 333.243 345.069 346.546C336.338 353.198 328.855 359.434 316.799 361.097C306.821 362.344 296.428 364.423 291.855 371.075C286.45 378.974 289.776 388.536 293.517 393.94C297.259 399.345 300.169 403.502 305.158 409.323C305.99 410.154 306.405 410.57 306.821 411.401C307.653 412.233 308.484 413.48 309.731 414.727C312.226 417.637 313.057 418.469 314.304 420.963C314.72 421.795 315.552 422.626 315.967 423.458C316.383 424.289 316.799 424.289 319.709 430.941C322.619 437.177 327.192 455.054 330.518 475.425C330.518 477.504 331.35 490.392 331.35 490.807C331.35 491.223 330.518 491.223 330.518 490.807C330.102 490.392 325.114 475.425 318.878 464.2C317.215 460.874 314.72 457.133 311.81 452.975C310.563 454.638 309.731 456.301 308.484 457.548C308.068 457.964 308.068 458.38 307.653 458.795C307.237 459.627 306.405 460.874 305.99 462.121C298.506 475.009 287.697 489.144 274.809 505.774C266.495 516.167 259.011 526.976 249.865 539.449C244.876 546.1 241.966 549.011 230.325 562.73C222.011 572.708 213.28 581.854 207.876 587.258C177.111 574.786 148.425 556.91 123.481 534.46C129.717 521.572 133.043 508.684 130.133 505.774C119.323 494.549 117.66 491.639 125.559 482.493C130.964 476.256 132.627 440.503 139.695 429.278C147.594 416.806 153.414 415.143 153.83 401.424C154.245 389.367 142.189 387.289 137.2 377.311C133.874 370.243 135.537 368.165 133.458 360.266C133.043 359.018 133.043 356.94 133.043 354.861C133.043 346.962 150.919 330.333 158.403 325.344C174.616 314.95 214.527 322.434 236.977 317.86C249.034 315.366 246.539 313.287 250.696 299.984C254.022 289.59 256.517 285.017 258.596 274.208C260.674 263.399 260.674 257.994 262.337 247.601C265.663 225.151 261.506 210.6 266.91 218.083C266.91 218.083 271.899 228.477 272.731 235.544C273.146 239.702 273.562 243.443 273.562 246.353C273.562 248.016 275.225 248.848 276.472 248.016C277.719 247.185 278.967 244.691 281.461 238.454C282.708 235.544 288.944 221.825 291.439 211.432C293.933 201.038 294.765 179.004 294.349 170.689C293.933 154.475 295.596 145.329 289.776 129.947V130.363C284.371 115.812 281.045 112.486 272.731 97.5194C264 81.7214 245.708 67.5863 253.607 66.7548C259.011 65.9233 261.506 68.8335 276.057 74.6538C281.045 76.7325 281.877 67.1705 288.529 63.0132C294.765 59.2715 302.248 63.8446 305.158 57.6086C310.147 46.7994 309.316 37.6532 308.9 30.5856C308.9 29.7541 308.9 28.5069 308.484 27.6755C366.687 26.0125 422.812 42.2263 470.622 71.7437C469.375 80.0584 461.476 101.677 459.813 114.149C458.981 119.553 456.902 134.936 463.138 139.509C466.049 141.588 471.038 135.352 476.026 138.262C482.678 142.003 496.813 154.891 502.634 159.464C517.6 171.521 521.758 163.206 519.679 151.981C518.016 142.003 523.836 138.262 527.162 148.655C530.488 159.464 527.994 166.948 530.072 172.352C533.814 181.914 555.016 176.925 562.915 188.566C569.983 198.544 567.904 202.285 571.23 212.679C574.972 225.982 574.556 226.814 580.792 235.129C589.938 247.601 586.197 268.388 595.343 272.129C597.837 272.961 601.163 272.961 604.489 271.298C627.355 410.986 544.623 547.763 410.756 593.079Z" fill="#29A49A"/>
</g>
<defs>
<clipPath id="clip0_24_813">
<rect width="634" height="634" fill="white" transform="translate(0.0065918 0.652466)"/>
</clipPath>
</defs>
</svg>
